<?xml version="1.0" encoding="UTF-8" standalone="no"?>
<!-- Created with Inkscape (http://www.inkscape.org/) -->
<svg
   xmlns:svg="http://www.w3.org/2000/svg"
   xmlns="http://www.w3.org/2000/svg"
   version="1.0"
   width="481.53516"
   height="588.71289"
   viewBox="0 0 481.53516 588.71289"
   id="svg2288"
   xml:space="preserve"><defs
   id="defs2332" />
	
		<g
   transform="matrix(0.9773597,0,0,0.9773597,6,13.328624)"
   id="Ebene_2">
			<path
   d="M 468.08008,23.813965 C 469.17969,23.813965 470.28027,23.813965 471.37988,23.713867 C 469.97949,40.513672 469.58008,57.413574 467.67969,74.213867 C 466.37988,81.413574 465.78027,89.513672 460.87988,95.413574 C 456.37988,100.01367 450.67969,103.31396 445.08008,106.31396 C 450.97949,108.41357 456.87988,110.71387 462.47949,113.51367 C 455.47949,112.51367 448.47949,111.21387 441.47949,110.01367 C 440.67969,123.21387 440.58008,136.91357 436.08008,149.51367 C 432.37988,160.01367 421.2793,165.31396 411.28027,168.41357 C 417.08008,170.21387 422.7793,172.31396 428.58008,174.31396 C 422.08008,173.91357 415.58008,173.31396 409.17969,172.71387 C 407.67969,186.71387 407.7793,201.11377 402.97949,214.51367 C 399.78027,222.91357 391.58008,227.11377 383.97949,230.61377 C 388.87988,232.91357 393.67969,235.21387 398.47949,237.61377 C 392.08008,236.81396 385.67969,235.71387 379.17969,234.71387 C 373.97949,276.41357 369.97949,318.31445 363.37988,359.91406 C 358.97949,387.31445 354.47949,414.91406 344.47949,440.91406 C 339.08008,455.61328 331.17969,469.51367 320.08008,480.61328 C 301.37988,499.91406 276.17969,510.51367 252.58008,522.31445 C 259.47949,526.01367 266.58008,529.11328 273.67969,532.51367 C 265.08008,531.61328 256.58008,530.31445 248.17969,528.91406 C 248.17969,548.81445 248.08008,568.71289 248.17969,588.71289 L 245.17969,588.71289 C 245.17969,559.41406 245.28027,530.11328 245.17969,500.81445 C 237.37988,502.11328 229.57959,503.21289 221.67969,503.61328 C 228.77979,500.41406 235.77979,497.21289 242.47998,493.41406 C 223.67969,486.31445 203.17969,481.01367 188.07959,466.91406 C 174.87988,453.31445 170.07959,434.41406 167.57959,416.21289 C 164.27979,390.91406 163.27979,365.41406 163.07959,339.91406 C 158.77979,341.71289 154.37988,343.31445 149.87988,344.71289 C 153.17969,341.81445 156.67969,338.91406 160.17969,336.11328 C 152.37988,333.71289 144.27979,331.81445 137.27979,327.61328 C 124.57959,321.31445 117.27979,308.11328 112.47998,295.41406 C 102.67969,269.11377 96.179688,241.91357 88.979981,214.81396 C 84.07959,216.71387 79.179688,218.61377 74.179688,220.11377 C 77.179688,217.11377 80.07959,214.21387 83.07959,211.21387 C 75.679688,207.51367 67.779785,203.81396 62.879883,197.01367 C 56.07959,186.91357 54.57959,174.61377 51.979981,163.01367 C 46.679688,165.31396 41.379883,167.61377 35.979981,169.71387 C 39.879883,166.41357 44.07959,163.31396 48.179688,160.31396 C 43.379883,157.31396 38.479981,154.41357 34.479981,150.41357 C 26.979981,143.51367 24.679688,133.11377 22.179688,123.61377 C 17.679688,104.91357 14.479981,85.813965 10.979981,66.813965 C 11.779785,67.013672 13.379883,67.313965 14.179688,67.413574 C 19.57959,91.413574 21.679688,116.31396 30.479981,139.41357 C 33.779785,148.61377 42.57959,153.71387 51.07959,157.41357 C 49.479981,145.51367 47.479981,133.61377 45.879883,121.71387 C 46.979981,121.81396 48.07959,121.81396 49.179688,121.91357 C 51.679688,137.71387 53.679688,153.61377 56.57959,169.31396 C 58.479981,178.51367 60.279785,188.21387 65.979981,195.91357 C 71.379883,202.71387 79.57959,205.91357 87.279785,209.31396 C 85.879883,203.21387 84.379883,197.21387 82.979981,191.11377 C 83.779785,191.11377 85.279785,191.01367 86.07959,191.01367 C 88.479981,201.11377 91.179688,211.21387 93.879883,221.31396 C 98.279785,215.51367 103.07959,209.51367 104.77979,202.31396 C 108.77979,184.91357 107.97998,166.81396 108.17969,149.11377 C 108.87988,149.01367 110.37988,148.81396 111.17969,148.81396 C 110.87988,166.91357 111.37988,185.41357 107.57959,203.31396 C 106.17969,210.21387 101.57959,215.81396 97.979981,221.61377 C 102.47998,222.51367 106.97998,223.41357 111.47998,224.31396 C 106.07959,224.91357 100.67969,225.51367 95.179688,226.01367 C 101.67969,250.21387 107.57959,274.71387 116.87988,298.01367 C 120.27979,305.21289 123.47998,312.91406 129.47998,318.31445 C 138.17969,327.21289 150.67969,330.01367 162.17969,333.21289 C 162.17969,321.11328 162.07959,308.91406 161.87988,296.81445 C 156.87988,298.11328 151.87988,299.41406 146.87988,300.71289 C 150.57959,298.11328 154.37988,295.81445 158.17969,293.31445 C 149.97998,291.51367 139.87988,289.41406 135.77979,281.11377 C 129.87988,267.51367 129.07959,252.51367 126.97998,238.11377 C 127.77979,238.01367 129.27979,237.91357 129.97998,237.81396 C 132.37988,250.81396 133.07959,264.11377 137.17969,276.71387 C 140.27979,287.01367 152.17969,288.81445 161.17969,290.91406 C 161.07959,285.21387 161.07959,279.41357 161.07959,273.71387 C 162.17969,273.81396 163.17969,273.81396 164.27979,273.81396 C 164.27979,285.51367 164.77979,297.11328 165.17969,308.71289 C 172.67969,306.51367 181.67969,304.71289 185.17969,296.71289 C 191.57959,280.21387 194.17969,262.31396 195.37988,244.71387 C 196.47998,244.11377 197.47998,243.61377 198.57959,243.11377 C 196.87988,260.81396 195.07959,278.81396 189.07959,295.71289 C 186.17969,305.11328 176.17969,309.01367 167.57959,311.21289 C 171.27979,313.91406 174.77979,316.91406 178.27979,319.81445 C 173.87988,317.91406 169.47998,315.81445 165.07959,313.81445 C 166.47998,351.61328 166.07959,389.71289 172.77979,427.11328 C 175.57959,442.51367 181.77979,458.51367 194.37988,468.51367 C 209.77979,478.71289 227.27979,485.71289 245.08008,490.11328 C 245.17969,475.61328 245.17969,461.11328 245.17969,446.71289 C 237.37988,447.91406 229.57959,449.11328 221.77979,449.61328 C 227.57959,446.61328 233.57959,444.21289 239.47998,441.41406 C 232.97998,439.11328 226.47998,436.31445 221.47998,431.41406 C 215.97998,424.71289 214.87988,415.81445 213.37988,407.51367 C 211.57959,391.71289 210.37988,375.81445 208.97998,359.91406 C 209.97998,359.81445 211.07959,359.71289 212.17969,359.51367 C 214.77979,381.11328 214.17969,403.41406 220.67969,424.31445 C 224.57959,434.11328 236.07959,436.51367 245.08008,439.31445 C 245.17969,426.31445 245.17969,413.21289 245.08008,400.11328 C 246.17969,399.81445 247.28027,399.51367 248.37988,399.11328 C 248.37988,403.51367 248.37988,407.81445 248.37988,412.11328 C 254.97949,409.51367 262.08008,407.71289 267.67969,403.21289 C 275.58008,394.11328 275.28027,381.21289 278.17969,370.11328 C 278.97949,370.11328 280.47949,369.91406 281.28027,369.81445 C 279.17969,379.71289 278.28027,390.21289 274.08008,399.61328 C 269.67969,408.41406 259.7793,411.41406 251.17969,414.31445 C 257.87988,417.71289 264.78027,420.91406 271.47949,424.41406 C 263.67969,423.51367 255.97949,422.31445 248.17969,421.41406 C 248.17969,435.41406 248.17969,449.31445 248.28027,463.31445 C 258.78027,460.11328 268.97949,455.71289 278.08008,449.51367 C 289.2793,441.71289 294.47949,428.41406 298.17969,415.81445 C 304.7793,390.31445 307.97949,365.07422 311.67969,339.07422 C 308.08008,338.875 291.11816,339.75977 291.11816,339.75977 C 291.11816,339.75977 305.67969,335.41406 308.08008,334.41406 C 302.7793,332.71289 294.97949,332.21289 292.67969,326.11328 C 287.47949,310.91406 289.58008,294.41406 288.78027,278.61377 C 289.97949,278.31396 291.17969,278.01367 292.2793,277.71387 C 292.97949,292.91406 290.37988,309.01367 295.37988,323.61328 C 297.58008,331.21289 306.58008,330.41406 312.67969,331.91406 C 314.58008,317.31445 316.58008,302.71289 318.2793,288.11328 C 318.97949,288.01367 320.47949,287.91406 321.17969,287.81445 C 319.58008,299.91406 317.97949,312.01367 316.97949,324.21289 C 321.97949,323.41406 327.08008,323.11328 331.97949,321.51367 C 337.2793,317.91406 338.28027,310.91406 339.67969,305.11328 C 343.47949,286.01367 345.58008,266.51367 348.17969,247.21387 C 349.2793,246.81396 350.37988,246.51367 351.47949,246.11377 C 348.17969,266.11377 346.2793,286.21387 342.67969,306.11328 C 341.67969,312.71289 339.17969,319.21289 334.2793,323.81445 C 330.2793,326.11328 325.2793,326.11328 320.87988,327.21289 C 322.37988,328.91406 338.57324,337.11328 338.57324,337.11328 C 338.57324,337.11328 318.53027,332.82422 315.42969,331.82422 C 311.42969,357.92383 309.08008,382.11328 303.37988,407.81445 C 300.67969,419.91406 296.87988,432.11328 289.67969,442.31445 C 280.67969,454.41406 266.37988,459.91406 252.97949,465.51367 C 259.37988,468.61328 265.97949,471.51367 272.37988,474.51367 C 264.37988,473.71289 256.28027,472.61328 248.17969,471.71289 C 248.17969,487.81445 248.08008,503.91406 248.28027,520.01367 C 266.67969,512.71289 284.47949,503.61328 301.08008,492.61328 C 319.47949,480.81445 332.87988,462.41406 340.58008,442.11328 C 351.37988,415.01367 356.08008,386.01367 360.87988,357.41406 C 368.87988,304.01367 374.58008,250.31396 380.17969,196.61377 C 373.7793,197.61377 367.37988,198.61377 360.87988,199.51367 C 365.87988,197.31396 370.97949,195.41357 376.08008,193.51367 C 367.87988,189.91357 357.97949,186.21387 355.37988,176.51367 C 350.47949,161.91357 350.97949,146.01367 348.97949,130.81396 C 350.08008,130.81396 351.08008,130.81396 352.17969,130.71387 C 353.87988,146.21387 354.17969,162.11377 358.87988,177.11377 C 362.47949,186.01367 372.97949,188.41357 380.97949,192.01367 C 382.08008,181.41357 383.37988,170.71387 384.17969,160.11377 C 384.97949,160.01367 386.47949,160.01367 387.2793,160.01367 C 384.97949,182.71387 381.78027,205.41357 380.08008,228.31396 C 384.87988,226.41357 389.97949,224.81396 394.08008,221.51367 C 402.47949,213.81396 403.47949,201.81396 404.7793,191.21387 C 407.17969,163.51367 407.47949,135.71387 408.08008,107.91357 C 409.08008,107.81396 410.17969,107.71387 411.28027,107.51367 C 410.37988,127.01367 410.08008,146.41357 409.2793,165.81396 C 415.2793,163.41357 421.87988,161.71387 426.97949,157.51367 C 434.87988,150.11377 435.78027,138.81396 437.17969,128.71387 C 439.2793,108.91357 439.7793,89.013671 440.17969,69.013671 C 440.97949,69.013671 442.47949,69.013671 443.28027,68.913574 C 442.58008,80.413574 442.17969,91.813964 442.2793,103.31396 C 447.17969,101.31396 452.58008,99.713867 456.37988,95.813964 C 462.58008,90.013671 463.28027,81.013671 464.67969,73.213867 C 466.87988,56.813965 467.47949,40.313965 468.08008,23.813965 L 468.08008,23.813965 z "
   style="fill:#00c400"
   id="path2293" />
			<circle
   cx="245.76562"
   cy="388.64844"
   r="12.207031"
   style="fill:#ff0000"
   id="circle2295" /> 
			<circle
   cx="278.74121"
   cy="358.18066"
   r="12.207031"
   style="fill:#ff0000"
   id="circle2297" /> 
			<circle
   cx="209.80908"
   cy="348.41602"
   r="12.207031"
   style="fill:#ff0000"
   id="circle2299" /> 
			<circle
   cx="196.83008"
   cy="233.01074"
   r="12.207031"
   style="fill:#ff0000"
   id="circle2301" /> 
			<circle
   cx="162.93848"
   cy="262.02002"
   r="12.207031"
   style="fill:#ff0000"
   id="circle2303" /> 
			<circle
   cx="127.61133"
   cy="226.40479"
   r="12.207031"
   style="fill:#ff0000"
   id="circle2305" /> 
			<circle
   cx="109.85986"
   cy="137.97754"
   r="12.207031"
   style="fill:#ff0000"
   id="circle2307" /> 
			<circle
   cx="84.585449"
   cy="179.62402"
   r="12.207031"
   style="fill:#ff0000"
   id="circle2309" /> 
			<circle
   cx="48.108887"
   cy="110.40479"
   r="12.207031"
   style="fill:#ff0000"
   id="circle2311" /> 
			<circle
   cx="12.207031"
   cy="55.833984"
   r="12.207031"
   style="fill:#ff0000"
   id="circle2313" /> 
			<circle
   cx="385.35938"
   cy="148.84473"
   r="12.207031"
   style="fill:#ff0000"
   id="circle2315" /> 
			<circle
   cx="347.73438"
   cy="235.58398"
   r="12.207031"
   style="fill:#ff0000"
   id="circle2317" /> 
			<circle
   cx="319.2998"
   cy="276.65576"
   r="12.207031"
   style="fill:#ff0000"
   id="circle2319" /> 
			<circle
   cx="288.85547"
   cy="266.89062"
   r="12.207031"
   style="fill:#ff0000"
   id="circle2321" /> 
			<circle
   cx="469.32812"
   cy="12.207031"
   r="12.207031"
   style="fill:#ff0000"
   id="circle2323" /> 
			<circle
   cx="441.18066"
   cy="57.300293"
   r="12.207031"
   style="fill:#ff0000"
   id="circle2325" /> 
			<circle
   cx="408.86328"
   cy="96.648438"
   r="12.207031"
   style="fill:#ff0000"
   id="circle2327" /> 
			<circle
   cx="350.4209"
   cy="119.91309"
   r="12.207031"
   style="fill:#ff0000"
   id="circle2329" /> 
		</g>
	</svg>