<?xml version="1.0" encoding="UTF-8" standalone="no"?>
<!-- Created with Inkscape (http://www.inkscape.org/) -->
<svg
   xmlns:svg="http://www.w3.org/2000/svg"
   xmlns="http://www.w3.org/2000/svg"
   version="1.0"
   width="466.11719"
   height="999.45947"
   viewBox="0 0 466.11719 999.45947"
   id="svg4427"
   xml:space="preserve"><defs
   id="defs4465" />
	
		<g
   transform="matrix(0.9716373,0,0,0.9716373,5.9999723,28.347356)"
   id="Ebene_4">
		</g>
		<g
   transform="matrix(0.9716373,0,0,0.9716373,5.9999723,28.347356)"
   id="Ebene_3">
			<path
   d="M 433.44238,600.11572 C 431.30957,598.21729 429.1748,596.08252 427.04004,593.70947 C 365.38281,641.85205 302.30371,688.33057 239.46094,734.80908 C 238.51172,686.90869 239.22461,639.00439 238.75,591.33838 C 244.2041,595.13135 249.18262,600.35205 255.58594,602.72314 C 273.37207,597.50439 291.39551,592.05127 308.46875,584.46143 C 287.60059,585.64697 266.25781,588.96729 245.38965,584.2251 C 295.66406,545.33252 347.36035,508.33838 398.11035,470.16064 C 395.73828,468.50049 393.60352,466.60205 391.46777,464.70557 C 341.43164,503.59619 290.44629,540.83057 239.22461,578.29541 C 238.51172,532.05322 239.22461,485.81104 238.75,439.56885 C 245.38965,443.6001 251.79297,453.56104 260.56738,449.76611 C 276.69238,444.31104 293.5293,440.99268 308.70703,432.93018 C 286.88965,433.64111 265.07129,436.48682 243.49316,432.45557 C 283.0957,401.38916 323.17187,371.27295 363.48535,341.39307 C 361.35254,339.49463 359.4541,337.59814 357.7959,335.70166 C 317.9541,365.58057 278.8252,396.17334 238.98633,425.81494 C 238.75,379.09814 239.22461,332.14404 238.75,285.42725 C 244.2041,289.69482 249.89648,293.72705 255.82227,297.75928 C 273.61035,292.06689 291.63184,287.0874 308.70703,278.7876 C 286.88965,280.20947 264.83594,282.34424 243.25391,278.07568 C 271.47461,255.78467 300.88184,234.6792 328.86426,212.1499 C 326.96777,210.25244 325.30664,208.59326 323.41016,206.69482 C 295.90039,228.98779 266.96875,249.85596 238.98633,271.67334 C 238.98633,227.08936 238.98633,182.74463 238.98633,138.16162 C 244.67871,142.19287 250.13184,146.22412 255.82227,150.25537 C 273.37207,144.56494 290.9209,138.63623 307.99609,131.52197 C 286.41504,133.18115 264.36035,134.3667 242.78223,131.04736 C 256.77148,118.00439 274.08301,108.75537 289.26074,97.13623 C 287.36426,95.002441 285.93945,92.866699 284.28125,90.73291 C 268.86719,100.69287 255.58594,114.44678 239.22461,122.74658 C 238.51172,95.713379 239.22461,68.679199 238.98633,41.645019 C 237.08984,41.645019 233.53223,41.645019 231.87207,41.645019 L 231.87207,41.645019 C 231.63574,91.444824 232.11035,141.48096 231.87207,191.28076 C 214.32324,179.89893 198.67188,166.38135 181.59863,154.52393 C 179.9375,156.18408 178.27734,157.84424 176.38086,159.50439 C 192.26953,172.78467 210.05566,183.93018 225.70605,197.68408 C 205.0752,205.74658 183.25781,197.92139 162.15234,198.39502 C 178.27734,206.22119 196.06348,210.48975 212.90039,216.41846 C 220.01465,215.23291 225.70605,208.59326 231.87207,205.03564 C 231.87207,249.61865 232.11035,293.96436 231.87207,338.30908 C 201.51855,317.44092 172.58594,294.67529 142.94336,272.85889 C 141.52051,274.75537 140.09863,276.65186 138.4375,278.31299 C 167.37012,301.55225 197.48633,322.65869 227.36621,344.4751 C 205.78613,351.82666 183.96973,344.7124 162.15234,345.42334 C 178.75195,353.72314 197.48633,357.51807 214.79785,364.39502 C 220.48926,359.88916 226.18066,355.85889 231.87207,351.82666 C 231.87207,398.78076 231.87207,445.73486 231.87207,492.45166 C 190.13477,462.80908 150.76953,430.08252 108.79492,400.91553 C 107.13477,402.57471 105.23828,404.47314 103.57715,406.13232 C 144.84082,437.67236 188.23828,467.07861 227.84082,500.98877 C 206.02344,505.96729 183.96973,501.70166 162.15234,500.03955 C 178.51465,509.28955 197.24902,513.79541 214.79785,520.1958 C 220.25195,515.68994 225.70605,511.42432 231.63574,507.63135 C 232.11035,554.10986 232.11035,600.58838 231.39746,647.06689 C 179.7002,609.35986 129.66309,569.04736 77.492188,531.58057 C 76.070313,533.23877 74.410157,534.90088 72.512696,536.55908 C 122.54883,574.73877 173.06055,612.4458 223.09863,650.38916 C 226.41797,652.2876 222.14844,655.604 219.77734,655.36768 C 200.56934,661.05908 181.36133,653.47314 162.15234,653.47314 C 175.66992,663.43018 193.92871,664.38135 208.87012,671.49463 C 218.11816,674.81494 224.52051,663.90283 232.11035,660.82275 C 231.63574,708.25244 231.87207,755.68018 232.11035,802.87354 C 203.65234,781.52979 175.19531,759.70947 146.02734,739.08057 C 108.32031,711.09619 71.563477,681.45361 32.435547,655.13135 C 31.013672,656.78955 29.589844,658.45166 28.166992,660.10986 C 94.567383,710.14697 161.91504,759.00049 227.84082,809.51025 C 205.54883,815.20166 183.02051,809.0376 160.49219,809.74658 C 177.56641,816.62354 195.11523,823.26611 212.90039,828.48096 C 220.01465,826.10986 224.99512,819.47314 231.63574,815.91455 C 233.05762,877.09619 231.63574,938.27979 229.26465,999.45947 C 231.16113,999.45947 237.08984,999.45947 238.98633,999.45947 C 238.98633,915.75049 239.22461,832.27393 238.75,748.56689 C 244.2041,752.59619 247.52441,756.38916 253.68945,759.70947 C 261.75293,759.47314 269.33984,755.20361 277.16699,753.30908 C 287.60059,749.27393 300.16797,749.0376 308.70703,741.21533 C 287.60059,742.40088 266.25781,746.6665 244.91504,742.63721 C 250.36816,734.33838 259.37988,729.83057 266.96875,723.90283 C 284.04297,712.04541 394.31445,626.91064 433.44238,600.11572 z "
   style="fill:#00c500"
   id="path4433" />
		</g>
		<g
   transform="matrix(0.9716373,0,0,0.9716373,5.9999723,28.347356)"
   id="Ebene_2_1_">
			<path
   d="M 442.57422,557.6333 C 455.57715,557.6333 466.11719,568.17041 466.11719,581.17627 C 466.11719,594.17822 455.57715,604.71729 442.57422,604.71729 C 429.57031,604.71729 419.03125,594.17822 419.03125,581.17627 C 419.03125,568.17041 429.57031,557.6333 442.57422,557.6333 z "
   style="fill:#ff0000"
   id="path4436" />
			<path
   d="M 426.83789,441.59619 C 433.61621,452.68799 430.12207,467.18018 419.02637,473.96338 C 407.93359,480.74268 393.44141,477.24658 386.66016,466.15283 C 379.88379,455.06104 383.37891,440.57275 394.46973,433.78955 C 405.56445,427.0083 420.05762,430.50244 426.83789,441.59619 z "
   style="fill:#ff0000"
   id="path4438" />
			<circle
   cx="371.44336"
   cy="328.43457"
   r="23.54248"
   style="fill:#ff0000"
   id="circle4440" /> 
			<circle
   cx="335.43652"
   cy="200.49951"
   r="23.542969"
   style="fill:#ff0000"
   id="circle4442" /> 
			<path
   d="M 302.99414,61.668457 C 315.99219,61.668457 326.53613,72.208496 326.53613,85.211426 C 326.53613,98.213379 315.99219,108.75439 302.99414,108.75439 C 289.99023,108.75439 279.45117,98.213379 279.45117,85.211426 C 279.45117,72.208496 289.99023,61.668457 302.99414,61.668457 z "
   style="fill:#ff0000"
   id="path4444" />
			<circle
   cx="23.541016"
   cy="644.12256"
   r="23.541992"
   style="fill:#ff0000"
   id="circle4446" /> 
			<circle
   cx="59.371094"
   cy="516.81885"
   r="23.542969"
   style="fill:#ff0000"
   id="circle4448" /> 
			<circle
   cx="94.671875"
   cy="391.37695"
   r="23.543457"
   style="fill:#ff0000"
   id="circle4450" /> 
			<circle
   cx="130.67773"
   cy="263.44238"
   r="23.543457"
   style="fill:#ff0000"
   id="circle4452" /> 
			<circle
   cx="163.12402"
   cy="148.15527"
   r="23.541504"
   style="fill:#ff0000"
   id="circle4454" /> 
			<path
   d="M 258.57812,23.538574 C 258.58301,36.539551 248.04102,47.081543 235.03711,47.081543 C 222.03418,47.081543 211.49512,36.539551 211.49707,23.538574 C 211.49512,10.539551 222.03418,0.0004883 235.03516,0.0004883 C 248.03906,-0.0024414 258.58301,10.540527 258.57812,23.538574 z "
   style="fill:#ff0000"
   id="path4456" />
			<g
   id="g4458">
				<path
   d="M 315.26758,681.55908 L 311.95117,686.96729 C 311.01562,693.54346 308.2627,702.01611 309.02148,708.80127 C 321.67773,722.34424 334.64941,735.99268 349.10449,747.83252 C 338.72949,729.83838 326.27051,712.36768 321.06641,691.76221 L 381.46973,717.35303 C 382.27148,714.646 383.54199,712.14209 385.19531,709.93896 L 315.26758,681.55908 z "
   style="fill:#00c500;fill-opacity:0.52071007"
   id="path4460" />
				<path
   d="M 404.03809,700.51221 C 396.33105,700.51221 389.48926,704.21533 385.19531,709.93896 C 383.54199,712.14209 382.27148,714.646 381.46973,717.35303 C 380.83984,719.47705 380.49609,721.72607 380.49609,724.05518 C 380.49609,737.05713 391.03516,747.59619 404.03809,747.59619 C 417.04199,747.59619 427.58105,737.05713 427.58105,724.05518 C 427.58105,711.04932 417.04199,700.51221 404.03809,700.51221 z "
   style="fill:#ff0000;fill-opacity:0.52156863"
   id="path4462" />
			</g>
		</g>
	</svg>