<?xml version="1.0" encoding="UTF-8" standalone="no"?>
<!-- Created with Inkscape (http://www.inkscape.org/) -->
<svg
   xmlns:svg="http://www.w3.org/2000/svg"
   xmlns="http://www.w3.org/2000/svg"
   version="1.0"
   width="320"
   height="600"
   viewBox="0 0 189.33203 355.86865"
   id="svg3034"
   xml:space="preserve"><defs
   id="defs3222" />
	
		<g
   transform="matrix(0.9833333,0,0,0.9833333,2.3724576,2.3724601)"
   id="Ebene_3">
			<path
   d="M 38.386719,2.0561523 C 39.086914,2.0561523 40.586914,2.0561523 41.386719,2.0561523 C 41.486817,14.855957 41.386719,27.556152 41.286621,40.355957 C 47.386719,39.056152 53.286621,42.556152 58.786621,44.755859 C 53.586914,44.65625 48.386719,44.255859 43.187012,44.056152 C 50.386719,49.456055 57.786621,54.556152 64.786621,60.255859 C 63.986816,60.956055 63.286621,61.65625 62.586914,62.355957 C 55.486816,57.255859 48.586914,51.755859 41.486816,46.755859 C 41.386719,53.956055 41.286621,61.15625 41.187012,68.355957 C 47.386719,67.056152 53.187012,70.556152 58.786621,72.755859 C 53.586914,72.65625 48.386719,72.255859 43.187012,72.056152 C 50.386719,77.456055 57.786621,82.556152 64.786621,88.255859 C 63.986816,88.956055 63.286621,89.65625 62.586914,90.355957 C 55.486816,85.255859 48.586914,79.755859 41.486816,74.755859 C 41.386719,81.956055 41.286621,89.15625 41.187012,96.355957 C 47.386719,95.056152 53.187012,98.556152 58.786621,100.75586 C 53.586914,100.65625 48.386719,100.25586 43.187012,100.05615 C 50.386719,105.45605 57.786621,110.55615 64.786621,116.25586 C 63.986816,116.95605 63.286621,117.65625 62.586914,118.35596 C 55.486816,113.25586 48.586914,107.75586 41.486816,102.75586 C 41.386719,109.95605 41.286621,117.15625 41.187012,124.35596 C 47.386719,123.05615 53.187012,126.55615 58.786621,128.75586 C 53.586914,128.65625 48.386719,128.25586 43.187012,128.05615 C 50.386719,133.45605 57.786621,138.55615 64.786621,144.25586 C 63.986816,144.95605 63.286621,145.65625 62.586914,146.35596 C 55.486816,141.25586 48.586914,135.75586 41.486816,130.75586 C 41.386719,137.95605 41.286621,145.15625 41.187012,152.35596 C 47.386719,151.05615 53.187012,154.55615 58.786621,156.75586 C 53.586914,156.65625 48.386719,156.25586 43.187012,156.05615 C 50.386719,161.45605 57.786621,166.55615 64.786621,172.25586 C 63.986816,172.95605 63.286621,173.65625 62.586914,174.35596 C 55.486816,169.25586 48.586914,163.75586 41.486816,158.75586 C 41.386719,165.95605 41.286621,173.15625 41.187012,180.35596 C 47.386719,179.05615 53.187012,182.55615 58.786621,184.75635 C 53.586914,184.65674 48.386719,184.25635 43.187012,184.05518 C 50.386719,189.45557 57.786621,194.55518 64.786621,200.25635 C 63.986816,200.95557 63.286621,201.65674 62.586914,202.35596 C 55.486816,197.25635 48.586914,191.75635 41.486816,186.75635 C 41.386719,193.95557 41.286621,201.15674 41.187012,208.35596 C 47.386719,207.05518 53.187012,210.55518 58.786621,212.75635 C 53.586914,212.65674 48.386719,212.25635 43.187012,212.05518 C 50.386719,217.45557 57.786621,222.55518 64.786621,228.25635 C 63.986816,228.95557 63.286621,229.65674 62.586914,230.35596 C 55.486816,225.25635 48.586914,219.75635 41.486816,214.75635 C 41.386719,221.95557 41.286621,229.15674 41.187012,236.35596 C 47.386719,235.05518 53.187012,238.55518 58.786621,240.75635 C 53.586914,240.65674 48.386719,240.25635 43.187012,240.05518 C 50.386719,245.45557 57.786621,250.55518 64.786621,256.25635 C 63.986816,256.95557 63.286621,257.65674 62.586914,258.35596 C 55.486816,253.25635 48.586914,247.75635 41.486816,242.75635 C 41.386719,249.95557 41.286621,257.15674 41.187012,264.35596 C 47.386719,263.05518 53.187012,266.55518 58.786621,268.75635 C 53.586914,268.65674 48.386719,268.25635 43.187012,268.05518 C 50.386719,273.45557 57.786621,278.55518 64.786621,284.25635 C 63.986816,284.95557 63.286621,285.65674 62.586914,286.35596 C 55.486816,281.25635 48.586914,275.75635 41.486816,270.75635 C 41.386719,277.95557 41.286621,285.15674 41.187012,292.35596 C 47.386719,291.05518 53.187012,294.55518 58.786621,296.75635 C 53.586914,296.65674 48.386719,296.25635 43.187012,296.05518 C 50.386719,301.45557 57.786621,306.55518 64.786621,312.25635 C 63.986816,312.95557 63.286621,313.65674 62.586914,314.35596 C 55.486816,309.25635 48.586914,303.75635 41.486816,298.75635 C 41.386719,305.95557 41.286621,313.15674 41.187012,320.35596 C 47.386719,319.05518 53.187012,322.55518 58.786621,324.75635 C 53.586914,324.65674 48.386719,324.25635 43.187012,324.05518 C 50.386719,329.45557 57.786621,334.55518 64.786621,340.25635 C 63.986816,340.95557 63.286621,341.65674 62.586914,342.35596 C 55.486816,337.25635 48.687012,331.85596 41.486816,326.75635 C 41.486816,330.65674 41.386719,338.25635 41.286621,342.05518 C 40.586914,342.05518 39.187012,342.05518 38.386719,342.05518 C 38.386719,332.95557 38.386719,323.85596 38.286621,314.85596 C 31.086914,319.75635 24.286621,325.25635 17.187012,330.35596 C 16.486816,329.65674 15.786621,328.95557 14.986816,328.25635 C 22.086914,322.65674 29.386719,317.35596 36.687012,312.05518 C 31.486816,312.05518 26.286621,312.35596 21.086914,312.75635 C 26.786621,310.85596 32.386719,306.65674 38.687012,308.35596 C 38.586914,301.15674 38.486816,293.95557 38.286621,286.85596 C 31.086914,291.75635 24.286621,297.25635 17.187012,302.35596 C 16.486816,301.65674 15.786621,300.95557 14.986816,300.25635 C 22.086914,294.65674 29.386719,289.35596 36.687012,284.05518 C 31.486816,284.05518 26.286621,284.35596 21.086914,284.75635 C 26.786621,282.85596 32.386719,278.65674 38.687012,280.35596 C 38.586914,273.15674 38.486816,265.95557 38.286621,258.85596 C 31.086914,263.75635 24.286621,269.25635 17.187012,274.35596 C 16.486816,273.65674 15.786621,272.95557 14.986816,272.25635 C 22.086914,266.65674 29.386719,261.35596 36.687012,256.05518 C 31.486816,256.05518 26.286621,256.35596 21.086914,256.75635 C 26.786621,254.85596 32.386719,250.65674 38.687012,252.35596 C 38.586914,245.15674 38.486816,237.95557 38.286621,230.85596 C 31.086914,235.75635 24.286621,241.25635 17.187012,246.35596 C 16.486816,245.65674 15.786621,244.95557 14.986816,244.25635 C 22.086914,238.65674 29.386719,233.35596 36.687012,228.05518 C 31.486816,228.05518 26.286621,228.35596 21.086914,228.75635 C 26.786621,226.85596 32.386719,222.65674 38.687012,224.35596 C 38.586914,217.15674 38.486816,209.95557 38.286621,202.85596 C 31.086914,207.75635 24.286621,213.25635 17.187012,218.35596 C 16.486816,217.65674 15.786621,216.95557 14.986816,216.25635 C 22.086914,210.65674 29.386719,205.35596 36.687012,200.05518 C 31.486816,200.05518 26.286621,200.35596 21.086914,200.75635 C 26.786621,198.85596 32.386719,194.65674 38.687012,196.35596 C 38.586914,189.15674 38.486816,181.95605 38.286621,174.85596 C 31.086914,179.75586 24.286621,185.25635 17.187012,190.35596 C 16.486816,189.65674 15.786621,188.95557 14.986816,188.25635 C 22.086914,182.65674 29.386719,177.35596 36.687012,172.05615 C 31.486816,172.05615 26.286621,172.35596 21.086914,172.75586 C 26.786621,170.85596 32.386719,166.65625 38.687012,168.35596 C 38.586914,161.15625 38.486816,153.95605 38.286621,146.85596 C 31.086914,151.75586 24.286621,157.25586 17.187012,162.35596 C 16.486816,161.65625 15.786621,160.95605 14.986816,160.25586 C 22.086914,154.65625 29.386719,149.35596 36.687012,144.05615 C 31.486816,144.05615 26.286621,144.35596 21.086914,144.75586 C 26.786621,142.85596 32.386719,138.65625 38.687012,140.35596 C 38.586914,133.15625 38.486816,125.95605 38.286621,118.85596 C 31.086914,123.75586 24.286621,129.25586 17.187012,134.35596 C 16.486816,133.65625 15.786621,132.95605 14.986816,132.25586 C 22.086914,126.65625 29.386719,121.35596 36.687012,116.05615 C 31.486816,116.05615 26.286621,116.35596 21.086914,116.75586 C 26.786621,114.85596 32.386719,110.65625 38.687012,112.35596 C 38.586914,105.15625 38.486816,97.956055 38.286621,90.855957 C 31.086914,95.755859 24.286621,101.25586 17.187012,106.35596 C 16.486816,105.65625 15.786621,104.95605 14.986816,104.25586 C 22.086914,98.65625 29.386719,93.355957 36.687012,88.056152 C 31.486816,88.056152 26.286621,88.355957 21.086914,88.755859 C 26.786621,86.855957 32.386719,82.65625 38.687012,84.355957 C 38.586914,77.15625 38.486816,69.956055 38.286621,62.855957 C 31.086914,67.755859 24.286621,73.255859 17.187012,78.355957 C 16.486816,77.65625 15.786621,76.956055 14.986816,76.255859 C 22.086914,70.65625 29.386719,65.355957 36.687012,60.056152 C 31.486816,60.056152 26.286621,60.355957 21.086914,60.755859 C 26.786621,58.855957 32.386719,54.65625 38.687012,56.355957 C 38.586914,49.15625 38.486816,41.956055 38.286621,34.855957 C 31.086914,39.755859 24.286621,45.255859 17.187012,50.355957 C 16.486816,49.65625 15.786621,48.956055 14.986816,48.255859 C 22.086914,42.65625 29.386719,37.355957 36.687012,32.056152 C 31.486816,32.056152 26.286621,32.355957 21.086914,32.755859 C 26.786621,30.855957 32.386719,26.65625 38.586914,28.355957 C 38.386719,19.556152 38.386719,10.855957 38.386719,2.0561523 L 38.386719,2.0561523 z "
   style="fill:#00c300"
   id="path3039" />
		</g>
		<g
   transform="matrix(0.9833333,0,0,0.9833333,2.3724576,2.3724601)"
   id="Ebene_2">
			<circle
   cx="9.0429688"
   cy="55.060547"
   r="9.0429688"
   style="fill:#ff0000"
   id="circle3042" /> 
			<circle
   cx="9.0429688"
   cy="83.009277"
   r="9.0429688"
   style="fill:#ff0000"
   id="circle3044" /> 
			<circle
   cx="9.0429688"
   cy="110.9585"
   r="9.0429688"
   style="fill:#ff0000"
   id="circle3046" /> 
			<circle
   cx="9.0429688"
   cy="138.90723"
   r="9.0429688"
   style="fill:#ff0000"
   id="circle3048" /> 
			<circle
   cx="9.0429688"
   cy="166.85596"
   r="9.0429688"
   style="fill:#ff0000"
   id="circle3050" /> 
			<circle
   cx="9.0429688"
   cy="194.80518"
   r="9.0429688"
   style="fill:#ff0000"
   id="circle3052" /> 
			<circle
   cx="9.0429688"
   cy="222.75342"
   r="9.0429688"
   style="fill:#ff0000"
   id="circle3054" /> 
			<circle
   cx="9.0429688"
   cy="250.70264"
   r="9.0429688"
   style="fill:#ff0000"
   id="circle3056" /> 
			<circle
   cx="9.0429688"
   cy="278.65186"
   r="9.0429688"
   style="fill:#ff0000"
   id="circle3058" /> 
			<circle
   cx="9.0429688"
   cy="306.6001"
   r="9.0429688"
   style="fill:#ff0000"
   id="circle3060" /> 
			<circle
   cx="9.0429688"
   cy="334.54932"
   r="9.0429688"
   style="fill:#ff0000"
   id="circle3062" /> 
			<circle
   cx="69.872559"
   cy="67.336914"
   r="9.0429688"
   style="fill:#ff0000"
   id="circle3064" /> 
			<circle
   cx="69.872559"
   cy="95.285645"
   r="9.0429688"
   style="fill:#ff0000"
   id="circle3066" /> 
			<circle
   cx="69.872559"
   cy="123.23486"
   r="9.0429688"
   style="fill:#ff0000"
   id="circle3068" /> 
			<circle
   cx="69.872559"
   cy="151.18359"
   r="9.0429688"
   style="fill:#ff0000"
   id="circle3070" /> 
			<circle
   cx="69.872559"
   cy="179.13232"
   r="9.0429688"
   style="fill:#ff0000"
   id="circle3072" /> 
			<circle
   cx="69.872559"
   cy="207.08154"
   r="9.0429688"
   style="fill:#ff0000"
   id="circle3074" /> 
			<circle
   cx="69.872559"
   cy="235.02979"
   r="9.0429688"
   style="fill:#ff0000"
   id="circle3076" /> 
			<circle
   cx="69.872559"
   cy="262.979"
   r="9.0429688"
   style="fill:#ff0000"
   id="circle3078" /> 
			<circle
   cx="69.872559"
   cy="290.92822"
   r="9.0429688"
   style="fill:#ff0000"
   id="circle3080" /> 
			<circle
   cx="69.872559"
   cy="318.87646"
   r="9.0429688"
   style="fill:#ff0000"
   id="circle3082" /> 
			<circle
   cx="69.872559"
   cy="346.82568"
   r="9.0429688"
   style="fill:#ff0000"
   id="circle3084" /> 
		</g>
		<g
   transform="matrix(0.9833333,0,0,0.9833333,2.3724576,2.3724601)"
   id="Ebene_4">
			<rect
   width="3.1455078"
   height="351.229"
   x="158.0957"
   y="0"
   style="fill:#00c300"
   id="rect3087" /> 
			<g
   id="g3089">
				<path
   d="M 158.14551,43.061035 C 156.44531,43.061035 154.74512,43.161133 153.04492,43.161133 C 149.74512,43.561035 146.3457,44.061035 143.14551,44.960938 C 138.8457,46.460938 134.54492,48.36084 129.94531,49.161133 C 136.54492,44.260742 143.94531,40.760742 151.14551,36.86084 C 153.44531,37.960938 155.8457,39.161133 158.14551,40.260742 L 158.14551,43.061035 z "
   style="fill:#00c300"
   id="path3091" />
				<circle
   cx="149.62305"
   cy="50.919434"
   r="9.0429688"
   style="fill:#ff0000"
   id="circle3093" /> 
			</g>
			<g
   id="g3095">
				<path
   d="M 158.14551,70.8125 C 156.44531,70.8125 154.74512,70.912598 153.04492,70.912598 C 149.74512,71.3125 146.3457,71.8125 143.14551,72.712402 C 138.8457,74.212402 134.54492,76.112305 129.94531,76.912598 C 136.54492,72.012207 143.94531,68.512207 151.14551,64.612305 C 153.44531,65.712402 155.8457,66.912598 158.14551,68.012207 L 158.14551,70.8125 z "
   style="fill:#00c300"
   id="path3097" />
				<circle
   cx="149.62305"
   cy="78.670898"
   r="9.0429688"
   style="fill:#ff0000"
   id="circle3099" /> 
			</g>
			<g
   id="g3101">
				<path
   d="M 158.14551,98.563965 C 156.44531,98.563965 154.74512,98.664063 153.04492,98.664063 C 149.74512,99.063965 146.3457,99.563965 143.14551,100.46387 C 138.8457,101.96387 134.54492,103.86377 129.94531,104.66406 C 136.54492,99.763672 143.94531,96.263672 151.14551,92.36377 C 153.44531,93.463867 155.8457,94.664063 158.14551,95.763672 L 158.14551,98.563965 z "
   style="fill:#00c300"
   id="path3103" />
				<circle
   cx="149.62305"
   cy="106.42236"
   r="9.0429688"
   style="fill:#ff0000"
   id="circle3105" /> 
			</g>
			<g
   id="g3107">
				<path
   d="M 158.14551,126.31543 C 156.44531,126.31543 154.74512,126.41553 153.04492,126.41553 C 149.74512,126.81543 146.3457,127.31543 143.14551,128.21533 C 138.8457,129.71533 134.54492,131.61523 129.94531,132.41553 C 136.54492,127.51514 143.94531,124.01514 151.14551,120.11523 C 153.44531,121.21533 155.8457,122.41553 158.14551,123.51514 L 158.14551,126.31543 z "
   style="fill:#00c300"
   id="path3109" />
				<circle
   cx="149.62305"
   cy="134.17383"
   r="9.0429688"
   style="fill:#ff0000"
   id="circle3111" /> 
			</g>
			<g
   id="g3113">
				<path
   d="M 158.14551,154.06689 C 156.44531,154.06689 154.74512,154.16699 153.04492,154.16699 C 149.74512,154.56689 146.3457,155.06689 143.14551,155.9668 C 138.8457,157.4668 134.54492,159.3667 129.94531,160.16699 C 136.54492,155.2666 143.94531,151.7666 151.14551,147.8667 C 153.44531,148.9668 155.8457,150.16699 158.14551,151.2666 L 158.14551,154.06689 z "
   style="fill:#00c300"
   id="path3115" />
				<circle
   cx="149.62305"
   cy="161.92529"
   r="9.0429688"
   style="fill:#ff0000"
   id="circle3117" /> 
			</g>
			<g
   id="g3119">
				<path
   d="M 158.14551,181.81836 C 156.44531,181.81836 154.74512,181.91846 153.04492,181.91846 C 149.74512,182.31885 146.3457,182.81885 143.14551,183.71826 C 138.8457,185.21826 134.54492,187.11768 129.94531,187.91846 C 136.54492,183.01807 143.94531,179.51807 151.14551,175.61816 C 153.44531,176.71826 155.8457,177.91846 158.14551,179.01807 L 158.14551,181.81836 z "
   style="fill:#00c300"
   id="path3121" />
				<circle
   cx="149.62305"
   cy="189.67627"
   r="9.0429688"
   style="fill:#ff0000"
   id="circle3123" /> 
			</g>
			<g
   id="g3125">
				<path
   d="M 158.14551,209.56982 C 156.44531,209.56982 154.74512,209.67041 153.04492,209.67041 C 149.74512,210.06982 146.3457,210.56982 143.14551,211.46924 C 138.8457,212.96924 134.54492,214.86963 129.94531,215.67041 C 136.54492,210.77002 143.94531,207.27002 151.14551,203.36963 C 153.44531,204.46924 155.8457,205.67041 158.14551,206.77002 L 158.14551,209.56982 z "
   style="fill:#00c300"
   id="path3127" />
				<circle
   cx="149.62305"
   cy="217.42822"
   r="9.0429688"
   style="fill:#ff0000"
   id="circle3129" /> 
			</g>
			<g
   id="g3131">
				<path
   d="M 158.14551,237.3208 C 156.44531,237.3208 154.74512,237.42139 153.04492,237.42139 C 149.74512,237.8208 146.3457,238.3208 143.14551,239.22119 C 138.8457,240.72119 134.54492,242.62158 129.94531,243.42139 C 136.54492,238.521 143.94531,235.021 151.14551,231.12158 C 153.44531,232.22119 155.8457,233.42139 158.14551,234.521 L 158.14551,237.3208 z "
   style="fill:#00c300"
   id="path3133" />
				<circle
   cx="149.62305"
   cy="245.18018"
   r="9.0429688"
   style="fill:#ff0000"
   id="circle3135" /> 
			</g>
			<g
   id="g3137">
				<path
   d="M 158.14551,265.07275 C 156.44531,265.07275 154.74512,265.17236 153.04492,265.17236 C 149.74512,265.57275 146.3457,266.07275 143.14551,266.97314 C 138.8457,268.47314 134.54492,270.37256 129.94531,271.17236 C 136.54492,266.27197 143.94531,262.77197 151.14551,258.87256 C 153.44531,259.97314 155.8457,261.17236 158.14551,262.27197 L 158.14551,265.07275 z "
   style="fill:#00c300"
   id="path3139" />
				<circle
   cx="149.62305"
   cy="272.93115"
   r="9.0429688"
   style="fill:#ff0000"
   id="circle3141" /> 
			</g>
			<g
   id="g3143">
				<path
   d="M 158.14551,292.82471 C 156.44531,292.82471 154.74512,292.92432 153.04492,292.92432 C 149.74512,293.32471 146.3457,293.82471 143.14551,294.72412 C 138.8457,296.22412 134.54492,298.12354 129.94531,298.92432 C 136.54492,294.02393 143.94531,290.52393 151.14551,286.62354 C 153.44531,287.72412 155.8457,288.92432 158.14551,290.02393 L 158.14551,292.82471 z "
   style="fill:#00c300"
   id="path3145" />
				<circle
   cx="149.62305"
   cy="300.68213"
   r="9.0429688"
   style="fill:#ff0000"
   id="circle3147" /> 
			</g>
			<g
   id="g3149">
				<path
   d="M 158.14551,320.57568 C 156.44531,320.57568 154.74512,320.67529 153.04492,320.67529 C 149.74512,321.07568 146.3457,321.57568 143.14551,322.47607 C 138.8457,323.97607 134.54492,325.87549 129.94531,326.67529 C 136.54492,321.7749 143.94531,318.2749 151.14551,314.37549 C 153.44531,315.47607 155.8457,316.67529 158.14551,317.7749 L 158.14551,320.57568 z "
   style="fill:#00c300"
   id="path3151" />
				<circle
   cx="149.62305"
   cy="328.43408"
   r="9.0429688"
   style="fill:#ff0000"
   id="circle3153" /> 
			</g>
			<g
   id="g3155">
				<path
   d="M 161.13184,57.061035 C 162.83203,57.061035 164.53223,57.161133 166.23242,57.161133 C 169.53223,57.561035 172.93164,58.061035 176.13184,58.960938 C 180.43164,60.460938 184.73242,62.36084 189.33203,63.161133 C 182.73242,58.260742 175.33203,54.760742 168.13184,50.86084 C 165.83301,51.960938 163.43262,53.161133 161.13184,54.260742 L 161.13184,57.061035 z "
   style="fill:#00c300"
   id="path3157" />
				<circle
   cx="169.65381"
   cy="64.919434"
   r="9.0424805"
   style="fill:#ff0000"
   id="circle3159" /> 
			</g>
			<g
   id="g3161">
				<path
   d="M 161.13184,84.8125 C 162.83203,84.8125 164.53223,84.912598 166.23242,84.912598 C 169.53223,85.3125 172.93164,85.8125 176.13184,86.712402 C 180.43164,88.212402 184.73242,90.112305 189.33203,90.912598 C 182.73242,86.012207 175.33203,82.512207 168.13184,78.612305 C 165.83301,79.712402 163.43262,80.912598 161.13184,82.012207 L 161.13184,84.8125 z "
   style="fill:#00c300"
   id="path3163" />
				<circle
   cx="169.65381"
   cy="92.670898"
   r="9.0424805"
   style="fill:#ff0000"
   id="circle3165" /> 
			</g>
			<g
   id="g3167">
				<path
   d="M 161.13184,112.56396 C 162.83203,112.56396 164.53223,112.66406 166.23242,112.66406 C 169.53223,113.06396 172.93164,113.56396 176.13184,114.46387 C 180.43164,115.96387 184.73242,117.86377 189.33203,118.66406 C 182.73242,113.76367 175.33203,110.26367 168.13184,106.36377 C 165.83301,107.46387 163.43262,108.66406 161.13184,109.76367 L 161.13184,112.56396 z "
   style="fill:#00c300"
   id="path3169" />
				<circle
   cx="169.65381"
   cy="120.42236"
   r="9.0424805"
   style="fill:#ff0000"
   id="circle3171" /> 
			</g>
			<g
   id="g3173">
				<path
   d="M 161.13184,140.31543 C 162.83203,140.31543 164.53223,140.41553 166.23242,140.41553 C 169.53223,140.81543 172.93164,141.31543 176.13184,142.21533 C 180.43164,143.71533 184.73242,145.61523 189.33203,146.41553 C 182.73242,141.51514 175.33203,138.01514 168.13184,134.11523 C 165.83301,135.21533 163.43262,136.41553 161.13184,137.51514 L 161.13184,140.31543 z "
   style="fill:#00c300"
   id="path3175" />
				<circle
   cx="169.65381"
   cy="148.17383"
   r="9.0424805"
   style="fill:#ff0000"
   id="circle3177" /> 
			</g>
			<g
   id="g3179">
				<path
   d="M 161.13184,168.06689 C 162.83203,168.06689 164.53223,168.16699 166.23242,168.16699 C 169.53223,168.56689 172.93164,169.06689 176.13184,169.9668 C 180.43164,171.4668 184.73242,173.3667 189.33203,174.16699 C 182.73242,169.2666 175.33203,165.7666 168.13184,161.8667 C 165.83301,162.9668 163.43262,164.16699 161.13184,165.2666 L 161.13184,168.06689 z "
   style="fill:#00c300"
   id="path3181" />
				<circle
   cx="169.65381"
   cy="175.92529"
   r="9.0424805"
   style="fill:#ff0000"
   id="circle3183" /> 
			</g>
			<g
   id="g3185">
				<path
   d="M 161.13184,195.81885 C 162.83203,195.81885 164.53223,195.91846 166.23242,195.91846 C 169.53223,196.31885 172.93164,196.81885 176.13184,197.71826 C 180.43164,199.21826 184.73242,201.11768 189.33203,201.91846 C 182.73242,197.01807 175.33203,193.51807 168.13184,189.61768 C 165.83301,190.71826 163.43262,191.91846 161.13184,193.01807 L 161.13184,195.81885 z "
   style="fill:#00c300"
   id="path3187" />
				<circle
   cx="169.65381"
   cy="203.67627"
   r="9.0424805"
   style="fill:#ff0000"
   id="circle3189" /> 
			</g>
			<g
   id="g3191">
				<path
   d="M 161.13184,223.56982 C 162.83203,223.56982 164.53223,223.67041 166.23242,223.67041 C 169.53223,224.06982 172.93164,224.56982 176.13184,225.46924 C 180.43164,226.96924 184.73242,228.86963 189.33203,229.67041 C 182.73242,224.77002 175.33203,221.27002 168.13184,217.36963 C 165.83301,218.46924 163.43262,219.67041 161.13184,220.77002 L 161.13184,223.56982 z "
   style="fill:#00c300"
   id="path3193" />
				<circle
   cx="169.65381"
   cy="231.42822"
   r="9.0424805"
   style="fill:#ff0000"
   id="circle3195" /> 
			</g>
			<g
   id="g3197">
				<path
   d="M 161.13184,251.3208 C 162.83203,251.3208 164.53223,251.42139 166.23242,251.42139 C 169.53223,251.8208 172.93164,252.3208 176.13184,253.22119 C 180.43164,254.72119 184.73242,256.62158 189.33203,257.42139 C 182.73242,252.521 175.33203,249.021 168.13184,245.12158 C 165.83301,246.22119 163.43262,247.42139 161.13184,248.521 L 161.13184,251.3208 z "
   style="fill:#00c300"
   id="path3199" />
				<circle
   cx="169.65381"
   cy="259.18018"
   r="9.0424805"
   style="fill:#ff0000"
   id="circle3201" /> 
			</g>
			<g
   id="g3203">
				<path
   d="M 161.13184,279.07275 C 162.83203,279.07275 164.53223,279.17236 166.23242,279.17236 C 169.53223,279.57275 172.93164,280.07275 176.13184,280.97314 C 180.43164,282.47314 184.73242,284.37256 189.33203,285.17236 C 182.73242,280.27197 175.33203,276.77197 168.13184,272.87256 C 165.83301,273.97314 163.43262,275.17236 161.13184,276.27197 L 161.13184,279.07275 z "
   style="fill:#00c300"
   id="path3205" />
				<circle
   cx="169.65381"
   cy="286.93115"
   r="9.0424805"
   style="fill:#ff0000"
   id="circle3207" /> 
			</g>
			<g
   id="g3209">
				<path
   d="M 161.13184,306.82471 C 162.83203,306.82471 164.53223,306.92432 166.23242,306.92432 C 169.53223,307.32471 172.93164,307.82471 176.13184,308.72412 C 180.43164,310.22412 184.73242,312.12354 189.33203,312.92432 C 182.73242,308.02393 175.33203,304.52393 168.13184,300.62354 C 165.83301,301.72412 163.43262,302.92432 161.13184,304.02393 L 161.13184,306.82471 z "
   style="fill:#00c300"
   id="path3211" />
				<circle
   cx="169.65381"
   cy="314.68213"
   r="9.0424805"
   style="fill:#ff0000"
   id="circle3213" /> 
			</g>
			<g
   id="g3215">
				<path
   d="M 161.13184,334.57568 C 162.83203,334.57568 164.53223,334.67529 166.23242,334.67529 C 169.53223,335.07568 172.93164,335.57568 176.13184,336.47607 C 180.43164,337.97607 184.73242,339.87549 189.33203,340.67529 C 182.73242,335.7749 175.33203,332.2749 168.13184,328.37549 C 165.83301,329.47607 163.43262,330.67529 161.13184,331.7749 L 161.13184,334.57568 z "
   style="fill:#00c300"
   id="path3217" />
				<circle
   cx="169.65381"
   cy="342.43408"
   r="9.0424805"
   style="fill:#ff0000"
   id="circle3219" /> 
			</g>
		</g>
	</svg>