<?xml version="1.0" encoding="UTF-8" standalone="no"?>
<!-- Created with Inkscape (http://www.inkscape.org/) -->
<svg
   xmlns:svg="http://www.w3.org/2000/svg"
   xmlns="http://www.w3.org/2000/svg"
   version="1.0"
   width="300"
   height="700"
   viewBox="0 0 261.53418 672.98486"
   id="svg4931"
   xml:space="preserve"><defs
   id="defs5000" />
	
		<g
   transform="matrix(0.9803658,0,0,0.9803658,1.9228139,13.21353)"
   id="Ebene_2">
			<path
   d="M 128.08936,0 C 129.47754,0 131.90576,0 133.29297,0 C 133.4668,83.429688 133.11963,166.68555 133.4668,250.11426 C 144.91455,239.18701 156.01416,227.91309 167.11572,216.8125 C 162.43213,209.87451 157.40332,203.10986 153.75977,195.65088 C 159.31055,200.33447 164.34131,205.71191 169.8916,210.39453 C 169.37012,201.20166 168.15771,191.83594 166.5957,182.64258 C 167.29004,183.16309 168.50293,184.03076 169.19727,184.55029 C 173.53418,191.83594 171.45215,201.89551 173.70703,210.04785 C 184.28809,199.81396 194.69531,189.40674 204.92773,178.65332 C 199.03125,172.9292 195.21484,165.47119 191.91895,157.83936 C 197.12207,162.6958 202.32617,167.37939 207.5293,172.06201 C 207.5293,167.03174 207.7041,161.82861 207.5293,156.79834 L 208.74414,157.66553 C 210.8252,162.00195 211.17285,166.8584 212.73242,171.5415 C 225.39648,159.22656 236.66992,144.65674 251.58594,134.77002 C 245.8623,142.92236 238.9248,150.20752 232.15918,157.66553 C 236.84277,158.18604 241.69922,158.70654 246.55566,159.22656 C 246.03516,159.57373 244.64844,160.26758 243.9541,160.61475 C 240.65918,163.04297 235.62891,161.48193 232.15918,163.04297 C 237.36328,168.41992 242.74121,173.62354 247.94434,178.99951 C 239.79199,174.8374 230.59961,171.5415 226.26367,162.86914 C 215.33496,173.62354 204.58203,184.55029 193.82812,195.47754 C 201.98047,196.86572 210.13086,198.0791 218.2832,199.46729 C 217.59082,200.33447 216.54883,201.89551 216.0293,202.7627 C 208.57129,201.54834 201.11328,200.5083 193.48047,199.64111 C 198.85645,205.53809 204.40723,211.26172 209.78516,217.15869 C 201.63281,212.99609 191.05176,210.2207 188.62402,200.33447 C 177.17578,211.95557 165.55566,223.57666 153.93408,235.19824 C 161.73926,237.10547 170.58496,236.23828 177.69727,240.22803 C 178.2168,240.92188 179.08496,242.30908 179.60449,243.00342 C 171.10449,241.78906 162.43213,240.57471 153.75977,239.53467 C 158.44336,244.91064 163.12695,250.2876 167.81006,255.66504 C 160.5249,251.84863 152.71973,248.20703 147.86328,241.26904 C 143.52734,245.60498 139.19043,249.94141 135.02734,254.27783 C 144.56738,263.64404 154.10693,273.01025 162.9541,282.89697 C 153.06689,276.99902 143.52734,270.75537 133.64014,264.68457 C 133.11963,313.59717 133.11963,362.5083 133.4668,411.42334 C 144.91455,400.49463 156.01416,389.22021 167.11572,378.11865 C 162.43213,371.18115 157.40332,364.41943 153.75977,356.95947 C 159.31055,361.64111 164.34131,367.021 169.8916,371.70264 C 169.37012,362.5083 168.15772,353.14502 166.5957,343.95068 C 167.29004,344.47217 168.50293,345.33936 169.19727,345.85791 C 173.53418,353.14502 171.45215,363.20264 173.70703,371.35693 C 184.28809,361.12256 194.69531,350.71631 204.92773,339.96045 C 199.03125,334.23779 195.21484,326.77979 191.91895,319.14795 C 197.12207,323.83057 202.32617,328.68799 207.5293,333.37061 C 207.5293,328.1665 207.7041,323.31006 207.5293,318.10693 L 208.74414,318.97412 C 210.8252,323.31006 211.17285,328.1665 212.73242,332.84912 C 225.39648,320.53467 236.66992,305.96533 251.58594,296.07861 C 245.8623,304.23096 238.9248,311.51611 232.15918,318.97412 C 236.84277,319.49463 241.69922,320.01514 246.55566,320.53467 C 246.03516,320.88232 244.64844,321.57568 243.9541,321.92334 C 240.65918,324.35107 235.62891,322.79053 232.15918,324.35107 C 237.36328,329.72803 242.74121,334.93311 247.94434,340.30908 C 239.79199,336.146 230.59961,332.84912 226.26367,324.17725 C 215.33496,334.93311 204.58203,345.85791 193.82813,356.78662 C 201.98047,358.17236 210.13086,359.38818 218.2832,360.77393 C 217.59082,361.64111 216.54883,363.20264 216.0293,364.06982 C 208.57129,362.85791 201.11328,361.81787 193.48047,360.95068 C 198.85645,366.84521 204.40723,372.56982 209.78516,378.46826 C 201.63281,374.3042 191.05176,371.52979 188.62402,361.64111 C 177.17578,373.26416 165.55566,384.88428 153.93408,396.50732 C 161.73926,398.41455 170.58496,397.54736 177.69727,401.53467 C 178.2168,402.229 179.08496,403.61865 179.60449,404.31299 C 171.10449,403.09619 162.43213,401.88428 153.75977,400.84326 C 158.44336,406.22021 163.12695,411.59619 167.81006,416.97217 C 160.5249,413.15771 152.71973,409.51611 147.86328,402.57861 C 143.52734,406.91455 139.19043,411.25049 135.02734,415.5874 C 144.56738,424.95068 154.10693,434.14502 162.9541,444.20654 C 153.06689,438.30811 143.52734,432.06494 133.64014,425.99365 C 133.11963,474.90576 133.11963,523.81787 133.4668,572.73291 C 144.91455,561.8042 156.01416,550.52979 167.11572,539.42822 C 162.43213,532.49072 157.40332,525.729 153.75977,518.26904 C 159.31055,522.95068 164.34131,528.33057 169.8916,533.01221 C 169.37012,523.81787 168.15772,514.45459 166.5957,505.25928 C 167.29004,505.78076 168.50293,506.64795 169.19727,507.1665 C 173.53418,514.45459 171.45215,524.51221 173.70703,532.6665 C 184.28809,522.43213 194.69531,512.0249 204.92773,501.26904 C 199.03125,495.54639 195.21484,488.0874 191.91895,480.45459 C 197.12207,485.14014 202.32617,489.99463 207.5293,494.6792 C 207.5293,489.47607 207.7041,484.61768 207.5293,479.41455 L 208.74414,480.28174 C 210.8252,484.61768 211.17285,489.47607 212.73242,494.15772 C 225.39648,481.67041 236.66992,467.27295 251.58594,457.38818 C 245.8623,465.53857 238.9248,472.82568 232.15918,480.28174 C 236.84277,480.80322 241.69922,481.32178 246.55566,481.84326 C 246.03516,482.18897 244.64844,482.8833 243.9541,483.23291 C 240.65918,485.65772 235.62891,483.92334 232.15918,485.65772 C 237.36328,491.0376 242.74121,496.2417 247.94434,501.61768 C 239.79199,497.45361 230.59961,494.15772 226.26367,485.48486 C 215.33496,496.2417 204.58203,507.1665 193.82813,518.09619 C 201.98047,519.48193 210.13086,520.69775 218.2832,522.0835 C 217.59082,522.95068 216.54883,524.51221 216.0293,525.37939 C 208.57129,524.1665 201.11328,523.12647 193.48047,522.25928 C 198.85645,528.15381 204.40723,533.87939 209.78516,539.77686 C 201.63281,535.61377 191.05176,532.83936 188.62402,522.95068 C 177.17578,534.57373 165.55566,546.19385 153.93408,557.81689 C 161.73926,559.72412 170.58496,558.85693 177.69727,562.84424 C 178.2168,563.53857 179.08496,564.92725 179.60449,565.62158 C 171.10449,564.40576 162.43213,563.19287 153.75977,562.15283 C 158.44336,567.52881 163.12695,572.90576 167.81006,578.28174 C 160.5249,574.46729 152.71973,570.82568 147.86328,563.88721 C 143.52734,568.22412 139.19043,572.56006 135.02734,576.896 C 144.56738,586.26025 154.10693,595.45361 162.9541,605.51514 C 153.06689,599.61768 143.52734,593.37451 133.64014,587.30322 C 133.11963,615.92236 133.29297,644.36572 133.29297,672.98486 C 131.90576,672.98486 129.47754,672.98486 128.08936,672.98486 C 127.91602,613.3208 128.43652,553.48096 127.91602,493.81201 C 118.02979,499.53369 108.31641,505.95361 98.603028,511.85303 C 107.62305,501.79053 117.1626,492.25049 126.52881,482.5376 C 122.19238,478.54736 117.68262,474.56006 113.17285,470.56885 C 108.49023,477.33447 100.68457,480.80322 93.573242,484.61768 C 98.256836,479.2417 103.11279,473.86572 107.62305,468.48975 C 98.950196,469.35693 90.277832,470.56885 81.778809,471.78174 C 82.298828,471.09131 83.166016,469.87451 83.686035,469.18018 C 90.97168,465.53857 99.644043,466.23291 107.44922,464.15283 C 95.827637,452.52979 84.207032,440.90967 72.759278,429.28662 C 70.331055,439.00244 59.57666,441.60498 51.771485,446.11377 C 57.148926,440.21533 62.525879,434.49072 67.902832,428.59619 C 60.443848,429.28662 53.159668,430.15381 45.874512,431.19775 C 45.354493,430.50342 43.966309,429.11377 43.27295,428.41943 C 51.425293,427.20654 59.57666,425.81787 67.555664,424.60498 C 56.80127,413.33057 45.700684,402.40186 34.773926,391.3042 C 30.78418,400.14893 21.417969,403.61865 13.438965,407.95459 C 18.642578,402.57861 24.019532,397.37451 29.223145,391.99561 C 25.580567,390.43701 20.89795,391.99561 17.428711,389.56982 C 16.735352,389.22021 15.347168,388.52588 14.827149,388.18018 C 19.683594,387.65869 24.3667,387.14014 29.223145,386.61865 C 22.458496,379.33545 15.17334,372.22412 9.6235354,363.89795 C 24.19336,374.3042 36.334961,387.65869 48.996094,400.49463 C 50.210938,395.98584 50.558106,390.95459 52.638672,386.61865 L 53.853516,385.57861 C 53.853516,390.78272 53.679688,395.98584 53.679688,401.01611 C 59.056641,396.33154 64.260254,391.6499 69.463868,386.7915 C 66.168457,394.42432 62.352051,401.88428 56.455078,407.60596 C 66.688477,418.18896 77.095215,428.59619 87.502442,439.00244 C 89.583985,430.84814 87.67627,420.79053 92.358887,413.50342 C 92.879395,412.98486 94.266602,412.11768 94.96045,411.59619 C 93.573243,420.79053 92.532227,429.98096 91.665039,439.34814 C 97.215821,434.49072 102.07227,429.28662 107.62305,424.60498 C 103.97998,432.06494 98.950196,439.00244 94.266602,445.94092 C 105.36768,457.03857 116.46875,468.14014 127.91602,479.06885 C 128.26318,430.15381 128.26318,381.41553 127.91602,332.50342 C 118.02979,338.22607 108.31641,344.64502 98.603028,350.54346 C 107.62305,340.48193 117.1626,330.94189 126.52881,321.229 C 122.19238,317.23975 117.68262,313.25049 113.17285,309.26123 C 108.49023,316.0249 100.68457,319.49463 93.573242,323.31006 C 98.256836,317.93311 103.11279,312.55615 107.62305,307.18018 C 98.950196,308.04736 90.277832,309.26123 81.778809,310.4751 C 82.298828,309.78174 83.166016,308.56689 83.686035,307.87354 C 90.97168,304.23096 99.644043,304.92432 107.44922,302.84326 C 95.827637,291.22217 84.207032,279.60059 72.759278,267.97998 C 70.331055,277.69336 59.57666,280.29541 51.771485,284.8042 C 57.148926,278.90723 62.525879,273.18359 67.902832,267.28662 C 60.443848,267.97998 53.159668,268.84717 45.874512,269.88818 C 45.354493,269.19385 43.966309,267.80664 43.27295,267.11279 C 51.425293,265.89844 59.57666,264.51123 67.555664,263.29639 C 56.80127,252.02246 45.700684,241.09522 34.773926,229.99463 C 30.78418,238.83984 21.417969,242.30908 13.438965,246.64502 C 18.642578,241.26904 24.019532,236.06543 29.223145,230.68848 C 25.580567,229.12744 20.89795,230.68848 17.428711,228.26025 C 16.735352,227.91309 15.347168,227.21924 14.827149,226.87207 C 19.683594,226.35205 24.3667,225.83106 29.223145,225.31104 C 22.458496,218.02588 15.17334,210.91553 9.6235354,202.58936 C 24.19336,212.99609 36.334961,226.35205 48.996094,239.18701 C 50.210938,234.67725 50.558106,229.64746 52.638672,225.31104 L 53.853516,224.27051 C 53.853516,229.47412 53.679688,234.67725 53.679688,239.70752 C 59.056641,235.02441 64.260254,230.34131 69.463868,225.48486 C 66.168457,233.1167 62.352051,240.57471 56.455078,246.29883 C 66.688477,256.87939 77.095215,267.28662 87.502442,277.69336 C 89.583985,269.54102 87.67627,259.48096 92.358887,252.1958 C 92.879395,251.67578 94.266602,250.80859 94.96045,250.2876 C 93.573243,259.48096 92.532227,268.67383 91.665039,278.04004 C 97.215821,273.18359 102.07227,267.97998 107.62305,263.29639 C 103.97998,270.75537 98.950196,277.69336 94.266602,284.63135 C 105.36768,295.73193 116.46875,306.83252 127.91602,317.75928 C 128.26318,268.84717 128.26318,220.10791 127.91602,171.19482 C 118.02979,176.91895 108.31641,183.33594 98.603028,189.23389 C 107.62305,179.17334 117.1626,169.63379 126.52881,159.92041 C 122.19238,155.93115 117.68262,151.94238 113.17285,147.95264 C 108.49023,154.7168 100.68457,158.18604 93.573242,162.00195 C 98.256836,156.625 103.11279,151.24756 107.62305,145.87158 C 98.950196,146.73877 90.277832,147.95264 81.778809,149.16699 C 82.298828,148.47314 83.166016,147.25879 83.686035,146.56494 C 90.97168,142.92236 99.644043,143.61621 107.44922,141.53516 C 95.827637,129.91357 84.207032,118.29248 72.759278,106.67139 C 70.331055,116.38525 59.57666,118.98682 51.771485,123.49561 C 57.148926,117.59863 62.525879,111.875 67.902832,105.97803 C 60.443848,106.67139 53.159668,107.53906 45.874512,108.57959 C 45.354493,107.88525 43.966309,106.49805 43.27295,105.8042 C 51.425293,104.58984 59.57666,103.20264 67.555664,101.98828 C 56.801269,90.713867 45.700684,79.787109 34.773926,68.686035 C 30.78418,77.531738 21.417969,81.000488 13.438965,85.336914 C 18.642578,79.960449 24.019531,74.757324 29.223145,69.379883 C 25.580566,67.991699 20.897949,69.379883 17.428711,66.95166 C 16.735352,66.604492 15.347168,65.910645 14.827148,65.563965 C 19.683594,65.043457 24.366699,64.522949 29.223145,64.00293 C 22.458496,56.717285 15.17334,49.606934 9.6235352,41.280762 C 24.193359,51.687988 36.334961,65.043457 48.996094,77.878906 C 50.210938,73.368652 50.558106,68.339355 52.638672,64.00293 L 53.853516,62.961914 C 53.853516,68.165527 53.679688,73.368652 53.679688,78.398926 C 59.056641,73.716308 64.260254,69.032715 69.463867,64.176269 C 66.168457,71.808105 62.352051,79.266113 56.455078,84.990723 C 66.688477,95.570801 77.095215,105.97803 87.502442,116.38525 C 89.583984,108.23242 87.67627,98.172851 92.358887,90.887695 C 92.879395,90.367676 94.266602,89.500488 94.960449,88.979492 C 93.573242,98.172851 92.532227,107.36523 91.665039,116.73145 C 97.21582,111.875 102.07227,106.67139 107.62305,101.98828 C 103.97998,109.44678 98.950195,116.38525 94.266602,123.32275 C 105.36768,134.42383 116.46875,145.52441 127.91602,156.45117 C 128.43652,104.4165 127.91602,52.208496 128.08936,0 L 128.08936,0 z "
   style="fill:#00c400"
   id="path4936" />
		</g>
		<g
   transform="matrix(0.9803658,0,0,0.9803658,1.9228139,13.21353)"
   id="Ebene_3">
			<circle
   cx="8.925293"
   cy="67.333496"
   r="8.4916992"
   style="fill:#fd0000"
   id="circle4939" /> 
			<circle
   cx="53.208496"
   cy="55.258301"
   r="8.4916992"
   style="fill:#fd0000"
   id="circle4941" /> 
			<circle
   cx="37.432129"
   cy="107.85059"
   r="8.4916992"
   style="fill:#fd0000"
   id="circle4943" /> 
			<circle
   cx="93.46875"
   cy="82.64209"
   r="8.4916992"
   style="fill:#fd0000"
   id="circle4945" /> 
			<circle
   cx="75.333496"
   cy="148.11084"
   r="8.4916992"
   style="fill:#fd0000"
   id="circle4947" /> 
			<circle
   cx="8.4916992"
   cy="229.50928"
   r="8.4916992"
   style="fill:#fd0000"
   id="circle4949" /> 
			<circle
   cx="52.774902"
   cy="217.43408"
   r="8.4916992"
   style="fill:#fd0000"
   id="circle4951" /> 
			<circle
   cx="36.998291"
   cy="270.02637"
   r="8.4914551"
   style="fill:#fd0000"
   id="circle4953" /> 
			<circle
   cx="93.0354"
   cy="244.81738"
   r="8.4914551"
   style="fill:#fd0000"
   id="circle4955" /> 
			<circle
   cx="74.900146"
   cy="310.28662"
   r="8.4919434"
   style="fill:#fd0000"
   id="circle4957" /> 
			<circle
   cx="9.3588867"
   cy="390.81787"
   r="8.4916992"
   style="fill:#fd0000"
   id="circle4959" /> 
			<circle
   cx="53.64209"
   cy="378.74268"
   r="8.4916992"
   style="fill:#fd0000"
   id="circle4961" /> 
			<circle
   cx="37.865723"
   cy="431.33447"
   r="8.4916992"
   style="fill:#fd0000"
   id="circle4963" /> 
			<circle
   cx="93.902832"
   cy="406.12549"
   r="8.4912109"
   style="fill:#fd0000"
   id="circle4965" /> 
			<path
   d="M 84.258789,471.59619 C 84.258789,476.28467 80.457031,480.08545 75.767578,480.08545 C 71.077148,480.08545 67.275391,476.28467 67.275391,471.59619 C 67.275391,466.90381 71.077148,463.10303 75.767578,463.10303 C 80.457031,463.10303 84.258789,466.90381 84.258789,471.59619 z "
   style="fill:#fd0000"
   id="path4967" />
			<circle
   cx="251.74121"
   cy="484.04736"
   r="8.4921875"
   style="fill:#fd0000"
   id="circle4969" /> 
			<circle
   cx="207.45654"
   cy="471.97217"
   r="8.4926758"
   style="fill:#fd0000"
   id="circle4971" /> 
			<circle
   cx="223.23486"
   cy="524.56299"
   r="8.4897461"
   style="fill:#fd0000"
   id="circle4973" /> 
			<path
   d="M 158.70752,499.35498 C 158.70752,504.04443 162.50488,507.84717 167.19727,507.84717 C 171.8877,507.84717 175.68652,504.04443 175.68652,499.35498 C 175.68652,494.66553 171.8877,490.86279 167.19727,490.86279 C 162.50488,490.86279 158.70752,494.66553 158.70752,499.35498 z "
   style="fill:#fd0000"
   id="path4975" />
			<path
   d="M 176.8418,564.82568 C 176.8418,569.51416 180.6416,573.31592 185.33105,573.31592 C 190.02344,573.31592 193.82129,569.51416 193.82129,564.82568 C 193.82129,560.13428 190.02344,556.33252 185.33105,556.33252 C 180.6416,556.33252 176.8418,560.13428 176.8418,564.82568 z "
   style="fill:#fd0000"
   id="path4977" />
			<circle
   cx="251.74121"
   cy="322.73877"
   r="8.4921875"
   style="fill:#fd0000"
   id="circle4979" /> 
			<circle
   cx="207.45654"
   cy="310.66357"
   r="8.4926758"
   style="fill:#fd0000"
   id="circle4981" /> 
			<circle
   cx="223.23486"
   cy="363.25537"
   r="8.4897461"
   style="fill:#fd0000"
   id="circle4983" /> 
			<path
   d="M 158.70752,338.04639 C 158.70752,342.73584 162.50488,346.53857 167.19727,346.53857 C 171.8877,346.53857 175.68652,342.73584 175.68652,338.04639 C 175.68652,333.35791 171.8877,329.55518 167.19727,329.55518 C 162.50488,329.55518 158.70752,333.35791 158.70752,338.04639 z "
   style="fill:#fd0000"
   id="path4985" />
			<path
   d="M 176.8418,403.51709 C 176.8418,408.20557 180.6416,412.00635 185.33105,412.00635 C 190.02344,412.00635 193.82129,408.20557 193.82129,403.51709 C 193.82129,398.82471 190.02344,395.02393 185.33105,395.02393 C 180.6416,395.02393 176.8418,398.82471 176.8418,403.51709 z "
   style="fill:#fd0000"
   id="path4987" />
			<circle
   cx="253.04199"
   cy="160.99658"
   r="8.4921875"
   style="fill:#fd0000"
   id="circle4989" /> 
			<circle
   cx="208.75732"
   cy="148.92139"
   r="8.4926758"
   style="fill:#fd0000"
   id="circle4991" /> 
			<circle
   cx="224.53564"
   cy="201.51367"
   r="8.4897461"
   style="fill:#fd0000"
   id="circle4993" /> 
			<path
   d="M 160.0083,176.3042 C 160.0083,180.99414 163.80615,184.79688 168.49805,184.79688 C 173.18848,184.79688 176.9873,180.99414 176.9873,176.3042 C 176.9873,171.61572 173.18848,167.81299 168.49805,167.81299 C 163.80615,167.81299 160.0083,171.61572 160.0083,176.3042 z "
   style="fill:#fd0000"
   id="path4995" />
			<path
   d="M 178.14258,241.77441 C 178.14258,246.46338 181.94238,250.26416 186.63184,250.26416 C 191.32422,250.26416 195.12207,246.46338 195.12207,241.77441 C 195.12207,237.08252 191.32422,233.28174 186.63184,233.28174 C 181.94238,233.28174 178.14258,237.08252 178.14258,241.77441 z "
   style="fill:#fd0000"
   id="path4997" />
		</g>
	</svg>