<?xml version="1.0" encoding="UTF-8" standalone="no"?>
<!-- Created with Inkscape (http://www.inkscape.org/) -->
<svg
   xmlns:svg="http://www.w3.org/2000/svg"
   xmlns="http://www.w3.org/2000/svg"
   version="1.0"
   width="624.00781"
   height="472.42773"
   viewBox="0 0 624.00781 472.42773"
   id="svg5137"
   xml:space="preserve"><defs
   id="defs5248" />
	
		<g
   transform="matrix(0.9859799,0,0,0.9859799,4,6.6234915)"
   id="Ebene_4">
			<g
   id="g5142">
				<polygon
   points="443.52051,43.527832 443.36426,43.590332 443.60547,43.714356 443.52051,43.527832 "
   style="fill:none"
   id="polygon5144" />
				<polygon
   points="182.2793,46.540527 182.52148,46.415527 182.36523,46.353027 182.2793,46.540527 "
   style="fill:none"
   id="polygon5146" />
				<path
   d="M 614.62207,220.9707 L 614.4541,219.56738 L 585.35254,223.04395 L 608.24121,202.25781 L 607.29297,201.21191 L 584.50977,221.90234 L 583.30566,201.67188 L 577.86035,219.5625 L 581.51465,222.78223 L 516.62988,227.97266 L 557.56738,167.2124 L 558.80273,172.32715 L 577.32129,177.35645 L 562.60645,167.33447 L 590.42578,172.78711 L 590.69824,171.40137 L 559.91797,165.36768 L 584.88574,155.84082 L 584.37988,154.521 L 559.14355,164.15039 L 574.25293,138.83594 L 573.03906,138.11133 L 558.0166,163.28076 L 555.54199,132.44922 L 554.13477,132.5625 L 556.59668,163.24219 L 539.84277,151.83154 L 550.67773,167.08057 L 554.79004,166.27979 L 514.08887,226.68848 L 507.03516,193.86328 L 502.7373,223.62012 L 509.83691,228.16113 L 321.77832,274.0957 C 321.41016,273.37012 320.9541,272.69531 320.41406,272.08887 L 413.13965,108.43066 L 416.01855,115.13379 L 446.72656,118.07617 L 416.53027,104.28613 L 480.63867,95.159668 L 477.84766,99.423828 L 486.90039,116.35107 L 483.65039,95.983398 L 509.61133,119.94141 L 510.56836,118.90234 L 484.16211,94.535156 L 512.05273,98.322266 L 512.24316,96.922363 L 484.05176,93.094238 L 510.12109,76.59082 L 509.36523,75.397461 L 483.63086,91.688476 L 495.45019,65.124023 L 494.15918,64.549805 L 482.73242,90.231445 L 479.75391,71.571777 L 476.09277,89.913086 L 479.63184,92.448242 L 415.08691,101.63721 L 444.24414,45.110351 L 446.31055,49.626953 L 465.46582,51.012207 L 445.71875,42.547363 L 471.86328,33.92334 L 471.42187,32.581055 L 445.0459,41.283203 L 461.91504,16.831543 L 460.75293,16.029785 L 443.94336,40.394531 L 443.50781,12.814941 L 442.09473,12.836914 L 442.5293,40.388672 L 427.57617,19.791992 L 426.43359,20.62207 L 440.83105,40.452148 L 423.78516,33.144531 L 437.3291,46.035645 L 441.44922,44.366211 L 412.53418,100.42627 L 386.24121,52.964355 L 391.40527,53.277832 L 401.64648,37.037598 L 385.28809,50.151855 L 389.0918,24.258789 L 387.69238,24.053223 L 383.89062,49.943848 L 372.5459,25.574219 L 371.26562,26.169922 L 382.81445,50.980469 L 358.63379,40.331055 L 358.06543,41.624023 L 382.21777,52.259766 L 354.88281,60.556152 L 355.29395,61.908203 L 379.96582,54.419434 L 366.26758,65.401856 L 384.0127,59.510742 L 384.43457,55.532715 L 409.71777,101.17432 L 380.43262,87.800293 L 401.71582,109.02539 L 408.63672,106.40918 L 317.02637,269.62891 C 315.79199,269.08691 314.4248,268.77637 312.98047,268.77637 C 311.3291,268.77637 309.77539,269.17676 308.41016,269.875 L 217.16895,109.20264 L 224.16602,111.85059 L 245.46191,90.625488 L 216.16113,104.00391 L 241.45508,58.354004 L 241.87402,62.335938 L 259.62695,68.227051 L 245.93164,57.248047 L 270.59766,64.733399 L 271.00684,63.381348 L 243.66895,55.084961 L 267.8252,44.449219 L 267.25586,43.156738 L 243.07031,53.805176 L 254.62109,28.995117 L 253.34082,28.399414 L 241.99609,52.769043 L 238.2002,26.878418 L 236.80273,27.083984 L 240.59766,52.97168 L 224.24658,39.862793 L 234.47949,56.103027 L 239.64648,55.790039 L 213.34912,103.25195 L 184.4375,47.192871 L 188.55176,48.86084 L 202.10498,35.970215 L 185.04932,43.282227 L 199.45117,23.447266 L 198.30762,22.617188 L 183.35303,43.212402 L 183.79395,15.662109 L 182.38135,15.640137 L 181.93994,43.220215 L 165.13135,18.85498 L 163.96826,19.656738 L 180.83545,44.10791 L 154.47168,35.407227 L 154.25049,36.077637 L 154.02881,36.748535 L 180.16797,45.374023 L 160.42725,53.837402 L 179.57178,52.452148 L 181.64111,47.93457 L 210.79443,104.4624 L 146.25635,95.273438 L 149.78955,92.738281 L 146.12598,74.396973 L 143.15039,93.047363 L 131.72363,67.375 L 130.43262,67.949219 L 142.25635,94.512695 L 116.52246,78.223145 L 115.76611,79.416016 L 141.83643,95.919434 L 113.646,99.747559 L 113.83643,101.14746 L 141.72363,97.360352 L 115.32129,121.72803 L 116.28027,122.7666 L 142.22998,98.814941 L 138.98193,119.17627 L 148.03223,102.24902 L 145.25,97.985352 L 209.35547,107.11182 L 179.15625,120.90137 L 209.86865,117.95898 L 212.7583,111.24268 L 305.03223,272.72461 C 304.64062,273.25 304.30078,273.81348 304.02539,274.41211 L 116.76318,230.53223 L 123.1543,226.44531 L 118.8501,196.68848 L 111.82373,229.375 L 111.68213,229.3418 L 71.087402,169.10449 L 75.204101,169.90527 L 86.03418,154.65674 L 69.285645,166.0625 L 71.749512,135.3877 L 70.341309,135.27441 L 67.866211,166.09473 L 52.84668,140.93652 L 51.634277,141.66113 L 66.749512,166.98047 L 41.497559,157.34619 L 40.994141,158.66602 L 65.96582,168.19385 L 35.180176,174.22656 L 35.452149,175.6123 L 63.266113,170.16211 L 48.554688,180.18164 L 67.079102,175.15234 L 68.311035,170.04004 L 109.25684,230.79785 L 44.367188,225.60645 L 48.026856,222.3877 L 42.570313,204.49805 L 41.369141,224.72559 L 18.587402,204.03711 L 17.638184,205.08301 L 40.527832,225.87012 L 11.43457,222.39258 L 11.266602,223.7959 L 40.546387,227.29492 L 17.493652,241.40137 L 18.231445,242.60742 L 41.029297,228.65527 L 26.999024,256.71582 L 28.262695,257.34766 L 40.938477,231.99609 L 39.883789,249.76367 L 47.21875,232.02539 L 44.334473,228.43848 L 109.32471,233.63867 L 76.020508,275.9082 L 74.633301,271.56152 L 56.056153,269.3877 L 72.967774,278.0166 L 47.608399,284.90332 L 47.978028,286.26562 L 74.838867,278.97266 L 74.954102,279.03027 L 58.736817,302.08301 L 59.892578,302.89746 L 76.192383,279.72852 L 76.193848,279.72949 L 78.271973,307.55273 L 79.680176,307.44824 L 77.660645,280.41113 L 78.307617,280.74219 L 94.463379,300.0625 L 95.547363,299.15723 L 81.519531,282.37988 L 96.446777,289.99707 L 83.138672,276.16699 L 78.404297,277.44922 L 110.15186,237.1543 L 103.53125,267.95117 L 119.51416,241.56152 L 115.37744,234.40918 L 303.24902,279.42773 C 303.40527,280.68457 303.81152,281.86426 304.42383,282.9209 L 276.21387,284.69336 L 305.4541,294.01562 C 305.4541,294.01562 308.84473,290.2002 310.54004,288.36523 C 310.68066,349.67383 310.39844,411.12207 310.54004,472.42773 C 311.66992,472.42773 313.64746,472.42773 314.77734,472.42773 C 314.91895,411.12207 314.63574,349.67383 314.77734,288.36523 C 316.47266,290.2002 319.86426,294.01562 319.86426,294.01562 L 349.10352,284.83398 L 321.43359,283.08594 C 322.1084,281.97656 322.55762,280.72754 322.71973,279.3877 L 509.97949,232.50391 L 506.37207,238.73633 L 522.34766,265.12598 L 515.72949,234.31934 L 547.47266,274.62109 L 542.74512,273.34082 L 529.4375,287.17188 L 544.35156,279.5625 L 530.33105,296.33203 L 531.41504,297.2373 L 547.56152,277.92578 L 548.21777,277.58984 L 546.2002,304.62305 L 547.60938,304.72754 L 549.68555,276.9043 L 549.68848,276.90332 L 565.99121,300.07227 L 567.14746,299.25781 L 550.92773,276.20801 L 551.0459,276.14746 L 577.91211,283.44043 L 578.28125,282.07812 L 552.91797,275.19238 L 569.83203,266.5625 L 551.24414,268.73633 L 549.86328,273.08984 L 516.56055,230.81348 L 581.54395,225.61523 L 578.66211,229.20117 L 586.00098,246.93848 L 584.94336,229.16895 L 597.61426,254.52246 L 598.87793,253.89062 L 584.85254,225.82715 L 607.64746,239.78223 L 608.38379,238.57617 L 585.33789,224.46973 L 614.62207,220.9707 z M 443.52051,43.527832 L 443.60547,43.714355 L 443.36426,43.590332 L 443.52051,43.527832 z M 182.2793,46.540527 L 182.36523,46.353027 L 182.52148,46.415527 L 182.2793,46.540527 z "
   style="fill:#08c408"
   id="path5148" />
			</g>
		</g>
		<g
   transform="matrix(0.9859799,0,0,0.9859799,4,6.6234915)"
   id="Ebene_3">
			<circle
   cx="97.235107"
   cy="301.6582"
   r="8.2404785"
   style="fill:#ff0000"
   id="circle5151" /> 
			<circle
   cx="18.128662"
   cy="204.1875"
   r="8.2404785"
   style="fill:#ff0000"
   id="circle5153" /> 
			<circle
   cx="8.2404785"
   cy="221.8457"
   r="8.2404785"
   style="fill:#ff0000"
   id="circle5155" /> 
			<circle
   cx="12.478271"
   cy="246.56641"
   r="8.2404785"
   style="fill:#ff0000"
   id="circle5157" /> 
			<circle
   cx="29.429932"
   cy="259.28027"
   r="8.2404785"
   style="fill:#ff0000"
   id="circle5159" /> 
			<circle
   cx="47.087646"
   cy="286.82617"
   r="8.2404785"
   style="fill:#ff0000"
   id="circle5161" /> 
			<circle
   cx="57.681885"
   cy="304.4834"
   r="8.2404785"
   style="fill:#ff0000"
   id="circle5163" /> 
			<circle
   cx="78.871338"
   cy="310.13379"
   r="8.2404785"
   style="fill:#ff0000"
   id="circle5165" /> 
			<circle
   cx="36.49292"
   cy="175.93555"
   r="8.2404785"
   style="fill:#ff0000"
   id="circle5167" /> 
			<circle
   cx="115.59937"
   cy="77.758789"
   r="8.2404785"
   style="fill:#ff0000"
   id="circle5169" /> 
			<circle
   cx="109.24243"
   cy="100.36035"
   r="8.2404785"
   style="fill:#ff0000"
   id="circle5171" /> 
			<circle
   cx="119.1311"
   cy="120.84375"
   r="8.2404785"
   style="fill:#ff0000"
   id="circle5173" /> 
			<circle
   cx="71.80835"
   cy="135.67578"
   r="8.2404785"
   style="fill:#ff0000"
   id="circle5175" /> 
			<circle
   cx="52.031494"
   cy="141.32666"
   r="8.2404785"
   style="fill:#ff0000"
   id="circle5177" /> 
			<circle
   cx="38.611572"
   cy="155.45264"
   r="8.2404785"
   style="fill:#ff0000"
   id="circle5179" /> 
			<circle
   cx="131.13794"
   cy="65.04541"
   r="8.2404785"
   style="fill:#ff0000"
   id="circle5181" /> 
			<circle
   cx="272.3999"
   cy="64.338867"
   r="8.2407227"
   style="fill:#ff0000"
   id="circle5183" /> 
			<circle
   cx="270.28076"
   cy="42.443359"
   r="8.2407227"
   style="fill:#ff0000"
   id="circle5185" /> 
			<circle
   cx="256.86084"
   cy="24.079102"
   r="8.2407227"
   style="fill:#ff0000"
   id="circle5187" /> 
			<circle
   cx="237.08447"
   cy="21.960449"
   r="8.2407227"
   style="fill:#ff0000"
   id="circle5189" /> 
			<circle
   cx="202.47534"
   cy="19.135254"
   r="8.2404785"
   style="fill:#ff0000"
   id="circle5191" /> 
			<circle
   cx="184.11108"
   cy="10.659668"
   r="8.2404785"
   style="fill:#ff0000"
   id="circle5193" /> 
			<circle
   cx="162.21558"
   cy="17.016113"
   r="8.2404785"
   style="fill:#ff0000"
   id="circle5195" /> 
			<circle
   cx="150.91479"
   cy="34.673828"
   r="8.2404785"
   style="fill:#ff0000"
   id="circle5197" /> 
			<path
   d="M 518.54199,299.23926 C 518.54199,303.79004 522.23047,307.47949 526.76562,307.47949 C 531.32031,307.47949 535.00879,303.79004 535.00879,299.23926 C 535.00879,294.6875 531.32031,290.99902 526.76562,290.99902 C 522.23047,290.99902 518.54199,294.6875 518.54199,299.23926 z "
   style="fill:#ff0000"
   id="path5199" />
			<path
   d="M 597.63086,201.76855 C 597.63086,206.31934 601.31934,210.00977 605.87598,210.00977 C 610.43066,210.00977 614.12012,206.31934 614.12012,201.76855 C 614.12012,197.21777 610.43066,193.52832 605.87598,193.52832 C 601.31934,193.52832 597.63086,197.21777 597.63086,201.76855 z "
   style="fill:#ff0000"
   id="path5201" />
			<path
   d="M 607.52051,219.42578 C 607.52051,223.97656 611.20898,227.66699 615.76465,227.66699 C 620.31934,227.66699 624.00781,223.97656 624.00781,219.42578 C 624.00781,214.875 620.31934,211.18652 615.76465,211.18652 C 611.20898,211.18652 607.52051,214.875 607.52051,219.42578 z "
   style="fill:#ff0000"
   id="path5203" />
			<path
   d="M 603.29785,244.14648 C 603.29785,248.69824 606.98633,252.3877 611.51953,252.3877 C 616.07422,252.3877 619.76367,248.69824 619.76367,244.14648 C 619.76367,239.5957 616.07422,235.90723 611.51953,235.90723 C 606.98633,235.90723 603.29785,239.5957 603.29785,244.14648 z "
   style="fill:#ff0000"
   id="path5205" />
			<path
   d="M 586.3418,256.86035 C 586.3418,261.41113 590.03125,265.10156 594.58594,265.10156 C 599.11914,265.10156 602.80762,261.41113 602.80762,256.86035 C 602.80762,252.30957 599.11914,248.62012 594.58594,248.62012 C 590.03125,248.62012 586.3418,252.30957 586.3418,256.86035 z "
   style="fill:#ff0000"
   id="path5207" />
			<circle
   cx="576.91992"
   cy="284.40625"
   r="8.2441406"
   style="fill:#ff0000"
   id="circle5209" /> 
			<path
   d="M 558.07617,302.06445 C 558.07617,306.61523 561.76465,310.30566 566.31934,310.30566 C 570.875,310.30566 574.56348,306.61523 574.56348,302.06445 C 574.56348,297.5127 570.875,293.82422 566.31934,293.82422 C 561.76465,293.82422 558.07617,297.5127 558.07617,302.06445 z "
   style="fill:#ff0000"
   id="path5211" />
			<path
   d="M 536.89746,307.71484 C 536.89746,312.26563 540.58691,315.95605 545.1416,315.95605 C 549.69824,315.95605 553.38672,312.26563 553.38672,307.71484 C 553.38672,303.16309 549.69824,299.47461 545.1416,299.47461 C 540.58691,299.47461 536.89746,303.16309 536.89746,307.71484 z "
   style="fill:#ff0000"
   id="path5213" />
			<path
   d="M 579.27637,173.51562 C 579.27637,178.06738 582.96484,181.75684 587.52051,181.75684 C 592.0752,181.75684 595.76367,178.06738 595.76367,173.51562 C 595.76367,168.96484 592.0752,165.27637 587.52051,165.27637 C 582.96484,165.27637 579.27637,168.96484 579.27637,173.51562 z "
   style="fill:#ff0000"
   id="path5215" />
			<path
   d="M 500.16504,75.338867 C 500.16504,79.890137 503.85449,83.580078 508.40918,83.580078 C 512.96582,83.580078 516.65527,79.890137 516.65527,75.338867 C 516.65527,70.788086 512.96582,67.099121 508.40918,67.099121 C 503.85449,67.099121 500.16504,70.788086 500.16504,75.338867 z "
   style="fill:#ff0000"
   id="path5217" />
			<circle
   cx="514.76465"
   cy="97.940918"
   r="8.2441406"
   style="fill:#ff0000"
   id="circle5219" /> 
			<path
   d="M 496.63281,118.42383 C 496.63281,122.9751 500.32129,126.66504 504.87695,126.66504 C 509.43164,126.66504 513.12012,122.9751 513.12012,118.42383 C 513.12012,113.87305 509.43164,110.18408 504.87695,110.18408 C 500.32129,110.18408 496.63281,113.87305 496.63281,118.42383 z "
   style="fill:#ff0000"
   id="path5221" />
			<path
   d="M 543.96484,133.25635 C 543.96484,137.80762 547.65332,141.49756 552.20898,141.49756 C 556.74316,141.49756 560.43262,137.80762 560.43262,133.25635 C 560.43262,128.70557 556.74316,125.0166 552.20898,125.0166 C 547.65332,125.0166 543.96484,128.70557 543.96484,133.25635 z "
   style="fill:#ff0000"
   id="path5223" />
			<path
   d="M 563.74316,138.90674 C 563.74316,143.45801 567.43164,147.14795 571.9873,147.14795 C 576.51953,147.14795 580.20898,143.45801 580.20898,138.90674 C 580.20898,134.35596 576.51953,130.66699 571.9873,130.66699 C 567.43164,130.66699 563.74316,134.35596 563.74316,138.90674 z "
   style="fill:#ff0000"
   id="path5225" />
			<path
   d="M 577.16406,153.0332 C 577.16406,157.58398 580.85254,161.27441 585.3877,161.27441 C 589.94238,161.27441 593.63184,157.58398 593.63184,153.0332 C 593.63184,148.48193 589.94238,144.79297 585.3877,144.79297 C 580.85254,144.79297 577.16406,148.48193 577.16406,153.0332 z "
   style="fill:#ff0000"
   id="path5227" />
			<path
   d="M 484.63184,62.625488 C 484.63184,67.176758 488.32129,70.866699 492.87793,70.866699 C 497.41113,70.866699 501.12109,67.176758 501.12109,62.625488 C 501.12109,58.074707 497.41113,54.385742 492.87793,54.385742 C 488.32129,54.385742 484.63184,58.074707 484.63184,62.625488 z "
   style="fill:#ff0000"
   id="path5229" />
			<circle
   cx="351.61279"
   cy="61.919434"
   r="8.2446289"
   style="fill:#ff0000"
   id="circle5231" /> 
			<circle
   cx="353.72314"
   cy="40.023438"
   r="8.2446289"
   style="fill:#ff0000"
   id="circle5233" /> 
			<circle
   cx="367.146"
   cy="21.659668"
   r="8.2446289"
   style="fill:#ff0000"
   id="circle5235" /> 
			<circle
   cx="386.92285"
   cy="19.541016"
   r="8.2441406"
   style="fill:#ff0000"
   id="circle5237" /> 
			<path
   d="M 413.2998,16.715332 C 413.2998,21.266601 416.98828,24.956543 421.54492,24.956543 C 426.07812,24.956543 429.7666,21.266601 429.7666,16.715332 C 429.7666,12.164551 426.07812,8.4755859 421.54492,8.4755859 C 416.98828,8.4755859 413.2998,12.164551 413.2998,16.715332 z "
   style="fill:#ff0000"
   id="path5239" />
			<circle
   cx="439.8999"
   cy="8.2397461"
   r="8.2446289"
   style="fill:#ff0000"
   id="circle5241" /> 
			<path
   d="M 453.54395,14.59668 C 453.54395,19.147461 457.23242,22.837891 461.78906,22.837891 C 466.34375,22.837891 470.0332,19.147461 470.0332,14.59668 C 470.0332,10.04541 466.34375,6.3569336 461.78906,6.3569336 C 457.23242,6.3569336 453.54395,10.04541 453.54395,14.59668 z "
   style="fill:#ff0000"
   id="path5243" />
			<path
   d="M 464.85449,32.254394 C 464.85449,36.805176 468.54297,40.495605 473.09863,40.495605 C 477.63281,40.495605 481.34375,36.805176 481.34375,32.254394 C 481.34375,27.703125 477.63281,24.014648 473.09863,24.014648 C 468.54297,24.014648 464.85449,27.703125 464.85449,32.254394 z "
   style="fill:#ff0000"
   id="path5245" />
		</g>
	</svg>