<?xml version="1.0" encoding="UTF-8" standalone="no"?>
<!-- Created with Inkscape (http://www.inkscape.org/) -->
<svg
   xmlns:dc="http://purl.org/dc/elements/1.1/"
   xmlns:cc="http://web.resource.org/cc/"
   xmlns:rdf="http://www.w3.org/1999/02/22-rdf-syntax-ns#"
   xmlns:svg="http://www.w3.org/2000/svg"
   xmlns="http://www.w3.org/2000/svg"
   xmlns:sodipodi="http://inkscape.sourceforge.net/DTD/sodipodi-0.dtd"
   xmlns:inkscape="http://www.inkscape.org/namespaces/inkscape"
   width="350.00000px"
   height="580.00000px"
   id="svg2"
   sodipodi:version="0.32"
   inkscape:version="0.40+cvs"
   sodipodi:docbase="D:\"
   sodipodi:docname="KłosZłożony.svg">
  <defs
     id="defs3" />
  <sodipodi:namedview
     id="base"
     pagecolor="#ffffff"
     bordercolor="#666666"
     borderopacity="1.0"
     inkscape:pageopacity="0.0"
     inkscape:pageshadow="2"
     inkscape:zoom="0.98275862"
     inkscape:cx="149.99999"
     inkscape:cy="290.00000"
     inkscape:document-units="px"
     inkscape:current-layer="layer1"
     showguides="true"
     inkscape:guide-bbox="true"
     inkscape:window-width="1024"
     inkscape:window-height="749"
     inkscape:window-x="-4"
     inkscape:window-y="-4" />
  <metadata
     id="metadata4">
    <rdf:RDF
       id="RDF5">
      <cc:Work
         rdf:about=""
         id="Work6">
        <dc:format
           id="format7">image/svg+xml</dc:format>
        <dc:type
           id="type9"
           rdf:resource="http://purl.org/dc/dcmitype/StillImage" />
      </cc:Work>
    </rdf:RDF>
  </metadata>
  <g
     inkscape:label="Layer 1"
     inkscape:groupmode="layer"
     id="layer1">
    <g
       transform="matrix(2.080857,0.000000,0.000000,1.914502,-232.1028,-5.871485)"
       id="g4160">
      <path
         style="fill:none;fill-opacity:0.75000000;fill-rule:evenodd;stroke:#00c400;stroke-width:1.7075171;stroke-linecap:butt;stroke-linejoin:miter;stroke-miterlimit:4.0000000;stroke-opacity:1.0000000"
         d="M 195.79052,276.03591 L 120.62830,202.53768"
         id="path1568"
         sodipodi:nodetypes="cc" />
      <g
         id="g1500"
         transform="matrix(0.629660,-0.642131,0.640176,0.627743,45.53204,257.8775)">
        <path
           style="fill:#00c400;fill-opacity:1.0000000;fill-rule:evenodd;stroke:none;stroke-width:1.0000000px;stroke-linecap:butt;stroke-linejoin:miter;stroke-opacity:1.0000000"
           d="M 101.77158,56.042083 L 116.53387,54.709303 L 133.00061,49.003014 L 111.16210,61.418180 L 101.77158,56.042083 z "
           id="path1502"
           sodipodi:nodetypes="ccccc" />
        <path
           transform="matrix(0.886743,0.000000,0.000000,1.072854,-32.72316,-229.5595)"
           d="M 173.22844 257.88104 A 9.8476124 7.3857088 0 1 1  153.53322,257.88104 A 9.8476124 7.3857088 0 1 1  173.22844 257.88104 z"
           sodipodi:ry="7.3857088"
           sodipodi:rx="9.8476124"
           sodipodi:cy="257.88104"
           sodipodi:cx="163.38083"
           id="path1504"
           style="fill:#ff0000;fill-opacity:1.0000000;fill-rule:nonzero;stroke:none;stroke-width:2.4500000;stroke-miterlimit:4.0000000;stroke-dashoffset:0.00000000;stroke-opacity:1.0000000"
           sodipodi:type="arc" />
      </g>
      <g
         id="g1506"
         transform="matrix(0.629660,-0.642131,0.640176,0.627743,63.85021,275.8475)">
        <path
           style="fill:#00c400;fill-opacity:1.0000000;fill-rule:evenodd;stroke:none;stroke-width:1.0000000px;stroke-linecap:butt;stroke-linejoin:miter;stroke-opacity:1.0000000"
           d="M 101.77158,56.042083 L 116.53387,54.709303 L 133.00061,49.003014 L 111.16210,61.418180 L 101.77158,56.042083 z "
           id="path1508"
           sodipodi:nodetypes="ccccc" />
        <path
           transform="matrix(0.886743,0.000000,0.000000,1.072854,-32.72316,-229.5595)"
           d="M 173.22844 257.88104 A 9.8476124 7.3857088 0 1 1  153.53322,257.88104 A 9.8476124 7.3857088 0 1 1  173.22844 257.88104 z"
           sodipodi:ry="7.3857088"
           sodipodi:rx="9.8476124"
           sodipodi:cy="257.88104"
           sodipodi:cx="163.38083"
           id="path1510"
           style="fill:#ff0000;fill-opacity:1.0000000;fill-rule:nonzero;stroke:none;stroke-width:2.4500000;stroke-miterlimit:4.0000000;stroke-dashoffset:0.00000000;stroke-opacity:1.0000000"
           sodipodi:type="arc" />
      </g>
      <g
         id="g1542"
         transform="matrix(-0.629660,0.642131,0.640176,0.627743,163.9166,117.5659)">
        <path
           style="fill:#00c400;fill-opacity:1.0000000;fill-rule:evenodd;stroke:none;stroke-width:1.0000000px;stroke-linecap:butt;stroke-linejoin:miter;stroke-opacity:1.0000000"
           d="M 101.77158,56.042083 L 116.53387,54.709303 L 133.00061,49.003014 L 111.16210,61.418180 L 101.77158,56.042083 z "
           id="path1544"
           sodipodi:nodetypes="ccccc" />
        <path
           transform="matrix(0.886743,0.000000,0.000000,1.072854,-32.72316,-229.5595)"
           d="M 173.22844 257.88104 A 9.8476124 7.3857088 0 1 1  153.53322,257.88104 A 9.8476124 7.3857088 0 1 1  173.22844 257.88104 z"
           sodipodi:ry="7.3857088"
           sodipodi:rx="9.8476124"
           sodipodi:cy="257.88104"
           sodipodi:cx="163.38083"
           id="path1546"
           style="fill:#ff0000;fill-opacity:1.0000000;fill-rule:nonzero;stroke:none;stroke-width:2.4500000;stroke-miterlimit:4.0000000;stroke-dashoffset:0.00000000;stroke-opacity:1.0000000"
           sodipodi:type="arc" />
      </g>
      <g
         id="g1548"
         transform="matrix(-0.629660,0.642131,0.640176,0.627743,182.0198,135.3175)">
        <path
           style="fill:#00c400;fill-opacity:1.0000000;fill-rule:evenodd;stroke:none;stroke-width:1.0000000px;stroke-linecap:butt;stroke-linejoin:miter;stroke-opacity:1.0000000"
           d="M 101.77158,56.042083 L 116.53387,54.709303 L 133.00061,49.003014 L 111.16210,61.418180 L 101.77158,56.042083 z "
           id="path1550"
           sodipodi:nodetypes="ccccc" />
        <path
           transform="matrix(0.886743,0.000000,0.000000,1.072854,-32.72316,-229.5595)"
           d="M 173.22844 257.88104 A 9.8476124 7.3857088 0 1 1  153.53322,257.88104 A 9.8476124 7.3857088 0 1 1  173.22844 257.88104 z"
           sodipodi:ry="7.3857088"
           sodipodi:rx="9.8476124"
           sodipodi:cy="257.88104"
           sodipodi:cx="163.38083"
           id="path1552"
           style="fill:#ff0000;fill-opacity:1.0000000;fill-rule:nonzero;stroke:none;stroke-width:2.4500000;stroke-miterlimit:4.0000000;stroke-dashoffset:0.00000000;stroke-opacity:1.0000000"
           sodipodi:type="arc" />
      </g>
      <g
         id="g1554"
         transform="matrix(-0.629660,0.642131,0.640176,0.627743,200.1230,153.0691)">
        <path
           style="fill:#00c400;fill-opacity:1.0000000;fill-rule:evenodd;stroke:none;stroke-width:1.0000000px;stroke-linecap:butt;stroke-linejoin:miter;stroke-opacity:1.0000000"
           d="M 101.77158,56.042083 L 116.53387,54.709303 L 133.00061,49.003014 L 111.16210,61.418180 L 101.77158,56.042083 z "
           id="path1556"
           sodipodi:nodetypes="ccccc" />
        <path
           transform="matrix(0.886743,0.000000,0.000000,1.072854,-32.72316,-229.5595)"
           d="M 173.22844 257.88104 A 9.8476124 7.3857088 0 1 1  153.53322,257.88104 A 9.8476124 7.3857088 0 1 1  173.22844 257.88104 z"
           sodipodi:ry="7.3857088"
           sodipodi:rx="9.8476124"
           sodipodi:cy="257.88104"
           sodipodi:cx="163.38083"
           id="path1558"
           style="fill:#ff0000;fill-opacity:1.0000000;fill-rule:nonzero;stroke:none;stroke-width:2.4500000;stroke-miterlimit:4.0000000;stroke-dashoffset:0.00000000;stroke-opacity:1.0000000"
           sodipodi:type="arc" />
      </g>
      <path
         style="fill:none;fill-opacity:0.75000000;fill-rule:evenodd;stroke:#00c400;stroke-width:1.7075171;stroke-linecap:butt;stroke-linejoin:miter;stroke-miterlimit:4.0000000;stroke-opacity:1.0000000"
         d="M 195.49346,239.75241 L 270.65568,166.25418"
         id="path1484"
         sodipodi:nodetypes="cc" />
      <g
         id="g1486"
         transform="matrix(-0.629660,-0.642131,-0.640176,0.627743,345.9842,221.8264)">
        <path
           style="fill:#00c400;fill-opacity:1.0000000;fill-rule:evenodd;stroke:none;stroke-width:1.0000000px;stroke-linecap:butt;stroke-linejoin:miter;stroke-opacity:1.0000000"
           d="M 101.77158,56.042083 L 116.53387,54.709303 L 133.00061,49.003014 L 111.16210,61.418180 L 101.77158,56.042083 z "
           id="path1488"
           sodipodi:nodetypes="ccccc" />
        <path
           transform="matrix(0.886743,0.000000,0.000000,1.072854,-32.72316,-229.5595)"
           d="M 173.22844 257.88104 A 9.8476124 7.3857088 0 1 1  153.53322,257.88104 A 9.8476124 7.3857088 0 1 1  173.22844 257.88104 z"
           sodipodi:ry="7.3857088"
           sodipodi:rx="9.8476124"
           sodipodi:cy="257.88104"
           sodipodi:cx="163.38083"
           id="path1490"
           style="fill:#ff0000;fill-opacity:1.0000000;fill-rule:nonzero;stroke:none;stroke-width:2.4500000;stroke-miterlimit:4.0000000;stroke-dashoffset:0.00000000;stroke-opacity:1.0000000"
           sodipodi:type="arc" />
      </g>
      <g
         id="g1492"
         transform="matrix(-0.629660,-0.642131,-0.640176,0.627743,327.8209,239.4091)">
        <path
           style="fill:#00c400;fill-opacity:1.0000000;fill-rule:evenodd;stroke:none;stroke-width:1.0000000px;stroke-linecap:butt;stroke-linejoin:miter;stroke-opacity:1.0000000"
           d="M 101.77158,56.042083 L 116.53387,54.709303 L 133.00061,49.003014 L 111.16210,61.418180 L 101.77158,56.042083 z "
           id="path1494"
           sodipodi:nodetypes="ccccc" />
        <path
           transform="matrix(0.886743,0.000000,0.000000,1.072854,-32.72316,-229.5595)"
           d="M 173.22844 257.88104 A 9.8476124 7.3857088 0 1 1  153.53322,257.88104 A 9.8476124 7.3857088 0 1 1  173.22844 257.88104 z"
           sodipodi:ry="7.3857088"
           sodipodi:rx="9.8476124"
           sodipodi:cy="257.88104"
           sodipodi:cx="163.38083"
           id="path1496"
           style="fill:#ff0000;fill-opacity:1.0000000;fill-rule:nonzero;stroke:none;stroke-width:2.4500000;stroke-miterlimit:4.0000000;stroke-dashoffset:0.00000000;stroke-opacity:1.0000000"
           sodipodi:type="arc" />
      </g>
      <g
         id="g1498"
         transform="matrix(0.629660,0.642131,-0.640176,0.627743,227.3673,81.28240)">
        <path
           style="fill:#00c400;fill-opacity:1.0000000;fill-rule:evenodd;stroke:none;stroke-width:1.0000000px;stroke-linecap:butt;stroke-linejoin:miter;stroke-opacity:1.0000000"
           d="M 101.77158,56.042083 L 116.53387,54.709303 L 133.00061,49.003014 L 111.16210,61.418180 L 101.77158,56.042083 z "
           id="path1500"
           sodipodi:nodetypes="ccccc" />
        <path
           transform="matrix(0.886743,0.000000,0.000000,1.072854,-32.72316,-229.5595)"
           d="M 173.22844 257.88104 A 9.8476124 7.3857088 0 1 1  153.53322,257.88104 A 9.8476124 7.3857088 0 1 1  173.22844 257.88104 z"
           sodipodi:ry="7.3857088"
           sodipodi:rx="9.8476124"
           sodipodi:cy="257.88104"
           sodipodi:cx="163.38083"
           id="path1503"
           style="fill:#ff0000;fill-opacity:1.0000000;fill-rule:nonzero;stroke:none;stroke-width:2.4500000;stroke-miterlimit:4.0000000;stroke-dashoffset:0.00000000;stroke-opacity:1.0000000"
           sodipodi:type="arc" />
      </g>
      <g
         id="g1505"
         transform="matrix(0.629660,0.642131,-0.640176,0.627743,209.2642,99.03401)">
        <path
           style="fill:#00c400;fill-opacity:1.0000000;fill-rule:evenodd;stroke:none;stroke-width:1.0000000px;stroke-linecap:butt;stroke-linejoin:miter;stroke-opacity:1.0000000"
           d="M 101.77158,56.042083 L 116.53387,54.709303 L 133.00061,49.003014 L 111.16210,61.418180 L 101.77158,56.042083 z "
           id="path1507"
           sodipodi:nodetypes="ccccc" />
        <path
           transform="matrix(0.886743,0.000000,0.000000,1.072854,-32.72316,-229.5595)"
           d="M 173.22844 257.88104 A 9.8476124 7.3857088 0 1 1  153.53322,257.88104 A 9.8476124 7.3857088 0 1 1  173.22844 257.88104 z"
           sodipodi:ry="7.3857088"
           sodipodi:rx="9.8476124"
           sodipodi:cy="257.88104"
           sodipodi:cx="163.38083"
           id="path1509"
           style="fill:#ff0000;fill-opacity:1.0000000;fill-rule:nonzero;stroke:none;stroke-width:2.4500000;stroke-miterlimit:4.0000000;stroke-dashoffset:0.00000000;stroke-opacity:1.0000000"
           sodipodi:type="arc" />
      </g>
      <g
         id="g1511"
         transform="matrix(0.629660,0.642131,-0.640176,0.627743,191.1610,116.7856)">
        <path
           style="fill:#00c400;fill-opacity:1.0000000;fill-rule:evenodd;stroke:none;stroke-width:1.0000000px;stroke-linecap:butt;stroke-linejoin:miter;stroke-opacity:1.0000000"
           d="M 101.77158,56.042083 L 116.53387,54.709303 L 133.00061,49.003014 L 111.16210,61.418180 L 101.77158,56.042083 z "
           id="path1513"
           sodipodi:nodetypes="ccccc" />
        <path
           transform="matrix(0.886743,0.000000,0.000000,1.072854,-32.72316,-229.5595)"
           d="M 173.22844 257.88104 A 9.8476124 7.3857088 0 1 1  153.53322,257.88104 A 9.8476124 7.3857088 0 1 1  173.22844 257.88104 z"
           sodipodi:ry="7.3857088"
           sodipodi:rx="9.8476124"
           sodipodi:cy="257.88104"
           sodipodi:cx="163.38083"
           id="path1515"
           style="fill:#ff0000;fill-opacity:1.0000000;fill-rule:nonzero;stroke:none;stroke-width:2.4500000;stroke-miterlimit:4.0000000;stroke-dashoffset:0.00000000;stroke-opacity:1.0000000"
           sodipodi:type="arc" />
      </g>
      <path
         style="fill:none;fill-opacity:0.75000000;fill-rule:evenodd;stroke:#00c400;stroke-width:1.7075175;stroke-linecap:butt;stroke-linejoin:miter;stroke-miterlimit:4.0000000;stroke-opacity:1.0000000"
         d="M 195.59017,207.61061 L 139.21850,152.48692"
         id="path1519"
         sodipodi:nodetypes="cc" />
      <g
         id="g1521"
         transform="matrix(0.629659,-0.642131,0.640176,0.627743,54.80440,199.1042)">
        <path
           style="fill:#00c400;fill-opacity:1.0000000;fill-rule:evenodd;stroke:none;stroke-width:1.0000000px;stroke-linecap:butt;stroke-linejoin:miter;stroke-opacity:1.0000000"
           d="M 101.77158,56.042083 L 116.53387,54.709303 L 133.00061,49.003014 L 111.16210,61.418180 L 101.77158,56.042083 z "
           id="path1523"
           sodipodi:nodetypes="ccccc" />
        <path
           transform="matrix(0.886743,0.000000,0.000000,1.072854,-32.72316,-229.5595)"
           d="M 173.22844 257.88104 A 9.8476124 7.3857088 0 1 1  153.53322,257.88104 A 9.8476124 7.3857088 0 1 1  173.22844 257.88104 z"
           sodipodi:ry="7.3857088"
           sodipodi:rx="9.8476124"
           sodipodi:cy="257.88104"
           sodipodi:cx="163.38083"
           id="path1525"
           style="fill:#ff0000;fill-opacity:1.0000000;fill-rule:nonzero;stroke:none;stroke-width:2.4500000;stroke-miterlimit:4.0000000;stroke-dashoffset:0.00000000;stroke-opacity:1.0000000"
           sodipodi:type="arc" />
      </g>
      <g
         id="g1527"
         transform="matrix(0.629659,-0.642131,0.640176,0.627743,72.73532,216.2997)">
        <path
           style="fill:#00c400;fill-opacity:1.0000000;fill-rule:evenodd;stroke:none;stroke-width:1.0000000px;stroke-linecap:butt;stroke-linejoin:miter;stroke-opacity:1.0000000"
           d="M 101.77158,56.042083 L 116.53387,54.709303 L 133.00061,49.003014 L 111.16210,61.418180 L 101.77158,56.042083 z "
           id="path1529"
           sodipodi:nodetypes="ccccc" />
        <path
           transform="matrix(0.886743,0.000000,0.000000,1.072854,-32.72316,-229.5595)"
           d="M 173.22844 257.88104 A 9.8476124 7.3857088 0 1 1  153.53322,257.88104 A 9.8476124 7.3857088 0 1 1  173.22844 257.88104 z"
           sodipodi:ry="7.3857088"
           sodipodi:rx="9.8476124"
           sodipodi:cy="257.88104"
           sodipodi:cx="163.38083"
           id="path1531"
           style="fill:#ff0000;fill-opacity:1.0000000;fill-rule:nonzero;stroke:none;stroke-width:2.4500000;stroke-miterlimit:4.0000000;stroke-dashoffset:0.00000000;stroke-opacity:1.0000000"
           sodipodi:type="arc" />
      </g>
      <g
         id="g1539"
         transform="matrix(-0.629659,0.642131,0.640176,0.627743,191.2148,76.07946)">
        <path
           style="fill:#00c400;fill-opacity:1.0000000;fill-rule:evenodd;stroke:none;stroke-width:1.0000000px;stroke-linecap:butt;stroke-linejoin:miter;stroke-opacity:1.0000000"
           d="M 101.77158,56.042083 L 116.53387,54.709303 L 133.00061,49.003014 L 111.16210,61.418180 L 101.77158,56.042083 z "
           id="path1541"
           sodipodi:nodetypes="ccccc" />
        <path
           transform="matrix(0.886743,0.000000,0.000000,1.072854,-32.72316,-229.5595)"
           d="M 173.22844 257.88104 A 9.8476124 7.3857088 0 1 1  153.53322,257.88104 A 9.8476124 7.3857088 0 1 1  173.22844 257.88104 z"
           sodipodi:ry="7.3857088"
           sodipodi:rx="9.8476124"
           sodipodi:cy="257.88104"
           sodipodi:cx="163.38083"
           id="path1543"
           style="fill:#ff0000;fill-opacity:1.0000000;fill-rule:nonzero;stroke:none;stroke-width:2.4500000;stroke-miterlimit:4.0000000;stroke-dashoffset:0.00000000;stroke-opacity:1.0000000"
           sodipodi:type="arc" />
      </g>
      <g
         id="g1545"
         transform="matrix(-0.629659,0.642131,0.640176,0.627743,209.3179,93.83106)">
        <path
           style="fill:#00c400;fill-opacity:1.0000000;fill-rule:evenodd;stroke:none;stroke-width:1.0000000px;stroke-linecap:butt;stroke-linejoin:miter;stroke-opacity:1.0000000"
           d="M 101.77158,56.042083 L 116.53387,54.709303 L 133.00061,49.003014 L 111.16210,61.418180 L 101.77158,56.042083 z "
           id="path1547"
           sodipodi:nodetypes="ccccc" />
        <path
           transform="matrix(0.886743,0.000000,0.000000,1.072854,-32.72316,-229.5595)"
           d="M 173.22844 257.88104 A 9.8476124 7.3857088 0 1 1  153.53322,257.88104 A 9.8476124 7.3857088 0 1 1  173.22844 257.88104 z"
           sodipodi:ry="7.3857088"
           sodipodi:rx="9.8476124"
           sodipodi:cy="257.88104"
           sodipodi:cx="163.38083"
           id="path1549"
           style="fill:#ff0000;fill-opacity:1.0000000;fill-rule:nonzero;stroke:none;stroke-width:2.4500000;stroke-miterlimit:4.0000000;stroke-dashoffset:0.00000000;stroke-opacity:1.0000000"
           sodipodi:type="arc" />
      </g>
      <path
         style="fill:none;fill-opacity:0.75000000;fill-rule:evenodd;stroke:#00c400;stroke-width:1.7075175;stroke-linecap:butt;stroke-linejoin:miter;stroke-miterlimit:4.0000000;stroke-opacity:1.0000000"
         d="M 195.56303,169.74385 L 251.93470,114.62016"
         id="path1584"
         sodipodi:nodetypes="cc" />
      <g
         id="g1586"
         transform="matrix(-0.629659,-0.642131,-0.640176,0.627743,336.1165,161.3923)">
        <path
           style="fill:#00c400;fill-opacity:1.0000000;fill-rule:evenodd;stroke:none;stroke-width:1.0000000px;stroke-linecap:butt;stroke-linejoin:miter;stroke-opacity:1.0000000"
           d="M 101.77158,56.042083 L 116.53387,54.709303 L 133.00061,49.003014 L 111.16210,61.418180 L 101.77158,56.042083 z "
           id="path1588"
           sodipodi:nodetypes="ccccc" />
        <path
           transform="matrix(0.886743,0.000000,0.000000,1.072854,-32.72316,-229.5595)"
           d="M 173.22844 257.88104 A 9.8476124 7.3857088 0 1 1  153.53322,257.88104 A 9.8476124 7.3857088 0 1 1  173.22844 257.88104 z"
           sodipodi:ry="7.3857088"
           sodipodi:rx="9.8476124"
           sodipodi:cy="257.88104"
           sodipodi:cx="163.38083"
           id="path1590"
           style="fill:#ff0000;fill-opacity:1.0000000;fill-rule:nonzero;stroke:none;stroke-width:2.4500000;stroke-miterlimit:4.0000000;stroke-dashoffset:0.00000000;stroke-opacity:1.0000000"
           sodipodi:type="arc" />
      </g>
      <g
         id="g1592"
         transform="matrix(-0.629659,-0.642131,-0.640176,0.627743,318.3404,178.6653)">
        <path
           style="fill:#00c400;fill-opacity:1.0000000;fill-rule:evenodd;stroke:none;stroke-width:1.0000000px;stroke-linecap:butt;stroke-linejoin:miter;stroke-opacity:1.0000000"
           d="M 101.77158,56.042083 L 116.53387,54.709303 L 133.00061,49.003014 L 111.16210,61.418180 L 101.77158,56.042083 z "
           id="path1594"
           sodipodi:nodetypes="ccccc" />
        <path
           transform="matrix(0.886743,0.000000,0.000000,1.072854,-32.72316,-229.5595)"
           d="M 173.22844 257.88104 A 9.8476124 7.3857088 0 1 1  153.53322,257.88104 A 9.8476124 7.3857088 0 1 1  173.22844 257.88104 z"
           sodipodi:ry="7.3857088"
           sodipodi:rx="9.8476124"
           sodipodi:cy="257.88104"
           sodipodi:cx="163.38083"
           id="path1596"
           style="fill:#ff0000;fill-opacity:1.0000000;fill-rule:nonzero;stroke:none;stroke-width:2.4500000;stroke-miterlimit:4.0000000;stroke-dashoffset:0.00000000;stroke-opacity:1.0000000"
           sodipodi:type="arc" />
      </g>
      <g
         id="g1598"
         transform="matrix(0.629659,0.642131,-0.640176,0.627743,199.9384,38.21270)">
        <path
           style="fill:#00c400;fill-opacity:1.0000000;fill-rule:evenodd;stroke:none;stroke-width:1.0000000px;stroke-linecap:butt;stroke-linejoin:miter;stroke-opacity:1.0000000"
           d="M 101.77158,56.042083 L 116.53387,54.709303 L 133.00061,49.003014 L 111.16210,61.418180 L 101.77158,56.042083 z "
           id="path1600"
           sodipodi:nodetypes="ccccc" />
        <path
           transform="matrix(0.886743,0.000000,0.000000,1.072854,-32.72316,-229.5595)"
           d="M 173.22844 257.88104 A 9.8476124 7.3857088 0 1 1  153.53322,257.88104 A 9.8476124 7.3857088 0 1 1  173.22844 257.88104 z"
           sodipodi:ry="7.3857088"
           sodipodi:rx="9.8476124"
           sodipodi:cy="257.88104"
           sodipodi:cx="163.38083"
           id="path1602"
           style="fill:#ff0000;fill-opacity:1.0000000;fill-rule:nonzero;stroke:none;stroke-width:2.4500000;stroke-miterlimit:4.0000000;stroke-dashoffset:0.00000000;stroke-opacity:1.0000000"
           sodipodi:type="arc" />
      </g>
      <g
         id="g1604"
         transform="matrix(0.629659,0.642131,-0.640176,0.627743,181.8353,55.96430)">
        <path
           style="fill:#00c400;fill-opacity:1.0000000;fill-rule:evenodd;stroke:none;stroke-width:1.0000000px;stroke-linecap:butt;stroke-linejoin:miter;stroke-opacity:1.0000000"
           d="M 101.77158,56.042083 L 116.53387,54.709303 L 133.00061,49.003014 L 111.16210,61.418180 L 101.77158,56.042083 z "
           id="path1606"
           sodipodi:nodetypes="ccccc" />
        <path
           transform="matrix(0.886743,0.000000,0.000000,1.072854,-32.72316,-229.5595)"
           d="M 173.22844 257.88104 A 9.8476124 7.3857088 0 1 1  153.53322,257.88104 A 9.8476124 7.3857088 0 1 1  173.22844 257.88104 z"
           sodipodi:ry="7.3857088"
           sodipodi:rx="9.8476124"
           sodipodi:cy="257.88104"
           sodipodi:cx="163.38083"
           id="path1608"
           style="fill:#ff0000;fill-opacity:1.0000000;fill-rule:nonzero;stroke:none;stroke-width:2.4500000;stroke-miterlimit:4.0000000;stroke-dashoffset:0.00000000;stroke-opacity:1.0000000"
           sodipodi:type="arc" />
      </g>
      <path
         style="fill:none;fill-opacity:0.75000000;fill-rule:evenodd;stroke:#00c400;stroke-width:1.7075175;stroke-linecap:butt;stroke-linejoin:miter;stroke-miterlimit:4.0000000;stroke-opacity:1.0000000"
         d="M 195.69898,108.52374 L 245.02420,60.290512"
         id="path1612"
         sodipodi:nodetypes="cc" />
      <g
         id="g1620"
         transform="matrix(-0.629659,-0.642131,-0.640176,0.627743,318.5538,117.5227)">
        <path
           style="fill:#00c400;fill-opacity:1.0000000;fill-rule:evenodd;stroke:none;stroke-width:1.0000000px;stroke-linecap:butt;stroke-linejoin:miter;stroke-opacity:1.0000000"
           d="M 101.77158,56.042083 L 116.53387,54.709303 L 133.00061,49.003014 L 111.16210,61.418180 L 101.77158,56.042083 z "
           id="path1622"
           sodipodi:nodetypes="ccccc" />
        <path
           transform="matrix(0.886743,0.000000,0.000000,1.072854,-32.72316,-229.5595)"
           d="M 173.22844 257.88104 A 9.8476124 7.3857088 0 1 1  153.53322,257.88104 A 9.8476124 7.3857088 0 1 1  173.22844 257.88104 z"
           sodipodi:ry="7.3857088"
           sodipodi:rx="9.8476124"
           sodipodi:cy="257.88104"
           sodipodi:cx="163.38083"
           id="path1624"
           style="fill:#ff0000;fill-opacity:1.0000000;fill-rule:nonzero;stroke:none;stroke-width:2.4500000;stroke-miterlimit:4.0000000;stroke-dashoffset:0.00000000;stroke-opacity:1.0000000"
           sodipodi:type="arc" />
      </g>
      <g
         id="g1626"
         transform="matrix(0.629659,0.642131,-0.640176,0.627743,200.0744,-23.00742)">
        <path
           style="fill:#00c400;fill-opacity:1.0000000;fill-rule:evenodd;stroke:none;stroke-width:1.0000000px;stroke-linecap:butt;stroke-linejoin:miter;stroke-opacity:1.0000000"
           d="M 101.77158,56.042083 L 116.53387,54.709303 L 133.00061,49.003014 L 111.16210,61.418180 L 101.77158,56.042083 z "
           id="path1628"
           sodipodi:nodetypes="ccccc" />
        <path
           transform="matrix(0.886743,0.000000,0.000000,1.072854,-32.72316,-229.5595)"
           d="M 173.22844 257.88104 A 9.8476124 7.3857088 0 1 1  153.53322,257.88104 A 9.8476124 7.3857088 0 1 1  173.22844 257.88104 z"
           sodipodi:ry="7.3857088"
           sodipodi:rx="9.8476124"
           sodipodi:cy="257.88104"
           sodipodi:cx="163.38083"
           id="path1630"
           style="fill:#ff0000;fill-opacity:1.0000000;fill-rule:nonzero;stroke:none;stroke-width:2.4500000;stroke-miterlimit:4.0000000;stroke-dashoffset:0.00000000;stroke-opacity:1.0000000"
           sodipodi:type="arc" />
      </g>
      <g
         id="g1632"
         transform="matrix(0.629659,0.642131,-0.640176,0.627743,181.9712,-5.255813)">
        <path
           style="fill:#00c400;fill-opacity:1.0000000;fill-rule:evenodd;stroke:none;stroke-width:1.0000000px;stroke-linecap:butt;stroke-linejoin:miter;stroke-opacity:1.0000000"
           d="M 101.77158,56.042083 L 116.53387,54.709303 L 133.00061,49.003014 L 111.16210,61.418180 L 101.77158,56.042083 z "
           id="path1634"
           sodipodi:nodetypes="ccccc" />
        <path
           transform="matrix(0.886743,0.000000,0.000000,1.072854,-32.72316,-229.5595)"
           d="M 173.22844 257.88104 A 9.8476124 7.3857088 0 1 1  153.53322,257.88104 A 9.8476124 7.3857088 0 1 1  173.22844 257.88104 z"
           sodipodi:ry="7.3857088"
           sodipodi:rx="9.8476124"
           sodipodi:cy="257.88104"
           sodipodi:cx="163.38083"
           id="path1636"
           style="fill:#ff0000;fill-opacity:1.0000000;fill-rule:nonzero;stroke:none;stroke-width:2.4500000;stroke-miterlimit:4.0000000;stroke-dashoffset:0.00000000;stroke-opacity:1.0000000"
           sodipodi:type="arc" />
      </g>
      <path
         style="fill:none;fill-opacity:0.75000000;fill-rule:evenodd;stroke:#00c400;stroke-width:1.7075175;stroke-linecap:butt;stroke-linejoin:miter;stroke-miterlimit:4.0000000;stroke-opacity:1.0000000"
         d="M 195.79991,139.92544 L 146.47469,91.692212"
         id="path1687"
         sodipodi:nodetypes="cc" />
      <g
         id="g1689"
         transform="matrix(0.629659,-0.642131,0.640176,0.627743,72.86763,148.6920)">
        <path
           style="fill:#00c400;fill-opacity:1.0000000;fill-rule:evenodd;stroke:none;stroke-width:1.0000000px;stroke-linecap:butt;stroke-linejoin:miter;stroke-opacity:1.0000000"
           d="M 101.77158,56.042083 L 116.53387,54.709303 L 133.00061,49.003014 L 111.16210,61.418180 L 101.77158,56.042083 z "
           id="path1691"
           sodipodi:nodetypes="ccccc" />
        <path
           transform="matrix(0.886743,0.000000,0.000000,1.072854,-32.72316,-229.5595)"
           d="M 173.22844 257.88104 A 9.8476124 7.3857088 0 1 1  153.53322,257.88104 A 9.8476124 7.3857088 0 1 1  173.22844 257.88104 z"
           sodipodi:ry="7.3857088"
           sodipodi:rx="9.8476124"
           sodipodi:cy="257.88104"
           sodipodi:cx="163.38083"
           id="path1693"
           style="fill:#ff0000;fill-opacity:1.0000000;fill-rule:nonzero;stroke:none;stroke-width:2.4500000;stroke-miterlimit:4.0000000;stroke-dashoffset:0.00000000;stroke-opacity:1.0000000"
           sodipodi:type="arc" />
      </g>
      <g
         id="g1695"
         transform="matrix(-0.629659,0.642131,0.640176,0.627743,191.4245,8.394284)">
        <path
           style="fill:#00c400;fill-opacity:1.0000000;fill-rule:evenodd;stroke:none;stroke-width:1.0000000px;stroke-linecap:butt;stroke-linejoin:miter;stroke-opacity:1.0000000"
           d="M 101.77158,56.042083 L 116.53387,54.709303 L 133.00061,49.003014 L 111.16210,61.418180 L 101.77158,56.042083 z "
           id="path1697"
           sodipodi:nodetypes="ccccc" />
        <path
           transform="matrix(0.886743,0.000000,0.000000,1.072854,-32.72316,-229.5595)"
           d="M 173.22844 257.88104 A 9.8476124 7.3857088 0 1 1  153.53322,257.88104 A 9.8476124 7.3857088 0 1 1  173.22844 257.88104 z"
           sodipodi:ry="7.3857088"
           sodipodi:rx="9.8476124"
           sodipodi:cy="257.88104"
           sodipodi:cx="163.38083"
           id="path1699"
           style="fill:#ff0000;fill-opacity:1.0000000;fill-rule:nonzero;stroke:none;stroke-width:2.4500000;stroke-miterlimit:4.0000000;stroke-dashoffset:0.00000000;stroke-opacity:1.0000000"
           sodipodi:type="arc" />
      </g>
      <g
         id="g1701"
         transform="matrix(-0.629659,0.642131,0.640176,0.627743,209.5277,26.14589)">
        <path
           style="fill:#00c400;fill-opacity:1.0000000;fill-rule:evenodd;stroke:none;stroke-width:1.0000000px;stroke-linecap:butt;stroke-linejoin:miter;stroke-opacity:1.0000000"
           d="M 101.77158,56.042083 L 116.53387,54.709303 L 133.00061,49.003014 L 111.16210,61.418180 L 101.77158,56.042083 z "
           id="path1703"
           sodipodi:nodetypes="ccccc" />
        <path
           transform="matrix(0.886743,0.000000,0.000000,1.072854,-32.72316,-229.5595)"
           d="M 173.22844 257.88104 A 9.8476124 7.3857088 0 1 1  153.53322,257.88104 A 9.8476124 7.3857088 0 1 1  173.22844 257.88104 z"
           sodipodi:ry="7.3857088"
           sodipodi:rx="9.8476124"
           sodipodi:cy="257.88104"
           sodipodi:cx="163.38083"
           id="path1705"
           style="fill:#ff0000;fill-opacity:1.0000000;fill-rule:nonzero;stroke:none;stroke-width:2.4500000;stroke-miterlimit:4.0000000;stroke-dashoffset:0.00000000;stroke-opacity:1.0000000"
           sodipodi:type="arc" />
      </g>
      <path
         style="fill:none;fill-opacity:0.75000000;fill-rule:evenodd;stroke:#00c400;stroke-width:1.7075175;stroke-linecap:butt;stroke-linejoin:miter;stroke-miterlimit:4.0000000;stroke-opacity:1.0000000"
         d="M 196.17589,49.363110 L 233.16981,13.188191"
         id="path1709"
         sodipodi:nodetypes="cc" />
      <g
         id="g1711"
         transform="matrix(-0.629659,-0.642131,-0.640176,0.627743,313.0974,64.15887)">
        <path
           style="fill:#00c400;fill-opacity:1.0000000;fill-rule:evenodd;stroke:none;stroke-width:1.0000000px;stroke-linecap:butt;stroke-linejoin:miter;stroke-opacity:1.0000000"
           d="M 101.77158,56.042083 L 116.53387,54.709303 L 133.00061,49.003014 L 111.16210,61.418180 L 101.77158,56.042083 z "
           id="path1713"
           sodipodi:nodetypes="ccccc" />
        <path
           transform="matrix(0.886743,0.000000,0.000000,1.072854,-32.72316,-229.5595)"
           d="M 173.22844 257.88104 A 9.8476124 7.3857088 0 1 1  153.53322,257.88104 A 9.8476124 7.3857088 0 1 1  173.22844 257.88104 z"
           sodipodi:ry="7.3857088"
           sodipodi:rx="9.8476124"
           sodipodi:cy="257.88104"
           sodipodi:cx="163.38083"
           id="path1715"
           style="fill:#ff0000;fill-opacity:1.0000000;fill-rule:nonzero;stroke:none;stroke-width:2.4500000;stroke-miterlimit:4.0000000;stroke-dashoffset:0.00000000;stroke-opacity:1.0000000"
           sodipodi:type="arc" />
      </g>
      <g
         id="g1717"
         transform="matrix(0.629659,0.642131,-0.640176,0.627743,194.3857,-76.13889)">
        <path
           style="fill:#00c400;fill-opacity:1.0000000;fill-rule:evenodd;stroke:none;stroke-width:1.0000000px;stroke-linecap:butt;stroke-linejoin:miter;stroke-opacity:1.0000000"
           d="M 101.77158,56.042083 L 116.53387,54.709303 L 133.00061,49.003014 L 111.16210,61.418180 L 101.77158,56.042083 z "
           id="path1719"
           sodipodi:nodetypes="ccccc" />
        <path
           transform="matrix(0.886743,0.000000,0.000000,1.072854,-32.72316,-229.5595)"
           d="M 173.22844 257.88104 A 9.8476124 7.3857088 0 1 1  153.53322,257.88104 A 9.8476124 7.3857088 0 1 1  173.22844 257.88104 z"
           sodipodi:ry="7.3857088"
           sodipodi:rx="9.8476124"
           sodipodi:cy="257.88104"
           sodipodi:cx="163.38083"
           id="path1721"
           style="fill:#ff0000;fill-opacity:1.0000000;fill-rule:nonzero;stroke:none;stroke-width:2.4500000;stroke-miterlimit:4.0000000;stroke-dashoffset:0.00000000;stroke-opacity:1.0000000"
           sodipodi:type="arc" />
      </g>
      <path
         style="fill:none;fill-opacity:0.75000000;fill-rule:evenodd;stroke:#00c400;stroke-width:1.7075175;stroke-linecap:butt;stroke-linejoin:miter;stroke-miterlimit:4.0000000;stroke-opacity:1.0000000"
         d="M 195.85965,76.542730 L 158.86573,40.367811"
         id="path1750"
         sodipodi:nodetypes="cc" />
      <g
         id="g1752"
         transform="matrix(0.629659,-0.642131,0.640176,0.627743,78.93813,91.41593)">
        <path
           style="fill:#00c400;fill-opacity:1.0000000;fill-rule:evenodd;stroke:none;stroke-width:1.0000000px;stroke-linecap:butt;stroke-linejoin:miter;stroke-opacity:1.0000000"
           d="M 101.77158,56.042083 L 116.53387,54.709303 L 133.00061,49.003014 L 111.16210,61.418180 L 101.77158,56.042083 z "
           id="path1754"
           sodipodi:nodetypes="ccccc" />
        <path
           transform="matrix(0.886743,0.000000,0.000000,1.072854,-32.72316,-229.5595)"
           d="M 173.22844 257.88104 A 9.8476124 7.3857088 0 1 1  153.53322,257.88104 A 9.8476124 7.3857088 0 1 1  173.22844 257.88104 z"
           sodipodi:ry="7.3857088"
           sodipodi:rx="9.8476124"
           sodipodi:cy="257.88104"
           sodipodi:cx="163.38083"
           id="path1756"
           style="fill:#ff0000;fill-opacity:1.0000000;fill-rule:nonzero;stroke:none;stroke-width:2.4500000;stroke-miterlimit:4.0000000;stroke-dashoffset:0.00000000;stroke-opacity:1.0000000"
           sodipodi:type="arc" />
      </g>
      <g
         id="g1758"
         transform="matrix(-0.629659,0.642131,0.640176,0.627743,197.6499,-48.95927)">
        <path
           style="fill:#00c400;fill-opacity:1.0000000;fill-rule:evenodd;stroke:none;stroke-width:1.0000000px;stroke-linecap:butt;stroke-linejoin:miter;stroke-opacity:1.0000000"
           d="M 101.77158,56.042083 L 116.53387,54.709303 L 133.00061,49.003014 L 111.16210,61.418180 L 101.77158,56.042083 z "
           id="path1760"
           sodipodi:nodetypes="ccccc" />
        <path
           transform="matrix(0.886743,0.000000,0.000000,1.072854,-32.72316,-229.5595)"
           d="M 173.22844 257.88104 A 9.8476124 7.3857088 0 1 1  153.53322,257.88104 A 9.8476124 7.3857088 0 1 1  173.22844 257.88104 z"
           sodipodi:ry="7.3857088"
           sodipodi:rx="9.8476124"
           sodipodi:cy="257.88104"
           sodipodi:cx="163.38083"
           id="path1762"
           style="fill:#ff0000;fill-opacity:1.0000000;fill-rule:nonzero;stroke:none;stroke-width:2.4500000;stroke-miterlimit:4.0000000;stroke-dashoffset:0.00000000;stroke-opacity:1.0000000"
           sodipodi:type="arc" />
      </g>
      <path
         id="path1764"
         d="M 195.41053,305.12632 L 195.94737,3.9578947"
         style="fill:none;fill-opacity:0.75000000;fill-rule:evenodd;stroke:#00c400;stroke-width:1.7100000;stroke-linecap:butt;stroke-linejoin:miter;stroke-miterlimit:4.0000000;stroke-opacity:1.0000000" />
    </g>
  </g>
</svg>
