<?xml version="1.0" encoding="UTF-8" standalone="no"?>
<!-- Created with Inkscape (http://www.inkscape.org/) -->
<svg
   xmlns:dc="http://purl.org/dc/elements/1.1/"
   xmlns:cc="http://web.resource.org/cc/"
   xmlns:rdf="http://www.w3.org/1999/02/22-rdf-syntax-ns#"
   xmlns:svg="http://www.w3.org/2000/svg"
   xmlns="http://www.w3.org/2000/svg"
   xmlns:sodipodi="http://inkscape.sourceforge.net/DTD/sodipodi-0.dtd"
   xmlns:inkscape="http://www.inkscape.org/namespaces/inkscape"
   width="500.00000px"
   height="400.00000px"
   id="svg2"
   sodipodi:version="0.32"
   inkscape:version="0.40+cvs"
   sodipodi:docbase="D:\SHAZZ\WIKI\WIKI-SVG"
   sodipodi:docname="BALDAC~2.SVG">
  <defs
     id="defs3" />
  <sodipodi:namedview
     id="base"
     pagecolor="#ffffff"
     bordercolor="#666666"
     borderopacity="1.0"
     inkscape:pageopacity="0.0"
     inkscape:pageshadow="2"
     inkscape:zoom="1.4249998"
     inkscape:cx="250.00015"
     inkscape:cy="199.99998"
     inkscape:document-units="px"
     inkscape:current-layer="layer1"
     showguides="true"
     inkscape:guide-bbox="true"
     inkscape:window-width="1024"
     inkscape:window-height="749"
     inkscape:window-x="-4"
     inkscape:window-y="-4" />
  <metadata
     id="metadata4">
    <rdf:RDF
       id="RDF5">
      <cc:Work
         rdf:about=""
         id="Work6">
        <dc:format
           id="format7">image/svg+xml</dc:format>
        <dc:type
           id="type9"
           rdf:resource="http://purl.org/dc/dcmitype/StillImage" />
      </cc:Work>
    </rdf:RDF>
  </metadata>
  <g
     inkscape:label="Layer 1"
     inkscape:groupmode="layer"
     id="layer1">
    <g
       id="g3495">
      <path
         style="fill:#00c400;fill-opacity:1.0000000;fill-rule:evenodd;stroke:none;stroke-width:1.0000000px;stroke-linecap:butt;stroke-linejoin:miter;stroke-opacity:1.0000000"
         d="M 249.34781,265.64656 L 259.35904,266.56563 L 275.08221,267.00545 L 255.26184,273.05412 L 249.34781,265.64656 z "
         id="path1438"
         sodipodi:nodetypes="ccccc" />
      <path
         style="fill:#00c400;fill-opacity:1.0000000;fill-rule:evenodd;stroke:none;stroke-width:1.0000000px;stroke-linecap:butt;stroke-linejoin:miter;stroke-opacity:1.0000000"
         d="M 250.91388,265.71186 L 240.90265,266.63092 L 225.17948,267.07074 L 244.99985,273.11941 L 250.91388,265.71186 z "
         id="path3906"
         sodipodi:nodetypes="ccccc" />
      <path
         style="fill:none;fill-opacity:0.75000000;fill-rule:evenodd;stroke:#00c400;stroke-width:1.6492810px;stroke-linecap:butt;stroke-linejoin:miter;stroke-opacity:1.0000000"
         d="M 250.16441,265.30435 L 59.511291,217.40820"
         id="path1442"
         sodipodi:nodetypes="cc" />
      <path
         style="fill:none;fill-opacity:0.75000000;fill-rule:evenodd;stroke:#00c400;stroke-width:1.6492810px;stroke-linecap:butt;stroke-linejoin:miter;stroke-opacity:1.0000000"
         d="M 60.211612,217.36754 L 46.780165,178.01809"
         id="path1444"
         sodipodi:nodetypes="cc" />
      <path
         sodipodi:type="arc"
         style="stroke-opacity:1.0000000;stroke-dashoffset:0.00000000;stroke-miterlimit:4.0000000;stroke-width:10.000000;stroke:none;fill-rule:nonzero;fill-opacity:1.0000000;fill:#ff0000"
         id="path1446"
         sodipodi:cx="170.04681"
         sodipodi:cy="177.60213"
         sodipodi:rx="5.4610825"
         sodipodi:ry="4.3312035"
         d="M 175.50790 177.60213 A 5.4610825 4.3312035 0 1 1  164.58573,177.60213 A 5.4610825 4.3312035 0 1 1  175.50790 177.60213 z"
         transform="matrix(2.046809,0.000000,0.000000,2.753091,-305.5316,-321.1502)" />
      <path
         style="fill:none;fill-opacity:0.75000000;fill-rule:evenodd;stroke:#00c400;stroke-width:1.6492811px;stroke-linecap:butt;stroke-linejoin:miter;stroke-opacity:1.0000000"
         d="M 60.492554,217.92519 L 28.113602,194.24830"
         id="path3729"
         sodipodi:nodetypes="cc" />
      <path
         sodipodi:type="arc"
         style="stroke-opacity:1.0000000;stroke-dashoffset:0.00000000;stroke-miterlimit:4.0000000;stroke-width:10.000000;stroke:none;fill-rule:nonzero;fill-opacity:1.0000000;fill:#ff0000"
         id="path3731"
         sodipodi:cx="170.04681"
         sodipodi:cy="177.60213"
         sodipodi:rx="5.4610825"
         sodipodi:ry="4.3312035"
         d="M 175.50790 177.60213 A 5.4610825 4.3312035 0 1 1  164.58573,177.60213 A 5.4610825 4.3312035 0 1 1  175.50790 177.60213 z"
         transform="matrix(1.665044,-1.269892,1.500942,2.239593,-530.6246,6.766530)" />
      <path
         style="fill:none;fill-opacity:0.75000000;fill-rule:evenodd;stroke:#00c400;stroke-width:1.6492817px;stroke-linecap:butt;stroke-linejoin:miter;stroke-opacity:1.0000000"
         d="M 60.013096,217.17472 L 33.121693,247.68263"
         id="path3735"
         sodipodi:nodetypes="cc" />
      <path
         sodipodi:type="arc"
         style="stroke-opacity:1.0000000;stroke-dashoffset:0.00000000;stroke-miterlimit:4.0000000;stroke-width:10.000000;stroke:none;fill-rule:nonzero;fill-opacity:1.0000000;fill:#ff0000"
         id="path3737"
         sodipodi:cx="170.04681"
         sodipodi:cy="177.60213"
         sodipodi:rx="5.4610825"
         sodipodi:ry="4.3312035"
         d="M 175.50790 177.60213 A 5.4610825 4.3312035 0 1 1  164.58573,177.60213 A 5.4610825 4.3312035 0 1 1  175.50790 177.60213 z"
         transform="matrix(1.880873,0.861219,1.017913,-2.529895,-475.1877,558.1435)" />
      <path
         style="fill:none;fill-opacity:0.75000000;fill-rule:evenodd;stroke:#00c400;stroke-width:1.6492829px;stroke-linecap:butt;stroke-linejoin:miter;stroke-opacity:1.0000000"
         d="M 60.486856,216.96109 L 21.629033,222.90822"
         id="path3741"
         sodipodi:nodetypes="cc" />
      <path
         sodipodi:type="arc"
         style="stroke-opacity:1.0000000;stroke-dashoffset:0.00000000;stroke-miterlimit:4.0000000;stroke-width:10.000000;stroke:none;fill-rule:nonzero;fill-opacity:1.0000000;fill:#ff0000"
         id="path3743"
         sodipodi:cx="170.04681"
         sodipodi:cy="177.60213"
         sodipodi:rx="5.4610825"
         sodipodi:ry="4.3312035"
         d="M 175.50790 177.60213 A 5.4610825 4.3312035 0 1 1  164.58573,177.60213 A 5.4610825 4.3312035 0 1 1  175.50790 177.60213 z"
         transform="matrix(0.966358,1.924810,2.275019,-1.299814,-557.1957,127.2674)" />
      <path
         style="fill:#00c400;fill-opacity:1.0000000;fill-rule:evenodd;stroke:none;stroke-width:1.0000000px;stroke-linecap:butt;stroke-linejoin:miter;stroke-opacity:1.0000000"
         d="M 59.639949,218.78485 L 62.326546,208.45588 L 65.621206,192.04926 L 67.552367,213.94461 L 59.639949,218.78485 z "
         id="path3765"
         sodipodi:nodetypes="ccccc" />
      <path
         style="fill:#00c400;fill-opacity:1.0000000;fill-rule:evenodd;stroke:none;stroke-width:1.0000000px;stroke-linecap:butt;stroke-linejoin:miter;stroke-opacity:1.0000000"
         d="M 60.372058,215.87168 L 59.379190,226.53843 L 56.895057,243.10670 L 66.110872,223.43444 L 60.372058,215.87168 z "
         id="path3767"
         sodipodi:nodetypes="ccccc" />
      <path
         style="fill:none;fill-opacity:0.75000000;fill-rule:evenodd;stroke:#00c400;stroke-width:1.6492801px;stroke-linecap:butt;stroke-linejoin:miter;stroke-opacity:1.0000000"
         d="M 250.54102,265.35877 L 105.50564,124.92818"
         id="path4567"
         sodipodi:nodetypes="cc" />
      <path
         style="fill:none;fill-opacity:0.75000000;fill-rule:evenodd;stroke:#00c400;stroke-width:1.6492801px;stroke-linecap:butt;stroke-linejoin:miter;stroke-opacity:1.0000000"
         d="M 106.13676,125.25453 L 112.25645,83.889591"
         id="path4575"
         sodipodi:nodetypes="cc" />
      <path
         sodipodi:type="arc"
         style="stroke-opacity:1.0000000;stroke-dashoffset:0.00000000;stroke-miterlimit:4.0000000;stroke-width:10.000000;stroke:none;fill-rule:nonzero;fill-opacity:1.0000000;fill:#ff0000"
         id="path4577"
         sodipodi:cx="170.04681"
         sodipodi:cy="177.60213"
         sodipodi:rx="5.4610825"
         sodipodi:ry="4.3312035"
         d="M 175.50790 177.60213 A 5.4610825 4.3312035 0 1 1  164.58573,177.60213 A 5.4610825 4.3312035 0 1 1  175.50790 177.60213 z"
         transform="matrix(1.790582,1.057799,-1.250260,2.408448,30.73541,-534.8668)" />
      <path
         style="fill:none;fill-opacity:0.75000000;fill-rule:evenodd;stroke:#00c400;stroke-width:1.6492804px;stroke-linecap:butt;stroke-linejoin:miter;stroke-opacity:1.0000000"
         d="M 106.12917,125.88770 L 88.555935,88.441201"
         id="path4581"
         sodipodi:nodetypes="cc" />
      <path
         sodipodi:type="arc"
         style="stroke-opacity:1.0000000;stroke-dashoffset:0.00000000;stroke-miterlimit:4.0000000;stroke-width:10.000000;stroke:none;fill-rule:nonzero;fill-opacity:1.0000000;fill:#ff0000"
         id="path4583"
         sodipodi:cx="170.04681"
         sodipodi:cy="177.60213"
         sodipodi:rx="5.4610825"
         sodipodi:ry="4.3312035"
         d="M 175.50790 177.60213 A 5.4610825 4.3312035 0 1 1  164.58573,177.60213 A 5.4610825 4.3312035 0 1 1  175.50790 177.60213 z"
         transform="matrix(2.033303,-0.250420,0.295982,2.734924,-315.0961,-364.3290)" />
      <path
         style="fill:none;fill-opacity:0.75000000;fill-rule:evenodd;stroke:#00c400;stroke-width:1.6492804px;stroke-linecap:butt;stroke-linejoin:miter;stroke-opacity:1.0000000"
         d="M 106.05051,124.98314 L 68.670944,137.77436"
         id="path4587"
         sodipodi:nodetypes="cc" />
      <path
         sodipodi:type="arc"
         style="stroke-opacity:1.0000000;stroke-dashoffset:0.00000000;stroke-miterlimit:4.0000000;stroke-width:10.000000;stroke:none;fill-rule:nonzero;fill-opacity:1.0000000;fill:#ff0000"
         id="path4589"
         sodipodi:cx="170.04681"
         sodipodi:cy="177.60213"
         sodipodi:rx="5.4610825"
         sodipodi:ry="4.3312035"
         d="M 175.50790 177.60213 A 5.4610825 4.3312035 0 1 1  164.58573,177.60213 A 5.4610825 4.3312035 0 1 1  175.50790 177.60213 z"
         transform="matrix(1.254313,1.725450,2.039387,-1.687131,-516.9956,146.6742)" />
      <path
         style="fill:none;fill-opacity:0.75000000;fill-rule:evenodd;stroke:#00c400;stroke-width:1.6492821px;stroke-linecap:butt;stroke-linejoin:miter;stroke-opacity:1.0000000"
         d="M 106.56214,125.04120 L 69.867916,110.16197"
         id="path4593"
         sodipodi:nodetypes="cc" />
      <path
         sodipodi:type="arc"
         style="stroke-opacity:1.0000000;stroke-dashoffset:0.00000000;stroke-miterlimit:4.0000000;stroke-width:10.000000;stroke:none;fill-rule:nonzero;fill-opacity:1.0000000;fill:#ff0000"
         id="path4595"
         sodipodi:cx="170.04681"
         sodipodi:cy="177.60213"
         sodipodi:rx="5.4610825"
         sodipodi:ry="4.3312035"
         d="M 175.50790 177.60213 A 5.4610825 4.3312035 0 1 1  164.58573,177.60213 A 5.4610825 4.3312035 0 1 1  175.50790 177.60213 z"
         transform="matrix(-2.872754e-2,2.183272,2.580508,3.864119e-2,-393.0641,-272.6449)" />
      <path
         style="fill:#00c400;fill-opacity:1.0000000;fill-rule:evenodd;stroke:none;stroke-width:1.0000000px;stroke-linecap:butt;stroke-linejoin:miter;stroke-opacity:1.0000000"
         d="M 104.99328,126.19906 L 112.03425,118.55156 L 122.36721,105.90148 L 114.11329,126.05391 L 104.99328,126.19906 z "
         id="path4599"
         sodipodi:nodetypes="ccccc" />
      <path
         style="fill:#00c400;fill-opacity:1.0000000;fill-rule:evenodd;stroke:none;stroke-width:1.0000000px;stroke-linecap:butt;stroke-linejoin:miter;stroke-opacity:1.0000000"
         d="M 106.95670,124.02893 L 101.24403,132.84726 L 91.546725,146.05763 L 108.54263,133.61080 L 106.95670,124.02893 z "
         id="path4601"
         sodipodi:nodetypes="ccccc" />
      <path
         style="fill:none;fill-opacity:0.75000000;fill-rule:evenodd;stroke:#00c400;stroke-width:1.6492809px;stroke-linecap:butt;stroke-linejoin:miter;stroke-opacity:1.0000000"
         d="M 250.30852,265.07842 L 198.34122,63.619231"
         id="path4605"
         sodipodi:nodetypes="cc" />
      <path
         style="fill:none;fill-opacity:0.75000000;fill-rule:evenodd;stroke:#00c400;stroke-width:1.6492809px;stroke-linecap:butt;stroke-linejoin:miter;stroke-opacity:1.0000000"
         d="M 198.71031,64.255438 L 224.64719,32.821133"
         id="path4613"
         sodipodi:nodetypes="cc" />
      <path
         sodipodi:type="arc"
         style="stroke-opacity:1.0000000;stroke-dashoffset:0.00000000;stroke-miterlimit:4.0000000;stroke-width:10.000000;stroke:none;fill-rule:nonzero;fill-opacity:1.0000000;fill:#ff0000"
         id="path4615"
         sodipodi:cx="170.04681"
         sodipodi:cy="177.60213"
         sodipodi:rx="5.4610825"
         sodipodi:ry="4.3312035"
         d="M 175.50790 177.60213 A 5.4610825 4.3312035 0 1 1  164.58573,177.60213 A 5.4610825 4.3312035 0 1 1  175.50790 177.60213 z"
         transform="matrix(0.980961,1.916383,-2.265059,1.319455,466.4792,-536.2736)" />
      <path
         style="fill:none;fill-opacity:0.75000000;fill-rule:evenodd;stroke:#00c400;stroke-width:1.6492816px;stroke-linecap:butt;stroke-linejoin:miter;stroke-opacity:1.0000000"
         d="M 198.38606,64.785890 L 202.34779,23.122725"
         id="path4619"
         sodipodi:nodetypes="cc" />
      <path
         sodipodi:type="arc"
         style="stroke-opacity:1.0000000;stroke-dashoffset:0.00000000;stroke-miterlimit:4.0000000;stroke-width:10.000000;stroke:none;fill-rule:nonzero;fill-opacity:1.0000000;fill:#ff0000"
         id="path4621"
         sodipodi:cx="170.04681"
         sodipodi:cy="177.60213"
         sodipodi:rx="5.4610825"
         sodipodi:ry="4.3312035"
         d="M 175.50790 177.60213 A 5.4610825 4.3312035 0 1 1  164.58573,177.60213 A 5.4610825 4.3312035 0 1 1  175.50790 177.60213 z"
         transform="matrix(1.842777,0.950333,-1.123241,2.478653,88.81258,-589.8649)" />
      <path
         style="fill:none;fill-opacity:0.75000000;fill-rule:evenodd;stroke:#00c400;stroke-width:1.6492816px;stroke-linecap:butt;stroke-linejoin:miter;stroke-opacity:1.0000000"
         d="M 198.77384,63.977029 L 160.78591,53.420513"
         id="path4625"
         sodipodi:nodetypes="cc" />
      <path
         sodipodi:type="arc"
         style="stroke-opacity:1.0000000;stroke-dashoffset:0.00000000;stroke-miterlimit:4.0000000;stroke-width:10.000000;stroke:none;fill-rule:nonzero;fill-opacity:1.0000000;fill:#ff0000"
         id="path4627"
         sodipodi:cx="170.04681"
         sodipodi:cy="177.60213"
         sodipodi:rx="5.4610825"
         sodipodi:ry="4.3312035"
         d="M 175.50790 177.60213 A 5.4610825 4.3312035 0 1 1  164.58573,177.60213 A 5.4610825 4.3312035 0 1 1  175.50790 177.60213 z"
         transform="matrix(0.192880,2.173770,2.569277,-0.259436,-338.2545,-273.7059)" />
      <path
         style="fill:none;fill-opacity:0.75000000;fill-rule:evenodd;stroke:#00c400;stroke-width:1.6492834px;stroke-linecap:butt;stroke-linejoin:miter;stroke-opacity:1.0000000"
         d="M 199.17680,64.318460 L 175.66075,30.786967"
         id="path4631"
         sodipodi:nodetypes="cc" />
      <path
         sodipodi:type="arc"
         style="stroke-opacity:1.0000000;stroke-dashoffset:0.00000000;stroke-miterlimit:4.0000000;stroke-width:10.000000;stroke:none;fill-rule:nonzero;fill-opacity:1.0000000;fill:#ff0000"
         id="path4633"
         sodipodi:cx="170.04681"
         sodipodi:cy="177.60213"
         sodipodi:rx="5.4610825"
         sodipodi:ry="4.3312035"
         d="M 175.50790 177.60213 A 5.4610825 4.3312035 0 1 1  164.58573,177.60213 A 5.4610825 4.3312035 0 1 1  175.50790 177.60213 z"
         transform="matrix(-1.120465,1.827271,2.159734,1.507098,-23.06212,-556.9911)" />
      <path
         style="fill:#00c400;fill-opacity:1.0000000;fill-rule:evenodd;stroke:none;stroke-width:1.0000000px;stroke-linecap:butt;stroke-linejoin:miter;stroke-opacity:1.0000000"
         d="M 197.27034,64.399622 L 207.05591,61.964734 L 222.13319,57.186370 L 205.04469,69.488101 L 197.27034,64.399622 z "
         id="path4637"
         sodipodi:nodetypes="ccccc" />
      <path
         style="fill:#00c400;fill-opacity:1.0000000;fill-rule:evenodd;stroke:none;stroke-width:1.0000000px;stroke-linecap:butt;stroke-linejoin:miter;stroke-opacity:1.0000000"
         d="M 200.01797,63.688906 L 190.76623,67.871485 L 175.94442,73.486200 L 196.54624,72.686583 L 200.01797,63.688906 z "
         id="path4639"
         sodipodi:nodetypes="ccccc" />
      <path
         style="fill:none;fill-opacity:0.75000000;fill-rule:evenodd;stroke:#00c400;stroke-width:1.6492810px;stroke-linecap:butt;stroke-linejoin:miter;stroke-opacity:1.0000000"
         d="M 249.83549,265.27985 L 440.48861,217.38370"
         id="path4704"
         sodipodi:nodetypes="cc" />
      <path
         style="fill:none;fill-opacity:0.75000000;fill-rule:evenodd;stroke:#00c400;stroke-width:1.6492810px;stroke-linecap:butt;stroke-linejoin:miter;stroke-opacity:1.0000000"
         d="M 439.78829,217.34304 L 453.21974,177.99359"
         id="path4712"
         sodipodi:nodetypes="cc" />
      <path
         sodipodi:type="arc"
         style="stroke-opacity:1.0000000;stroke-dashoffset:0.00000000;stroke-miterlimit:4.0000000;stroke-width:10.000000;stroke:none;fill-rule:nonzero;fill-opacity:1.0000000;fill:#ff0000"
         id="path4714"
         sodipodi:cx="170.04681"
         sodipodi:cy="177.60213"
         sodipodi:rx="5.4610825"
         sodipodi:ry="4.3312035"
         d="M 175.50790 177.60213 A 5.4610825 4.3312035 0 1 1  164.58573,177.60213 A 5.4610825 4.3312035 0 1 1  175.50790 177.60213 z"
         transform="matrix(-2.046809,0.000000,0.000000,2.753091,805.5315,-321.1747)" />
      <path
         style="fill:none;fill-opacity:0.75000000;fill-rule:evenodd;stroke:#00c400;stroke-width:1.6492811px;stroke-linecap:butt;stroke-linejoin:miter;stroke-opacity:1.0000000"
         d="M 439.50735,217.90069 L 471.88630,194.22380"
         id="path4718"
         sodipodi:nodetypes="cc" />
      <path
         sodipodi:type="arc"
         style="stroke-opacity:1.0000000;stroke-dashoffset:0.00000000;stroke-miterlimit:4.0000000;stroke-width:10.000000;stroke:none;fill-rule:nonzero;fill-opacity:1.0000000;fill:#ff0000"
         id="path4720"
         sodipodi:cx="170.04681"
         sodipodi:cy="177.60213"
         sodipodi:rx="5.4610825"
         sodipodi:ry="4.3312035"
         d="M 175.50790 177.60213 A 5.4610825 4.3312035 0 1 1  164.58573,177.60213 A 5.4610825 4.3312035 0 1 1  175.50790 177.60213 z"
         transform="matrix(-1.665044,-1.269892,-1.500942,2.239593,1030.625,6.742030)" />
      <path
         style="fill:none;fill-opacity:0.75000000;fill-rule:evenodd;stroke:#00c400;stroke-width:1.6492817px;stroke-linecap:butt;stroke-linejoin:miter;stroke-opacity:1.0000000"
         d="M 439.98680,217.15022 L 466.87821,247.65813"
         id="path4724"
         sodipodi:nodetypes="cc" />
      <path
         sodipodi:type="arc"
         style="stroke-opacity:1.0000000;stroke-dashoffset:0.00000000;stroke-miterlimit:4.0000000;stroke-width:10.000000;stroke:none;fill-rule:nonzero;fill-opacity:1.0000000;fill:#ff0000"
         id="path4726"
         sodipodi:cx="170.04681"
         sodipodi:cy="177.60213"
         sodipodi:rx="5.4610825"
         sodipodi:ry="4.3312035"
         d="M 175.50790 177.60213 A 5.4610825 4.3312035 0 1 1  164.58573,177.60213 A 5.4610825 4.3312035 0 1 1  175.50790 177.60213 z"
         transform="matrix(-1.880873,0.861219,-1.017913,-2.529895,975.1876,558.1190)" />
      <path
         style="fill:none;fill-opacity:0.75000000;fill-rule:evenodd;stroke:#00c400;stroke-width:1.6492829px;stroke-linecap:butt;stroke-linejoin:miter;stroke-opacity:1.0000000"
         d="M 439.51304,216.93659 L 478.37087,222.88372"
         id="path4730"
         sodipodi:nodetypes="cc" />
      <path
         sodipodi:type="arc"
         style="stroke-opacity:1.0000000;stroke-dashoffset:0.00000000;stroke-miterlimit:4.0000000;stroke-width:10.000000;stroke:none;fill-rule:nonzero;fill-opacity:1.0000000;fill:#ff0000"
         id="path4732"
         sodipodi:cx="170.04681"
         sodipodi:cy="177.60213"
         sodipodi:rx="5.4610825"
         sodipodi:ry="4.3312035"
         d="M 175.50790 177.60213 A 5.4610825 4.3312035 0 1 1  164.58573,177.60213 A 5.4610825 4.3312035 0 1 1  175.50790 177.60213 z"
         transform="matrix(-0.966358,1.924810,-2.275019,-1.299814,1057.196,127.2429)" />
      <path
         style="fill:#00c400;fill-opacity:1.0000000;fill-rule:evenodd;stroke:none;stroke-width:1.0000000px;stroke-linecap:butt;stroke-linejoin:miter;stroke-opacity:1.0000000"
         d="M 440.35995,218.76035 L 437.67335,208.43138 L 434.37869,192.02476 L 432.44753,213.92011 L 440.35995,218.76035 z "
         id="path4736"
         sodipodi:nodetypes="ccccc" />
      <path
         style="fill:#00c400;fill-opacity:1.0000000;fill-rule:evenodd;stroke:none;stroke-width:1.0000000px;stroke-linecap:butt;stroke-linejoin:miter;stroke-opacity:1.0000000"
         d="M 439.62784,215.84718 L 440.62071,226.51393 L 443.10484,243.08220 L 433.88903,223.40994 L 439.62784,215.84718 z "
         id="path4738"
         sodipodi:nodetypes="ccccc" />
      <path
         style="fill:none;fill-opacity:0.75000000;fill-rule:evenodd;stroke:#00c400;stroke-width:1.6492801px;stroke-linecap:butt;stroke-linejoin:miter;stroke-opacity:1.0000000"
         d="M 249.45884,265.33427 L 394.49422,124.90368"
         id="path4742"
         sodipodi:nodetypes="cc" />
      <path
         style="fill:none;fill-opacity:0.75000000;fill-rule:evenodd;stroke:#00c400;stroke-width:1.6492801px;stroke-linecap:butt;stroke-linejoin:miter;stroke-opacity:1.0000000"
         d="M 393.86310,125.23003 L 387.74341,83.865091"
         id="path4750"
         sodipodi:nodetypes="cc" />
      <path
         sodipodi:type="arc"
         style="stroke-opacity:1.0000000;stroke-dashoffset:0.00000000;stroke-miterlimit:4.0000000;stroke-width:10.000000;stroke:none;fill-rule:nonzero;fill-opacity:1.0000000;fill:#ff0000"
         id="path4752"
         sodipodi:cx="170.04681"
         sodipodi:cy="177.60213"
         sodipodi:rx="5.4610825"
         sodipodi:ry="4.3312035"
         d="M 175.50790 177.60213 A 5.4610825 4.3312035 0 1 1  164.58573,177.60213 A 5.4610825 4.3312035 0 1 1  175.50790 177.60213 z"
         transform="matrix(-1.790582,1.057799,1.250260,2.408448,469.2645,-534.8913)" />
      <path
         style="fill:none;fill-opacity:0.75000000;fill-rule:evenodd;stroke:#00c400;stroke-width:1.6492804px;stroke-linecap:butt;stroke-linejoin:miter;stroke-opacity:1.0000000"
         d="M 393.87073,125.86320 L 411.44396,88.416701"
         id="path4756"
         sodipodi:nodetypes="cc" />
      <path
         sodipodi:type="arc"
         style="stroke-opacity:1.0000000;stroke-dashoffset:0.00000000;stroke-miterlimit:4.0000000;stroke-width:10.000000;stroke:none;fill-rule:nonzero;fill-opacity:1.0000000;fill:#ff0000"
         id="path4758"
         sodipodi:cx="170.04681"
         sodipodi:cy="177.60213"
         sodipodi:rx="5.4610825"
         sodipodi:ry="4.3312035"
         d="M 175.50790 177.60213 A 5.4610825 4.3312035 0 1 1  164.58573,177.60213 A 5.4610825 4.3312035 0 1 1  175.50790 177.60213 z"
         transform="matrix(-2.033303,-0.250420,-0.295982,2.734924,815.0960,-364.3535)" />
      <path
         style="fill:none;fill-opacity:0.75000000;fill-rule:evenodd;stroke:#00c400;stroke-width:1.6492804px;stroke-linecap:butt;stroke-linejoin:miter;stroke-opacity:1.0000000"
         d="M 393.94929,124.95864 L 431.32886,137.74986"
         id="path4762"
         sodipodi:nodetypes="cc" />
      <path
         sodipodi:type="arc"
         style="stroke-opacity:1.0000000;stroke-dashoffset:0.00000000;stroke-miterlimit:4.0000000;stroke-width:10.000000;stroke:none;fill-rule:nonzero;fill-opacity:1.0000000;fill:#ff0000"
         id="path4764"
         sodipodi:cx="170.04681"
         sodipodi:cy="177.60213"
         sodipodi:rx="5.4610825"
         sodipodi:ry="4.3312035"
         d="M 175.50790 177.60213 A 5.4610825 4.3312035 0 1 1  164.58573,177.60213 A 5.4610825 4.3312035 0 1 1  175.50790 177.60213 z"
         transform="matrix(-1.254313,1.725450,-2.039387,-1.687131,1016.995,146.6497)" />
      <path
         style="fill:none;fill-opacity:0.75000000;fill-rule:evenodd;stroke:#00c400;stroke-width:1.6492821px;stroke-linecap:butt;stroke-linejoin:miter;stroke-opacity:1.0000000"
         d="M 393.43766,125.01670 L 430.13188,110.13747"
         id="path4768"
         sodipodi:nodetypes="cc" />
      <path
         sodipodi:type="arc"
         style="stroke-opacity:1.0000000;stroke-dashoffset:0.00000000;stroke-miterlimit:4.0000000;stroke-width:10.000000;stroke:none;fill-rule:nonzero;fill-opacity:1.0000000;fill:#ff0000"
         id="path4770"
         sodipodi:cx="170.04681"
         sodipodi:cy="177.60213"
         sodipodi:rx="5.4610825"
         sodipodi:ry="4.3312035"
         d="M 175.50790 177.60213 A 5.4610825 4.3312035 0 1 1  164.58573,177.60213 A 5.4610825 4.3312035 0 1 1  175.50790 177.60213 z"
         transform="matrix(2.872754e-2,2.183272,-2.580508,3.864119e-2,893.0639,-272.6694)" />
      <path
         style="fill:#00c400;fill-opacity:1.0000000;fill-rule:evenodd;stroke:none;stroke-width:1.0000000px;stroke-linecap:butt;stroke-linejoin:miter;stroke-opacity:1.0000000"
         d="M 395.00662,126.17456 L 387.96565,118.52706 L 377.63269,105.87698 L 385.88661,126.02941 L 395.00662,126.17456 z "
         id="path4774"
         sodipodi:nodetypes="ccccc" />
      <path
         style="fill:#00c400;fill-opacity:1.0000000;fill-rule:evenodd;stroke:none;stroke-width:1.0000000px;stroke-linecap:butt;stroke-linejoin:miter;stroke-opacity:1.0000000"
         d="M 393.04320,124.00443 L 398.75587,132.82276 L 408.45317,146.03313 L 391.45727,133.58630 L 393.04320,124.00443 z "
         id="path4776"
         sodipodi:nodetypes="ccccc" />
      <path
         style="fill:none;fill-opacity:0.75000000;fill-rule:evenodd;stroke:#00c400;stroke-width:1.6492809px;stroke-linecap:butt;stroke-linejoin:miter;stroke-opacity:1.0000000"
         d="M 249.69138,265.05392 L 301.65868,63.594731"
         id="path4780"
         sodipodi:nodetypes="cc" />
      <path
         style="fill:none;fill-opacity:0.75000000;fill-rule:evenodd;stroke:#00c400;stroke-width:1.6492809px;stroke-linecap:butt;stroke-linejoin:miter;stroke-opacity:1.0000000"
         d="M 301.28959,64.230938 L 275.35271,32.796633"
         id="path4788"
         sodipodi:nodetypes="cc" />
      <path
         sodipodi:type="arc"
         style="stroke-opacity:1.0000000;stroke-dashoffset:0.00000000;stroke-miterlimit:4.0000000;stroke-width:10.000000;stroke:none;fill-rule:nonzero;fill-opacity:1.0000000;fill:#ff0000"
         id="path4790"
         sodipodi:cx="170.04681"
         sodipodi:cy="177.60213"
         sodipodi:rx="5.4610825"
         sodipodi:ry="4.3312035"
         d="M 175.50790 177.60213 A 5.4610825 4.3312035 0 1 1  164.58573,177.60213 A 5.4610825 4.3312035 0 1 1  175.50790 177.60213 z"
         transform="matrix(-0.980961,1.916383,2.265059,1.319455,33.52068,-536.2981)" />
      <path
         style="fill:none;fill-opacity:0.75000000;fill-rule:evenodd;stroke:#00c400;stroke-width:1.6492816px;stroke-linecap:butt;stroke-linejoin:miter;stroke-opacity:1.0000000"
         d="M 301.61380,64.761390 L 297.65207,23.098225"
         id="path4794"
         sodipodi:nodetypes="cc" />
      <path
         sodipodi:type="arc"
         style="stroke-opacity:1.0000000;stroke-dashoffset:0.00000000;stroke-miterlimit:4.0000000;stroke-width:10.000000;stroke:none;fill-rule:nonzero;fill-opacity:1.0000000;fill:#ff0000"
         id="path4796"
         sodipodi:cx="170.04681"
         sodipodi:cy="177.60213"
         sodipodi:rx="5.4610825"
         sodipodi:ry="4.3312035"
         d="M 175.50790 177.60213 A 5.4610825 4.3312035 0 1 1  164.58573,177.60213 A 5.4610825 4.3312035 0 1 1  175.50790 177.60213 z"
         transform="matrix(-1.842777,0.950333,1.123241,2.478653,411.1873,-589.8894)" />
      <path
         style="fill:none;fill-opacity:0.75000000;fill-rule:evenodd;stroke:#00c400;stroke-width:1.6492816px;stroke-linecap:butt;stroke-linejoin:miter;stroke-opacity:1.0000000"
         d="M 301.22606,63.952529 L 339.21399,53.396013"
         id="path4800"
         sodipodi:nodetypes="cc" />
      <path
         sodipodi:type="arc"
         style="stroke-opacity:1.0000000;stroke-dashoffset:0.00000000;stroke-miterlimit:4.0000000;stroke-width:10.000000;stroke:none;fill-rule:nonzero;fill-opacity:1.0000000;fill:#ff0000"
         id="path4802"
         sodipodi:cx="170.04681"
         sodipodi:cy="177.60213"
         sodipodi:rx="5.4610825"
         sodipodi:ry="4.3312035"
         d="M 175.50790 177.60213 A 5.4610825 4.3312035 0 1 1  164.58573,177.60213 A 5.4610825 4.3312035 0 1 1  175.50790 177.60213 z"
         transform="matrix(-0.192880,2.173770,-2.569277,-0.259436,838.2544,-273.7304)" />
      <path
         style="fill:none;fill-opacity:0.75000000;fill-rule:evenodd;stroke:#00c400;stroke-width:1.6492834px;stroke-linecap:butt;stroke-linejoin:miter;stroke-opacity:1.0000000"
         d="M 300.82312,64.293960 L 324.33917,30.762467"
         id="path4806"
         sodipodi:nodetypes="cc" />
      <path
         sodipodi:type="arc"
         style="stroke-opacity:1.0000000;stroke-dashoffset:0.00000000;stroke-miterlimit:4.0000000;stroke-width:10.000000;stroke:none;fill-rule:nonzero;fill-opacity:1.0000000;fill:#ff0000"
         id="path4808"
         sodipodi:cx="170.04681"
         sodipodi:cy="177.60213"
         sodipodi:rx="5.4610825"
         sodipodi:ry="4.3312035"
         d="M 175.50790 177.60213 A 5.4610825 4.3312035 0 1 1  164.58573,177.60213 A 5.4610825 4.3312035 0 1 1  175.50790 177.60213 z"
         transform="matrix(1.120465,1.827271,-2.159734,1.507098,523.0620,-557.0156)" />
      <path
         style="fill:#00c400;fill-opacity:1.0000000;fill-rule:evenodd;stroke:none;stroke-width:1.0000000px;stroke-linecap:butt;stroke-linejoin:miter;stroke-opacity:1.0000000"
         d="M 302.72956,64.375122 L 292.94399,61.940234 L 277.86671,57.161870 L 294.95521,69.463601 L 302.72956,64.375122 z "
         id="path4812"
         sodipodi:nodetypes="ccccc" />
      <path
         style="fill:#00c400;fill-opacity:1.0000000;fill-rule:evenodd;stroke:none;stroke-width:1.0000000px;stroke-linecap:butt;stroke-linejoin:miter;stroke-opacity:1.0000000"
         d="M 299.98193,63.664406 L 309.23367,67.846985 L 324.05548,73.461700 L 303.45366,72.662083 L 299.98193,63.664406 z "
         id="path4814"
         sodipodi:nodetypes="ccccc" />
      <path
         style="fill:none;fill-opacity:0.75000000;fill-rule:evenodd;stroke:#00c400;stroke-width:1.6492810px;stroke-linecap:butt;stroke-linejoin:miter;stroke-opacity:1.0000000"
         d="M 250.77358,399.17539 L 250.10143,264.40327"
         id="path1440"
         sodipodi:nodetypes="cc" />
    </g>
  </g>
</svg>
