<?xml version="1.0" encoding="UTF-8" standalone="no"?>
<!-- Created with Inkscape (http://www.inkscape.org/) -->
<svg
   xmlns:svg="http://www.w3.org/2000/svg"
   xmlns="http://www.w3.org/2000/svg"
   version="1.0"
   width="275"
   height="686.26001"
   viewBox="0 0 266.69141 686.25586"
   id="svg5633"
   xml:space="preserve"><defs
   id="defs5673" />
	
		<g
   id="Ebene_2">
			<path
   d="M 216.92773,339.41211 C 215.33691,334.6377 214.98242,329.68555 212.86035,325.26367 L 211.62207,324.37988 C 211.7998,329.68555 211.62207,334.6377 211.62207,339.94434 C 206.31641,335.16895 201.00977,330.21582 195.70313,325.44141 C 199.06445,333.22363 202.95605,340.82812 208.96875,346.66406 C 198.53516,357.63184 187.92188,368.24316 177.13281,378.67969 C 174.83301,370.36426 176.95605,360.1084 172.53418,352.67773 C 171.82617,352.14941 170.58887,351.26465 169.88086,350.7334 C 171.47363,360.1084 172.70996,369.65625 173.24219,379.03223 C 167.58203,374.25781 162.45215,368.77246 156.79199,363.99805 C 160.50684,371.60547 165.63574,378.5 170.41113,385.57422 C 159.09082,396.89551 147.77246,408.3916 136.09863,419.53613 C 135.74512,369.65625 135.74512,319.78125 136.27539,269.90332 C 146.35742,276.09375 156.08496,282.46094 166.16797,288.47559 C 157.14551,278.39355 147.41797,268.84277 137.69043,259.29199 C 141.93555,254.87012 146.35742,250.44824 150.7793,246.02637 C 155.73145,253.10156 163.69043,256.81445 171.11914,260.70605 C 166.34375,255.22266 161.56738,249.74023 156.79199,244.25781 C 165.63574,245.31836 174.47852,246.55664 183.14648,247.79492 C 182.61621,247.08691 181.73145,245.67285 181.20117,244.96484 C 173.94922,240.89648 164.92871,241.78027 156.96973,239.83594 C 168.82031,227.98535 180.66992,216.13477 192.34375,204.28418 C 194.81934,214.36621 205.60938,217.19629 213.92188,221.44043 C 208.43848,215.42773 202.77832,209.59082 197.2959,203.57715 C 205.0791,204.46191 212.68457,205.52246 220.28906,206.76074 C 220.81934,205.87598 221.88184,204.28418 222.58789,203.40039 C 214.27441,201.98438 205.96387,200.74707 197.65039,199.33203 C 208.61621,188.18945 219.58105,177.04688 230.72559,166.08008 C 235.14746,174.92383 244.52051,178.28516 252.83398,182.5293 C 247.52832,177.04688 242.04395,171.74023 236.7373,166.25781 C 240.27539,164.66602 245.40527,166.25781 248.76465,163.78125 C 249.47266,163.42773 250.88672,162.71973 251.41797,162.36621 C 246.46582,161.83594 241.51367,161.30469 236.7373,160.77441 C 243.63672,153.16895 250.71094,145.74023 256.54688,137.42676 C 241.33691,147.50879 229.84082,162.36621 216.92773,174.92383 C 215.33691,170.14844 214.98242,165.19629 212.86035,160.77441 L 211.62207,159.88965 C 211.7998,165.01953 211.62207,170.3252 211.62207,175.4541 C 206.31641,170.67969 201.00977,165.90332 195.70313,160.95117 C 199.06445,168.7334 202.95605,176.33887 208.96875,182.17578 C 198.53516,193.1416 187.92188,203.75391 177.13281,214.18945 C 174.83301,205.87598 176.95605,195.61816 172.53418,188.18945 C 171.82617,187.65918 170.58887,186.77441 169.88086,186.24414 C 171.47363,195.61816 172.70996,205.16895 173.24219,214.54297 C 167.58203,209.76855 162.45215,204.28418 156.79199,199.50879 C 160.50684,207.11426 165.63574,214.0127 170.41113,221.08789 C 159.09082,232.40723 147.77246,243.90332 136.09863,255.0459 C 135.91797,211.55176 135.92188,168.104 135.94531,124.65527 C 144.15234,124.3042 152.00293,121.36133 159.58789,117.94141 C 152.83789,118.01758 146.18457,117.9707 139.44043,117.83105 L 165.02441,91.525391 L 162.51465,89.084961 L 135.9502,116.39795 C 135.95996,100.09912 135.96973,83.799316 135.97266,67.496582 C 144.16992,67.140137 152.01172,64.200195 159.58789,60.78418 C 152.83789,60.860352 146.18457,60.813477 139.44043,60.673828 L 149.84082,49.979492 C 148.91504,49.24707 148.14063,48.333008 147.57715,47.286133 L 135.97266,59.217285 C 135.97363,39.484375 135.96289,19.74707 135.92188,0 C 134.50684,0 132.03125,0 130.61523,0 C 130.5791,10.828125 130.57666,21.655762 130.58447,32.481934 L 121.06055,22.689941 C 120.40234,23.666504 119.54687,24.496582 118.55664,25.135254 L 128.8252,35.693359 C 122.08057,35.833496 115.42676,35.880371 108.67627,35.804199 C 115.72852,38.983398 123.00879,41.749023 130.5918,42.405762 C 130.61426,58.327148 130.65332,74.243164 130.6709,90.151367 L 105.74951,64.52832 L 103.24072,66.96875 L 128.8252,93.274414 C 122.08057,93.414063 115.42676,93.460938 108.67627,93.384766 C 115.75586,96.57666 123.06592,99.351563 130.68115,99.994141 C 130.68555,115.59033 130.646,131.17529 130.53662,146.74756 L 105.74951,121.26221 L 103.24072,123.70264 L 128.8252,150.00781 C 122.08057,150.14795 115.42676,150.19482 108.67627,150.11865 C 115.6875,153.2793 122.92432,156.03076 130.45996,156.70801 C 130.45117,157.65039 130.44775,158.59375 130.43848,159.53613 L 130.43848,174.57031 C 130.43848,174.57031 130.79297,274.14844 130.43848,324.02539 C 118.76562,312.88281 107.44531,301.56348 96.125977,290.24414 C 100.90137,283.16895 106.03027,276.09375 109.74512,268.48828 C 104.08496,273.26367 99.132812,278.57031 93.472656,283.52246 C 94.356445,273.97168 95.418945,264.59766 96.833008,255.22266 C 96.125977,255.75391 94.710938,256.63867 94.179688,257.16895 C 89.405273,264.59766 91.350586,274.85547 89.227539,283.16895 C 78.615234,272.55664 68.003906,261.94434 57.568359,251.15527 C 63.582031,245.31836 67.473633,237.71289 70.833984,229.93066 C 65.527344,234.88281 60.22168,239.6582 54.738281,244.43359 C 54.738281,239.30469 54.915039,233.99902 54.915039,228.69238 L 53.676758,229.75391 C 51.554688,234.17578 51.201172,239.30469 49.961914,243.90332 C 37.051758,230.81543 24.670899,217.19629 9.8134767,206.58398 C 15.472656,215.07422 22.901367,222.3252 29.799805,229.75391 C 24.847656,230.28418 20.071289,230.81543 15.119141,231.3457 C 15.649414,231.69922 17.06543,232.40723 17.772461,232.76074 C 21.30957,235.2373 26.084961,233.64551 29.799805,235.2373 C 24.493164,240.71973 19.009766,246.02637 13.704102,251.50879 C 21.839844,247.08691 31.391602,243.54883 35.459961,234.5293 C 46.601563,245.84961 57.920899,256.99219 68.887695,268.48828 C 60.751953,269.72656 52.439453,271.1416 44.125977,272.37988 C 44.833008,273.08691 46.249024,274.50195 46.779297,275.20996 C 54.208008,274.14844 61.635742,273.26367 69.242188,272.55664 C 63.758789,278.57031 58.276367,284.40723 52.791992,290.41992 C 60.751953,285.82227 71.717773,283.16895 74.194336,273.26367 C 85.867188,285.11426 97.717774,296.96484 109.56836,308.81445 C 101.60938,310.93652 92.765625,310.22949 85.335938,313.94434 C 84.805664,314.65137 83.921875,315.89063 83.391602,316.59766 C 92.057617,315.35938 100.90137,314.12109 109.74512,313.2373 C 105.14648,318.71973 100.19434,324.20215 95.418945,329.68555 C 102.66992,325.79492 110.62988,322.25684 115.4043,315.35938 C 120.00293,319.42773 124.60156,323.49512 129.02441,327.56348 C 119.47266,337.46777 109.74512,347.19531 100.54785,357.45605 C 110.45215,351.44141 120.35742,344.89551 130.43848,339.05957 C 130.79297,388.93652 130.79297,438.63574 130.43848,488.51563 C 118.76563,477.37109 107.44531,466.05078 96.125977,454.73438 C 100.90137,447.65918 106.03027,440.58496 109.74512,432.97754 C 104.08496,437.75195 99.132813,443.05859 93.472656,448.01172 C 94.356445,438.45996 95.418945,429.08789 96.833008,419.71191 C 96.125977,420.24414 94.710938,421.12793 94.179688,421.65723 C 89.405274,429.08789 91.350586,439.34375 89.227539,447.65918 C 78.615235,437.04785 68.003906,426.43457 57.56836,415.64355 C 63.582031,409.80859 67.473633,402.20215 70.833985,394.41895 C 65.527344,399.37305 60.22168,404.14648 54.738281,408.92383 C 54.738281,403.79395 54.915039,398.48828 54.915039,393.18164 L 53.676758,394.24219 C 51.554688,398.66406 51.201172,403.79395 49.961914,408.3916 C 37.051758,395.30273 24.670899,381.68457 9.8134768,371.07324 C 15.472656,379.56348 22.901367,386.81543 29.799805,394.24219 C 24.847656,394.77441 20.071289,395.30273 15.119141,395.83496 C 15.649414,396.1875 17.06543,396.89551 17.772461,397.25195 C 21.30957,399.72559 26.084961,398.13574 29.799805,399.72559 C 24.493164,405.20996 19.009766,410.5166 13.704102,415.99902 C 21.839844,411.57715 31.391602,408.03906 35.459961,399.02051 C 46.601563,410.33691 57.920899,421.48047 68.887696,432.97754 C 60.751953,434.21387 52.439453,435.63086 44.125977,436.86719 C 44.833008,437.5752 46.249024,438.99219 46.779297,439.7002 C 54.208008,438.63574 61.635742,437.75195 69.242188,437.04785 C 63.758789,443.05859 58.276367,448.89551 52.791992,454.91016 C 60.751953,450.3125 71.717774,447.65918 74.194336,437.75195 C 85.867188,449.60352 97.717774,461.45312 109.56836,473.30566 C 101.60938,475.42676 92.765625,474.71875 85.335938,478.43164 C 84.805664,479.13965 83.921875,480.38086 83.391602,481.08496 C 92.057617,479.84766 100.90137,478.6123 109.74512,477.72754 C 105.14648,483.20996 100.19434,488.69141 95.418945,494.17383 C 102.66992,490.28418 110.62988,486.74707 115.4043,479.84766 C 120.00293,483.91797 124.60156,487.9834 129.02441,492.05273 C 119.47266,501.95703 109.74512,511.68555 100.54785,521.94629 C 110.45215,515.93066 120.35742,509.38379 130.43848,503.54883 C 130.96973,564.39453 130.43848,625.41504 130.61523,686.25586 C 132.03125,686.25586 134.50684,686.25586 135.92188,686.25586 C 135.92188,657.07227 135.74512,628.06738 136.27539,598.88379 C 146.35742,605.0752 156.08496,611.44141 166.16797,617.45508 C 157.14551,607.19531 147.41797,597.82031 137.69043,588.27148 C 141.93555,583.85059 146.35742,579.42871 150.7793,575.00586 C 155.73145,582.08203 163.69043,585.79492 171.11914,589.68457 C 166.34375,584.20312 161.56738,578.71973 156.79199,573.23828 C 165.63574,574.29883 174.47852,575.53516 183.14648,576.77539 C 182.61621,576.06641 181.73145,574.65039 181.20117,573.94238 C 173.94922,569.87695 164.92871,570.76074 156.96973,568.81641 C 168.82031,556.96387 180.66992,545.11523 192.34375,533.2627 C 194.81934,543.34668 205.60938,546.17578 213.92188,550.4209 C 208.43848,544.40723 202.77832,538.56836 197.2959,532.55762 C 205.0791,533.44141 212.68457,534.50195 220.28906,535.73926 C 220.81934,534.85449 221.88184,533.2627 222.58789,532.37793 C 214.27441,530.96484 205.96387,529.72559 197.65039,528.3125 C 208.61621,517.16699 219.58105,506.02734 230.72559,495.05762 C 235.14746,503.90137 244.52051,507.2627 252.83398,511.50879 C 247.52832,506.02734 242.04395,500.71973 236.7373,495.23437 C 240.27539,493.46582 245.40527,495.23437 248.76465,492.76172 C 249.47266,492.40527 250.88672,491.69727 251.41797,491.34473 C 246.46582,490.8125 241.51367,490.28418 236.7373,489.75195 C 243.63672,482.14941 250.71094,474.71875 256.54688,466.40723 C 241.33691,476.4873 229.84082,491.16797 216.92773,503.90137 C 215.33691,499.12793 214.98242,494.17383 212.86035,489.75195 L 211.62207,488.86816 C 211.7998,494.17383 211.62207,499.12793 211.62207,504.43359 C 206.31641,499.65625 201.00977,494.70605 195.70313,489.92871 C 199.06445,497.71191 202.95605,505.31836 208.96875,511.15332 C 198.53516,522.12109 187.92188,532.7334 177.13281,543.16992 C 174.83301,534.85449 176.95605,524.59863 172.53418,517.16699 C 171.82617,516.63867 170.58887,515.75391 169.88086,515.22266 C 171.47363,524.59863 172.70996,534.14648 173.24219,543.52246 C 167.58203,538.74805 162.45215,533.2627 156.79199,528.48828 C 160.50684,536.0957 165.63574,542.99023 170.41113,550.06543 C 159.09082,561.38574 147.77246,572.88184 136.09863,584.02637 C 135.74512,534.14648 135.74512,484.27051 136.27539,434.39355 C 146.35742,440.58496 156.08496,446.95117 166.16797,452.96582 C 157.14551,442.70605 147.41797,433.33008 137.69043,423.78223 C 141.93555,419.35937 146.35742,414.93848 150.7793,410.5166 C 155.73145,417.59082 163.69043,421.30469 171.11914,425.19434 C 166.34375,419.71191 161.56738,414.23047 156.79199,408.74707 C 165.63574,409.80859 174.47852,411.04492 183.14648,412.28516 C 182.61621,411.57715 181.73145,410.16016 181.20117,409.45215 C 173.94922,405.38672 164.92871,406.27051 156.96973,404.32617 C 168.82031,392.47363 180.66992,380.62402 192.34375,368.77246 C 194.81934,378.85547 205.60938,381.68457 213.92188,385.93164 C 208.43848,379.91602 202.77832,374.0791 197.2959,368.06836 C 205.0791,368.95215 212.68457,370.0127 220.28906,371.24902 C 220.81934,370.36426 221.88184,368.77246 222.58789,367.8877 C 214.27441,366.47461 205.96387,365.23535 197.65039,363.82227 C 208.61621,352.67773 219.58105,341.53711 230.72559,330.56934 C 235.14746,339.41211 244.52051,342.77441 252.83398,347.01953 C 247.52832,341.53711 242.04395,336.22949 236.7373,330.74707 C 240.27539,329.15527 245.40527,330.74707 248.76465,328.27148 C 249.47266,327.91699 250.88672,327.20996 251.41797,326.85547 C 246.46582,326.3252 241.51367,325.79492 236.7373,325.26367 C 243.63672,317.65918 250.71094,310.22949 256.54688,301.91699 C 241.33691,311.99805 229.84082,326.85547 216.92773,339.41211 z "
   style="fill:#00c400"
   id="path5638" />
			<circle
   cx="8.6591797"
   cy="234.03516"
   r="8.6591797"
   style="fill:#fd0000"
   id="circle4949" /> 
			<circle
   cx="53.81543"
   cy="221.72168"
   r="8.6591797"
   style="fill:#fd0000"
   id="circle4951" /> 
			<circle
   cx="37.727539"
   cy="275.35107"
   r="8.6586914"
   style="fill:#fd0000"
   id="circle4953" /> 
			<circle
   cx="94.870117"
   cy="249.64453"
   r="8.6591797"
   style="fill:#fd0000"
   id="circle4955" /> 
			<circle
   cx="76.376953"
   cy="316.40479"
   r="8.659668"
   style="fill:#fd0000"
   id="circle4957" /> 
			<circle
   cx="9.5429688"
   cy="398.52441"
   r="8.6591797"
   style="fill:#fd0000"
   id="circle4959" /> 
			<circle
   cx="54.700195"
   cy="386.21094"
   r="8.6591797"
   style="fill:#fd0000"
   id="circle4961" /> 
			<circle
   cx="38.612305"
   cy="439.83984"
   r="8.6591797"
   style="fill:#fd0000"
   id="circle4963" /> 
			<circle
   cx="95.754883"
   cy="414.13379"
   r="8.6582031"
   style="fill:#fd0000"
   id="circle4965" /> 
			<path
   d="M 85.919922,480.89551 C 85.919922,485.67676 82.043945,489.55176 77.261719,489.55176 C 72.478516,489.55176 68.601563,485.67676 68.601563,480.89551 C 68.601563,476.11035 72.478516,472.23437 77.261719,472.23437 C 82.043945,472.23437 85.919922,476.11035 85.919922,480.89551 z "
   style="fill:#fd0000"
   id="path4967" />
			<circle
   cx="256.70508"
   cy="493.59229"
   r="8.659668"
   style="fill:#fd0000"
   id="circle4969" /> 
			<circle
   cx="211.54785"
   cy="481.27832"
   r="8.6601562"
   style="fill:#fd0000"
   id="circle4971" /> 
			<circle
   cx="227.63672"
   cy="534.90674"
   r="8.6567383"
   style="fill:#fd0000"
   id="circle4973" /> 
			<path
   d="M 161.83691,509.20117 C 161.83691,513.9834 165.70898,517.86133 170.49414,517.86133 C 175.27734,517.86133 179.15137,513.9834 179.15137,509.20117 C 179.15137,504.41992 175.27734,500.54199 170.49414,500.54199 C 165.70898,500.54199 161.83691,504.41992 161.83691,509.20117 z "
   style="fill:#fd0000"
   id="path4975" />
			<path
   d="M 180.3291,575.96289 C 180.3291,580.74414 184.2041,584.62109 188.98535,584.62109 C 193.77051,584.62109 197.64355,580.74414 197.64355,575.96289 C 197.64355,571.17969 193.77051,567.30273 188.98535,567.30273 C 184.2041,567.30273 180.3291,571.17969 180.3291,575.96289 z "
   style="fill:#fd0000"
   id="path4977" />
			<circle
   cx="256.70508"
   cy="329.10303"
   r="8.659668"
   style="fill:#fd0000"
   id="circle4979" /> 
			<circle
   cx="211.54785"
   cy="316.78906"
   r="8.6601562"
   style="fill:#fd0000"
   id="circle4981" /> 
			<circle
   cx="227.63672"
   cy="370.41797"
   r="8.6572266"
   style="fill:#fd0000"
   id="circle4983" /> 
			<path
   d="M 161.83691,344.71191 C 161.83691,349.49414 165.70898,353.37207 170.49414,353.37207 C 175.27734,353.37207 179.15137,349.49414 179.15137,344.71191 C 179.15137,339.93164 175.27734,336.05371 170.49414,336.05371 C 165.70898,336.05371 161.83691,339.93164 161.83691,344.71191 z "
   style="fill:#fd0000"
   id="path4985" />
			<path
   d="M 180.3291,411.47363 C 180.3291,416.25488 184.2041,420.13086 188.98535,420.13086 C 193.77051,420.13086 197.64355,416.25488 197.64355,411.47363 C 197.64355,406.68945 193.77051,402.81348 188.98535,402.81348 C 184.2041,402.81348 180.3291,406.68945 180.3291,411.47363 z "
   style="fill:#fd0000"
   id="path4987" />
			<circle
   cx="258.03223"
   cy="164.17139"
   r="8.659668"
   style="fill:#fd0000"
   id="circle4989" /> 
			<circle
   cx="212.87402"
   cy="151.85742"
   r="8.6601562"
   style="fill:#fd0000"
   id="circle4991" /> 
			<circle
   cx="228.96387"
   cy="205.4873"
   r="8.6572266"
   style="fill:#fd0000"
   id="circle4993" /> 
			<path
   d="M 163.16406,179.78027 C 163.16406,184.5625 167.03613,188.44043 171.82031,188.44043 C 176.60352,188.44043 180.47754,184.5625 180.47754,179.78027 C 180.47754,175 176.60352,171.12207 171.82031,171.12207 C 167.03613,171.12207 163.16406,175 163.16406,179.78027 z "
   style="fill:#fd0000"
   id="path4995" />
			<path
   d="M 181.65527,246.54199 C 181.65527,251.32324 185.53027,255.19922 190.3125,255.19922 C 195.09668,255.19922 198.96973,251.32324 198.96973,246.54199 C 198.96973,241.75684 195.09668,237.88184 190.3125,237.88184 C 185.53027,237.88184 181.65527,241.75684 181.65527,246.54199 z "
   style="fill:#fd0000"
   id="path4997" />
			<circle
   cx="102.54053"
   cy="121.52393"
   r="8.6601562"
   style="fill:#fd0000"
   id="circle4991_2_" /> 
			<circle
   cx="165.87402"
   cy="88.524414"
   r="8.6601562"
   style="fill:#fd0000"
   id="circle4991_3_" /> 
			<path
   d="M 149.84082,49.979492 C 151.31738,51.148438 153.17871,51.851074 155.20801,51.851074 C 159.99121,51.851074 163.86816,47.974121 163.86816,43.190918 C 163.86816,41.075684 163.10742,39.13916 161.84766,37.634766 C 161.08984,36.730469 160.14844,35.989258 159.08398,35.45459 C 157.91699,34.868652 156.60352,34.530762 155.20801,34.530762 C 150.4248,34.530762 146.54785,38.408691 146.54785,43.190918 C 146.54785,44.672852 146.9209,46.066406 147.57715,47.286133 C 148.14062,48.333008 148.91504,49.24707 149.84082,49.979492 z "
   style="fill:#fd0000"
   id="path5667" />
			<path
   d="M 121.06055,22.689941 C 121.99023,21.30957 122.53369,19.646973 122.53369,17.857422 C 122.53369,13.075195 118.65674,9.1972657 113.87354,9.1972657 C 112.17041,9.1972657 110.5874,9.6958009 109.24805,10.544922 C 108.25195,11.17627 107.39111,12 106.72559,12.971191 C 105.77246,14.362305 105.21338,16.043945 105.21338,17.857422 C 105.21338,22.640625 109.09033,26.517578 113.87354,26.517578 C 115.60059,26.517578 117.20557,26.006348 118.55664,25.135254 C 119.54688,24.496582 120.40234,23.666504 121.06055,22.689941 z "
   style="fill:#fd0000"
   id="path5669" />
			<circle
   cx="105.20752"
   cy="68.190918"
   r="8.6601562"
   style="fill:#fd0000"
   id="circle4991_4_" /> 
		</g>
	</svg>