<?xml version="1.0" encoding="UTF-8" standalone="no"?>
<!-- Created with Inkscape (http://www.inkscape.org/) -->
<svg
   xmlns:svg="http://www.w3.org/2000/svg"
   xmlns="http://www.w3.org/2000/svg"
   version="1.0"
   width="375.08252"
   height="523.88281"
   viewBox="0 0 375.08252 523.88281"
   id="svg3931"
   xml:space="preserve"><defs
   id="defs4048" />
	
		<g
   transform="matrix(0.9778299,0,0,0.9778299,6,11.614511)"
   id="Ebene_3">
			<g
   id="g3936">
				<circle
   cx="87.898438"
   cy="383.73242"
   r="9.2319336"
   style="fill:#ff0000"
   id="circle3938" /> 
				<circle
   cx="106.01758"
   cy="392.23145"
   r="9.2319336"
   style="fill:#ff0000"
   id="circle3940" /> 
				<circle
   cx="76.587402"
   cy="367.32812"
   r="9.2319336"
   style="fill:#ff0000"
   id="circle3942" /> 
			</g>
			<circle
   cx="36.649414"
   cy="326.53711"
   r="9.2321177"
   style="fill:#ff0000"
   id="circle3944" /> 
			<circle
   cx="52.581299"
   cy="339.48047"
   r="9.2318821"
   style="fill:#ff0000"
   id="circle3946" /> 
			<circle
   cx="31.356934"
   cy="307.07812"
   r="9.2316465"
   style="fill:#ff0000"
   id="circle3948" /> 
			<circle
   cx="9.2319336"
   cy="243.06543"
   r="9.2319336"
   style="fill:#ff0000"
   id="circle3950" /> 
			<circle
   cx="16.351074"
   cy="261.39746"
   r="9.2319336"
   style="fill:#ff0000"
   id="circle3952" /> 
			<circle
   cx="14.42041"
   cy="223.49463"
   r="9.2319336"
   style="fill:#ff0000"
   id="circle3954" /> 
			<circle
   cx="12.731445"
   cy="170.06592"
   r="9.2319336"
   style="fill:#ff0000"
   id="circle3956" /> 
			<circle
   cx="17.017578"
   cy="189.06494"
   r="9.2319336"
   style="fill:#ff0000"
   id="circle3958" /> 
			<circle
   cx="18.753418"
   cy="150.99512"
   r="9.2319336"
   style="fill:#ff0000"
   id="circle3960" /> 
			<circle
   cx="40.231934"
   cy="102.23242"
   r="9.2319336"
   style="fill:#ff0000"
   id="circle3962" /> 
			<circle
   cx="65.851562"
   cy="72.398438"
   r="9.2319336"
   style="fill:#ff0000"
   id="circle3964" /> 
			<circle
   cx="48.087402"
   cy="83.994629"
   r="9.2319336"
   style="fill:#ff0000"
   id="circle3966" /> 
			<circle
   cx="90.231934"
   cy="49.565918"
   r="9.2319336"
   style="fill:#ff0000"
   id="circle3968" /> 
			<circle
   cx="121.01758"
   cy="25.731445"
   r="9.2319336"
   style="fill:#ff0000"
   id="circle3970" /> 
			<circle
   cx="102.42041"
   cy="32.994629"
   r="9.2319336"
   style="fill:#ff0000"
   id="circle3972" /> 
			<circle
   cx="187.56494"
   cy="9.2324219"
   r="9.2319336"
   style="fill:#ff0000"
   id="circle3974" /> 
			<circle
   cx="206.6853"
   cy="14.397949"
   r="9.2321777"
   style="fill:#ff0000"
   id="circle3976" /> 
			<circle
   cx="168.25342"
   cy="14.328613"
   r="9.2319336"
   style="fill:#ff0000"
   id="circle3978" /> 
			<circle
   cx="273.06592"
   cy="32.56543"
   r="9.2324219"
   style="fill:#ff0000"
   id="circle3980" /> 
			<circle
   cx="284.68457"
   cy="49.564941"
   r="9.2319336"
   style="fill:#ff0000"
   id="circle3982" /> 
			<circle
   cx="254.25342"
   cy="25.828125"
   r="9.2314453"
   style="fill:#ff0000"
   id="circle3984" /> 
			<circle
   cx="327.23193"
   cy="83.398926"
   r="9.2324219"
   style="fill:#ff0000"
   id="circle3986" /> 
			<circle
   cx="335.51758"
   cy="102.39844"
   r="9.2319336"
   style="fill:#ff0000"
   id="circle3988" /> 
			<circle
   cx="309.58643"
   cy="72.161621"
   r="9.2314453"
   style="fill:#ff0000"
   id="circle3990" /> 
			<circle
   cx="358.73291"
   cy="189.23193"
   r="9.2324219"
   style="fill:#ff0000"
   id="circle3992" /> 
			<circle
   cx="362.35156"
   cy="169.73193"
   r="9.2319336"
   style="fill:#ff0000"
   id="circle3994" /> 
			<circle
   cx="356.5874"
   cy="150.66113"
   r="9.2314453"
   style="fill:#ff0000"
   id="circle3996" /> 
			<circle
   cx="359.56592"
   cy="261.23242"
   r="9.2324219"
   style="fill:#ff0000"
   id="circle3998" /> 
			<circle
   cx="365.85059"
   cy="242.06348"
   r="9.2319336"
   style="fill:#ff0000"
   id="circle4000" /> 
			<circle
   cx="361.25439"
   cy="222.49414"
   r="9.2314453"
   style="fill:#ff0000"
   id="circle4002" /> 
			<circle
   cx="343.23291"
   cy="306.73145"
   r="9.2324219"
   style="fill:#ff0000"
   id="circle4004" /> 
			<circle
   cx="323.01855"
   cy="339.73145"
   r="9.2319336"
   style="fill:#ff0000"
   id="circle4006" /> 
			<circle
   cx="339.0874"
   cy="326.32812"
   r="9.2314453"
   style="fill:#ff0000"
   id="circle4008" /> 
			<circle
   cx="268.73193"
   cy="392.73242"
   r="9.2324219"
   style="fill:#ff0000"
   id="circle4010" /> 
			<circle
   cx="287.18457"
   cy="384.39941"
   r="9.2319336"
   style="fill:#ff0000"
   id="circle4012" /> 
			<circle
   cx="298.92041"
   cy="367.32812"
   r="9.2314453"
   style="fill:#ff0000"
   id="circle4014" /> 
		</g>
		<g
   transform="matrix(0.9778299,0,0,0.9778299,6,11.614511)"
   id="Ebene_2">
			<path
   d="M 153.31934,17.575195 C 156.34424,25.374023 159.52783,33.33252 161.91504,41.290527 C 164.77979,34.923828 167.0083,28.239258 171.14648,22.509277 C 173.53418,21.554199 175.92139,20.439453 178.30908,19.485351 C 179.26416,19.007324 180.37793,18.689453 181.65186,18.530273 C 184.67578,18.530273 190.8833,18.530273 193.90771,18.530273 C 195.02246,18.689453 196.13525,19.007324 197.09131,19.485351 C 199.47852,20.439453 201.8667,21.395019 204.25342,22.509277 C 208.39111,28.080078 210.62061,34.923828 213.32666,41.290527 C 216.03076,33.332519 218.89697,25.214844 221.76221,17.256348 C 219.37451,35.879394 216.51025,55.456543 203.29736,69.940918 C 209.18701,70.736328 215.07666,72.010254 220.96631,73.442871 C 220.32861,53.068848 231.47021,35.719726 241.18115,19.007324 C 238.95166,26.647949 235.92725,33.96875 232.90381,41.290527 C 239.10986,38.107422 245.63721,35.242676 252.79932,34.287597 C 254.86865,34.764648 256.93701,35.242676 259.1665,35.879394 C 260.59814,36.197754 262.18994,36.674805 263.62256,37.311523 C 266.16846,38.90332 268.55615,40.654297 270.78467,42.405273 C 273.81006,45.588379 275.87842,49.408203 277.15186,53.546875 L 277.15186,55.297851 C 277.15186,61.345703 276.8335,67.553223 275.56006,73.602051 C 281.44971,68.03125 287.49756,62.61914 294.02295,57.685547 C 282.72217,71.214356 271.26221,86.8125 252.9585,91.110352 C 258.68896,96.681152 264.41846,102.41064 269.98975,108.14062 C 272.37646,88.563477 288.29346,74.875 301.82275,62.141602 C 296.729,70.100098 290.83936,77.739746 285.4292,85.539551 C 292.27295,82.992676 299.43506,81.241699 306.75635,80.605469 C 307.23486,80.764648 308.5083,80.922852 309.14404,81.08252 C 312.16846,82.356445 315.03271,84.106445 317.42041,86.494141 C 319.01221,88.245117 320.604,89.996094 322.1958,91.74707 C 323.62842,93.65625 325.06006,95.885254 325.69775,98.272949 C 326.33545,101.45605 326.65186,104.48047 326.97021,107.66357 C 326.97021,113.87109 323.31006,119.12305 321.2417,124.69385 C 328.72119,120.87402 335.88525,116.73584 343.5249,113.55225 C 334.61084,121.35205 324.90186,128.9917 313.60205,133.28955 C 305.64307,135.67725 297.20654,134.88135 288.93115,134.88135 C 292.59131,142.36182 296.25146,150.00195 300.07275,157.48242 C 306.75635,152.0708 313.76025,146.65967 321.56006,142.83984 C 332.70166,139.17822 344.3208,137.26855 355.93896,135.67725 C 346.8667,139.01904 337.63525,142.36182 328.40381,145.54492 C 336.04346,147.61475 344.79736,149.20605 349.41455,156.20947 C 349.89111,157.16455 350.84619,159.07422 351.16455,160.0293 C 351.96045,161.78027 352.75635,163.53125 353.23291,165.28174 C 353.71045,168.94287 354.02881,172.60352 354.18896,176.10547 C 354.18896,176.90137 353.87061,178.49268 353.87061,179.28857 C 352.59717,181.83545 351.16455,184.22314 349.73096,186.61035 C 346.7085,191.54395 341.61475,194.56885 336.83936,197.43359 C 346.0708,198.38867 355.14404,199.82129 364.21631,201.73145 C 344.16064,202.52734 322.51416,202.84521 304.84717,191.70313 C 306.43896,201.73145 307.23486,211.91797 306.9165,222.10449 C 320.76416,207.30225 343.04736,211.91797 360.87256,210.48535 C 354.98486,212.07715 348.93506,213.3501 343.20557,215.41895 C 346.7085,219.23975 350.68701,222.42285 353.55225,226.72022 C 354.34814,228.94824 355.14404,231.01807 355.78076,233.24609 C 356.2583,234.99707 356.73486,236.58887 356.89404,238.33984 C 356.89404,241.84082 356.89404,245.34277 356.4165,248.84375 C 356.09814,250.27734 355.30225,251.55078 354.50635,252.82324 C 352.91455,255.05273 351.16455,257.28027 349.25439,259.34961 C 346.54834,262.21484 343.20557,264.12402 339.86377,266.19434 C 347.02686,267.94531 354.02881,269.69531 361.03271,271.92383 C 344.3208,270.49121 324.90186,273.03711 311.69092,260.62305 C 308.6665,258.07617 306.12061,255.05273 303.57275,252.02734 C 301.18506,261.41895 298.63916,270.64941 295.45557,279.72363 C 304.52881,279.72363 314.07861,277.8125 322.67334,281.31543 C 333.01904,285.29492 342.25146,291.66113 351.16455,298.02832 C 343.5249,295.16211 336.20166,291.5 328.72119,288.31641 C 331.10986,293.0918 334.1333,298.02832 334.771,303.4375 C 334.771,307.09961 334.61084,310.76172 334.29346,314.41992 C 333.9751,315.53613 333.65576,316.64941 333.1792,317.60352 C 332.3833,319.67383 331.42725,321.58301 330.47314,323.49512 C 328.24365,326.5166 325.22021,329.06543 321.71826,330.49609 C 320.76416,330.81543 318.69385,331.29102 317.73975,331.45313 C 311.8501,332.40723 305.96045,332.24902 300.07275,332.08691 C 304.36865,337.34082 308.5083,342.43359 312.48682,347.8457 C 298.63916,336.86231 278.74365,325.5625 281.76807,304.55371 C 275.2417,312.66992 268.55615,320.31152 261.5542,327.79102 C 279.69775,330.81543 295.61475,341.32031 305.00635,357.07813 C 298.95752,353.09961 293.38721,348.48242 287.65576,344.18652 C 288.93115,350.3916 290.52197,356.75781 290.20361,363.28613 C 290.20361,363.9209 289.88525,365.35352 289.88525,365.99121 C 288.61182,369.33301 286.70166,372.35742 284.15576,374.9043 C 282.24561,376.81543 280.17627,378.72461 278.10596,380.63281 C 276.8335,381.59082 275.2417,382.38672 273.6499,382.70313 C 270.46631,383.18262 267.28271,383.49902 263.94092,383.6582 C 258.21045,383.6582 252.79932,381.27051 247.38721,379.36133 C 250.41162,384.77441 253.43506,390.18359 256.46045,395.5957 C 249.93506,388.27441 243.40771,380.63281 238.47412,372.04102 C 235.44971,363.76172 237.51904,354.69043 237.51904,346.0957 C 223.354,353.5752 207.59521,357.23731 191.83887,358.82813 C 191.52051,413.74121 191.67871,468.8125 191.67871,523.88281 L 183.7207,523.88281 C 183.7207,468.9707 183.7207,413.89941 183.7207,358.98731 C 167.64453,357.87402 152.20605,353.25781 137.88086,346.0957 C 137.88086,354.69043 139.94971,363.76172 136.92578,372.04102 C 131.99121,380.63281 125.46533,388.27441 118.93994,395.5957 C 121.96436,390.18359 124.98828,384.77441 128.01221,379.36133 C 122.60059,381.27051 117.18896,383.6582 111.2998,383.6582 C 108.11621,383.49902 105.09228,383.18262 101.90918,382.86231 C 100.31738,382.38672 98.566406,381.74902 97.293457,380.63281 C 95.223633,378.72461 93.154785,376.81543 91.244629,374.9043 C 88.698242,372.35742 86.788086,369.33301 85.515136,365.99121 C 85.355957,365.35352 85.196289,363.9209 85.037109,363.28613 C 84.877929,356.75781 85.992187,350.3916 87.743164,344.02441 C 82.013183,348.48242 76.442383,353.09961 70.394043,357.07813 C 75.169433,350.55273 80.103027,344.18652 86.311035,338.93262 C 94.427734,333.04492 104.13721,330.33691 113.68701,327.63281 C 106.68408,320.31152 99.840332,312.8291 93.631836,304.55371 C 92.040527,311.07813 93.950683,319.03711 89.175781,324.44922 C 81.854004,333.52051 72.46289,340.8418 63.072265,347.8457 C 67.210937,342.59473 71.348633,337.18262 75.487305,331.92871 C 69.598633,332.08691 63.549805,332.88281 57.660644,331.61133 C 56.705566,331.29102 54.63623,330.81543 53.68164,330.49609 C 50.179687,329.06543 47.155762,326.5166 44.927734,323.49512 C 43.972168,321.58301 43.01709,319.67383 42.221191,317.60352 C 41.74414,316.64941 41.425781,315.53613 41.106933,314.41992 C 40.789062,310.76172 40.629883,306.94043 40.629883,303.27832 C 41.266113,297.86621 44.290039,293.25293 46.677734,288.31641 C 39.197265,291.66113 31.875488,295.32031 24.23584,298.02832 C 34.263184,291.18262 44.290039,283.38281 56.228027,280.3584 C 64.027344,279.08691 72.144531,279.24512 80.103027,279.5625 C 76.919433,270.49121 74.054687,261.41895 71.66748,252.02734 C 65.777832,258.07617 60.207031,265.0791 51.771484,267.78516 C 39.674805,270.80762 27.100586,271.12793 14.526367,272.08301 C 21.529785,270.01172 28.373535,267.94531 35.377441,266.03418 C 32.194336,263.96484 28.692383,262.21484 26.145508,259.34961 C 24.23584,257.28027 22.484863,255.05273 20.893066,252.82324 C 20.097168,251.55078 19.460937,250.27734 18.98291,248.84375 C 18.505859,245.34277 18.346191,241.68164 18.346191,238.18066 C 18.346191,236.42969 18.82373,234.83789 19.460937,233.24609 C 20.415039,230.8584 21.688965,228.47119 22.802734,226.24316 C 25.19043,221.78564 29.169433,218.60254 32.671387,215.10107 C 26.463867,213.66895 20.415039,212.39502 14.367187,210.80322 C 32.671387,210.96289 54.79541,207.14307 68.483887,222.58154 C 68.483887,212.23584 68.324707,201.88965 70.394043,191.86279 C 52.407715,201.57227 31.239258,202.04932 11.184082,202.04932 C 20.256836,200.29834 29.488281,198.70654 38.561035,197.59277 C 33.785644,194.56885 28.692383,191.54395 25.667969,186.61035 C 24.23584,184.22314 22.802734,181.83545 21.529785,179.28857 C 21.370605,178.49268 21.210937,176.90137 21.210937,176.10547 C 21.370605,172.44385 21.688965,168.94287 22.325683,165.28174 C 22.644043,163.37207 23.439941,161.78027 24.23584,160.0293 C 24.553711,159.07422 25.508789,157.16455 25.98584,156.20947 C 30.602539,149.20605 39.356933,147.61475 46.836914,145.7041 C 37.605957,142.36182 28.373535,139.49707 19.301758,135.83594 C 28.532715,136.9502 37.605957,138.22314 46.677734,140.45215 C 57.660644,143.31689 66.57373,150.95654 75.646484,157.6416 C 79.307129,150.16064 82.809082,142.521 86.311035,134.88135 C 76.601562,134.5625 66.57373,135.19922 57.501465,131.21973 C 48.11084,126.76367 39.674804,120.39697 31.875488,113.55225 C 39.515136,116.73584 46.677734,120.87402 54.158691,124.69385 C 52.089843,119.12305 48.428711,113.87109 48.428711,107.66357 C 48.58789,104.63965 49.065429,101.45605 49.702636,98.431641 C 50.179687,95.885254 51.612304,93.65625 53.203613,91.747071 C 54.79541,89.996094 56.228027,88.245117 57.979004,86.494141 C 60.207031,84.106446 63.231933,82.514649 66.415039,81.400879 C 67.051758,81.241699 68.324707,81.08252 68.802734,81.08252 C 76.123535,80.922852 83.286133,82.833496 89.812011,85.698242 C 84.40039,77.898926 78.989258,70.100098 73.895508,62.141602 C 86.788086,75.352539 103.81934,88.245117 105.09228,108.45947 C 110.98193,102.41064 116.71143,96.681153 122.75977,90.791992 C 104.45557,86.8125 92.358887,71.373047 81.217285,57.525879 C 87.743164,62.619141 94.109863,67.712402 99.998535,73.602051 C 99.044434,67.553223 98.248535,61.345703 98.248535,55.297852 L 98.248535,53.546875 C 99.521484,49.408203 101.59033,45.588379 104.61523,42.405273 C 106.84326,40.654297 109.23096,38.90332 111.77783,37.311523 C 113.52783,36.515625 115.43799,36.038574 117.34863,35.560547 C 119.09863,35.083496 121.00879,34.764648 122.75977,34.446777 C 129.76318,35.242676 136.12988,38.266602 142.49658,41.290527 C 139.47266,33.96875 136.76611,26.488281 134.37891,19.007324 C 143.76953,36.038574 155.38916,53.068848 154.11523,73.442871 C 160.16406,72.168945 166.05273,71.055176 172.10156,70.100098 C 158.25391,56.09375 156.82178,35.879394 153.31934,17.575195 L 153.31934,17.575195 z "
   style="fill:#00c400"
   id="path4017" />
			<path
   d="M 176.39893,77.421875 C 209.18701,72.328125 241.65771,87.608398 262.98486,111.96045 C 292.59131,142.20215 301.66455,186.92822 299.9126,227.83447 C 296.41064,263.80664 281.92725,299.77832 254.23096,323.81152 C 225.26416,351.82422 177.67236,359.14551 142.49658,338.93262 C 106.5249,319.19531 82.809082,280.67871 77.397461,240.4082 C 70.075684,193.61377 81.536133,140.45215 117.18896,107.18555 C 132.78711,91.110352 153.79736,79.331543 176.39893,77.421875 L 176.39893,77.421875 z "
   style="fill:#00e100"
   id="path4019" />
			<path
   d="M 104.77344,336.8623 C 116.07471,332.88281 128.64893,340.0459 131.99121,351.02832 C 133.42383,358.34961 133.42383,366.94531 128.17139,372.83691 C 119.25781,384.29492 99.202637,383.18262 91.562988,370.9248 C 83.127441,358.82812 89.812012,339.09082 104.77344,336.8623 L 104.77344,336.8623 z "
   style="fill:#00e100"
   id="path4021" />
			<path
   d="M 182.76562,21.713379 C 195.97656,17.734375 210.62061,29.353027 209.18701,43.201172 C 210.14307,53.228516 202.50146,63.09668 192.63477,64.688477 C 179.42334,68.667969 164.77979,57.047852 166.2124,43.201172 C 165.25684,33.172852 172.89746,23.305176 182.76562,21.713379 L 182.76562,21.713379 z "
   style="fill:#00e100"
   id="path4023" />
			<path
   d="M 117.50684,39.0625 C 128.33057,35.560547 140.42773,41.927246 144.40674,52.272949 C 146.31641,59.754395 146.31641,68.985352 140.90479,75.193848 C 131.99121,86.65332 111.93604,85.539551 104.29639,73.283203 C 96.178711,61.823242 102.22754,40.177246 117.50684,39.0625 L 117.50684,39.0625 z "
   style="fill:#00e100"
   id="path4025" />
			<path
   d="M 244.84131,39.22168 C 253.27686,37.789551 265.05615,37.470703 269.67041,46.384277 C 280.01611,57.525879 274.12744,78.694824 259.1665,82.037598 C 250.25244,85.061524 240.2251,82.514649 234.49561,75.193848 C 224.78564,63.892578 230.03857,43.041992 244.84131,39.22168 L 244.84131,39.22168 z "
   style="fill:#00e100"
   id="path4027" />
			<path
   d="M 68.165527,85.380371 C 79.466308,81.400879 92.040527,88.563477 95.382812,99.545898 C 96.81543,106.86768 96.81543,115.46289 91.562988,121.35205 C 82.649414,132.81152 62.594238,131.69775 54.95459,119.44189 C 46.519043,107.34473 53.203613,87.608398 68.165527,85.380371 L 68.165527,85.380371 z "
   style="fill:#00e100"
   id="path4029" />
			<path
   d="M 294.18311,85.380371 C 308.03076,80.605469 325.37939,91.428223 323.7876,106.86768 C 324.74365,116.89502 317.10205,126.76367 307.23486,128.35547 C 298.00244,131.53857 287.65576,127.40039 282.56396,119.44189 C 274.60596,107.82275 280.33545,89.041016 294.18311,85.380371 L 294.18311,85.380371 z "
   style="fill:#00e100"
   id="path4031" />
			<path
   d="M 41.106934,150.63867 C 52.407715,146.65967 64.981934,153.82227 68.324707,164.8042 C 69.756836,172.12598 69.756836,180.72119 64.504883,186.61035 C 55.591309,198.07031 35.536133,196.95654 27.896484,184.7002 C 19.460937,172.60352 26.145508,152.8667 41.106934,150.63867 L 41.106934,150.63867 z "
   style="fill:#00e100"
   id="path4033" />
			<path
   d="M 321.2417,150.63867 C 335.08936,145.86377 352.43701,156.68652 350.84619,172.12598 C 351.80127,182.15332 344.16064,192.02197 334.29346,193.61377 C 325.06006,196.79688 314.71436,192.65869 309.62256,184.7002 C 301.66455,173.08154 307.39307,154.29932 321.2417,150.63867 L 321.2417,150.63867 z "
   style="fill:#00e100"
   id="path4035" />
			<path
   d="M 37.92334,219.08057 C 51.452637,214.62305 67.528809,225.92432 65.937012,240.56836 C 67.687988,258.87207 41.106934,269.69531 28.373535,257.43945 C 15.481445,246.77539 20.733887,221.62695 37.92334,219.08057 L 37.92334,219.08057 z "
   style="fill:#00e100"
   id="path4037" />
			<path
   d="M 326.01611,219.08057 C 337.47705,215.41895 351.48291,222.74072 353.23291,234.83789 C 357.37256,246.45703 349.41455,260.14551 337.47705,262.21484 C 327.44775,265.0791 317.58057,258.55371 311.53076,251.23145 C 304.84717,239.29395 312.01025,221.14941 326.01611,219.08057 L 326.01611,219.08057 z "
   style="fill:#00e100"
   id="path4039" />
			<path
   d="M 61.798828,285.77051 C 78.511231,280.19922 94.269043,300.25391 86.788086,315.375 C 82.013184,333.3623 54.63623,334.47461 46.359863,319.03711 C 38.401367,305.98633 46.200684,287.3623 61.798828,285.77051 L 61.798828,285.77051 z "
   style="fill:#00e100"
   id="path4041" />
			<path
   d="M 302.14111,285.92871 C 315.67041,281.94922 333.65576,291.97852 331.74561,307.41602 C 334.29346,327.94922 302.93701,338.4541 292.11377,321.58301 C 281.92725,309.96582 287.33936,289.9082 302.14111,285.92871 L 302.14111,285.92871 z "
   style="fill:#00e100"
   id="path4043" />
			<path
   d="M 257.57471,336.8623 C 271.42236,332.08691 288.771,342.91211 287.1792,358.34961 C 288.13525,368.37891 280.49365,378.24609 270.62646,379.83691 C 261.39404,383.02051 251.04736,378.88281 245.95557,370.9248 C 237.99756,359.30762 243.72705,340.52441 257.57471,336.8623 L 257.57471,336.8623 z "
   style="fill:#00e100"
   id="path4045" />
		</g>
	</svg>