<?xml version="1.0" encoding="UTF-8" standalone="no"?>
<!-- Created with Inkscape (http://www.inkscape.org/) -->
<svg
   xmlns:svg="http://www.w3.org/2000/svg"
   xmlns="http://www.w3.org/2000/svg"
   version="1.0"
   width="636.7373"
   height="492.19"
   viewBox="0 0 636.7373 492.19336"
   id="svg3464"
   xml:space="preserve"><defs
   id="defs3508" />
	
		<g
   transform="matrix(0.9795503,0,0,0.9795503,8.0000447,4.0000324)"
   id="Ebene_1">
			<g
   id="g3469">
				<path
   d="M 294.00391,6.8232422 C 299.59473,-4.2314453 319.66992,-1.1821289 321.44922,11.143066 C 324.49805,19.147461 317.38379,28.168945 309.25146,28.550781 C 308.3623,28.550781 306.32861,28.550781 305.43945,28.550781 C 294.89307,29.186035 287.14307,15.335938 294.00391,6.8232422 L 294.00391,6.8232422 z "
   style="fill:#ff0000"
   id="path3471" />
				<path
   d="M 345.08203,8.3476562 C 351.94434,-0.9277344 370.36816,1.8676757 372.01953,14.06543 C 374.6875,22.706055 366.80957,32.489258 357.91504,31.980957 C 356.51758,31.853516 355.12109,31.600098 353.85059,31.345215 C 343.30273,30.709961 338.09375,15.844727 345.08203,8.3476562 L 345.08203,8.3476562 z "
   style="fill:#ff0000"
   id="path3473" />
				<path
   d="M 245.9751,9.6181641 C 252.83691,0.3432618 271.26025,3.1386719 272.91162,15.335937 C 275.45312,23.976074 267.95654,33.124512 259.31689,33.505859 C 258.42676,33.505859 256.64844,33.378906 255.7583,33.378906 C 245.08545,32.489258 238.60547,17.623047 245.9751,9.6181641 L 245.9751,9.6181641 z "
   style="fill:#ff0000"
   id="path3475" />
				<path
   d="M 195.65918,26.644531 C 200.61475,14.700684 221.45215,15.335937 224.37549,28.296387 C 227.29687,36.300781 221.45215,45.195312 213.70215,47.228027 C 212.8125,47.355469 211.28711,47.355469 210.39844,47.48291 C 199.85205,48.245117 191.21191,36.555176 195.65918,26.644531 L 195.65918,26.644531 z "
   style="fill:#ff0000"
   id="path3477" />
				<path
   d="M 394.63574,27.406738 C 401.49609,18.131348 419.92188,20.926758 421.57422,33.124512 C 424.24121,41.765137 416.36328,51.54834 407.59668,51.040039 C 406.19824,50.912598 404.92773,50.786133 403.65723,50.531738 C 392.98437,50.023438 387.64746,35.030273 394.63574,27.406738 L 394.63574,27.406738 z "
   style="fill:#ff0000"
   id="path3479" />
				<path
   d="M 305.43945,28.550781 C 306.32861,28.550781 308.3623,28.550781 309.25146,28.550781 C 309.25146,44.306152 309.25146,60.061523 309.37842,75.816895 C 319.1626,70.607422 329.83496,66.287109 337.45898,57.901367 C 344.06641,49.896484 349.40332,40.875 353.85059,31.345215 C 355.12109,31.600098 356.51758,31.853516 357.91504,31.980957 C 352.83301,42.272949 347.49707,52.818848 339.49121,61.205078 C 331.74121,69.845703 320.81396,73.911133 311.15723,79.882813 C 320.17871,85.092774 329.70801,89.285645 338.85547,94.240235 C 328.94629,93.351563 319.1626,91.699707 309.25146,90.428711 C 309.25146,123.21094 309.25146,155.99219 309.25146,188.64697 C 330.59766,175.68652 352.45215,161.07471 365.28516,139.09375 C 379.00781,116.98438 387.90234,92.334961 397.30469,68.19336 C 399.59082,62.348145 402.00488,56.630371 403.65723,50.531738 C 404.92773,50.786133 406.19824,50.912598 407.59668,51.040039 C 401.75098,70.099121 393.36523,88.269531 386.37695,106.94629 C 398.32031,104.40576 410.90039,103.13477 422.20898,98.179688 C 432.88086,92.334961 440.88672,83.05957 449.14453,74.418945 C 450.54297,74.67334 451.93945,74.927735 453.33887,75.181152 C 443.93555,84.710938 435.5498,95.638672 423.47949,101.99121 C 412.4248,106.18408 400.73437,108.21729 389.04492,110.25049 C 392.98437,118.12842 397.43164,125.87842 400.98926,134.01074 C 394.38184,128.29297 388.66406,121.68555 382.56543,115.58691 C 374.81445,130.96094 366.80957,146.58984 354.73926,159.0415 C 342.41504,172.50977 326.65918,182.1665 311.53906,192.07715 C 320.68701,197.5415 330.4707,201.86133 340.25488,206.05469 C 329.83496,205.5459 319.54346,204.02148 309.25146,202.49658 C 309.25146,240.74219 309.12402,279.11328 309.37842,317.48535 C 329.4541,311.64062 348.89453,304.39941 368.46191,297.15527 C 394.76269,287.62598 420.42871,276.19043 443.93555,261.07227 C 463.50293,248.61914 482.17969,235.02441 500.35059,220.79297 C 492.47266,217.23584 484.21484,214.31299 476.46191,210.24756 C 484.5957,210.88281 492.72754,212.15332 500.73144,213.67773 C 500.22266,199.95557 498.57227,185.85156 502.25684,172.38281 C 493.99805,171.1123 485.86621,169.58789 477.73242,167.55469 C 485.48437,167.30078 493.23535,167.04687 500.98633,166.79248 C 495.52148,158.7876 488.53418,150.78223 488.02539,140.49072 C 486.88184,126.89551 489.16797,113.2998 489.80371,99.70459 C 491.20312,99.958008 492.59961,100.2124 493.99805,100.46631 C 494.25195,115.58691 488.78711,130.96094 492.98047,145.82764 C 495.52148,153.57812 500.98633,160.05859 505.55957,166.79248 C 512.80273,154.08643 520.55273,141.63477 529.19336,129.81787 C 530.08301,130.96094 530.97168,131.97803 531.86133,132.99414 C 522.71387,146.08154 513.4375,159.16895 506.7041,173.78076 C 501.23926,187.12207 504.29004,202.11475 505.17871,216.09229 C 525.25391,202.11475 544.18652,186.61426 562.7373,170.60449 C 563.49902,171.49365 564.38867,172.38281 565.27832,173.14551 C 550.03125,188.01172 532.37012,199.95557 515.97949,213.42383 C 496.54004,229.30664 475.82715,243.53613 455.87988,258.65723 C 485.48437,262.97852 515.46973,269.45801 545.58398,266.1543 C 541.26465,259.80176 536.94434,253.44824 532.75098,246.9668 C 537.95996,251.54297 542.91602,256.36914 547.87109,261.07227 C 549.39551,253.82812 551.1748,246.33105 554.9873,239.72559 C 563.62695,227.3999 576.58691,219.26807 588.02246,209.6123 C 588.53027,210.75537 589.03906,211.77148 589.54687,212.91504 C 577.8584,224.09668 561.7207,232.10156 555.49512,247.85742 C 553.46289,253.31934 552.82715,259.29297 551.81055,265.01074 C 570.61523,262.34277 588.91113,256.75195 607.58887,253.06641 C 608.22461,254.33691 608.85937,255.48047 609.49512,256.75195 C 580.14453,263.23145 550.66602,271.87207 520.17187,270.85547 C 498.19043,270.21973 476.46191,266.40723 454.8623,262.46973 C 453.08496,262.21387 451.0498,261.57812 449.27246,262.5957 C 439.74316,267.67773 430.7207,273.9043 421.06445,278.73145 C 387.2666,296.52051 350.67187,307.57617 314.8418,320.40918 C 322.84668,325.74414 331.86719,328.79395 340.38184,333.11523 C 329.96191,332.47949 319.66992,330.7002 309.25146,329.30273 C 309.12402,383.55566 309.37842,437.93945 309.25146,492.19336 C 308.23535,492.19336 306.45654,492.19336 305.43945,492.19336 C 305.3125,460.81055 305.56689,429.42773 305.43945,398.04199 C 295.5293,399.18555 285.61719,400.83887 275.70752,401.72754 C 283.83936,397.40723 292.35254,393.85059 300.61084,389.7832 C 267.82959,375.42676 234.66699,361.70313 202.52051,345.94727 C 177.87109,332.73242 154.2373,317.10547 132.89111,298.80762 C 119.67725,287.75488 107.60645,275.42773 94.391601,264.24902 C 90.707031,270.47363 87.022461,276.69922 83.210937,282.92578 C 84.608398,276.31934 86.641601,269.9668 88.419922,263.48438 C 77.238769,263.48438 65.676269,265.77246 54.621582,262.84863 C 44.83789,260.56348 35.435547,257.26074 26.160156,253.70215 C 27.049804,252.55762 28.066406,251.41406 28.955078,250.27246 C 47.506347,258.02246 67.963379,263.61328 88.165527,258.91113 C 73.172851,240.99512 55.384277,225.62109 38.993652,208.84961 C 39.882812,207.83252 40.772461,206.81641 41.534668,205.80029 C 64.532715,228.67139 86.641601,252.55762 111.03662,273.9043 C 109.38525,254.8457 108.49561,234.51563 98.457519,217.6167 C 87.784668,199.06543 74.189453,182.54785 61.229492,165.52148 C 62.118652,164.63232 62.880859,163.87012 63.770508,162.85352 C 75.841308,177.71973 87.530761,192.9668 98.07666,208.97607 C 100.87158,194.61865 106.84375,179.87939 102.77783,165.14063 C 99.855469,154.59473 96.170898,144.30225 92.231933,134.1377 C 93.375488,133.50244 94.391601,132.99414 95.408691,132.35889 C 100.61816,145.06494 105.95459,157.89844 107.73291,171.62061 C 109.13086,184.19971 105.06543,196.52441 102.27002,208.72168 C 110.40137,208.84961 118.5332,208.84961 126.66504,209.23047 C 118.40674,211.39063 110.14746,213.29688 101.88867,215.45605 C 112.05371,232.99121 112.94238,253.70215 114.72119,273.39551 C 123.36182,271.74316 132.00146,270.09277 140.64209,268.69629 C 132.89111,272.63379 124.88623,276.06445 116.88135,279.49609 C 145.34277,307.06738 178.50586,329.68457 214.08301,347.21777 C 244.06934,361.4502 274.69141,374.15625 305.3125,387.24219 C 305.69385,343.40625 305.43945,299.69629 305.43945,255.86035 C 295.5293,257.26074 285.74512,258.78418 275.83398,259.5459 C 284.22021,255.22559 292.86084,251.7959 301.37402,247.73047 C 282.44141,231.97363 260.96826,219.6499 242.79883,202.87744 C 222.3418,185.4707 206.84033,162.59961 197.05713,137.56836 C 190.32275,140.23682 183.71582,142.90527 176.98096,145.31934 C 181.30176,141.63477 185.62158,138.07617 189.94141,134.3916 C 181.17432,132.35889 171.77197,131.34229 163.7666,126.76855 C 152.45898,119.01709 143.56445,108.21729 133.65381,98.942383 C 134.54297,98.179688 135.55957,97.416992 136.44873,96.654785 C 149.28223,107.58203 159.31982,124.48145 177.10791,127.40332 C 182.57227,128.80127 188.03564,129.69043 193.49902,130.45313 C 185.62158,110.63135 178.125,90.683105 170.88232,70.607422 C 172.02588,70.099121 173.16895,69.463867 174.31348,68.828125 C 184.73193,95.892578 194.00781,123.46484 206.71387,149.63916 C 212.0498,140.49072 218.91113,131.46973 219.54639,120.41553 C 221.32568,109.86963 218.65723,99.195801 217.25928,88.777344 C 215.09912,75.054199 213.95557,60.951172 210.39844,47.48291 C 211.28711,47.355469 212.8125,47.355469 213.70215,47.228027 L 214.8457,47.100586 C 217.51367,67.430664 221.19873,87.506348 223.35791,107.83643 C 226.02637,122.19385 220.18164,136.04346 212.68555,147.98779 C 221.32568,149.13086 229.96533,150.40137 238.60547,152.18066 C 228.69482,152.81543 218.78467,153.57812 208.87354,154.34082 C 218.40332,171.23926 229.96533,186.99512 244.70459,199.70068 C 263.76367,216.21875 284.47461,230.57715 305.18604,244.93457 C 305.69385,214.31299 305.43945,183.56445 305.43945,152.94287 C 296.41797,154.21338 287.39746,154.97607 278.37598,155.35693 C 286.25391,151.67236 294.25781,148.49609 301.75488,144.04834 C 276.08838,112.53711 261.47607,73.148437 255.7583,33.378906 C 256.64844,33.378906 258.42676,33.505859 259.31689,33.505859 C 264.39941,63.238281 273.67432,92.588867 288.79443,118.76367 C 293.36865,126.26025 298.19775,134.01074 305.05859,139.72852 C 305.94775,102.62695 305.18604,65.651855 305.43945,28.550781 L 305.43945,28.550781 z "
   style="fill:#00c300"
   id="path3481" />
				<path
   d="M 153.22119,47.736328 C 159.06592,40.112793 172.02588,40.494141 177.99805,47.86377 C 182.19043,54.470703 181.30176,64.508789 174.31348,68.828125 C 173.16895,69.463867 172.02588,70.099121 170.88232,70.607422 C 166.0542,72.640137 160.33643,70.861328 155.88965,68.701172 C 150.04443,63.873535 147.75684,53.708496 153.22119,47.736328 L 153.22119,47.736328 z "
   style="fill:#ff0000"
   id="path3483" />
				<path
   d="M 441.64844,51.54834 C 448.51074,42.272949 466.93359,45.068359 468.58594,57.266113 C 471.38184,66.287109 462.74023,76.452148 453.33887,75.181152 C 451.93945,74.927734 450.54297,74.67334 449.14453,74.418945 C 439.3623,72.89502 435.04199,58.663574 441.64844,51.54834 L 441.64844,51.54834 z "
   style="fill:#ff0000"
   id="path3485" />
				<path
   d="M 111.03662,89.158203 C 107.479,77.087402 122.34521,67.304199 132.63672,72.767578 C 142.29346,75.944336 144.07275,90.683105 136.44873,96.654785 C 135.55957,97.416992 134.54297,98.179687 133.65381,98.942383 C 125.26758,103.38916 112.81543,99.323242 111.03662,89.158203 L 111.03662,89.158203 z "
   style="fill:#ff0000"
   id="path3487" />
				<path
   d="M 482.30762,76.960449 C 489.16797,67.685059 507.59375,70.480469 509.24609,82.678223 C 512.04004,91.699707 503.27344,101.99121 493.99805,100.46631 C 492.59961,100.2124 491.20312,99.958008 489.80371,99.70459 C 480.02148,98.306641 475.7002,84.075684 482.30762,76.960449 L 482.30762,76.960449 z "
   style="fill:#ff0000"
   id="path3489" />
				<path
   d="M 82.320801,106.43848 C 88.165527,104.53271 94.391602,106.56543 98.584961,110.63135 C 103.66748,117.11182 102.77783,127.91162 95.408691,132.35889 C 94.391602,132.99414 93.375488,133.50244 92.231934,134.1377 C 85.370606,135.79004 75.33252,134.3916 72.791016,126.3877 C 68.217773,118.63623 73.808594,107.83643 82.320801,106.43848 L 82.320801,106.43848 z "
   style="fill:#ff0000"
   id="path3491" />
				<path
   d="M 531.22656,110.63135 C 539.10449,103.26172 555.74902,107.45459 556.38379,119.14453 C 559.68652,132.48633 541.51855,141.76123 531.86133,132.99414 C 530.97168,131.97803 530.08301,130.96094 529.19336,129.81787 C 525,124.22705 525.12793,114.95166 531.22656,110.63135 L 531.22656,110.63135 z "
   style="fill:#ff0000"
   id="path3493" />
				<path
   d="M 46.744141,140.74463 C 52.71582,138.83936 59.704102,140.99902 63.643066,145.7002 C 66.692383,150.65527 67.455566,158.02539 63.770508,162.85352 C 62.880859,163.87012 62.118652,164.63232 61.229492,165.52148 C 54.494629,172.12891 40.391113,169.96875 37.214356,160.69385 C 32.641113,152.94287 38.230957,142.14307 46.744141,140.74463 L 46.744141,140.74463 z "
   style="fill:#ff0000"
   id="path3495" />
				<path
   d="M 562.35645,151.92627 C 568.20117,144.30225 581.16113,144.68408 587.13281,152.05322 C 590.69043,157.771 590.94531,166.41162 585.35449,171.1123 C 580.65234,177.08447 571.50391,176.06738 565.27832,173.14551 C 564.38867,172.38281 563.49902,171.49365 562.7373,170.60449 C 558.9248,165.39453 557.6543,157.0083 562.35645,151.92627 L 562.35645,151.92627 z "
   style="fill:#ff0000"
   id="path3497" />
				<path
   d="M 23.873047,185.21582 C 30.861328,183.05615 40.26416,186.23242 42.424316,193.72949 C 43.440918,197.66797 44.076172,202.24219 41.534668,205.80029 C 40.772461,206.81641 39.882812,207.83252 38.993652,208.84961 C 32.894531,216.98145 17.774414,214.8208 14.34375,205.16504 C 9.7695312,197.41406 15.360352,186.61426 23.873047,185.21582 L 23.873047,185.21582 z "
   style="fill:#ff0000"
   id="path3499" />
				<path
   d="M 588.02246,209.6123 C 583.06641,197.28711 598.44238,186.61426 609.11426,192.20459 C 618.51758,195.25391 620.5498,209.35693 613.30664,215.5835 C 607.46289,222.69922 593.61328,221.42773 589.54687,212.91504 C 589.03906,211.77148 588.53027,210.75537 588.02246,209.6123 L 588.02246,209.6123 z "
   style="fill:#ff0000"
   id="path3501" />
				<path
   d="M 11.166992,229.6875 C 17.13916,227.78125 24.127441,229.94189 28.066406,234.64258 C 30.734863,239.08984 31.87793,245.56934 28.955078,250.27246 C 28.066406,251.41406 27.049805,252.55762 26.160156,253.70215 C 19.807129,261.3252 4.9414063,259.16602 1.6376954,249.63672 C -2.9365234,241.88477 2.6542969,231.08545 11.166992,229.6875 L 11.166992,229.6875 z "
   style="fill:#ff0000"
   id="path3503" />
				<path
   d="M 607.58887,253.06641 C 601.74512,241.88477 614.07031,229.81445 625.37793,233.11816 C 636.56055,234.64258 640.625,250.39941 632.36621,257.51367 C 626.77637,264.375 614.70508,263.10547 609.49512,256.75195 C 608.85938,255.48047 608.22461,254.33691 607.58887,253.06641 L 607.58887,253.06641 z "
   style="fill:#ff0000"
   id="path3505" />
			</g>
		</g>
	</svg>