<?xml version="1.0" encoding="UTF-8" standalone="no"?>
<!-- Created with Inkscape (http://www.inkscape.org/) -->
<svg
   xmlns:svg="http://www.w3.org/2000/svg"
   xmlns="http://www.w3.org/2000/svg"
   version="1.0"
   width="479.33398"
   height="399.89001"
   viewBox="0 0 479.33398 399.88867"
   id="svg3278"
   xml:space="preserve"><defs
   id="defs3308" />
	
		<g
   transform="matrix(0.9889648,0,0,0.9889648,2,2)"
   id="Ebene_2">
			<path
   d="M 278.90039,24.189453 C 279.60059,24.889648 280.2998,25.589355 281.10059,26.189453 C 270.2002,38.689453 258.5,50.489746 247.7002,63.089355 C 255.90039,63.789551 264.2002,63.089355 272.40039,62.589355 C 267,64.789551 261.7998,67.789551 256,68.989746 C 252.7002,69.689453 249.7002,67.889648 246.7998,66.689453 C 247,81.789551 247,96.989746 247.2002,112.18945 C 272.2002,84.789551 296.7998,56.989746 321,28.989746 C 321.60059,30.089356 322.2998,31.189453 322.90039,32.289551 C 297.7998,60.489746 272.40039,88.389649 247.7998,116.98975 C 256,117.78955 264.09961,117.08936 272.2998,117.18945 C 266.2998,119.48975 260.2002,121.88965 253.90039,123.28955 C 251.2998,123.18945 249.10059,121.68945 246.7998,120.58936 C 247,134.38965 247,148.28955 247.2002,162.08936 C 288.2002,121.48975 328.7002,80.389649 369.7002,39.789551 C 370.40039,40.489746 371.10059,41.189453 371.7998,41.889648 C 330.2002,82.989746 288.7998,124.38965 247.7002,166.08936 C 255.90039,166.28955 264.09961,166.18945 272.2998,166.18945 C 266.2998,168.48975 260.2002,170.88965 253.90039,172.28955 C 251.2998,172.18945 249,170.68945 246.7002,169.58936 C 247,184.78955 247,199.98975 247.2002,215.08984 C 270.60059,191.88965 293.90039,168.48975 317.2002,145.08936 C 347.7002,112.58936 380.2002,82.089356 411.09961,49.989746 C 411.7002,50.789551 412.40039,51.489746 413.10059,52.189453 C 400.59961,64.889648 387.7998,77.489746 375.2002,90.089355 C 333.7002,133.98975 289.7998,175.58936 247.7998,218.99023 C 255.90039,220.18945 264.09961,220.08984 272.2998,219.49023 C 266.7998,221.68945 261.2998,223.78906 255.7002,225.58984 C 252.60059,226.58984 249.7002,224.38867 246.90039,223.28906 C 247,240.88867 247,258.49023 247.10059,276.08984 C 317.5,208.38867 385.2002,137.88965 455.2002,69.889648 C 456,70.589355 456.90039,71.289551 457.7002,71.989746 C 440.7002,88.189453 424.60059,105.28955 407.59961,121.48975 C 388.40039,139.28955 370.40039,158.28955 351.7002,176.58936 C 317.5,211.08984 282.7998,245.18945 248.7998,279.99023 C 256.59961,280.49023 264.40039,280.78906 272.2002,280.49023 C 267,282.58984 261.7998,284.88867 256.2998,286.49023 C 252.90039,287.68945 249.7998,284.99023 246.7002,283.88867 C 247.2998,322.58984 246.90039,361.18945 247,399.88867 L 244,399.88867 C 244.10059,368.49023 243.7998,337.08984 244.2002,305.68945 C 241,307.08984 237.80029,310.38867 234,308.99023 C 228.7002,307.28906 223.3999,305.28906 218.3999,302.78906 C 226.3999,303.08984 234.3999,303.68945 242.40039,302.99023 C 190.30029,246.88867 137.1001,191.98975 84.600098,136.28955 C 64,114.88965 43.800293,93.089355 23.100098,71.689453 C 23.800293,70.789551 24.399902,69.889648 25.100098,68.989746 C 43.5,89.089355 62.600098,108.58936 81.300293,128.58936 C 135.6001,185.28955 189.30029,242.68945 243.7998,299.18945 C 244,280.99023 243.90039,262.88867 244.2998,244.78906 C 241,246.08984 237.80029,249.38867 234,247.99023 C 228.7002,246.28906 223.5,244.18945 218.5,241.78906 C 226.5,242.28906 234.6001,242.49023 242.7002,241.78906 C 239,237.38867 235,233.08984 231,228.88867 C 176.30029,170.28955 121.80029,111.58936 66.899902,53.189453 C 67.600098,52.489746 68.200195,51.689453 68.899902,50.889648 C 127.2002,113.28955 185.3999,175.78955 243.7998,238.08984 C 244.10059,220.68945 244,203.18945 243.90039,185.78955 C 241.90039,187.58936 239.8999,189.38965 237.80029,191.18945 C 231.3999,188.78955 224.80029,186.48975 218.5,183.68945 C 226.3999,184.18945 234.3999,184.48975 242.2998,183.98975 C 198.3999,136.18945 152.80029,89.789551 108.7002,41.989746 C 109.5,41.389648 110.2002,40.589355 110.8999,39.889648 C 116.3999,46.189453 121.8999,52.289551 127.7002,58.189453 C 166.5,98.989746 205.2002,140.08936 244,180.88965 C 244,165.88965 244,150.88965 244.2998,135.78955 C 241.1001,137.08936 237.8999,140.08936 234.2002,138.78955 C 228.80029,137.28955 223.6001,134.88965 218.5,132.58936 C 226.3999,132.78955 234.3999,133.18945 242.2998,132.28955 C 213.7002,98.689453 185.1001,65.089355 156.1001,31.789551 C 157.1001,31.289551 158,30.689453 158.8999,29.989746 C 162.1001,34.189453 165.3999,38.089355 168.80029,42.089355 C 194,70.889648 218.6001,100.28955 243.7998,129.18945 C 244,114.08936 244,99.089355 244.2998,84.089355 C 240.2002,85.089355 235.8999,86.389648 231.7002,85.289551 C 227.2002,84.089355 223,82.089355 218.80029,80.289551 C 226.8999,80.589355 235.1001,80.489746 243.2002,80.089355 C 228.1001,62.689453 214.2002,44.289551 198.8999,26.989746 C 199.80029,26.289551 200.6001,25.589355 201.3999,24.889648 C 215.3999,41.989746 229.5,59.189453 243.7998,76.089355 C 244,66.089355 244.10059,56.089355 244.2998,46.089355 C 240.2002,47.089355 235.8999,48.389648 231.7002,47.289551 C 227.2002,46.089355 223,44.089355 218.80029,42.389648 C 226.7002,42.689453 234.7002,42.389648 242.60059,41.789551 C 239,37.089356 235.1001,32.589356 230.7002,28.489746 C 232.1001,28.389648 233.5,28.289551 234.8999,28.089355 C 237.80029,31.389648 241.06201,35.068359 243.96191,38.368652 C 244.18652,37.77002 244.48535,27.551758 244.48535,27.551758 L 247.33496,27.609863 C 247.33496,27.609863 247.10059,49.189453 247.40039,58.089356 C 258.09961,46.989746 268.59961,35.689453 278.90039,24.189453 L 278.90039,24.189453 z "
   style="fill:#00c500"
   id="path3283" />
			<circle
   cx="14"
   cy="60.666992"
   r="14"
   style="fill:#ff0000"
   id="circle3285" /> 
			<circle
   cx="194"
   cy="14.666992"
   r="14"
   style="fill:#ff0000"
   id="circle3287" /> 
			<circle
   cx="150"
   cy="19"
   r="14"
   style="fill:#ff0000"
   id="circle3289" /> 
			<circle
   cx="101.99951"
   cy="30.333496"
   r="14"
   style="fill:#ff0000"
   id="circle3291" /> 
			<circle
   cx="59.666504"
   cy="42.000488"
   r="14"
   style="fill:#ff0000"
   id="circle3293" /> 
			<circle
   cx="329"
   cy="20.000488"
   r="14"
   style="fill:#ff0000"
   id="circle3295" /> 
			<circle
   cx="287.66699"
   cy="14.666992"
   r="14"
   style="fill:#ff0000"
   id="circle3297" /> 
			<circle
   cx="231"
   cy="14"
   r="14"
   style="fill:#ff0000"
   id="circle3299" /> 
			<circle
   cx="465.33398"
   cy="61.333984"
   r="14"
   style="fill:#ff0000"
   id="circle3301" /> 
			<circle
   cx="421.33398"
   cy="41.333496"
   r="14"
   style="fill:#ff0000"
   id="circle3303" /> 
			<circle
   cx="380"
   cy="30.666992"
   r="14"
   style="fill:#ff0000"
   id="circle3305" /> 
		</g>
	</svg>