<?xml version="1.0" encoding="UTF-8" standalone="no"?>
<!-- Created with Inkscape (http://www.inkscape.org/) -->
<svg
   xmlns:svg="http://www.w3.org/2000/svg"
   xmlns="http://www.w3.org/2000/svg"
   version="1.0"
   width="635.54102"
   height="433.50146"
   viewBox="0 0 635.54102 433.50146"
   id="svg5467"
   xml:space="preserve"><defs
   id="defs5515" />
	
		<g
   transform="matrix(0.989173,0,0,0.989173,3.9999995,4.6934994)"
   id="Ebene_1">
			<g
   id="g5472">
				<path
   d="M 115.91797,15.203613 C 117.83057,1.6430664 136.25928,-4.6157226 146.16943,4.4243164 C 153.99316,9.8139648 155.38379,22.157715 149.64648,29.460449 C 148.60352,30.676758 147.38574,31.720215 146.34277,32.9375 C 134.17285,45.107422 111.39795,31.720215 115.91797,15.203613 L 115.91797,15.203613 z "
   style="fill:#ff0000"
   id="path5474" />
				<path
   d="M 494.92578,1.1210938 C 508.48633,-4.0947265 523.96094,9.8139649 519.2666,23.896484 C 516.4834,36.587402 498.40332,42.151367 489.1875,32.9375 C 488.14551,31.894043 486.92773,30.676758 485.88574,29.460449 C 478.41016,20.245117 483.62598,4.5981445 494.92578,1.1210938 L 494.92578,1.1210938 z "
   style="fill:#ff0000"
   id="path5476" />
				<path
   d="M 146.34277,32.9375 C 147.38574,31.720215 148.60352,30.676758 149.64648,29.460449 C 205.10645,82.138184 259.34961,136.03369 314.9834,188.7124 C 315.15723,161.41748 315.15723,133.94775 315.15723,106.65234 C 316.54883,106.65234 318.98242,106.65234 320.37305,106.65234 C 320.37305,133.94775 320.37305,161.24365 320.54785,188.7124 C 376.00781,136.03369 430.4248,82.3125 485.88574,29.460449 C 486.92773,30.676758 488.14551,31.894043 489.1875,32.9375 C 469.36914,52.234863 450.06934,72.228027 429.38184,90.657227 C 485.88574,91.179199 542.56152,91.179199 599.06543,90.657227 C 599.06543,92.04834 599.06543,93.438965 599.24023,94.82959 C 579.41992,94.482422 559.59961,94.482422 539.78125,95.003418 C 558.55664,118.30029 580.46191,139.1626 600.97852,160.89502 C 599.76172,161.93799 598.54395,163.15576 597.50195,164.19873 C 578.20215,144.37842 558.20898,125.08154 539.78125,104.3916 C 539.25977,148.20361 539.25977,192.01611 539.78125,235.82764 C 538.39062,235.82764 537,235.82764 535.60742,236.00049 C 535.95605,215.31299 536.12891,194.62354 535.78223,173.93408 C 520.83008,190.62451 506.40039,208.01025 491.9707,225.22217 C 490.75293,224.00537 489.53613,222.9624 488.14551,221.91943 C 502.05371,203.66455 518.39648,187.32178 532.65137,169.24072 C 533.34766,166.6333 533.86914,163.67725 534.2168,160.89502 C 535.08691,141.07568 534.2168,121.08203 533.86914,101.2627 C 533.86914,100.21924 533.69629,97.959473 533.69629,96.742188 C 528.82813,96.56836 523.96094,96.56836 518.91797,96.39502 C 487.97168,96.39502 457.02539,95.351563 426.07813,96.221192 C 423.64453,97.611328 421.38477,99.350098 419.12402,101.08838 C 396.52246,122.99463 373.39941,144.55322 351.14648,166.97998 C 341.75781,176.71631 330.11035,184.36572 321.9375,195.14502 C 321.24316,197.40479 320.72168,199.83936 320.19922,202.27393 C 320.37305,279.2915 320.37305,356.48486 320.37305,433.50147 C 319.15723,433.50147 316.375,433.50147 315.15723,433.50147 C 314.9834,356.48486 315.33203,279.46533 315.15723,202.44775 C 314.81055,200.01318 314.46191,197.57861 313.76758,195.14502 C 281.60352,163.50342 248.74512,132.3833 216.40723,101.08838 C 214.14648,99.350098 211.88672,97.785645 209.62695,96.221192 C 178.68018,95.525879 147.56006,96.39502 116.61377,96.39502 C 111.74561,96.39502 106.70361,96.56836 101.83594,96.56836 C 101.83594,97.785645 101.66211,100.04541 101.66211,101.2627 C 101.48779,121.08203 100.27051,141.07568 101.31396,160.89502 C 101.66211,163.67725 102.18311,166.6333 102.87842,169.41455 C 117.83057,186.80029 133.30322,203.83838 147.38574,222.09326 C 145.99561,222.9624 144.77832,224.00537 143.56152,225.22217 C 129.13086,208.01025 114.70117,190.79932 99.92334,173.93408 C 99.575195,194.62354 99.401367,215.31299 99.92334,236.00049 C 98.532227,235.82764 97.141602,235.82764 95.750977,235.82764 C 96.272461,192.01611 96.272461,148.20361 95.924316,104.3916 C 76.974121,124.7334 57.502441,144.37842 38.030273,164.19873 C 36.812988,163.15576 35.770508,161.93799 34.553223,160.89502 C 55.067871,138.98975 77.147949,118.47412 96.098144,95.177734 C 76.10498,94.482422 56.285156,94.308594 36.291504,94.82959 C 36.46582,93.438965 36.46582,92.04834 36.46582,90.657226 C 92.969238,91.179199 149.47266,91.179199 206.15039,90.657226 C 185.80859,71.880859 165.98926,52.408691 146.34277,32.9375 L 146.34277,32.9375 z "
   style="fill:#00c400"
   id="path5478" />
				<path
   d="M 301.0752,80.57373 C 304.37891,68.925293 319.50391,67.36084 328.54492,72.402344 C 341.58398,81.617188 336.7168,105.43506 320.37305,106.65234 C 318.98242,106.65234 316.54883,106.65234 315.15723,106.65234 C 302.81348,105.7832 295.68652,91.179199 301.0752,80.57373 L 301.0752,80.57373 z "
   style="fill:#ff0000"
   id="path5480" />
				<path
   d="M 7.0839844,76.748535 C 18.384766,68.403809 36.46582,76.401367 36.46582,90.657227 C 36.46582,92.04834 36.46582,93.438965 36.291504,94.82959 C 36.117676,108.39111 19.775391,113.95361 9.1699219,108.56494 C -2.1308594,102.65332 -3.1738281,83.876953 7.0839844,76.748535 L 7.0839844,76.748535 z "
   style="fill:#ff0000"
   id="path5482" />
				<path
   d="M 599.06543,90.657227 C 599.24023,78.140137 613.49512,69.447266 624.9707,74.835938 C 639.57324,79.878418 638.87891,105.26123 623.92676,109.43408 C 613.14844,113.78076 599.76172,106.99951 599.24023,94.82959 C 599.06543,93.438965 599.06543,92.04834 599.06543,90.657227 L 599.06543,90.657227 z "
   style="fill:#ff0000"
   id="path5484" />
				<path
   d="M 101.83594,96.568359 C 106.70361,96.568359 111.74561,96.39502 116.61377,96.39502 C 122.00293,108.04297 128.60986,119.16943 133.13037,131.1665 C 122.17676,121.77734 112.09326,111.34619 101.66211,101.2627 C 101.66211,100.04541 101.83594,97.785645 101.83594,96.568359 L 101.83594,96.568359 z "
   id="path5486" />
				<path
   d="M 209.62695,96.221191 C 211.88672,97.785645 214.14648,99.350098 216.40723,101.08838 C 216.2334,104.04443 216.05957,106.99951 215.88574,109.95557 C 203.71582,116.04053 192.06738,123.16895 179.37549,128.21045 C 188.9375,117.08398 199.36914,106.82666 209.62695,96.221191 L 209.62695,96.221191 z "
   id="path5488" />
				<path
   d="M 419.12402,101.08838 C 421.38477,99.350098 423.64453,97.611328 426.07812,96.221191 C 436.16309,106.82666 446.94043,116.90967 456.33008,128.21045 C 443.46387,123.51611 431.81641,116.21436 419.64648,110.12939 C 419.47168,106.99951 419.29883,104.04443 419.12402,101.08838 L 419.12402,101.08838 z "
   id="path5490" />
				<path
   d="M 518.91797,96.39502 C 523.96094,96.568359 528.82812,96.568359 533.69629,96.742188 C 533.69629,97.959473 533.86914,100.21924 533.86914,101.2627 C 523.4375,111.34619 513.5293,122.12549 502.22656,131.33936 C 506.74805,119.34375 513.5293,108.2168 518.91797,96.39502 L 518.91797,96.39502 z "
   id="path5492" />
				<path
   d="M 105.31299,154.63721 C 118.35254,158.63525 131.21777,163.32959 143.73486,168.71826 C 130.00049,169.06689 116.43994,169.24072 102.87842,169.41455 C 102.18311,166.6333 101.66211,163.67725 101.31396,160.89502 C 102.70557,158.80908 104.0957,156.72314 105.31299,154.63721 L 105.31299,154.63721 z "
   id="path5494" />
				<path
   d="M 491.9707,168.89307 C 504.31348,163.32959 517.17969,158.63525 530.21875,154.63721 C 531.43652,156.72314 532.82617,158.80908 534.2168,160.89502 C 533.86914,163.67725 533.34766,166.6333 532.65137,169.24072 C 519.09082,169.06689 505.53027,169.06689 491.9707,168.89307 L 491.9707,168.89307 z "
   id="path5496" />
				<path
   d="M 9.5180664,164.37256 C 14.907715,156.54834 27.250977,155.15869 34.553223,160.89502 C 35.770508,161.93799 36.812988,163.15576 38.030273,164.19873 C 50.200195,176.36865 36.812988,199.14404 20.296387,194.62354 C 6.7363281,192.71143 0.4770508,174.28271 9.5180664,164.37256 L 9.5180664,164.37256 z "
   style="fill:#ff0000"
   id="path5498" />
				<path
   d="M 600.97852,160.89502 C 610.36621,153.41943 625.83984,158.80908 629.31738,169.93604 C 634.5332,183.49658 620.62402,198.97021 606.54102,194.27588 C 593.84961,191.49365 588.28613,173.41357 597.50195,164.19873 C 598.54395,163.15576 599.76172,161.93799 600.97852,160.89502 L 600.97852,160.89502 z "
   style="fill:#ff0000"
   id="path5500" />
				<path
   d="M 271.17188,197.92725 C 285.25488,197.23193 299.68457,196.70947 313.76758,195.14502 C 314.46191,197.57861 314.81055,200.01318 315.15723,202.44775 C 312.02832,204.70752 309.59473,209.74951 304.90039,208.87939 C 293.42578,205.75049 282.29883,201.92529 271.17188,197.92725 L 271.17188,197.92725 z "
   id="path5502" />
				<path
   d="M 320.19922,202.27393 C 320.72168,199.83936 321.24316,197.40479 321.9375,195.14502 C 336.02051,196.18896 350.27734,196.88428 364.3584,197.75342 C 353.58105,201.57861 342.97461,205.75049 331.84863,208.35889 C 326.80664,210.271 323.50293,205.05518 320.19922,202.27393 L 320.19922,202.27393 z "
   id="path5504" />
				<path
   d="M 147.38574,222.09326 C 157.12207,215.31299 172.94336,221.04932 174.33398,233.56592 C 178.33301,245.04346 167.55371,258.60205 155.20947,256.34424 C 140.08447,256.51709 132.08691,234.78467 143.56152,225.22217 C 144.77832,224.00537 145.99561,222.9624 147.38574,222.09326 L 147.38574,222.09326 z "
   style="fill:#ff0000"
   id="path5506" />
				<path
   d="M 461.71875,230.61182 C 465.02246,220.18018 479.2793,216.0083 488.14551,221.91943 C 489.53613,222.9624 490.75293,224.00537 491.9707,225.22217 C 504.48828,235.82764 493.36035,259.64502 476.84473,256.34424 C 464.6748,256.34424 456.67773,241.21631 461.71875,230.61182 L 461.71875,230.61182 z "
   style="fill:#ff0000"
   id="path5508" />
				<path
   d="M 81.842285,265.21045 C 73.49707,253.90967 81.494629,235.82764 95.750977,235.82764 C 97.141602,235.82764 98.532227,235.82764 99.92334,236.00049 C 113.48389,236.17432 119.04785,252.51709 113.65771,263.12158 C 107.74707,274.42236 88.969727,275.46826 81.842285,265.21045 L 81.842285,265.21045 z "
   style="fill:#ff0000"
   id="path5510" />
				<path
   d="M 521.00488,260.68994 C 516.6582,249.90967 523.4375,236.52393 535.60742,236.00049 C 537,235.82764 538.39062,235.82764 539.78125,235.82764 C 552.29883,236.00049 560.99219,250.25928 555.60156,261.73291 C 550.56055,276.3374 525.17676,275.64111 521.00488,260.68994 L 521.00488,260.68994 z "
   style="fill:#ff0000"
   id="path5512" />
			</g>
		</g>
	</svg>