<?xml version="1.0" encoding="UTF-8" standalone="no"?>
<!-- Created with Inkscape (http://www.inkscape.org/) -->
<svg
   xmlns:svg="http://www.w3.org/2000/svg"
   xmlns="http://www.w3.org/2000/svg"
   version="1.0"
   width="512.82715"
   height="518.0376"
   viewBox="0 0 512.82715 518.0376"
   id="svg4706"
   xml:space="preserve"><defs
   id="defs4766" />
	
		<g
   transform="matrix(0.9812933,0,0,0.9812933,4.0000006,7.6907491)"
   id="Ebene_1">
			<g
   id="g4711">
				<path
   d="M 82.087891,30.833008 C 62.829102,31.420898 64.887207,-2.8339844 83.705078,0.5478516 C 94.143066,-2.0991211 102.08203,9.956543 99.288574,19.071777 C 98.112793,25.540527 92.232422,31.126465 85.469238,30.979492 C 84.292969,30.979492 83.26416,30.979492 82.087891,30.833008 L 82.087891,30.833008 z "
   style="fill:#ff0000"
   id="path4713" />
				<path
   d="M 414.34082,9.2216797 C 418.75195,-5.9208984 447.125,-1.3637695 443.89062,15.249512 C 445.94922,23.775879 438.74512,30.391602 430.80762,30.833008 C 429.77832,30.979492 428.60156,30.979492 427.4248,30.979492 C 417.13379,30.979492 409.63672,18.48291 414.34082,9.2216797 L 414.34082,9.2216797 z "
   style="fill:#ff0000"
   id="path4715" />
				<path
   d="M 0.4946289,42.299805 C 2.1118164,30.833008 17.695801,25.540527 26.075684,33.18457 C 32.691406,37.742188 33.867188,48.180176 29.016113,54.355469 C 28.133789,55.383789 27.104492,56.266113 26.222168,57.29541 C 15.931152,67.586426 -3.3271484,56.266113 0.4946289,42.299805 L 0.4946289,42.299805 z "
   style="fill:#ff0000"
   id="path4717" />
				<path
   d="M 82.087891,30.833008 C 83.26416,30.979492 84.292969,30.979492 85.469238,30.979492 C 85.469238,55.825195 84.587402,80.670898 84.881348,105.51611 C 85.910156,107.42676 86.792481,109.33838 88.115234,110.95605 C 103.99316,128.45068 121.34082,144.32764 137.95312,161.23438 C 138.10059,143.73975 138.24756,126.24512 137.80664,108.75049 C 138.98242,108.89697 140.1582,108.89697 141.33496,108.89697 C 140.74707,157.70605 141.18799,206.66162 140.74707,255.47021 C 141.62842,257.38232 142.6582,259.29199 143.98096,260.91162 C 159.85889,278.40381 177.20654,294.4292 193.81836,311.18945 C 193.96582,294.13623 194.11328,277.22949 193.67187,260.17627 C 194.84863,260.32275 196.02441,260.32275 197.2002,260.32275 C 196.6123,309.13037 197.05371,358.0874 196.6123,406.89502 C 197.49414,408.80713 198.52344,410.71729 199.84668,412.33643 C 217.34082,430.56396 236.60059,447.17822 253.94824,465.5542 C 254.38867,442.32471 254.24219,419.24463 254.24219,396.01514 C 255.41797,396.01514 257.47656,396.01514 258.65234,396.01514 C 258.65234,419.09814 258.50488,442.32471 258.7998,465.40771 C 272.61914,452.17725 285.55566,438.21045 299.81641,425.56787 C 304.375,421.3042 309.22559,417.33252 313.04785,412.48291 C 314.37109,410.71729 315.40039,408.95361 316.42871,407.0415 C 315.69336,358.0874 316.28223,309.27686 315.69336,260.32275 C 316.87109,260.32275 318.04687,260.32275 319.22266,260.17627 C 318.92871,277.22949 318.92871,294.13623 319.07617,311.04297 C 335.68848,294.4292 353.03613,278.40381 368.91309,261.05811 C 370.2373,259.29199 371.2666,257.52881 372.29395,255.61816 C 371.55957,206.66162 372.14746,157.85352 371.55957,108.89697 C 372.73535,108.89697 373.91211,108.89697 375.08789,108.75049 C 374.79395,126.24512 374.64746,143.73975 374.94043,161.0874 C 391.55371,144.4751 408.90137,128.45068 424.77832,111.10205 C 426.10254,109.33838 427.13086,107.57422 428.16016,105.66309 C 428.16016,80.817871 427.57227,55.825195 427.4248,30.979492 C 428.60156,30.979492 429.77832,30.979492 430.80762,30.833008 C 431.39453,55.090332 432.57031,79.347656 432.27637,103.75146 C 449.18262,86.992187 466.97266,71.114746 483.87891,54.355468 C 484.76074,55.383789 485.79004,56.413574 486.6709,57.29541 C 450.50586,93.313965 412.57715,127.86279 377.58789,165.05713 C 376.85254,167.70264 376.41211,170.34961 375.96973,172.99561 C 375.82324,199.8999 376.41211,226.80322 376.41211,253.70654 C 393.31836,236.94678 411.10645,221.06982 428.01367,204.31006 C 428.89453,205.33887 429.92383,206.36816 430.80762,207.25049 C 401.84473,236.35889 371.41309,263.99805 342.74512,293.40088 C 335.83496,301.19092 326.71973,307.22119 321.42773,316.33496 C 320.83887,318.98193 320.39844,321.77295 320.10449,324.42041 C 319.95801,351.32568 320.5459,378.22705 320.5459,405.13232 C 337.45312,388.37158 355.24121,372.49365 372.14746,355.73584 C 373.0293,356.76416 374.05859,357.7915 374.94043,358.67627 C 350.38965,383.37256 324.66211,406.89502 300.11035,431.59521 C 286.87988,444.6792 271.88379,456.44092 259.97559,470.84619 C 259.3877,472.90479 258.94629,474.96436 258.50488,477.02295 C 258.06445,490.69385 258.50488,504.3667 258.65234,518.0376 C 257.62402,518.0376 255.27148,518.0376 254.24219,518.0376 C 254.09473,504.3667 255.12402,490.69385 254.38867,477.02295 C 253.94824,474.96436 253.50684,472.90478 253.06641,470.84619 C 240.27539,456.14502 225.13281,443.64893 211.31445,430.12451 C 187.20313,405.86768 162.06396,382.93311 137.95313,358.67627 C 138.83545,357.64502 139.86475,356.76416 140.74707,355.73584 C 157.65381,372.49365 175.44189,388.37158 192.34863,405.13232 C 192.20215,378.08057 193.08398,350.8833 192.49609,323.68555 C 192.20215,321.1875 191.9082,318.83301 191.4668,316.33496 C 182.64648,304.13135 170.73779,294.72461 160.59424,283.84521 C 135.0127,257.67529 107.81543,233.12451 82.087891,207.25049 C 82.969726,206.22119 83.999512,205.33887 84.881348,204.31006 C 101.78809,221.06982 119.57617,236.94678 136.48291,253.70654 C 136.33643,226.65576 137.36523,199.45801 136.48291,172.26025 C 136.33643,169.9082 135.89502,167.40918 135.45459,165.05713 C 100.02393,128.00879 62.682129,93.166992 26.222168,57.29541 C 27.104492,56.266113 28.133789,55.383789 29.016113,54.355469 C 45.922852,71.114746 63.710938,86.992188 80.617676,103.75146 C 80.764648,79.494141 80.32373,55.090332 82.087891,30.833008 L 82.087891,30.833008 z "
   style="fill:#00c400"
   id="path4719" />
				<path
   d="M 483.87891,54.355469 C 475.79297,44.504883 485.49512,27.304199 498.28613,29.803711 C 508.13672,29.950684 515.63379,41.41748 511.81152,50.679688 C 508.72363,60.823731 494.16992,64.646484 486.6709,57.29541 C 485.79004,56.413574 484.76074,55.383789 483.87891,54.355469 L 483.87891,54.355469 z "
   style="fill:#ff0000"
   id="path4721" />
				<path
   d="M 137.80664,108.75049 C 118.69482,109.19141 120.8999,75.083496 139.57031,78.465332 C 150.00879,75.818848 157.94727,87.874512 155.1543,96.989746 C 153.97852,103.45801 148.09766,109.04443 141.33496,108.89697 C 140.1582,108.89697 138.98242,108.89697 137.80664,108.75049 L 137.80664,108.75049 z "
   style="fill:#ff0000"
   id="path4723" />
				<path
   d="M 358.47559,87.13916 C 362.88574,71.99707 391.25977,76.553711 388.02539,93.166992 C 390.08398,101.54639 382.87988,108.30908 375.08789,108.75049 C 373.91211,108.89697 372.73535,108.89697 371.55957,108.89697 C 361.26855,108.89697 353.77051,96.400879 358.47559,87.13916 L 358.47559,87.13916 z "
   style="fill:#ff0000"
   id="path4725" />
				<path
   d="M 84.881348,105.51611 C 93.408203,97.430176 101.64111,89.050293 110.31494,81.111328 C 105.9043,90.961914 102.37598,101.3999 95.907715,110.07373 C 93.996094,110.36719 90.17334,110.80859 88.115234,110.95605 C 86.79248,109.33838 85.910156,107.42676 84.881348,105.51611 L 84.881348,105.51611 z "
   id="path4727" />
				<path
   d="M 402.58008,81.258789 C 411.25293,89.197266 419.4873,97.577637 428.16016,105.66309 C 427.13086,107.57422 426.10254,109.33838 424.77832,111.10205 C 422.71973,110.80859 418.75195,110.51416 416.69336,110.36719 C 411.10645,101.10547 406.84277,91.108887 402.58008,81.258789 L 402.58008,81.258789 z "
   id="path4729" />
				<path
   d="M 99.288574,165.79199 C 111.34424,165.35107 123.39893,165.2041 135.45459,165.05713 C 135.89502,167.40918 136.33643,169.9082 136.48291,172.26025 C 135.0127,173.87793 133.54297,175.64209 132.07275,177.25879 C 121.19385,173.43701 110.02051,170.05518 99.288574,165.79199 L 99.288574,165.79199 z "
   id="path4731" />
				<path
   d="M 375.96973,172.99561 C 376.41211,170.34961 376.85254,167.70264 377.58789,165.05713 C 389.49512,165.2041 401.55078,165.2041 413.45801,165.49756 C 403.75586,169.17285 394.2002,173.73047 384.05566,175.93604 C 380.96875,176.6709 378.46875,174.17236 375.96973,172.99561 L 375.96973,172.99561 z "
   id="path4733" />
				<path
   d="M 56.360352,192.25439 C 57.977539,180.7876 73.561035,175.49512 81.941406,183.13965 C 88.556641,187.69678 89.73291,198.13525 84.881348,204.31006 C 83.999512,205.33887 82.969727,206.22119 82.087891,207.25049 C 71.796875,217.5415 52.538086,206.22119 56.360352,192.25439 L 56.360352,192.25439 z "
   style="fill:#ff0000"
   id="path4735" />
				<path
   d="M 428.01367,204.31006 C 419.92773,194.45996 429.62988,177.25879 442.4209,179.7583 C 452.27051,179.90576 459.76758,191.37256 455.94629,200.63477 C 452.85937,210.77881 438.30469,214.60107 430.80762,207.25049 C 429.92383,206.36816 428.89453,205.33887 428.01367,204.31006 L 428.01367,204.31006 z "
   style="fill:#ff0000"
   id="path4737" />
				<path
   d="M 193.67187,260.17627 C 174.56055,260.61572 176.76562,226.50879 195.43652,229.89062 C 205.87402,227.24365 213.8125,239.29932 211.01953,248.41455 C 209.84375,254.88281 203.96289,260.46924 197.2002,260.32275 C 196.02441,260.32275 194.84863,260.32275 193.67187,260.17627 L 193.67187,260.17627 z "
   style="fill:#ff0000"
   id="path4739" />
				<path
   d="M 302.61035,238.56396 C 307.02051,223.42187 335.39453,227.979 332.15918,244.5918 C 334.21875,252.97119 327.01367,259.73437 319.22266,260.17627 C 318.04688,260.32275 316.87109,260.32275 315.69336,260.32275 C 305.40234,260.32275 297.90527,247.82568 302.61035,238.56396 L 302.61035,238.56396 z "
   style="fill:#ff0000"
   id="path4741" />
				<path
   d="M 140.74707,255.47021 C 149.27344,247.38525 157.50684,239.00488 166.18018,231.06641 C 161.77002,240.9165 158.2417,251.35498 151.77295,260.02686 C 149.86133,260.32275 146.03906,260.76221 143.98096,260.91162 C 142.6582,259.29199 141.62842,257.38232 140.74707,255.47021 L 140.74707,255.47021 z "
   id="path4743" />
				<path
   d="M 346.71484,231.21338 C 355.3877,239.15186 363.62109,247.53223 372.29395,255.61816 C 371.2666,257.52881 370.2373,259.29199 368.91309,261.05811 C 366.85547,260.76221 362.88574,260.46924 360.82715,260.32275 C 355.24121,251.06055 350.97754,241.06396 346.71484,231.21338 L 346.71484,231.21338 z "
   id="path4745" />
				<path
   d="M 155.1543,317.21631 C 167.20947,316.77686 179.41162,316.62744 191.4668,316.33496 C 191.9082,318.83301 192.20215,321.1875 192.49609,323.68555 C 190.87891,325.30225 189.4082,327.06787 187.93848,328.68457 C 177.05908,324.86279 166.0332,321.48047 155.1543,317.21631 L 155.1543,317.21631 z "
   id="path4747" />
				<path
   d="M 320.10449,324.42041 C 320.39844,321.77295 320.83887,318.98193 321.42773,316.33496 C 333.4834,316.48096 345.53906,316.62744 357.59277,317.06982 C 347.89063,320.59863 338.33496,325.15576 328.18945,327.36084 C 325.10352,328.09619 322.60352,325.59766 320.10449,324.42041 L 320.10449,324.42041 z "
   id="path4749" />
				<path
   d="M 112.22559,343.6792 C 113.84277,332.21338 129.42676,326.91846 137.80664,334.56494 C 144.42236,339.12207 145.59814,349.55908 140.74707,355.73584 C 139.86475,356.76416 138.83545,357.64502 137.95313,358.67627 C 127.66211,368.96729 108.40381,357.64502 112.22559,343.6792 L 112.22559,343.6792 z "
   style="fill:#ff0000"
   id="path4751" />
				<path
   d="M 372.14746,355.73584 C 364.06152,345.88428 373.76465,328.68457 386.55469,331.18262 C 396.40527,331.3291 403.90234,342.79736 400.08105,352.06006 C 396.99219,362.20166 382.43848,366.02686 374.94043,358.67627 C 374.05859,357.7915 373.0293,356.76416 372.14746,355.73584 L 372.14746,355.73584 z "
   style="fill:#ff0000"
   id="path4753" />
				<path
   d="M 242.33398,373.81689 C 245.12695,364.11475 257.91699,362.79053 265.5625,367.05518 C 276.58887,374.84814 272.47266,394.98779 258.65234,396.01514 C 257.47656,396.01514 255.41797,396.01514 254.24219,396.01514 C 243.80371,395.28076 237.77637,382.93311 242.33398,373.81689 L 242.33398,373.81689 z "
   style="fill:#ff0000"
   id="path4755" />
				<path
   d="M 196.6123,406.89502 C 205.13965,398.80908 213.37207,390.43115 222.0459,382.4917 C 217.63574,392.34033 214.10742,402.78076 207.63867,411.45166 C 205.72754,411.74756 201.9043,412.18701 199.84668,412.33643 C 198.52344,410.71729 197.49414,408.80713 196.6123,406.89502 L 196.6123,406.89502 z "
   id="path4757" />
				<path
   d="M 290.84863,382.63818 C 299.52246,390.57666 307.75586,398.95557 316.42871,407.0415 C 315.40039,408.95361 314.37109,410.71729 313.04785,412.48291 C 310.99023,412.18701 307.02051,411.89404 304.96191,411.74756 C 299.37598,402.48486 295.11133,392.48975 290.84863,382.63818 L 290.84863,382.63818 z "
   id="path4759" />
				<path
   d="M 217.04785,473.19775 C 228.95605,472.61279 241.01074,472.17041 253.06641,470.84619 C 253.50684,472.90479 253.94824,474.96436 254.38867,477.02295 C 251.5957,478.93213 249.39062,483.1958 245.56836,482.31494 C 235.86523,479.81396 226.45605,476.72705 217.04785,473.19775 L 217.04785,473.19775 z "
   id="path4761" />
				<path
   d="M 258.50488,477.02295 C 258.94629,474.96436 259.3877,472.90479 259.97559,470.84619 C 271.88379,471.72803 283.93945,472.31689 295.84668,473.05127 C 286.7334,476.2876 277.76465,479.81396 268.35645,482.01904 C 264.0918,483.48877 261.29883,479.22803 258.50488,477.02295 L 258.50488,477.02295 z "
   id="path4763" />
			</g>
		</g>
	</svg>