<?xml version="1.0" encoding="UTF-8" standalone="no"?>
<!-- Created with Inkscape (http://www.inkscape.org/) -->
<svg
   xmlns:dc="http://purl.org/dc/elements/1.1/"
   xmlns:cc="http://web.resource.org/cc/"
   xmlns:rdf="http://www.w3.org/1999/02/22-rdf-syntax-ns#"
   xmlns:svg="http://www.w3.org/2000/svg"
   xmlns="http://www.w3.org/2000/svg"
   xmlns:sodipodi="http://inkscape.sourceforge.net/DTD/sodipodi-0.dtd"
   xmlns:inkscape="http://www.inkscape.org/namespaces/inkscape"
   sodipodi:docname="Sierpik.svg"
   sodipodi:docbase="D:\"
   inkscape:version="0.40+cvs"
   sodipodi:version="0.32"
   id="svg2"
   height="500.00000px"
   width="420.00000px">
  <defs
     id="defs3" />
  <sodipodi:namedview
     inkscape:window-y="-4"
     inkscape:window-x="-4"
     inkscape:window-height="749"
     inkscape:window-width="1024"
     inkscape:guide-bbox="true"
     showguides="true"
     inkscape:current-layer="layer1"
     inkscape:document-units="px"
     inkscape:cy="250.00000"
     inkscape:cx="209.99999"
     inkscape:zoom="1.1400000"
     inkscape:pageshadow="2"
     inkscape:pageopacity="0.0"
     borderopacity="1.0"
     bordercolor="#666666"
     pagecolor="#ffffff"
     id="base" />
  <metadata
     id="metadata4">
    <rdf:RDF
       id="RDF5">
      <cc:Work
         id="Work6"
         rdf:about="">
        <dc:format
           id="format7">image/svg+xml</dc:format>
        <dc:type
           rdf:resource="http://purl.org/dc/dcmitype/StillImage"
           id="type9" />
      </cc:Work>
    </rdf:RDF>
  </metadata>
  <g
     id="layer1"
     inkscape:groupmode="layer"
     inkscape:label="Layer 1">
    <path
       sodipodi:nodetypes="cc"
       id="path1381"
       d="M 22.269590,498.68305 L 21.004480,123.66742"
       style="fill:none;fill-opacity:0.75000000;fill-rule:evenodd;stroke:#00c400;stroke-width:2.6338992px;stroke-linecap:butt;stroke-linejoin:miter;stroke-opacity:1.0000000" />
    <path
       sodipodi:nodetypes="cc"
       id="path1385"
       d="M 21.690210,329.69834 L 104.21998,59.379030"
       style="fill:none;fill-opacity:0.75000000;fill-rule:evenodd;stroke:#00c400;stroke-width:2.6338992px;stroke-linecap:butt;stroke-linejoin:miter;stroke-opacity:1.0000000" />
    <path
       sodipodi:nodetypes="cc"
       id="path1387"
       d="M 60.424450,202.41865 L 199.53186,33.485090"
       style="fill:none;fill-opacity:0.75000000;fill-rule:evenodd;stroke:#00c400;stroke-width:2.6338992px;stroke-linecap:butt;stroke-linejoin:miter;stroke-opacity:1.0000000" />
    <path
       sodipodi:nodetypes="cc"
       id="path1389"
       d="M 130.49113,117.01292 L 288.60833,35.270900"
       style="fill:none;fill-opacity:0.75000000;fill-rule:evenodd;stroke:#00c400;stroke-width:2.6338992px;stroke-linecap:butt;stroke-linejoin:miter;stroke-opacity:1.0000000" />
    <path
       sodipodi:nodetypes="cc"
       id="path1391"
       d="M 210.82717,75.359020 L 359.72837,74.558220"
       style="fill:none;fill-opacity:0.75000000;fill-rule:evenodd;stroke:#00c400;stroke-width:2.6807230px;stroke-linecap:butt;stroke-linejoin:miter;stroke-opacity:1.0000000" />
    <path
       sodipodi:nodetypes="cc"
       id="path1393"
       d="M 291.93914,74.721970 L 386.60903,137.33311"
       style="fill:none;fill-opacity:0.75000000;fill-rule:evenodd;stroke:#00c400;stroke-width:2.6338992px;stroke-linecap:butt;stroke-linejoin:miter;stroke-opacity:1.0000000" />
    <path
       sodipodi:nodetypes="cc"
       id="path1395"
       d="M 343.00884,108.58800 L 358.97879,179.02686"
       style="fill:none;fill-opacity:0.75000000;fill-rule:evenodd;stroke:#00c400;stroke-width:2.6338992px;stroke-linecap:butt;stroke-linejoin:miter;stroke-opacity:1.0000000" />
    <path
       id="path1397"
       d="M 352.74341,154.02583 L 325.12971,185.27713"
       style="fill:none;fill-opacity:0.75000000;fill-rule:evenodd;stroke:#00c400;stroke-width:2.6338992px;stroke-linecap:butt;stroke-linejoin:miter;stroke-opacity:1.0000000" />
    <path
       transform="matrix(2.631300,0.000000,0.000000,2.637045,-653.9566,-328.1484)"
       d="M 263.76668 165.07008 A 7.6184211 7.6184211 0 1 1  248.52983,165.07008 A 7.6184211 7.6184211 0 1 1  263.76668 165.07008 z"
       sodipodi:ry="7.6184211"
       sodipodi:rx="7.6184211"
       sodipodi:cy="165.07008"
       sodipodi:cx="256.14825"
       id="path1399"
       style="fill:#ff0000;fill-opacity:1.0000000;fill-rule:nonzero;stroke:none;stroke-width:1.0000000;stroke-miterlimit:4.0000000;stroke-dashoffset:0.00000000;stroke-opacity:1.0000000"
       sodipodi:type="arc" />
    <path
       transform="matrix(2.631300,0.000000,0.000000,2.637045,-564.4388,-393.7761)"
       d="M 263.76668 165.07008 A 7.6184211 7.6184211 0 1 1  248.52983,165.07008 A 7.6184211 7.6184211 0 1 1  263.76668 165.07008 z"
       sodipodi:ry="7.6184211"
       sodipodi:rx="7.6184211"
       sodipodi:cy="165.07008"
       sodipodi:cx="256.14825"
       id="path2160"
       style="fill:#ff0000;fill-opacity:1.0000000;fill-rule:nonzero;stroke:none;stroke-width:1.0000000;stroke-miterlimit:4.0000000;stroke-dashoffset:0.00000000;stroke-opacity:1.0000000"
       sodipodi:type="arc" />
    <path
       transform="matrix(2.631300,0.000000,0.000000,2.637045,-461.1100,-415.2056)"
       d="M 263.76668 165.07008 A 7.6184211 7.6184211 0 1 1  248.52983,165.07008 A 7.6184211 7.6184211 0 1 1  263.76668 165.07008 z"
       sodipodi:ry="7.6184211"
       sodipodi:rx="7.6184211"
       sodipodi:cy="165.07008"
       sodipodi:cx="256.14825"
       id="path2162"
       style="fill:#ff0000;fill-opacity:1.0000000;fill-rule:nonzero;stroke:none;stroke-width:1.0000000;stroke-miterlimit:4.0000000;stroke-dashoffset:0.00000000;stroke-opacity:1.0000000"
       sodipodi:type="arc" />
    <path
       transform="matrix(2.631300,0.000000,0.000000,2.637045,-365.7982,-407.1697)"
       d="M 263.76668 165.07008 A 7.6184211 7.6184211 0 1 1  248.52983,165.07008 A 7.6184211 7.6184211 0 1 1  263.76668 165.07008 z"
       sodipodi:ry="7.6184211"
       sodipodi:rx="7.6184211"
       sodipodi:cy="165.07008"
       sodipodi:cx="256.14825"
       id="path2164"
       style="fill:#ff0000;fill-opacity:1.0000000;fill-rule:nonzero;stroke:none;stroke-width:1.0000000;stroke-miterlimit:4.0000000;stroke-dashoffset:0.00000000;stroke-opacity:1.0000000"
       sodipodi:type="arc" />
    <path
       transform="matrix(2.631300,0.000000,0.000000,2.637045,-298.0999,-357.1675)"
       d="M 263.76668 165.07008 A 7.6184211 7.6184211 0 1 1  248.52983,165.07008 A 7.6184211 7.6184211 0 1 1  263.76668 165.07008 z"
       sodipodi:ry="7.6184211"
       sodipodi:rx="7.6184211"
       sodipodi:cy="165.07008"
       sodipodi:cx="256.14825"
       id="path2166"
       style="fill:#ff0000;fill-opacity:1.0000000;fill-rule:nonzero;stroke:none;stroke-width:1.0000000;stroke-miterlimit:4.0000000;stroke-dashoffset:0.00000000;stroke-opacity:1.0000000"
       sodipodi:type="arc" />
    <path
       transform="matrix(2.631300,0.000000,0.000000,2.637045,-274.0492,-286.6288)"
       d="M 263.76668 165.07008 A 7.6184211 7.6184211 0 1 1  248.52983,165.07008 A 7.6184211 7.6184211 0 1 1  263.76668 165.07008 z"
       sodipodi:ry="7.6184211"
       sodipodi:rx="7.6184211"
       sodipodi:cy="165.07008"
       sodipodi:cx="256.14825"
       id="path2168"
       style="fill:#ff0000;fill-opacity:1.0000000;fill-rule:nonzero;stroke:none;stroke-width:1.0000000;stroke-miterlimit:4.0000000;stroke-dashoffset:0.00000000;stroke-opacity:1.0000000"
       sodipodi:type="arc" />
    <path
       transform="matrix(2.631300,0.000000,0.000000,2.637045,-311.4614,-236.6268)"
       d="M 263.76668 165.07008 A 7.6184211 7.6184211 0 1 1  248.52983,165.07008 A 7.6184211 7.6184211 0 1 1  263.76668 165.07008 z"
       sodipodi:ry="7.6184211"
       sodipodi:rx="7.6184211"
       sodipodi:cy="165.07008"
       sodipodi:cx="256.14825"
       id="path2170"
       style="fill:#ff0000;fill-opacity:1.0000000;fill-rule:nonzero;stroke:none;stroke-width:1.0000000;stroke-miterlimit:4.0000000;stroke-dashoffset:0.00000000;stroke-opacity:1.0000000"
       sodipodi:type="arc" />
    <path
       transform="matrix(2.631300,0.000000,0.000000,2.637045,-364.9074,-239.3054)"
       d="M 263.76668 165.07008 A 7.6184211 7.6184211 0 1 1  248.52983,165.07008 A 7.6184211 7.6184211 0 1 1  263.76668 165.07008 z"
       sodipodi:ry="7.6184211"
       sodipodi:rx="7.6184211"
       sodipodi:cy="165.07008"
       sodipodi:cx="256.14825"
       id="path2172"
       style="fill:#ff0000;fill-opacity:1.0000000;fill-rule:nonzero;stroke:none;stroke-width:1.0000000;stroke-miterlimit:4.0000000;stroke-dashoffset:0.00000000;stroke-opacity:1.0000000"
       sodipodi:type="arc" />
    <g
       transform="translate(77.87358,12.64290)"
       id="g3028"
       inkscape:groupmode="layer"
       inkscape:label="Layer 1">
      <path
         id="path3906"
         d="M -18.669420,189.51186 L -0.74745041,195.13309 L 26.804280,199.66637 L -7.8360004,202.93033 L -18.669420,189.51186 z "
         style="fill:#00c400;fill-opacity:1.0000000;fill-rule:evenodd;stroke:none;stroke-width:1.0000000px;stroke-linecap:butt;stroke-linejoin:miter;stroke-opacity:1.0000000" />
      <path
         id="path3081"
         d="M 52.584350,102.90276 L 65.972570,116.10240 L 88.424740,132.73877 L 56.115500,119.79808 L 52.584350,102.90276 z "
         style="fill:#00c400;fill-opacity:1.0000000;fill-rule:evenodd;stroke:none;stroke-width:1.0000000px;stroke-linecap:butt;stroke-linejoin:miter;stroke-opacity:1.0000000" />
      <path
         id="path3083"
         d="M 132.79995,61.863830 L 142.09722,78.218660 L 159.18259,100.35405 L 131.60875,79.084610 L 132.79995,61.863830 z "
         style="fill:#00c400;fill-opacity:1.0000000;fill-rule:evenodd;stroke:none;stroke-width:1.0000000px;stroke-linecap:butt;stroke-linejoin:miter;stroke-opacity:1.0000000" />
      <path
         id="path3085"
         d="M 215.14634,61.451320 L 214.08585,80.245020 L 216.42988,108.13340 L 204.81143,75.259240 L 215.14634,61.451320 z "
         style="fill:#00c400;fill-opacity:1.0000000;fill-rule:evenodd;stroke:none;stroke-width:1.0000000px;stroke-linecap:butt;stroke-linejoin:miter;stroke-opacity:1.0000000" />
      <path
         id="path3087"
         d="M 266.64826,96.025113 L 251.99938,107.80291 L 232.88154,128.19999 L 249.49523,97.556747 L 266.64826,96.025113 z "
         style="fill:#00c400;fill-opacity:1.0000000;fill-rule:evenodd;stroke:none;stroke-width:1.0000000px;stroke-linecap:butt;stroke-linejoin:miter;stroke-opacity:1.0000000" />
      <path
         id="path3089"
         d="M -57.525540,316.55952 L -39.706030,310.61991 L -14.707470,298.15543 L -40.910930,321.09971 L -57.525540,316.55952 z "
         style="fill:#00c400;fill-opacity:1.0000000;fill-rule:evenodd;stroke:none;stroke-width:1.0000000px;stroke-linecap:butt;stroke-linejoin:miter;stroke-opacity:1.0000000" />
    </g>
  </g>
</svg>
