<?xml version="1.0" encoding="UTF-8" standalone="no"?>
<!-- Created with Inkscape (http://www.inkscape.org/) -->
<svg
   xmlns:svg="http://www.w3.org/2000/svg"
   xmlns="http://www.w3.org/2000/svg"
   version="1.0"
   width="261.69971"
   height="364.25"
   viewBox="0 0 261.69971 364.25"
   id="svg3288"
   xml:space="preserve"><defs
   id="defs3320" />
	
		<g
   id="Ebene_2">
			<path
   d="M 200.6001,256.66016 C 209.2749,256.87109 217.96338,256.24219 226.53467,254.9082 C 238.50928,253.04395 254.81592,248.71484 261.69971,237.45117 C 241.97607,247.99707 216.9751,252.01172 195.4292,244.28711 C 191.36182,242.82812 192.54736,242.02344 193.50049,238.45117 C 196.59326,238.99219 199.67139,239.61133 202.76807,240.13379 C 207.96924,241.01172 213.28955,241.66406 218.56689,241.13867 C 226.79541,240.32031 238.25928,234.78418 243.80029,228.45117 C 228.06982,233.20898 217.56396,240.08105 201.30029,231.55078 C 199.6001,230.65039 197.80029,229.95117 196.3999,228.55078 L 196.30029,228.45117 L 196.1001,227.45117 C 196.21533,227.10645 196.4292,226.53223 196.64697,225.99121 C 196.67725,224.25684 197.45557,222.16699 198.07471,219.18066 C 199.03955,214.52539 201.29932,209.75879 201.48193,204.9668 C 201.6001,201.89648 201.29248,198.78906 201.8999,195.75 C 204.65381,195.46094 207.4165,195.26758 210.17725,195.06055 C 222.08057,194.16699 235.30908,192.91211 243.80029,183.45117 C 235.38037,185.41602 227.96924,189.30859 219.104,188.39844 C 216.03857,188.08398 212.99365,187.57422 209.98389,186.91016 C 209.58936,186.82422 209.1958,186.7373 208.80518,186.64551 C 208.67432,186.61523 208.54443,186.58203 208.41357,186.55078 C 207.13525,186.24414 205.87158,185.91406 204.62939,185.55664 C 203.95068,185.3623 203.27393,185.16016 202.6001,184.95117 C 202.48486,183.05273 202.43897,181.15479 202.41846,179.25684 C 202.37354,176.72119 202.32959,174.18701 202.1001,171.65088 C 201.34619,165.78857 200.04541,159.99854 199.63037,154.09277 C 199.25732,148.78223 201.84912,149.90625 206.39697,149.18213 C 208.71338,148.82959 211.03076,148.48584 213.3501,148.15088 C 222.98096,146.69336 231.93213,143.65186 238.6001,136.15088 C 233.68701,137.55469 229.25732,140.24365 224.3335,141.61865 C 219.26904,143.03271 213.96533,141.90479 208.82568,141.44727 C 206.0874,141.20313 201.86572,141.07959 199.09912,139.69141 C 198.63135,139.5752 198.1626,139.45801 197.69971,139.35107 C 197.50049,138.95068 197.19971,138.25098 197.00049,137.95068 C 197.00049,137.85107 196.8999,137.65088 196.8999,137.55078 C 196.50049,135.95068 196.19971,134.45068 195.8999,132.85107 C 195.8999,132.75098 195.80029,132.55078 195.80029,132.45068 C 195.80029,132.55078 195.8999,132.75098 195.8999,132.85107 C 195.94385,132.90967 195.99268,132.9624 196.03662,133.02051 C 195.80322,132.21387 195.56885,131.42578 195.38721,130.70068 C 194.92041,128.83301 194.47412,126.95898 194.03369,125.0835 L 194.00049,125.15088 C 194.00049,124.95068 193.8999,124.65088 193.8999,124.55078 L 193.90967,124.55762 C 193.20459,121.54004 192.51514,118.51807 191.80518,115.50146 C 191.81787,115.69873 191.8999,115.9585 191.8999,116.05078 C 191.8999,115.9585 191.81787,115.69873 191.80518,115.50146 C 190.84717,111.42969 189.84912,107.36914 188.69971,103.35107 C 201.90771,100.66992 215.79346,97.856934 226.6001,89.250977 C 216.43213,92.223145 207.79736,95.57666 197.03076,95.275879 C 192.62744,95.152832 187.40869,96.683106 185.38623,92.333008 C 183.65186,88.600586 182.52002,84.633789 181.06397,80.793945 C 180.70068,79.834961 180.30225,78.883789 179.896,77.933594 C 179.896,77.938477 179.8999,77.946289 179.8999,77.950684 C 179.8999,77.946289 179.896,77.938477 179.896,77.933594 C 178.70361,75.150391 177.43115,72.378418 176.69971,69.450684 C 179.92432,65.760742 183.271,62.179687 186.65576,58.63623 C 193.40283,51.570801 200.30615,44.644043 206.69971,37.250977 C 198.39209,41.596191 190.80518,47.349609 183.17041,52.750977 C 180.51416,54.630371 176.7085,58.532715 173.52197,59.213379 C 172.91748,59.564941 172.31201,59.915039 171.69971,60.250977 C 171.09814,59.436523 170.46729,58.623535 169.82764,57.813477 C 167.31885,54.642578 164.62061,51.896973 161.76221,49.038086 C 157.98779,45.263672 154.7417,42.805176 149.97314,40.416504 C 145.63037,38.240234 148.9585,32.533203 149.94775,28.430664 C 152.22217,19 154.65088,9.5981445 156.3999,0.0507812 C 150.35986,8.1064453 149.47607,18.086914 145.00635,26.666016 C 143.78271,29.015137 142.25732,31.175781 140.81201,33.388184 C 140.23486,34.285156 139.64795,35.192383 139.1001,36.150879 C 135.65576,35.413574 132.55322,35.324707 129.02588,35.484375 C 127.71582,35.543457 126.56836,35.466309 125.52978,35.283691 C 125.71777,35.40918 125.91406,35.523438 126.1001,35.650879 C 123.30713,36.731934 121.57227,35.051758 120.52393,32.807617 C 118.43408,30.789551 117.03418,27.702148 115.4624,23.720215 C 112.27393,15.643555 110.19238,7.6416016 105.5,0.0507812 C 107.46631,10.78418 110.229,21.34668 112.70508,31.967773 C 114.57764,39.999023 113.4917,39.162598 106.90332,42.917969 C 103.38623,44.922852 100.76221,48.359863 97.89209,51.158691 C 95.767578,53.230957 93.963379,55.353027 92.130859,57.667969 C 92.053223,57.766602 91.976074,57.864746 91.898926,57.962891 C 91.410156,59.284668 90.812012,60.041504 90.105957,60.243164 C 90.104004,60.246094 90.102051,60.248535 90.100097,60.250977 C 90.097168,60.249512 90.094726,60.248047 90.092285,60.246582 C 89.233398,60.48291 88.21582,59.899414 87.037109,58.484375 C 86.826172,58.356445 86.620605,58.217285 86.410156,58.086914 C 85.93457,57.791992 85.461426,57.494141 84.993164,57.189453 C 81.958496,55.229004 79.012207,53.096192 76.104004,50.973145 C 69.395019,46.074707 62.472656,41.107422 55.100097,37.250977 C 62.301269,45.577637 70.118164,53.337891 77.67041,61.339844 C 80.679687,64.52832 85.874023,67.682617 84.251953,72.217285 C 83.140137,75.325684 81.69873,78.297363 80.540527,81.390625 C 79.074219,85.308594 77.564941,95.097168 73.007324,95.176758 C 69.155762,95.244141 65.302734,95.300781 61.450195,95.300781 C 52.025879,95.300781 44.094238,91.850586 35.200195,89.250977 C 45.901367,97.933594 59.866699,100.94482 73.100097,103.35107 C 71.096191,110.36621 69.379883,117.5083 67.753418,124.64844 L 67.899902,124.55078 C 67.799804,124.65088 67.799804,125.05078 67.700195,125.15088 L 67.66748,125.01953 C 67.104004,127.49902 66.550293,129.97754 66,132.45068 C 66,134.3374 65.646973,135.81348 65.029785,136.98242 C 64.984375,137.17334 64.948242,137.35742 64.899902,137.55078 C 64.899902,137.65088 64.799805,137.85107 64.799805,137.95068 C 64.700195,138.35107 64.399902,139.15088 64.200195,139.55078 C 63.380371,139.67236 62.570801,139.83398 61.76416,140.00684 C 58.54834,141.53076 53.978027,141.47168 49.770508,141.81738 C 39.486816,142.6626 32.746094,139.12598 23.200195,136.15088 C 30.597656,143.76611 40.942383,147.05957 51.139648,148.854 C 53.949707,149.34814 56.775879,149.74219 59.605957,150.10303 C 62.722656,149.5459 63.552734,150.83984 62.095215,153.98584 C 61.432617,159.86523 60.098633,165.65039 59.600098,171.55078 C 59.319824,174.91357 60.289062,179.60449 59.259766,182.73438 C 59.239258,183.44043 59.22168,184.13672 59.200195,184.85156 C 58.21875,185.17871 57.249512,185.47754 56.282227,185.76563 C 56.262207,185.77148 56.246582,185.78223 56.226074,185.78809 C 55.867676,185.89453 55.508789,185.99414 55.149902,186.09668 C 54.977051,186.14551 54.803223,186.19727 54.630371,186.24512 C 54.133301,186.38379 53.634766,186.51563 53.13623,186.64453 C 52.196289,186.89063 51.253418,187.12891 50.299805,187.35156 C 50.317383,187.33789 50.333008,187.32227 50.351074,187.30957 C 47.543457,187.92188 44.706055,188.35938 41.806152,188.53223 C 33.399414,189.0332 25.98584,185.75586 18.100098,183.35156 C 26.577148,193.0625 40.129394,194.19434 52.148437,195.04199 C 56.105469,195.32031 60.016602,193.94727 60.383301,198.69141 C 60.621582,201.77734 60.270019,204.88379 60.729004,207.95801 C 61.341308,212.06055 63.371582,215.85352 64.07959,219.98047 C 64.485351,222.34473 64.841797,224.08105 64.931152,225.45703 C 65.212891,226.11035 65.54541,226.98828 65.700195,227.45117 L 65.5,228.45117 L 65.399902,228.55078 C 64,229.95117 62.200195,230.65039 60.399902,231.55078 C 60.409179,231.5332 60.41748,231.51563 60.426758,231.49805 C 59.54834,231.95703 58.520019,232.45117 57.308105,233.00977 C 42.144531,240 32.405273,232.61914 18,228.45117 C 22.966309,235.90039 38.527832,241.57715 46.988281,241.2373 C 52.96875,240.99609 58.840332,239.75781 64.748047,238.90527 C 69.541992,238.21387 68.537598,238.98438 69.299805,243.05078 C 67.266113,243.83105 65.202148,244.52051 63.10791,245.12012 C 42.167969,251.11719 18.976074,247.9834 0,237.45117 C 6.1958008,248.1543 23.050293,253.22559 34.463379,255.02734 C 43.195801,256.40527 52.054688,256.99023 60.89209,256.73047 C 66.506348,256.56543 77.704102,252.46777 79.600098,260.05078 C 56.240723,264.76953 29.98584,263.58203 7.9999999,254.35156 C 10.572754,260.59473 23.873535,265.45703 29.782715,267.5293 C 37.861816,270.36426 46.933105,270.93359 55.424804,271.25098 C 74.561035,271.96582 93.664062,269.52539 112.7998,270.35156 C 107.48047,275.8584 95.455566,277.35645 88.290039,277.9502 C 79.941406,278.64258 71.562012,278.05957 63.200195,278.25 C 70.500488,282.88867 87.111328,283.18066 96.049316,283.12012 C 108.32275,283.03516 118.11279,277.85547 129.5,274.35156 C 129.44775,289.97363 129.39551,305.5957 129.38623,321.21777 C 129.38135,329.04004 129.38721,336.86328 129.40869,344.68555 C 129.41797,347.93262 128.23682,364.25 130.8999,364.25 C 133.5625,364.25 132.38184,347.93262 132.39111,344.68555 C 132.4126,336.86328 132.41846,329.04004 132.41357,321.21777 C 132.4043,305.5957 132.35205,289.97363 132.2998,274.35156 C 142.87061,278.24609 153.57275,283.7168 165.11475,283.10547 C 176.25244,282.5166 187.25439,280.58691 198.30029,279.15039 C 198.3335,278.85059 198.3667,278.5498 198.3999,278.25 C 182.01221,277.74414 163.51221,280.19629 149.19971,270.35156 C 169.55029,269.70703 189.88232,272.33887 210.22705,271.05469 C 219.46045,270.47168 228.80615,269.39258 237.25928,265.41797 C 242.32861,263.03418 251.17041,259.60352 253.80029,254.35156 C 231.18604,263.63379 206.09326,264.10742 182.1001,260.15039 C 184.396,252.49219 194.63623,256.51465 200.6001,256.66016 z M 223.1001,188.65039 L 222.8999,188.65039 L 223.1001,188.65039 z M 200.1001,211.75 C 200.00049,211.75 200.00049,211.95117 200.00049,211.95117 C 200.00049,211.95117 200.00049,211.75 200.1001,211.75 z M 194.8999,128.95068 C 194.8999,128.85107 194.8999,128.65088 194.80029,128.55078 C 194.8999,128.65088 194.8999,128.85107 194.8999,128.95068 z M 190.8999,112.05078 C 190.8999,111.85107 190.80029,111.65088 190.80029,111.45068 C 190.80029,111.65088 190.8999,111.85107 190.8999,112.05078 z M 189.8999,108.05078 C 189.80029,107.95068 189.80029,107.65088 189.69971,107.55078 C 189.80029,107.65088 189.80029,107.95068 189.8999,108.05078 z M 38.700195,188.65039 C 38.799805,188.65039 38.899902,188.65039 39,188.65039 C 38.899902,188.65039 38.799805,188.65039 38.700195,188.65039 z M 61.799805,211.65039 C 61.799805,211.75 61.899902,211.85156 61.899902,211.95117 C 61.899902,211.85156 61.799805,211.75 61.799805,211.65039 z M 66.899902,128.95068 C 66.899902,128.85107 66.899902,128.65088 67,128.55078 C 66.899902,128.65088 66.899902,128.85107 66.899902,128.95068 z M 68.899902,119.95068 C 68.899902,119.85107 69,119.55078 69,119.45068 C 69,119.55078 68.899902,119.85107 68.899902,119.95068 z M 69.899902,116.05078 C 69.899902,115.95068 70,115.65088 70,115.45068 C 70,115.65088 69.899902,115.95068 69.899902,116.05078 z M 70.899902,112.05078 C 70.899902,111.85107 71,111.65088 71,111.45068 C 71,111.65088 70.899902,111.85107 70.899902,112.05078 z M 71.899902,108.05078 C 72,107.95068 72,107.65088 72.100098,107.55078 C 72,107.65088 72,107.95068 71.899902,108.05078 z "
   style="fill:#00c300"
   id="path3293" />
			<path
   d="M 126.7998,39.650879 C 142.00049,37.550781 155.80029,47.550781 165.1001,58.550781 C 171.69971,65.050781 173.6001,74.250977 177.30029,82.351074 C 185.19971,101.25098 188.69971,121.45068 193.3999,141.25098 C 195.6001,158.45068 200.1001,175.75098 197.19971,193.15039 C 196.30029,210.75 192.00049,227.95117 187.00049,244.95117 C 184.30029,250.15039 181.00049,255.65039 175.50049,258.45117 C 164.00049,265.15039 150.3999,266.25 137.6001,268.55078 C 127.2998,270.45117 117,267.45117 106.8999,265.65039 C 94.5,263.15039 80.299805,258.45117 75.100098,245.55078 C 67.399902,222.35156 64.200195,197.85156 63.600098,173.45068 C 65.899902,149.35107 71.799805,125.75098 77.5,102.35107 C 81.299805,89.950684 86.200195,77.950684 91.200195,65.950684 C 99.5,53.550781 111.5,42.050781 126.7998,39.650879 L 126.7998,39.650879 z "
   style="fill:#00e000"
   id="path3295" />
			<circle
   cx="46.162109"
   cy="218.58789"
   r="17.088379"
   style="fill:#ff0000"
   id="circle3297" /> 
			<circle
   cx="43.162109"
   cy="172.08789"
   r="17.088379"
   style="fill:#ff0000"
   id="circle3299" /> 
			<circle
   cx="50.662109"
   cy="124.08789"
   r="17.088379"
   style="fill:#ff0000"
   id="circle3301" /> 
			<circle
   cx="63.662109"
   cy="78.087891"
   r="17.088379"
   style="fill:#ff0000"
   id="circle3303" /> 
			<circle
   cx="87.162109"
   cy="38.587891"
   r="17.088379"
   style="fill:#ff0000"
   id="circle3305" /> 
			<circle
   cx="130.66211"
   cy="17.087891"
   r="17.088379"
   style="fill:#ff0000"
   id="circle3307" /> 
			<circle
   cx="174.66211"
   cy="38.087891"
   r="17.088379"
   style="fill:#ff0000"
   id="circle3309" /> 
			<circle
   cx="197.66211"
   cy="78.087891"
   r="17.088379"
   style="fill:#ff0000"
   id="circle3311" /> 
			<circle
   cx="211.66211"
   cy="124.58789"
   r="17.088379"
   style="fill:#ff0000"
   id="circle3313" /> 
			<circle
   cx="218.16211"
   cy="171.58789"
   r="17.088379"
   style="fill:#ff0000"
   id="circle3315" /> 
			<circle
   cx="214.66211"
   cy="219.58789"
   r="17.088379"
   style="fill:#ff0000"
   id="circle3317" /> 
		</g>
	</svg>