<?xml version="1.0" encoding="UTF-8" standalone="no"?>
<!-- Created with Inkscape (http://www.inkscape.org/) -->
<svg
   xmlns:svg="http://www.w3.org/2000/svg"
   xmlns="http://www.w3.org/2000/svg"
   version="1.0"
   width="329.26416"
   height="662.6582"
   viewBox="0 0 329.26416 662.6582"
   id="svg6371"
   xml:space="preserve"><defs
   id="defs6400" />
	
		<g
   transform="matrix(0.9733791,0,0,0.9733791,4,17.640582)"
   id="Ebene_2">
			<path
   d="M 178.09131,474.22656 C 175.9624,475.69922 173.99756,477.17383 171.86865,478.64844 C 171.70361,478.64844 171.70361,478.64844 171.54053,478.64844 L 171.54053,478.48437 C 169.73877,445.73437 171.54053,412.6543 170.72217,379.74023 C 174.48779,382.52637 177.92627,385.80078 182.34814,387.43945 C 194.79443,384.49023 206.91064,379.57813 219.02881,375.15723 C 214.1167,375.32031 209.3667,375.64648 204.45459,375.97656 L 204.2915,375.97656 C 194.62939,376.79492 184.96729,376.46484 175.30713,374.82812 C 191.02686,362.05664 207.729,350.42773 223.94189,338.14648 C 223.94189,338.14648 224.10498,338.14648 224.10498,337.98437 C 226.23291,336.50977 228.36279,334.87109 230.4917,333.23437 C 230.65479,333.23437 230.65479,333.23437 230.81982,333.07129 C 232.94775,331.59668 234.91357,329.95898 237.0415,328.32227 C 237.20459,328.32227 237.36963,328.32227 237.36963,328.1582 C 251.61475,317.51465 266.68018,307.52637 280.10791,295.57275 L 278.96143,295.08105 L 278.79834,294.91797 C 277.97998,294.59033 276.34229,293.77148 275.52393,293.44336 L 275.35889,293.60742 C 273.06689,295.24512 270.77393,297.04639 268.48291,298.68408 C 268.31787,298.84766 268.31787,298.84766 268.15479,299.01172 C 266.02588,300.48535 263.896,302.12305 261.93213,303.59668 C 261.76807,303.76025 261.60498,303.76025 261.60498,303.92432 C 244.73877,316.20557 228.03564,328.97656 211.16943,341.42188 C 211.16943,341.42188 211.00439,341.42188 211.00439,341.58789 C 208.87646,343.05957 206.74756,344.69727 204.61963,346.33398 C 204.45459,346.33398 204.45459,346.33398 204.2915,346.5 C 202.1626,347.97266 200.03271,349.60938 198.06885,351.08398 C 197.90479,351.24707 197.74072,351.24707 197.74072,351.41309 C 188.89795,357.79688 180.21924,364.51367 171.05029,370.73438 C 170.55713,338.80273 171.05029,306.87158 170.72217,274.93994 C 174.48779,277.72412 177.92627,281.16211 182.34814,282.63672 C 188.24365,281.65381 193.81104,279.03369 199.5415,277.396 C 199.70654,277.396 199.86963,277.396 200.03271,277.23242 C 201.01611,277.06836 202.98193,276.41357 203.96338,276.08643 C 204.12646,276.08643 204.2915,276.08643 204.2915,276.08643 C 209.3667,274.77588 214.44385,272.97461 219.02881,270.35498 C 204.12646,270.84619 188.89795,272.97461 174.16064,269.86328 C 174.81592,269.37256 176.78174,267.73486 176.78174,267.5708 C 187.9165,258.56445 199.70654,250.54102 210.84131,241.69873 L 211.00439,241.53467 C 213.1333,239.89697 215.26318,238.25928 217.39111,236.62207 C 217.5542,236.62207 217.5542,236.45801 217.71924,236.45801 C 229.01709,227.77979 240.47998,219.26416 251.77979,210.58545 C 251.94287,210.58545 255.54541,207.80127 256.52783,206.81885 C 255.7085,206.16406 254.0708,204.854 253.25244,204.19873 L 253.08936,204.19873 C 244.73877,207.96533 238.18799,215.00635 230.81982,220.08301 C 230.81982,220.24658 230.65479,220.24658 230.65479,220.24658 C 228.52588,221.88428 226.39795,223.52197 224.26904,225.15918 C 224.10498,225.15918 224.10498,225.32324 223.94189,225.32324 C 210.51318,235.63916 196.75732,245.62842 183.33154,256.27246 C 183.33154,256.27246 183.1665,256.27246 183.1665,256.43604 C 179.07275,259.54736 175.14209,262.49463 170.88525,265.44238 C 170.72217,233.01904 171.05029,200.76025 170.72217,168.50098 C 172.68604,169.97461 174.48779,171.28516 176.45361,172.75879 C 176.45361,172.75879 176.6167,172.75879 176.6167,172.92236 C 179.07275,174.396 181.52881,176.68848 184.64111,176.03369 C 184.8042,176.03369 184.96729,176.03369 184.96729,176.03369 C 196.59424,173.08545 207.89404,168.66455 218.86475,164.0791 C 203.96338,165.06201 188.73486,166.04443 173.83252,163.42432 C 179.40088,158.67578 232.35303,118.10303 232.35303,118.10303 C 232.35303,118.10303 230.00049,114.95361 229.5083,114.13477 C 221.3208,120.68506 179.89111,152.12549 170.88525,159.00342 C 170.88525,128.21777 170.88525,97.59668 170.88525,66.974609 C 174.81592,69.594727 178.58154,72.37793 182.51123,75.162109 C 194.62939,71.232422 206.74756,67.138184 218.5376,62.389648 C 203.63525,63.371582 188.40674,64.027344 173.50635,61.897949 C 177.10791,58.786621 205.60107,38.481934 205.60107,38.481934 L 202.1626,34.060059 L 170.85303,55.936523 L 170.88525,0 L 165.97314,0 L 165.97314,0 C 165.64502,34.551758 165.80908,103.49072 165.80908,103.49072 L 129.78369,78.437012 C 129.78369,78.437012 128.31006,81.057129 127.65479,82.040039 C 139.11768,90.390625 150.4165,98.578613 161.55225,107.25781 C 147.79639,113.97168 132.23975,107.9126 117.66553,108.40332 C 129.45654,113.64404 141.73779,117.73779 154.01904,120.84863 C 158.11279,118.39258 162.04248,115.77246 165.97314,113.15283 C 165.80908,143.77393 166.13721,174.396 165.97314,205.01709 C 158.43994,199.94189 143.86572,189.13379 143.70264,189.13379 L 143.70264,189.13379 C 135.67725,183.07373 127.6543,177.01611 119.46729,171.28516 C 119.30322,171.12109 104.07471,160.8042 104.07471,160.8042 C 103.41943,161.62305 102.10889,163.26025 101.45459,164.24316 C 102.92822,165.38965 106.20264,167.84619 106.3667,168.00977 C 114.39111,173.9043 146.97705,197.97607 155.16455,203.70752 C 155.32861,203.70752 155.49268,203.87158 155.49268,203.87158 C 157.94873,205.50928 160.40479,207.31055 162.86182,208.94824 C 160.896,209.43896 159.09521,210.09375 157.29443,210.58545 C 157.13037,210.58545 156.96631,210.58545 156.96631,210.58545 C 147.79639,212.71387 138.4624,211.4043 129.29248,210.42139 C 129.12842,210.42139 129.12842,210.42139 128.96436,210.42139 C 126.18115,210.25781 120.61377,210.09375 117.82959,209.93018 C 129.45654,215.17041 141.90186,219.1001 154.18311,222.53906 C 158.43994,220.24658 162.04248,217.13574 165.97314,214.35156 C 165.97314,246.77393 165.97314,279.03369 165.97314,311.45654 C 157.78467,306.2168 97.36084,259.71143 81.149414,248.08447 C 80.166504,248.73975 78.529297,249.72217 77.710449,250.37695 L 78.365235,251.68652 C 79.02002,252.50537 80.657715,253.97998 81.312988,254.63477 C 81.476074,254.63477 81.640137,254.79883 81.640137,254.79883 C 83.769531,256.43604 85.897949,257.90967 88.19043,259.54736 L 88.354004,259.71143 C 110.46045,276.74121 133.05811,293.28027 155.16455,310.14648 C 155.32861,310.14648 155.32861,310.31055 155.49268,310.31055 C 157.62158,311.94824 159.91455,313.58545 162.04248,315.22314 L 162.69775,315.71387 L 162.04248,316.04199 C 148.61475,322.42725 133.55029,316.6958 119.63135,317.67773 L 118.64795,317.51465 C 129.78369,323.73828 142.55615,325.53906 154.18311,330.61523 C 157.94873,327.83203 161.38818,325.04688 164.99072,322.26416 C 165.15381,322.10107 165.15381,322.10107 165.31689,322.10107 L 165.31689,322.26416 C 166.62842,354.19531 165.97314,386.29102 165.80908,418.22266 C 158.11279,413.30957 58.714844,338.96484 58.714844,338.96484 L 56.422363,341.25879 C 68.867676,352.7207 154.8374,416.58496 156.96631,418.22266 C 156.96631,418.38477 157.13037,418.38477 157.13037,418.55176 C 158.76807,419.85938 160.2417,421.17188 161.71533,422.64551 C 154.8374,424.44629 147.79639,425.91992 140.75537,425.10156 C 140.75537,424.93555 140.59131,424.93555 140.42725,424.93555 C 132.89502,424.11719 125.36279,422.64551 117.66553,422.64551 C 127.49072,429.0293 139.44482,430.83301 150.08936,435.08984 C 156.4751,437.2168 161.06006,430.01367 166.13721,427.88477 C 165.80908,460.47266 166.13721,493.22266 165.97314,525.80859 C 155.49268,517.78516 144.84912,509.75977 134.20459,502.06445 C 134.20459,501.89844 134.04053,501.89844 133.87744,501.73633 C 131.74854,500.26172 129.78369,498.625 127.65479,497.15234 C 127.49072,496.98633 127.32666,496.98633 127.32666,496.98633 C 125.19873,495.34961 123.23291,493.71094 121.10498,492.24023 C 120.94092,492.07422 120.94092,492.07422 120.77686,492.07422 C 118.64795,490.43555 116.52002,488.79883 114.39111,487.32813 C 114.39111,487.16211 114.22705,487.16211 114.22705,487.16211 C 92.938965,471.44141 71.979004,455.23047 50.691406,439.83984 C 50.691406,439.67383 50.527344,439.67383 50.363281,439.67383 C 48.234863,438.03516 46.269531,436.39844 44.141113,434.92676 C 43.977051,434.76074 43.813477,434.76074 43.813477,434.76074 C 41.685059,433.12305 39.719727,431.48633 37.590821,429.84766 C 37.427246,429.84766 37.427246,429.84766 37.263184,429.68555 C 34.479981,427.55859 31.531739,425.5918 28.584473,423.46484 C 27.766114,424.11719 25.964356,425.10156 24.981934,425.5918 L 25.309571,426.90234 C 43.650391,441.31055 62.808594,455.06641 81.476074,468.98633 C 81.476074,469.14844 81.640137,469.14844 81.804199,469.14844 C 83.769531,470.78711 85.897949,472.42383 88.026367,473.89844 C 88.19043,474.06055 88.19043,474.06055 88.354004,474.06055 C 90.48291,475.69922 92.448242,477.33594 94.57666,478.81055 C 94.740235,478.97461 94.740235,478.97461 94.904297,478.97461 C 97.032715,480.61133 99.16211,482.24805 101.29053,483.72266 C 101.29053,483.88672 101.45459,483.88672 101.45459,483.88672 C 122.0874,499.2793 142.8833,514.50977 163.18897,530.39258 C 148.2876,534.16016 133.05811,530.39258 117.82959,530.88477 L 118.48486,531.21094 C 129.12842,536.12305 140.42725,539.72852 151.72705,542.67383 C 151.89014,542.83789 152.05322,542.83789 152.05322,542.83789 C 157.45752,542.67383 161.06006,537.92383 164.99072,535.14258 C 165.15381,534.97852 165.15381,534.97852 165.31689,534.97852 L 165.31689,535.14258 C 168.67236,592.18555 167.45166,635.49023 167.87061,662.30664 C 168.03369,662.30664 172.8501,662.32813 173.66943,662.6582 C 174.81592,604.85156 170.32666,547.35547 170.32666,489.55078 C 174.74854,491.67969 177.27197,495.18555 182.34814,496.16797 C 190.53564,494.5293 198.23193,490.92969 206.09229,488.79883 C 206.25635,488.63672 206.41943,488.63672 206.58252,488.63672 C 207.56592,488.31055 209.53174,487.6543 210.51318,487.49023 C 210.67627,487.32813 210.84131,487.32813 211.00439,487.32813 C 213.78857,486.3418 216.57275,484.87109 219.19189,483.39648 C 211.49561,483.72266 203.96338,484.87109 196.43115,485.68945 C 196.26709,485.68945 196.104,485.68945 196.104,485.68945 C 192.9917,485.85352 189.71631,485.85352 186.60596,485.68945 C 186.60596,485.68945 186.44189,485.68945 186.27881,485.68945 C 183.49463,485.36133 177.76318,484.54102 174.979,484.21484 C 176.94482,481.75977 179.23779,479.4668 181.85693,477.50195 C 223.12256,447.37109 263.56982,415.60352 305.16162,385.80078 L 305.16162,384.65234 C 303.03369,384.65234 301.88721,383.67188 302.05127,381.54102 L 300.90479,381.70703 L 178.09131,474.22656 z "
   style="fill:#00c400"
   id="path6376" />
		</g>
		<g
   transform="matrix(0.9733791,0,0,0.9733791,4,17.640582)"
   id="Ebene_3">
			<circle
   cx="14.598145"
   cy="417.57324"
   r="14.598145"
   style="fill:#ff0000"
   id="circle6379" /> 
			<circle
   cx="118.73145"
   cy="71.073242"
   r="14.598145"
   style="fill:#ff0000"
   id="circle6381" /> 
			<circle
   cx="92.455322"
   cy="156.72461"
   r="14.5979"
   style="fill:#ff0000"
   id="circle6383" /> 
			<circle
   cx="68.124268"
   cy="244.32373"
   r="14.5979"
   style="fill:#ff0000"
   id="circle6385" /> 
			<circle
   cx="49.633301"
   cy="330.94727"
   r="14.597656"
   style="fill:#ff0000"
   id="circle6387" /> 
			<path
   d="M 300.07178,377.00781 C 300.07178,385.07031 306.60791,391.60449 314.67236,391.60449 C 322.729,391.60449 329.26416,385.07031 329.26416,377.00781 C 329.26416,368.94531 322.729,362.40918 314.67236,362.40918 C 306.60791,362.40918 300.07178,368.94531 300.07178,377.00781 z "
   style="fill:#ff0000"
   id="path6389" />
			<circle
   cx="213.45508"
   cy="27.587402"
   r="14.599121"
   style="fill:#ff0000"
   id="circle6391" /> 
			<path
   d="M 226.10693,107.3999 C 226.10693,115.46289 232.64209,121.99707 240.70557,121.99707 C 248.77002,121.99707 255.29932,115.46289 255.29932,107.3999 C 255.29932,99.337402 248.77002,92.801269 240.70557,92.801269 C 232.64209,92.80127 226.10693,99.337402 226.10693,107.3999 z "
   style="fill:#ff0000"
   id="path6393" />
			<circle
   cx="264.06348"
   cy="200.83789"
   r="14.599121"
   style="fill:#ff0000"
   id="circle6395" /> 
			<path
   d="M 268.93018,290.38135 C 268.93018,298.44385 275.46631,304.97803 283.52881,304.97803 C 291.59326,304.97803 298.12256,298.44385 298.12256,290.38135 C 298.12256,282.31836 291.59326,275.78271 283.52881,275.78271 C 275.46631,275.78271 268.93018,282.31836 268.93018,290.38135 z "
   style="fill:#ff0000"
   id="path6397" />
		</g>
	</svg>