<?xml version="1.0" encoding="UTF-8" standalone="no"?>
<!-- Created with Inkscape (http://www.inkscape.org/) -->
<svg
   xmlns:svg="http://www.w3.org/2000/svg"
   xmlns="http://www.w3.org/2000/svg"
   version="1.0"
   width="200"
   height="651.39001"
   viewBox="0 0 161.53076 651.38672"
   id="svg3715"
   xml:space="preserve"><defs
   id="defs3788" />
	
		<g
   transform="matrix(0.9918047,0,0,0.9918047,2,5.3382759)"
   id="Ebene_3">
			<circle
   cx="79.958008"
   cy="14.807129"
   r="14.807129"
   style="fill:#fe0100"
   id="circle3720" /> 
			<circle
   cx="49.26709"
   cy="36.882812"
   r="14.807129"
   style="fill:#fe0100"
   id="circle3722" /> 
			<circle
   cx="142.95459"
   cy="204.33594"
   r="14.806641"
   style="fill:#fe0100"
   id="circle3724" /> 
			<circle
   cx="139.72412"
   cy="167.72266"
   r="14.806641"
   style="fill:#fe0100"
   id="circle3726" /> 
			<circle
   cx="135.95508"
   cy="134.87793"
   r="14.807129"
   style="fill:#fe0100"
   id="circle3728" /> 
			<circle
   cx="131.64746"
   cy="101.49512"
   r="14.807129"
   style="fill:#fe0100"
   id="circle3730" /> 
			<circle
   cx="124.64795"
   cy="69.727539"
   r="14.806641"
   style="fill:#fe0100"
   id="circle3732" /> 
			<circle
   cx="111.18701"
   cy="39.575195"
   r="14.806641"
   style="fill:#fe0100"
   id="circle3734" /> 
			<circle
   cx="18.037842"
   cy="238.7959"
   r="14.806885"
   style="fill:#fe0100"
   id="circle3736" /> 
			<circle
   cx="25.037354"
   cy="132.18604"
   r="14.806885"
   style="fill:#fe0100"
   id="circle3738" /> 
			<circle
   cx="21.268311"
   cy="165.03027"
   r="14.806885"
   style="fill:#fe0100"
   id="circle3740" /> 
			<circle
   cx="18.576172"
   cy="201.10547"
   r="14.807129"
   style="fill:#fe0100"
   id="circle3742" /> 
			<circle
   cx="29.883301"
   cy="99.879883"
   r="14.807129"
   style="fill:#fe0100"
   id="circle3744" /> 
			<circle
   cx="37.421387"
   cy="67.035156"
   r="14.807129"
   style="fill:#fe0100"
   id="circle3746" /> 
			<circle
   cx="146.72363"
   cy="389.01953"
   r="14.807129"
   style="fill:#fe0100"
   id="circle3748" /> 
			<circle
   cx="19.653076"
   cy="386.32715"
   r="14.806885"
   style="fill:#fe0100"
   id="circle3750" /> 
			<circle
   cx="146.18555"
   cy="351.3291"
   r="14.807129"
   style="fill:#fe0100"
   id="circle3752" /> 
			<circle
   cx="19.114502"
   cy="348.63672"
   r="14.806885"
   style="fill:#fe0100"
   id="circle3754" /> 
			<circle
   cx="145.1084"
   cy="314.71582"
   r="14.807129"
   style="fill:#fe0100"
   id="circle3756" /> 
			<circle
   cx="18.576172"
   cy="313.09961"
   r="14.807129"
   style="fill:#fe0100"
   id="circle3758" /> 
			<circle
   cx="145.1084"
   cy="278.10156"
   r="14.807129"
   style="fill:#fe0100"
   id="circle3760" /> 
			<circle
   cx="18.037842"
   cy="274.87109"
   r="14.806885"
   style="fill:#fe0100"
   id="circle3762" /> 
			<circle
   cx="144.57031"
   cy="240.94971"
   r="14.807129"
   style="fill:#fe0100"
   id="circle3764" /> 
			<circle
   cx="26.037354"
   cy="533.93555"
   r="14.806885"
   style="fill:#fe0100"
   id="circle3766" /> 
			<circle
   cx="20.19165"
   cy="498.32227"
   r="14.806885"
   style="fill:#fe0100"
   id="circle3768" /> 
			<circle
   cx="18.576172"
   cy="461.70801"
   r="14.807129"
   style="fill:#fe0100"
   id="circle3770" /> 
			<circle
   cx="146.18555"
   cy="463.8623"
   r="14.807129"
   style="fill:#fe0100"
   id="circle3772" /> 
			<circle
   cx="146.72363"
   cy="426.70996"
   r="14.807129"
   style="fill:#fe0100"
   id="circle3774" /> 
			<circle
   cx="19.653076"
   cy="424.55664"
   r="14.806885"
   style="fill:#fe0100"
   id="circle3776" /> 
			<circle
   cx="145.1084"
   cy="501.55273"
   r="14.807129"
   style="fill:#fe0100"
   id="circle3778" /> 
			<circle
   cx="138.64746"
   cy="537.62793"
   r="14.807129"
   style="fill:#fe0100"
   id="circle3780" /> 
		</g>
		<g
   transform="matrix(0.9918047,0,0,0.9918047,2,5.3382759)"
   id="Ebene_2">
			<path
   d="M 45.552246,3.1118164 L 46.090332,3.0039062 C 47.920898,4.0810546 49.536133,5.4804687 51.151367,6.7729492 C 51.151367,6.8808594 51.259277,6.8808594 51.259277,6.8808594 C 53.305176,8.7109375 55.458984,10.434082 57.504883,12.265137 C 57.612793,12.265137 57.612793,12.265137 57.612793,12.373047 C 59.766602,13.988281 61.8125,15.603516 63.858887,17.326172 C 63.966309,17.434082 64.074219,17.541992 64.074219,17.649414 C 66.335449,20.341797 68.381348,23.356934 71.073731,25.726074 C 79.042481,27.879883 88.303711,27.556641 93.903809,20.556641 C 97.888184,17.326172 102.0874,14.526856 105.96436,11.295899 C 106.07178,11.295899 106.07178,11.188477 106.18018,11.188477 C 108.22607,9.3574219 110.27197,7.4194336 112.53272,5.9116211 C 112.53272,5.8037109 112.53272,5.8037109 112.64111,5.8037109 C 114.14893,4.7270507 115.87256,3.7578125 117.48779,2.6811523 C 115.87256,4.8349609 114.25635,6.9887695 112.64111,9.0346679 L 112.53272,9.1425781 C 109.84326,12.353027 107.08252,15.563965 104.30811,18.774902 C 103.64014,19.54834 95.029785,29.698242 93.472168,32.618164 L 93.472168,32.618164 C 93.472168,32.725586 93.472168,32.725586 93.580567,32.725586 C 94.441895,34.44873 95.410645,36.063965 96.380371,37.679688 C 99.61084,42.525391 100.47217,50.602051 107.0415,52.217285 C 112.42627,54.585938 117.70166,51.786133 122.87061,50.602051 C 129.87158,51.570801 136.87061,52.324219 143.97803,53.078613 C 141.82471,53.509277 139.67041,53.939941 137.51709,54.263184 C 137.40869,54.263184 137.30127,54.263184 137.30127,54.263184 C 126.74854,55.232422 116.08643,55.663086 105.53369,55.986328 C 106.61084,60.078125 108.01025,63.955078 109.30225,67.938965 C 111.02588,72.246582 111.34912,77.523438 115.44092,80.323242 C 119.64014,84.523437 125.88721,83.338867 131.1626,84.092285 C 137.30127,86.569336 144.19385,88.29248 149.25537,92.707031 L 149.03955,92.707031 C 146.34717,92.384277 143.76221,91.953613 141.17822,91.199707 C 137.30127,90.122559 133.31689,89.153809 129.43994,88.18457 C 124.37842,86.89209 119.31689,85.922851 114.14893,84.846191 C 114.90283,89.26123 115.87256,93.676758 116.73291,98.091309 C 117.81006,103.15283 118.1333,109.50635 122.979,112.73682 C 126.96338,116.39844 132.45557,115.64453 137.40869,116.50586 C 138.80908,117.26025 140.2085,118.01367 141.60889,118.76758 L 141.71729,118.87549 C 146.34717,121.45996 150.97803,123.93652 155.39209,127.05957 C 152.16162,126.41357 149.03955,125.65918 146.0249,124.36768 C 146.0249,124.36768 145.9165,124.25977 145.80908,124.25977 C 141.71729,122.42871 137.30127,121.24414 132.88623,120.06006 C 130.73291,119.41357 128.47022,118.55176 126.31689,117.69043 C 126.20947,117.69043 126.10107,117.69043 126.10107,117.69043 C 125.45557,117.4751 124.271,117.04443 123.62451,116.93652 C 123.62451,116.93652 123.51709,116.82959 123.41064,116.82959 C 122.87061,116.72168 121.57959,116.39844 121.04053,116.18311 C 120.82568,119.84424 121.36377,123.39795 121.90186,126.95215 C 122.76318,132.65918 122.2251,138.79736 125.13232,143.96631 C 129.2251,149.13574 136.33252,147.84326 142.14697,148.16602 C 148.50147,150.53516 154.63916,153.55029 160.88525,156.24219 L 160.99268,156.78076 C 153.77686,155.48877 146.56299,154.19629 139.34717,152.47363 C 139.23975,152.47363 139.0249,152.47363 138.80908,152.36621 C 137.94775,152.15039 136.22412,151.50439 135.36279,151.18164 C 135.25537,151.18164 135.14697,151.18164 135.14697,151.18164 C 132.13232,150.31982 129.11768,149.88916 126.10107,149.4585 C 126.10107,152.36621 126.31689,155.48877 126.42529,158.396 C 126.85498,164.75 126.20947,171.64209 129.43994,177.45703 C 133.42529,180.58008 138.80908,180.47217 143.65479,181.44141 C 143.76221,181.44141 143.97803,181.44141 144.08545,181.54883 C 149.90088,184.88721 155.93115,188.01025 161.53076,191.88672 L 161.53076,192.96387 C 158.83838,191.88672 156.146,190.91797 153.56299,189.94873 C 153.45459,189.94873 153.45459,189.94873 153.34717,189.94873 C 150.54639,188.87207 147.74658,187.79492 144.94775,186.71826 C 144.83936,186.71826 144.83936,186.71826 144.73193,186.71826 C 139.45459,184.7793 134.39307,182.62598 129.00928,180.90332 C 129.33154,185.53369 129.76318,190.16406 130.08545,194.79492 C 130.51709,200.71777 129.979,206.74805 131.70166,212.56299 C 134.0708,217.62402 140.74756,216.97852 145.1626,218.9165 C 146.88623,219.99316 148.50147,221.07031 150.22412,222.14697 C 150.22412,222.25488 150.33154,222.25488 150.33154,222.25488 C 154.10107,225.05469 157.97705,227.74707 161.53076,230.76221 L 161.53076,231.73096 C 153.34717,227.74707 145.05518,223.7627 136.87061,219.77783 C 136.76318,219.77783 136.65576,219.67041 136.65576,219.67041 L 135.36279,219.13184 C 135.36279,219.13184 135.14697,219.02441 135.04053,219.02441 L 133.85498,218.48584 C 133.74756,218.48584 133.64014,218.37793 133.53174,218.37793 L 133.53174,218.37793 C 132.88623,222.36279 132.45557,226.45459 132.34815,230.43945 C 133.20947,237.33105 130.40967,245.19189 133.85498,251.54541 C 137.40869,253.5918 141.39307,254.45313 145.05518,255.85303 C 146.13135,256.3916 147.10107,257.0376 148.06982,257.68359 C 148.17822,257.68359 148.17822,257.7915 148.17822,257.7915 C 152.70068,260.91455 157.22314,263.92969 161.53076,267.26807 L 161.53076,268.23682 C 154.2085,264.7915 146.77783,261.45313 139.56299,257.68359 L 139.45459,257.68359 C 137.51709,256.71484 135.57861,255.85303 133.64014,254.9917 C 133.10205,258.97656 132.67041,262.96045 132.45557,267.05273 C 132.23975,273.08301 132.0249,279.11328 132.56299,285.03613 C 133.53174,290.85107 140.85498,290.31299 145.05518,292.4668 C 146.13135,293.00488 147.10107,293.65137 148.06982,294.29736 C 148.17822,294.29736 148.17822,294.40527 148.17822,294.40527 C 152.70068,297.52783 157.22315,300.54297 161.53076,303.88184 L 161.53076,304.85059 C 154.2085,301.40479 146.77783,298.06641 139.56299,294.29736 L 139.45459,294.29736 C 137.51709,293.32813 135.57861,292.35938 133.64014,291.49756 C 133.53174,294.51318 133.42529,300.54297 133.3169,303.45117 C 133.96338,310.66602 131.9165,318.41895 134.39307,325.41895 C 137.83936,326.81934 141.50147,327.78711 145.05518,329.08105 C 146.13135,329.61914 147.10107,330.26465 148.06982,330.91016 C 148.17822,330.91016 148.17822,330.91016 148.28565,330.91016 C 152.70068,333.81934 157.11572,336.51172 161.53076,339.41797 L 161.53076,341.35742 C 154.53076,337.37207 146.99268,334.24805 139.56299,330.91016 C 139.56299,330.91016 139.45459,330.91016 139.45459,330.80371 C 137.51709,329.94141 135.57861,328.97363 133.53174,328.11133 C 133.53174,331.12695 133.53174,337.26465 133.42529,340.28027 C 134.39307,347.1709 131.48682,355.13965 134.93213,361.38672 C 138.37842,363.43359 142.47022,364.29395 146.23877,365.69434 C 147.2085,366.23242 148.17822,366.87891 149.14697,367.63184 C 149.14697,367.63184 149.14697,367.63184 149.25537,367.74121 C 153.34717,370.8623 157.43897,374.09277 161.53076,377.32324 L 161.53076,379.04785 C 154.53076,375.38574 147.31592,371.93848 140.64014,367.63184 C 140.53174,367.63184 140.53174,367.63184 140.42432,367.63184 C 138.59326,366.55469 136.65576,365.58691 134.71729,364.61719 C 134.60889,369.03223 134.50147,373.33984 134.39307,377.75391 C 134.71729,385.07813 133.53174,392.61621 135.25537,399.83008 C 138.9165,401.01465 142.57861,402.09082 146.23877,403.38477 C 147.2085,403.92285 148.17822,404.56934 149.14697,405.32227 C 149.14697,405.32227 149.14697,405.32227 149.25537,405.43164 C 153.34717,408.55273 157.43897,411.7832 161.53076,415.01367 L 161.53076,416.73828 C 154.53076,413.07617 147.31592,409.62891 140.64014,405.32227 C 140.53174,405.32227 140.53174,405.32227 140.42432,405.32227 C 138.59326,404.24512 136.65576,403.27734 134.71729,402.30762 C 134.60889,406.72266 134.50147,411.03027 134.39307,415.44531 C 134.71729,422.76856 133.53174,430.30664 135.25537,437.52051 C 138.9165,438.70508 142.57861,439.78125 146.23877,441.0752 C 147.2085,441.61328 148.17822,442.25977 149.14697,443.0127 C 149.14697,443.0127 149.14697,443.0127 149.25537,443.12207 C 153.34717,446.24316 157.43897,449.47363 161.53076,452.7041 L 161.53076,454.42871 C 154.53076,450.7666 147.31592,447.31934 140.64014,443.0127 C 140.53174,443.0127 140.53174,443.0127 140.42432,443.0127 C 138.59326,441.93555 136.65576,440.96777 134.71729,439.99805 C 134.60889,444.41309 134.50147,448.7207 134.39307,453.13574 C 134.71729,460.45898 133.53174,467.99707 135.25537,475.21094 C 138.9165,476.39551 142.57861,477.47266 146.23877,478.76563 C 147.2085,479.30371 148.17822,479.9502 149.14697,480.5957 C 149.14697,480.70313 149.25537,480.70313 149.25537,480.70313 C 153.45459,484.15039 157.65479,487.59473 161.53076,491.36426 L 161.53076,492.54883 C 157.11572,489.96582 152.48584,487.70215 148.17822,485.11914 C 148.06982,485.11914 148.06982,485.00977 147.9624,485.00977 C 145.59326,483.50391 143.1167,481.99609 140.64014,480.70313 L 140.53174,480.5957 C 138.59326,479.62598 136.65576,478.6582 134.71729,477.68848 C 134.71729,480.8125 134.60889,486.8418 134.60889,489.85645 C 133.85498,496.6416 132.67041,503.42676 132.34814,510.20898 C 136.1167,512.58008 139.99365,514.62402 144.08545,516.34863 C 149.79346,520.97852 154.63916,526.5791 159.48584,532.17773 C 157.86963,531.20801 156.25439,530.13184 154.63916,529.16211 C 154.53076,529.16211 154.53076,529.16211 154.53076,529.05469 C 148.28564,525.07129 142.47022,520.43945 136.33252,516.23926 L 136.22412,516.13184 C 134.71729,515.16309 133.10205,514.30273 131.59424,513.44043 C 130.51709,517.74707 129.54736,522.16211 128.14795,526.46973 C 126.31689,531.31543 124.37842,536.16113 123.94873,541.33106 C 125.02588,544.34766 127.1792,546.93066 128.79443,549.62207 C 133.74756,557.26953 138.48682,565.02246 142.90088,572.99219 L 142.36279,572.99219 C 139.88623,571.26953 137.94775,569.00586 135.90186,566.85254 C 135.90186,566.74512 135.79346,566.74512 135.79346,566.6377 C 135.47022,566.20703 134.71729,565.4541 134.39307,565.02246 L 134.28662,564.91504 C 130.08545,560.06934 125.77881,555.43848 120.93213,551.23731 C 119.85596,553.82227 118.88721,556.51465 117.91748,559.20703 C 117.91748,559.31445 117.91748,559.31445 117.81006,559.42383 C 115.87256,564.80762 113.71826,570.08301 111.56397,575.36035 C 111.45654,575.46777 111.45654,575.57715 111.45654,575.57715 C 110.05615,578.59082 108.65674,581.60645 107.0415,584.62109 C 107.0415,584.62109 106.93311,584.73047 106.93311,584.83789 L 106.39502,585.69727 L 106.2876,585.91406 C 105.74951,586.77441 104.56494,588.49902 104.02686,589.35938 L 103.91846,589.4668 C 100.36475,593.55957 94.334473,594.85059 92.180176,600.23535 L 92.072754,600.34473 C 90.026856,604.00488 87.011231,606.91309 84.643067,610.3584 C 82.812012,623.92676 84.75,637.71094 85.181153,651.38672 L 81.842285,651.38672 C 81.519532,638.14258 82.919434,624.68164 80.765625,611.65234 C 78.396485,607.55859 75.381348,604.11426 72.796875,600.23535 L 72.688965,600.12793 C 65.581543,592.15918 58.905274,583.76074 55.458985,573.42285 C 55.458985,573.42285 55.458985,573.31348 55.458985,573.20606 C 52.76709,566.85254 50.290039,560.28418 47.920899,553.71582 C 47.920899,553.6084 47.812988,553.50098 47.812988,553.50098 C 47.598145,552.85352 47.167481,551.77637 46.95166,551.13086 C 46.95166,551.13086 46.95166,551.02344 46.95166,550.91602 C 46.305664,549.19336 45.65918,547.46875 45.013672,545.63867 C 43.721192,547.04004 42.536621,548.33105 41.244629,549.73145 C 41.244629,549.73145 41.136719,549.83887 41.136719,549.94629 C 40.813477,550.27051 40.060059,551.13086 39.629395,551.4541 C 39.629395,551.56152 39.521484,551.56152 39.521484,551.66895 C 34.783691,556.73145 29.82959,561.79199 25.198731,566.96191 C 25.091797,567.06934 25.091797,567.06934 24.983887,567.17676 C 24.553223,567.5 23.799316,568.25293 23.368652,568.68457 L 23.260742,568.79199 C 22.614258,569.33008 21.214844,570.40723 20.568359,570.94531 C 21.968262,568.03906 23.476074,565.23731 25.306641,562.54492 C 25.306641,562.4375 25.306641,562.33008 25.414551,562.33008 C 25.845215,561.57715 26.813965,560.17676 27.352539,559.53125 C 27.352539,559.42383 27.460449,559.31445 27.460449,559.31445 C 28.86084,557.16016 30.260254,555.00684 31.660156,552.85352 C 31.660156,552.85352 31.660156,552.74609 31.768066,552.74609 C 33.060547,550.48438 34.352051,548.22363 35.644531,545.85352 C 38.659668,540.46875 42.213867,534.33203 39.521484,528.08496 C 39.521484,527.97754 39.521484,527.97754 39.521484,527.87012 L 39.198242,526.90137 C 38.552246,524.42578 37.79834,522.05469 37.260254,519.5791 C 37.152344,519.46973 37.152344,519.36328 37.152344,519.36328 C 36.505859,516.02539 35.752441,512.79395 34.890625,509.56348 C 32.414062,509.77832 30.476074,511.50293 28.537109,512.90137 L 28.429687,513.00879 C 22.506836,517.42578 16.368652,521.62402 10.338379,525.93164 L 10.230469,526.04102 C 8.1845701,527.33203 6.0307615,528.62305 3.8769529,529.80957 C 4.1997068,529.16211 4.8461912,528.08496 5.2768552,527.54688 C 8.8305661,524.53223 11.941894,521.7041 15.291992,517.85449 C 16.351562,516.63672 18.561523,514.6875 19.530761,513.50098 C 25.238281,511.99512 30.152832,509.77832 32.736816,504.17969 C 33.813965,499.87207 32.844726,495.45703 32.414062,491.04199 C 32.306152,485.22656 32.19873,479.30371 32.19873,473.38086 C 30.260254,474.35059 28.322265,475.31836 26.383301,476.28809 L 26.275879,476.39551 C 23.799316,477.68848 21.322754,479.19727 18.953125,480.70313 C 18.845215,480.70313 18.845215,480.8125 18.737793,480.8125 C 13.138183,484.36426 7.2153318,487.38086 0.969238,489.85645 C 3.984863,487.16406 6.9999997,484.47168 10.122558,481.7793 L 10.230469,481.67188 C 12.492187,479.84277 14.753418,477.90332 17.33789,476.39551 C 22.506836,474.45801 29.291504,473.48828 31.768066,467.78027 C 32.736816,462.93457 32.736816,458.08887 32.521972,453.24219 C 32.414062,447.42871 32.306152,441.61328 32.19873,435.69043 C 30.260254,436.66016 28.322265,437.62793 26.383301,438.59766 L 26.275879,438.70508 C 23.799316,439.99805 21.429687,441.50684 18.953125,443.0127 L 18.845215,443.12207 C 16.15332,444.62793 13.568847,446.13574 10.984375,447.64356 C 10.876465,447.64356 10.769043,447.75098 10.769043,447.75098 L 9.9077146,448.18164 C 9.7998044,448.18164 9.6918943,448.28906 9.6918943,448.28906 C 7.4306638,449.58301 5.0615232,450.55078 2.6923826,451.51953 C 2.6923826,451.62695 2.5844724,451.62695 2.5844724,451.62695 L 1.7231443,451.95117 C 1.5078123,447.8584 7.8618162,446.89063 10.122558,444.08887 C 10.122558,444.08887 10.122558,443.98145 10.230469,443.98145 C 12.599609,442.25977 14.861328,440.32031 17.22998,438.59766 C 22.506836,436.76758 29.291504,435.79785 31.768066,430.08984 C 32.736816,425.24414 32.736816,420.39844 32.521972,415.55176 C 32.414062,409.73828 32.306152,403.92285 32.198731,398 C 30.260254,398.96973 28.322266,399.9375 26.383301,400.90723 L 26.275879,401.01465 C 23.799316,402.30762 21.429688,403.81543 18.953125,405.32227 L 18.845215,405.43164 C 16.15332,406.9375 13.568848,408.44531 10.984375,409.95313 C 10.876465,409.95313 10.769043,410.06055 10.769043,410.06055 L 9.9077149,410.49121 C 9.7998047,410.49121 9.6918946,410.59863 9.6918946,410.59863 C 7.4306641,411.89258 5.0615235,412.86035 2.6923829,413.8291 C 2.6923829,413.93652 2.5844727,413.93652 2.5844727,413.93652 L 1.7231446,414.26074 C 1.5078126,410.16797 7.8618165,409.2002 10.122559,406.39844 C 10.122559,406.39844 10.122559,406.29102 10.230469,406.29102 C 12.59961,404.56934 14.861328,402.62988 17.229981,400.90723 C 22.076172,398.96973 29.398926,398.64648 31.01416,392.61621 C 31.337403,387.33887 31.337403,382.06152 31.337403,376.78516 C 31.337403,371.40039 31.337403,366.01563 31.337403,360.63184 C 29.614258,361.49414 27.999024,362.35645 26.383301,363.2168 L 26.275879,363.32422 C 23.799317,364.72461 21.429688,366.23242 18.953125,367.63184 L 18.845215,367.74121 C 16.15332,369.24707 13.568848,370.75488 10.984375,372.2627 C 10.876465,372.2627 10.769043,372.37012 10.769043,372.37012 L 9.907715,372.80078 C 9.7998048,372.80078 9.7998048,372.9082 9.6918947,372.9082 C 7.4306642,374.20215 5.0615236,375.16992 2.692383,376.13867 C 2.692383,376.24609 2.5844728,376.24609 2.5844728,376.24609 L 1.7231447,376.57031 C 1.5078127,372.47754 7.8618166,371.50977 10.122559,368.70801 C 10.122559,368.70801 10.122559,368.60059 10.230469,368.60059 C 12.59961,366.87891 14.861328,364.93945 17.229981,363.2168 C 22.076172,361.2793 29.398926,360.95606 31.01416,354.92578 C 31.337403,349.64844 31.337403,344.37109 31.337403,339.09473 C 31.337403,333.92676 31.229492,328.86426 31.121582,323.80371 C 29.183594,324.66504 27.245118,325.63477 25.306641,326.60352 L 25.198731,326.71094 C 22.722168,328.11133 20.353028,329.61914 17.876465,331.01758 C 17.768555,331.01758 17.768555,331.01758 17.768555,331.01758 C 15.506836,332.31152 13.246094,333.3877 10.876465,334.57227 C 10.876465,334.57227 10.769043,334.57227 10.769043,334.67969 L 9.9077151,335.11035 C 9.7998049,335.11035 9.6918948,335.11035 9.6918948,335.21777 C 7.4306643,336.40234 5.1694339,337.47852 2.9077151,338.66504 C 2.9077151,338.77246 2.8002932,338.77246 2.8002932,338.77246 C 2.1538086,339.2041 0.7543945,339.95703 0,340.3877 L 0,339.31055 C 2.800293,336.61914 5.9228516,334.35742 9.0458984,332.09473 C 9.0458984,331.9873 9.1538086,331.9873 9.1538086,331.9873 C 11.522949,330.15723 13.784668,328.3252 16.15332,326.60352 C 21.429688,324.77246 28.214355,323.80371 30.690918,318.09668 C 31.660156,313.25 31.552734,308.4043 31.444824,303.55859 C 31.337402,298.17432 31.337402,292.68213 31.121582,287.18994 C 29.183594,288.05176 27.245117,289.021 25.306641,289.98975 L 25.19873,290.09766 C 22.722168,291.49756 20.353027,293.00488 17.876465,294.29736 C 17.768555,294.29736 17.768555,294.40527 17.660645,294.40527 C 15.076172,295.69727 12.492188,296.77393 9.9077148,297.9585 C 9.7998046,298.06641 9.6918945,298.06641 9.6918945,298.06641 L 8.8305664,298.49707 C 8.7231445,298.49707 8.6152344,298.60498 8.6152344,298.60498 C 6.1386719,299.68164 3.769043,300.75879 1.2924805,301.94336 C 1.2924805,301.94336 1.1850586,302.05127 1.0771485,302.05127 L 0,302.58936 L 0,300.65088 C 3.015625,298.92773 6.0307617,297.09766 9.0458984,295.37451 L 9.1538086,295.2666 C 11.522949,293.65137 13.784668,291.71289 16.26123,289.98975 C 21.429687,288.15918 28.214355,287.18994 30.690918,281.48291 C 31.660156,276.63672 31.552734,271.79102 31.444824,266.94482 C 31.337402,261.56055 31.337402,256.06836 31.121582,250.57617 C 29.183594,251.43848 27.245117,252.40723 25.306641,253.37646 L 25.19873,253.48438 C 22.722168,254.88379 20.353027,256.3916 17.876465,257.68359 C 17.768555,257.68359 17.768555,257.7915 17.660645,257.7915 C 15.076172,259.0835 12.492188,260.16064 9.9077148,261.34521 C 9.7998046,261.45313 9.6918945,261.45313 9.6918945,261.45313 L 8.8305664,261.88379 C 8.7231445,261.88379 8.6152344,261.99121 8.6152344,261.99121 C 6.1386719,263.06836 3.769043,264.14502 1.2924805,265.32959 C 1.2924805,265.32959 1.1850586,265.4375 1.0771485,265.4375 L 0,265.97607 L 0,264.03711 C 3.015625,262.31396 6.0307617,260.48389 9.0458984,258.76074 L 9.1538086,258.65283 C 11.522949,257.0376 13.784668,255.09961 16.26123,253.37646 C 21.429687,251.54541 28.106445,250.57617 30.798828,244.86914 C 31.229492,240.02344 31.229492,235.17725 31.337402,230.33154 C 31.337402,224.83936 31.660156,219.45508 32.091309,213.96289 C 24.553223,217.30127 17.22998,221.07031 9.9077148,224.73145 C 9.7998046,224.73145 9.6918945,224.83936 9.6918945,224.83936 L 8.8305664,225.27002 C 8.7231445,225.27002 8.6152344,225.37793 8.6152344,225.37793 C 6.1386719,226.5625 3.769043,227.63916 1.2924805,228.71631 C 1.2924805,228.71631 1.1850586,228.82373 1.0771485,228.82373 L 0,229.3623 L 0,227.53125 C 5.3847656,224.08545 10.446289,220.31641 15.506836,216.65479 C 20.460938,215.03955 26.383301,214.93164 29.9375,210.73242 C 33.490723,206.74805 32.952637,200.93262 33.490723,195.97949 C 33.813965,189.84082 34.137207,183.81055 34.459961,177.67285 C 32.091309,178.42627 29.82959,179.28809 27.568359,180.14941 C 27.460449,180.14941 27.352539,180.25684 27.352539,180.25684 C 24.553223,181.33398 21.753418,182.41064 18.953125,183.4873 C 18.845215,183.4873 18.845215,183.4873 18.737793,183.4873 C 12.492188,185.85645 6.1386719,188.01025 0,190.59521 L 0,188.87207 C 2.6923828,187.47168 5.3847656,186.07178 7.96875,184.67236 C 7.96875,184.56445 8.0766602,184.56445 8.0766602,184.56445 C 9.9077149,183.4873 11.630859,182.41064 13.460938,181.33398 C 13.460938,181.33398 13.460938,181.33398 13.568848,181.22607 C 14.861328,180.47217 16.15332,179.82617 17.445801,179.18018 C 23.152832,178.31836 30.368164,177.99561 34.137207,172.93408 C 36.398926,168.41113 35.752441,163.13477 36.613769,158.396 C 36.937012,154.3042 37.367676,150.42725 37.367676,146.33545 C 33.383301,146.98193 29.398926,147.95068 25.414551,149.02783 C 25.306641,149.02783 25.306641,149.02783 25.19873,149.02783 C 23.583496,149.4585 21.968262,149.88916 20.245605,150.31982 L 19.383789,150.53516 C 13.138184,152.04297 6.8920898,153.44287 0.5385742,154.52002 L 0.6464844,153.87354 C 6.8920899,151.07373 13.138184,148.05859 19.599609,145.68945 C 25.629883,146.33545 32.19873,145.68945 36.82959,141.27393 C 40.167969,136.9668 39.306152,131.15137 40.060059,125.98291 C 40.598633,121.67529 41.459473,117.4751 41.998047,113.16748 C 38.229004,114.24463 34.567871,115.53711 30.906738,116.82959 C 30.798828,116.82959 30.690918,116.82959 30.690918,116.82959 C 29.9375,117.04443 28.537109,117.4751 27.891113,117.69043 C 23.906738,118.76758 20.030274,120.06006 16.261231,121.67529 C 13.030274,122.96729 9.5844728,123.93652 6.138672,124.79834 C 7.7539064,123.50586 9.4770509,122.21387 11.199707,121.0293 L 11.307129,120.92139 C 15.722656,118.229 20.353027,116.18311 24.983887,114.24463 C 35.321778,115.53711 44.905762,107.46045 44.79834,97.014648 C 45.552246,92.061523 47.598145,87.215332 46.736328,82.153809 L 45.76709,82.369629 C 45.76709,82.369629 45.65918,82.369629 45.552246,82.369629 C 44.58252,82.584473 42.536621,83.015137 41.567383,83.230957 C 41.459473,83.230957 41.352051,83.230957 41.352051,83.338867 C 40.274903,83.553711 38.336914,84.092285 37.260254,84.307617 L 37.044434,84.415527 C 36.075195,84.630371 34.245117,85.168945 33.383301,85.384766 C 33.275391,85.384766 32.952637,85.492188 32.844727,85.492188 C 28.86084,86.246094 24.875977,87.430664 20.999024,88.615234 L 20.891602,88.723145 L 19.922363,88.937988 C 17.122559,89.584473 14.322754,90.014649 11.522949,90.338379 C 14.645996,88.615234 17.768555,87 20.891602,85.384766 L 20.999023,85.384766 C 24.337402,83.984863 27.675781,82.476563 31.121582,81.399902 C 35.967773,81.615723 41.352051,82.153809 45.229004,78.492676 C 50.828613,76.338867 50.182617,69.554199 52.228516,64.923828 C 52.228516,64.816406 52.336426,64.708496 52.336426,64.601074 C 53.628418,61.047363 54.705078,57.385742 55.674805,53.724609 C 43.075195,52.217285 30.368164,52.647949 17.768555,51.140137 C 22.614258,49.740234 27.675781,48.878906 32.844727,48.770996 L 32.952637,48.770996 C 35.213867,48.555664 37.583008,48.448242 39.844238,48.448242 C 45.65918,49.847656 52.65918,52.324219 57.936035,48.125 C 61.166504,44.140625 63.104981,39.401855 65.366699,34.987305 C 65.366699,34.879394 65.474121,34.664062 65.581543,34.556152 C 66.227539,33.37207 67.089356,32.294922 67.735352,31.110352 C 66.981934,29.817871 66.120117,28.633301 65.258789,27.449219 C 65.258789,27.341309 65.150879,27.341309 65.150879,27.341309 C 63.104981,24.756836 60.843262,22.279785 58.689453,19.803223 C 58.689453,19.695312 58.689453,19.695312 58.582031,19.695312 C 54.705078,15.064941 50.613281,10.541992 46.95166,5.696289 C 46.95166,5.696289 46.95166,5.5883788 46.844238,5.5883788 C 46.520996,4.9423828 45.875,3.6503906 45.552246,3.1118164 L 45.552246,3.1118164 z "
   style="fill:#00c300"
   id="path3783" />
			<path
   d="M 65.904785,37.786621 C 69.458496,33.048828 73.765625,26.479492 80.873535,27.771973 C 84.96582,27.771973 88.303711,31.002441 90.888184,33.910156 C 104.02686,51.355469 108.65674,73.216309 113.71826,93.999512 C 123.30225,141.16602 128.57861,189.19482 130.73291,237.33105 C 132.77783,251.11475 129.2251,265.11426 131.05518,278.89844 C 132.23975,289.45166 129.87158,300.00488 130.62451,310.55859 C 132.23975,324.3418 130.51709,338.3418 132.13232,352.12598 C 133.53174,364.61719 130.30127,377.21582 132.13232,389.81641 C 133.64014,402.30762 130.30127,414.90625 132.13232,427.50684 C 133.31689,437.52051 131.48682,447.42871 131.59424,457.44238 C 132.56299,473.05762 133.74756,488.99609 130.94678,504.61035 C 126.10107,529.05469 118.88721,553.17676 108.76416,576.00586 C 105.74951,582.25293 102.84131,589.79102 95.841309,592.375 C 91.104004,596.35938 88.412109,602.28223 84.75,607.23535 C 79.365723,608.52832 77.104004,601.95996 74.412109,598.62012 C 72.04248,593.12891 65.904785,590.97461 63.643555,585.59082 C 58.905273,576.97559 55.566894,567.60742 52.013184,558.4541 C 44.151855,536.91699 36.613769,514.94824 34.675781,491.90234 C 34.029297,439.56738 34.890625,387.23145 34.245117,334.89648 C 32.736816,317.98828 33.598633,301.08154 33.383301,284.1748 C 33.598633,257.57617 32.629883,230.97754 34.675781,204.48633 C 37.475586,163.88818 40.813477,122.96729 49.966797,83.123047 C 53.413086,67.508301 57.612793,51.678711 65.904785,37.786621 L 65.904785,37.786621 z "
   style="fill:#00e000"
   id="path3785" />
		</g>
	</svg>