<?xml version="1.0" encoding="UTF-8" standalone="no"?>
<!-- Created with Inkscape (http://www.inkscape.org/) -->
<svg
   xmlns:svg="http://www.w3.org/2000/svg"
   xmlns="http://www.w3.org/2000/svg"
   version="1.0"
   width="255"
   height="813"
   viewBox="0 0 238.11035 812.99902"
   id="svg2578"
   xml:space="preserve"><defs
   id="defs2679" />
	
		<g
   id="Ebene_2">
			<path
   d="M 117.19141,0 C 118.27734,0 120.17773,0 121.2627,0 C 121.39844,39.90332 121.12695,79.806641 121.39844,119.70996 C 134.83594,108.58105 146.2373,95.144531 159.94531,84.286133 L 159.94531,85.643555 C 148.54297,99.758789 133.07129,110.75293 120.44824,124.05371 C 126.28516,124.59668 132.12109,125.00391 137.95703,125.41113 C 132.52832,127.31104 127.09863,128.93994 121.39844,130.16113 C 121.12695,179.56543 121.2627,228.96973 121.39844,278.375 C 137.5498,264.53027 152.34473,249.05762 168.08887,234.67041 C 164.83008,229.91992 161.8457,224.89795 158.85937,219.87646 C 163.06641,223.13379 167.27441,226.25537 171.48145,229.51318 C 171.48145,223.40576 171.48145,217.29785 171.48145,211.19043 C 165.78125,210.78271 160.2168,209.96826 154.65137,208.61084 C 160.2168,208.2041 165.78125,207.79688 171.34668,207.52539 C 171.48145,199.10986 170.66797,190.69531 171.75293,182.28027 L 172.83887,181.7373 C 172.83887,190.28809 172.83887,198.97461 172.83887,207.52539 C 176.77539,207.66113 184.37598,208.2041 188.17578,208.47559 C 183.29004,210.104 178.13281,211.3252 172.97461,212.41162 C 172.97461,217.97656 172.83887,223.67676 172.7041,229.37744 C 183.01855,219.46875 193.19824,209.69727 203.37695,199.78857 L 203.37695,201.146 C 195.2334,212.00391 184.37598,220.55518 175.14648,230.46289 C 181.11816,230.59863 187.08984,230.73486 193.0625,230.73486 C 193.0625,225.44141 194.55469,220.28369 196.31934,215.26221 C 196.59082,219.06201 197.13477,226.79883 197.40527,230.73486 C 206.22852,230.73486 215.04883,230.73486 223.87109,230.59863 C 223.73633,231.00586 223.60156,231.95605 223.60156,232.36279 C 214.7793,232.22754 206.0918,232.0918 197.40527,232.0918 C 197.26953,235.89209 196.8623,243.62891 196.59082,247.42871 C 194.82715,242.67822 193.19824,237.65674 193.0625,232.36279 C 187.22559,232.77051 181.38965,233.17773 175.55371,233.58496 C 178.26758,237.38525 180.84766,241.18506 183.42578,244.98584 C 178.6748,242.40723 174.19629,239.4209 170.12402,235.75635 C 153.97363,251.77246 136.87109,266.97314 120.44824,282.98926 C 126.28516,283.396 132.12109,283.80371 137.95703,284.21094 C 132.52832,286.11084 127.09863,287.73975 121.39844,288.96094 C 121.12695,338.36523 121.2627,387.76953 121.39844,437.1748 C 137.5498,423.3291 152.34473,407.85742 168.08887,393.4707 C 164.83008,388.71973 161.8457,383.69824 158.85937,378.67676 C 163.06641,381.93359 167.27441,385.05469 171.48145,388.31348 C 171.48145,382.20508 171.48145,376.09766 171.48145,369.99023 C 165.78125,369.58203 160.2168,368.76758 154.65137,367.41113 C 158.31641,367.00391 165.64551,366.3252 169.31055,365.91797 C 163.74512,359.13184 158.0459,352.61621 152.48047,345.96582 C 152.88672,345.55957 153.97363,344.74512 154.51562,344.33691 C 159.80957,351.12305 165.23828,357.77441 170.93848,364.15332 C 171.20996,356.41699 170.93848,348.68066 171.75293,341.08008 L 172.83887,340.53711 C 172.83887,349.08789 172.83887,357.63867 172.83887,366.3252 C 176.77539,366.46094 184.37598,367.00391 188.17578,367.27539 C 183.29004,368.90332 178.13281,370.125 172.97461,371.21094 C 172.97461,376.77637 172.83887,382.47656 172.7041,388.17676 C 184.91895,376.64063 196.8623,364.83203 208.94141,353.15918 L 208.80664,354.5166 C 198.89844,367.27539 186.13965,377.45508 175.14648,389.2627 C 181.11816,389.39844 187.08984,389.53418 193.0625,389.53418 C 193.0625,384.24121 194.55469,379.08301 196.31934,374.06152 C 196.59082,377.8623 197.13477,385.59863 197.40527,389.53418 C 206.22852,389.53418 215.04883,389.53418 223.87109,389.39844 C 223.73633,389.80566 223.60156,390.75586 223.60156,391.16309 C 215.59277,391.02734 207.58398,391.02734 199.71289,391.16309 C 205.82031,396.32031 212.06445,401.47852 218.30762,406.63574 C 218.17188,407.58594 218.17188,409.21484 218.03516,410.16406 C 211.38574,403.92188 204.46289,398.08496 197.54102,392.11328 C 197.26953,395.6416 196.72656,402.83496 196.45605,406.36426 C 194.82715,401.47852 193.19824,396.45703 193.0625,391.16309 C 187.22559,391.57031 181.38965,391.97754 175.55371,392.38477 C 178.26758,396.18457 180.84766,399.98535 183.42578,403.78613 C 178.6748,401.20703 174.19629,398.2207 170.12402,394.55566 C 153.97363,410.57227 136.87109,425.77344 120.44824,441.78809 C 126.28516,442.06055 132.12109,442.60449 137.95703,443.00977 C 132.52832,444.91016 127.09863,446.53809 121.39844,447.75977 C 121.12695,497.16504 121.2627,546.57031 121.39844,595.97461 C 137.5498,582.12891 152.34473,566.65625 168.08887,552.26953 C 164.83008,547.51855 161.8457,542.49805 158.85938,537.47461 C 163.06641,540.59766 167.27441,543.85547 171.48145,547.11328 C 171.48145,541.00586 171.48145,534.89844 171.48145,528.79004 C 165.78125,528.38184 160.2168,527.56836 154.65137,526.21094 C 158.31641,525.80273 165.64551,525.12402 169.31055,524.71875 C 163.74512,517.93262 158.0459,511.41602 152.48047,504.76563 C 152.88672,504.35938 153.97363,503.54297 154.51563,503.1377 C 159.80957,509.92383 165.23828,516.5752 170.93848,522.95313 C 171.20996,515.21777 170.93848,507.47949 171.75293,499.87988 L 172.7041,499.33594 C 172.83887,507.20898 172.97461,514.94434 173.11035,522.81738 C 178.6748,516.4375 184.24023,509.92383 189.66992,503.27246 C 190.21191,503.54297 191.43359,504.08691 191.97754,504.35938 C 185.86914,511.14551 180.03223,518.06738 174.06055,524.98926 C 177.58984,525.25977 184.78223,525.93848 188.3125,526.21094 C 183.29004,527.70313 178.13281,528.79004 172.97461,530.00977 C 172.83887,535.57715 172.83887,541.27637 172.7041,546.97559 C 186.41113,534.21973 199.44043,520.78223 212.87793,507.8877 L 212.87793,509.24512 C 201.88477,523.36133 187.3623,534.75977 175.28125,548.0625 C 181.11816,548.19727 187.08984,548.33301 193.0625,548.33301 C 193.0625,543.04199 194.55469,537.88281 196.31934,532.8623 C 196.59082,536.39063 197.13477,543.44727 197.54102,546.97559 C 204.32813,541.00586 211.24902,535.0332 218.17188,529.06055 C 218.44336,529.73926 218.85059,531.09668 218.98633,531.77539 C 212.47168,537.06934 205.95703,542.49805 199.57715,548.0625 C 207.58398,548.0625 215.72754,548.19727 223.87109,548.19727 C 223.73633,548.60547 223.60156,549.55469 223.60156,549.96289 C 215.59277,549.82813 207.58398,549.82813 199.71289,549.96289 C 205.82031,555.11914 212.06445,560.27734 218.30762,565.43652 C 218.17188,566.38574 218.17188,568.0127 218.03516,568.96484 C 211.38574,562.72168 204.46289,556.74902 197.54102,550.91211 C 197.26953,554.44043 196.72656,561.63477 196.45605,565.16309 C 194.82715,560.27734 193.19824,555.25684 193.0625,549.96289 C 187.22559,550.36914 181.38965,550.77734 175.55371,551.18555 C 178.26758,554.98438 180.84766,558.78516 183.42578,562.58398 C 178.6748,560.00781 174.19629,557.01953 170.12402,553.35645 C 153.97363,569.37012 136.87109,584.57324 120.44824,600.58789 C 126.28516,600.86035 132.12109,601.4043 137.95703,601.80957 C 132.52832,603.70996 127.09863,605.33789 121.39844,606.55957 C 121.12695,655.96484 121.2627,705.37012 121.39844,754.77441 C 137.5498,740.92871 152.34473,725.45605 168.08887,711.06934 C 164.83008,706.31836 161.8457,701.29785 158.85938,696.27441 C 163.06641,699.39746 167.27441,702.65527 171.48145,705.91309 C 171.48145,699.80566 171.48145,693.69824 171.48145,687.58984 C 165.78125,687.18164 160.2168,686.36816 154.65137,685.01074 C 158.31641,684.60254 165.64551,683.92383 169.31055,683.51855 C 163.74512,676.73242 158.0459,670.21582 152.48047,663.56543 C 152.88672,663.15918 153.97363,662.34277 154.51563,661.9375 C 159.80957,668.72363 165.23828,675.375 170.93848,681.75293 C 171.20996,674.01758 170.93848,666.2793 171.75293,658.67969 L 172.7041,658.13574 C 172.83887,666.00879 172.97461,673.74414 173.11035,681.61719 C 178.6748,675.2373 184.24023,668.72363 189.66992,662.07227 C 190.21191,662.34277 191.43359,662.88672 191.97754,663.15918 C 185.86914,669.94531 180.03223,676.86719 174.06055,683.78906 C 177.58984,684.05957 184.78223,684.7373 188.3125,685.01074 C 183.29004,686.50293 178.13281,687.58984 172.97461,688.80957 C 172.83887,694.37598 172.83887,700.07617 172.7041,705.77539 C 186.41113,693.01953 199.44043,679.58203 212.87793,666.6875 L 212.87793,668.04492 C 201.88477,682.16113 187.3623,693.55957 175.28125,706.8623 C 181.11816,706.99707 187.08984,707.13281 193.0625,707.13281 C 193.0625,701.8418 194.55469,696.68262 196.31934,691.66211 C 196.59082,695.19043 197.13477,702.24707 197.54102,705.77539 C 204.32813,699.80566 211.24902,693.83301 218.17188,687.86035 C 218.44336,688.53906 218.85059,689.89648 218.98633,690.5752 C 212.47168,695.86914 205.95703,701.29785 199.57715,706.8623 C 207.58398,706.8623 215.72754,706.99707 223.87109,706.99707 C 223.73633,707.40527 223.60156,708.35449 223.60156,708.7627 C 215.59277,708.62793 207.58398,708.62793 199.71289,708.7627 C 205.82031,713.91895 212.06445,719.07715 218.30762,724.23633 C 218.17188,725.18555 218.17188,726.8125 218.03516,727.76465 C 211.38574,721.52148 204.46289,715.54883 197.54102,709.71191 C 197.26953,713.24023 196.72656,720.43457 196.45606,723.96289 C 194.82715,719.07715 193.19824,714.05664 193.0625,708.7627 C 187.22559,709.16895 181.38965,709.57715 175.55371,709.98535 C 178.26758,713.78418 180.84766,717.58496 183.42578,721.38379 C 178.6748,718.80762 174.19629,715.81934 170.12402,712.15625 C 153.83691,728.16992 137.00781,743.37305 120.58398,759.38672 C 126.41992,759.7959 132.25586,760.2041 137.95703,760.60938 C 132.52832,762.50977 127.09863,764.1377 121.39844,765.35938 C 121.2627,781.24121 121.2627,797.12012 121.2627,812.99902 C 120.17773,812.99902 118.27734,812.99902 117.19141,812.99902 C 117.19141,797.12012 117.19141,781.10352 117.05566,765.22461 C 111.49121,763.86719 106.06152,762.23926 100.63281,760.74414 C 106.33301,760.33887 112.03418,759.93066 117.73438,759.66016 C 101.71875,743.37305 84.75293,728.03516 68.32959,712.15625 C 64.257813,715.81934 59.643555,718.80762 54.756836,721.24902 C 57.335938,717.58496 60.050293,713.78418 62.764649,710.12012 C 56.928711,709.71191 51.228027,709.44141 45.39209,708.89844 C 45.120117,714.05664 43.62793,719.07715 41.999024,723.96289 C 41.727051,720.43457 41.18457,713.24023 40.913574,709.71191 C 33.991211,715.68457 27.068848,721.52148 20.282715,727.62891 C 20.282715,726.8125 20.146973,725.0498 20.146973,724.23633 C 26.390625,719.07715 32.633789,713.91895 38.877442,708.7627 C 30.869141,708.62793 22.861328,708.62793 14.853516,708.7627 C 14.853516,708.21973 14.717774,707.40527 14.582031,706.99707 C 22.725586,706.99707 30.733887,706.8623 38.877442,706.8623 C 32.498047,701.29785 25.983399,695.86914 19.468262,690.5752 C 19.604004,689.89648 20.011231,688.53906 20.282715,687.86035 C 27.068848,694.10352 33.991211,699.94043 40.913574,705.91309 C 41.18457,702.38184 41.863281,695.19043 42.134766,691.66211 C 43.898926,696.68262 45.39209,701.8418 45.527832,707.13281 C 51.36377,707.13281 57.335938,707.13281 63.172363,706.99707 C 51.228027,693.55957 36.434082,682.16113 25.711914,668.04492 L 25.576172,666.6875 C 38.877441,679.85254 52.314453,692.88086 65.750977,705.77539 C 65.615234,700.07617 65.615234,694.51172 65.479492,688.94727 C 60.321777,687.86035 55.164551,686.63867 50.142578,685.01074 C 53.671387,684.7373 60.729004,684.05957 64.393555,683.78906 C 58.421875,676.86719 52.856934,669.67285 46.477539,663.02148 C 47.15625,662.75098 48.242676,662.34277 48.785156,662.07227 C 54.214355,668.72363 59.779297,675.2373 65.344238,681.75293 C 65.479492,673.87988 65.615234,666.00879 65.750977,658.13574 L 66.701172,658.67969 C 67.244141,666.2793 67.244141,674.01758 67.515137,681.75293 C 73.352051,675.50977 78.916992,668.8584 84.074219,661.9375 C 84.480957,662.34277 85.431152,663.15918 85.974121,663.56543 C 80.138183,670.08105 74.573242,676.59375 69.144043,683.51855 C 72.809082,683.78906 80.138183,684.60254 83.802246,685.01074 C 78.238281,686.36816 72.67334,687.18164 66.972656,687.72559 C 66.972656,693.69824 66.972656,699.80566 66.972656,705.77539 C 71.180176,702.65527 75.387695,699.39746 79.595215,696.27441 C 76.609375,701.43359 73.487793,706.4541 70.094726,711.3418 C 86.109863,725.45605 100.9043,740.92871 117.05566,754.91016 C 117.19141,705.50488 117.32715,655.96484 117.05566,606.55957 C 111.49121,605.06738 106.06152,603.43945 100.63281,601.94434 C 106.46875,601.53906 112.16992,601.13086 118.00586,600.72559 C 101.85449,584.57324 84.616699,569.37012 68.32959,553.35645 C 64.257812,557.01953 59.643555,560.00781 54.756836,562.44922 C 57.335938,558.78516 60.050293,554.98437 62.764648,551.32031 C 56.928711,550.91211 51.228027,550.6416 45.39209,550.09863 C 45.120117,555.25684 43.62793,560.27734 41.999023,565.16309 C 41.727051,561.63477 41.18457,554.44043 40.913574,550.91211 C 33.991211,556.88477 27.068848,562.72168 20.282715,568.83008 C 20.282715,568.0127 20.146973,566.25 20.146973,565.43652 C 26.390625,560.27734 32.633789,555.11914 38.877441,549.96289 C 30.869141,549.82813 22.861328,549.82813 14.853516,549.96289 C 14.853516,549.41992 14.717773,548.60547 14.582031,548.19727 C 22.725586,548.19727 30.733887,548.19727 38.877441,548.0625 C 32.498047,542.49805 25.983398,537.06934 19.468262,531.77539 C 19.604004,531.09668 20.01123,529.73926 20.282715,529.06055 C 27.068848,535.30371 33.991211,541.14063 40.913574,547.11328 C 41.18457,543.58203 41.863281,536.39063 42.134766,532.8623 C 43.898926,537.88281 45.39209,543.04199 45.527832,548.33301 C 51.36377,548.33301 57.335938,548.33301 63.172363,548.19727 C 51.228027,534.75977 36.434082,523.36133 25.711914,509.24512 L 25.576172,507.8877 C 38.877441,521.05273 52.314453,534.08203 65.750977,546.97559 C 65.615234,541.27637 65.615234,535.71191 65.479492,530.14746 C 60.321777,529.06055 55.164551,527.83887 50.142578,526.21094 C 53.671387,525.93848 60.729004,525.25977 64.393555,524.98926 C 58.421875,518.06738 52.856934,510.87305 46.477539,504.22168 C 47.15625,503.95117 48.242676,503.54297 48.785156,503.27246 C 54.214355,509.92383 59.779297,516.4375 65.344238,522.95313 C 65.479492,515.08008 65.615234,507.20898 65.750977,499.33594 L 66.701172,499.87988 C 67.244141,507.47949 67.244141,515.21777 67.515137,522.95313 C 73.352051,516.70996 78.916992,510.05957 84.074219,503.1377 C 84.480957,503.54297 85.431152,504.35938 85.974121,504.76563 C 80.138183,511.28125 74.573242,517.79395 69.144043,524.71875 C 72.809082,524.98926 80.138183,525.80273 83.802246,526.21094 C 78.238281,527.56836 72.67334,528.38184 66.972656,528.92578 C 66.972656,534.89844 66.972656,541.00586 66.972656,546.97559 C 71.180176,543.85547 75.387695,540.59766 79.595215,537.47461 C 76.609375,542.63379 73.487793,547.6543 70.094726,552.54199 C 86.109863,566.65625 100.9043,582.12891 117.05566,596.11035 C 117.19141,546.70508 117.32715,497.16504 117.05566,447.75977 C 111.49121,446.26758 106.06152,444.63965 100.63281,443.14453 C 106.46875,442.73926 112.16992,442.33105 118.00586,441.92578 C 101.85449,425.77344 84.616699,410.57227 68.32959,394.55566 C 64.257812,398.2207 59.643555,401.20703 54.756836,403.64941 C 57.335937,399.98535 60.050293,396.18457 62.764648,392.52051 C 56.928711,392.11328 51.228027,391.8418 45.39209,391.29883 C 45.120117,396.45703 43.62793,401.47852 41.999023,406.36426 C 41.727051,402.83496 41.18457,395.6416 40.913574,392.11328 C 33.991211,398.08496 27.068848,403.92188 20.282715,410.0293 C 20.282715,409.21484 20.146973,407.4502 20.146973,406.63574 C 26.390625,401.47852 32.633789,396.32031 38.877441,391.16309 C 30.869141,391.02734 22.861328,391.02734 14.853516,391.16309 C 14.853516,390.62012 14.717773,389.80566 14.582031,389.39844 C 23.404297,389.39844 32.226562,389.53418 41.048828,389.53418 C 41.18457,385.7334 41.727051,377.99805 41.999023,374.06152 C 43.898926,379.08301 45.39209,384.24121 45.527832,389.53418 C 51.363769,389.53418 57.335937,389.53418 63.172363,389.39844 C 53.671386,379.35449 43.62793,369.85449 33.991211,360.08105 C 32.498047,358.31738 30.326172,356.82422 29.783691,354.5166 L 29.647461,353.15918 C 41.591797,364.83203 53.535644,376.64063 65.750976,388.17676 C 65.615234,382.47656 65.615234,376.91113 65.479492,371.34766 C 60.321777,370.26074 55.164551,369.04004 50.142578,367.41113 C 53.942383,367.13965 61.679199,366.59668 65.615234,366.3252 C 65.615234,357.63867 65.615234,349.08789 65.615234,340.53711 L 66.701172,341.08008 C 67.24414,348.68066 67.24414,356.41699 67.515136,364.15332 C 73.352051,357.91016 78.916992,351.25977 84.074218,344.33691 C 84.480957,344.74512 85.431152,345.55957 85.974121,345.96582 C 80.138183,352.48047 74.573242,358.99609 69.144043,365.91797 C 72.809082,366.18945 80.138183,367.00391 83.802246,367.41113 C 78.238281,368.76758 72.673339,369.58203 66.972656,370.125 C 66.972656,376.09766 66.972656,382.20508 66.972656,388.17676 C 71.180175,385.05469 75.387695,381.93359 79.595214,378.67676 C 76.609375,383.83398 73.487793,388.85547 70.094726,393.74219 C 86.109863,407.85742 100.9043,423.3291 117.05566,437.31055 C 117.19141,387.90527 117.32715,338.36523 117.05566,288.96094 C 111.49121,287.46777 106.06152,285.83984 100.63281,284.34668 C 106.46875,283.93897 112.16992,283.53223 118.00586,283.125 C 101.85449,266.97314 84.616699,251.77246 68.329589,235.75635 C 64.257812,239.4209 59.643554,242.40723 54.756836,244.8501 C 57.335937,241.18506 60.050293,237.38525 62.764648,233.72022 C 56.928711,233.31348 51.228027,233.0415 45.392089,232.49902 C 45.120117,237.65674 43.627929,242.67822 41.999023,247.56445 C 41.72705,243.62891 41.18457,235.89209 41.048828,232.0918 C 32.362304,232.0918 23.540039,232.0918 14.853515,232.36279 C 14.853515,231.82031 14.717773,231.00586 14.582031,230.59863 C 23.404297,230.59863 32.226562,230.73486 41.048828,230.73486 C 41.18457,226.93408 41.72705,219.19775 41.999023,215.26221 C 43.898925,220.28369 45.392089,225.44141 45.527832,230.73486 C 51.363769,230.73486 57.335937,230.73486 63.172363,230.59863 C 54.485839,220.28369 42.541503,212.41162 35.212402,201.146 L 35.07666,199.78857 C 45.256347,209.69727 55.435547,219.60498 65.750976,229.37744 C 65.615234,223.67676 65.615234,218.11182 65.479492,212.54736 C 60.321777,211.46143 55.16455,210.23975 50.142578,208.61084 C 53.942382,208.33984 61.679199,207.79688 65.615234,207.52539 C 65.615234,198.83887 65.615234,190.28809 65.615234,181.73731 L 66.701171,182.28027 C 67.24414,190.69531 67.108398,199.10986 67.108398,207.38965 C 72.673339,207.66113 78.238281,208.06836 83.802246,208.33984 C 78.373047,209.96826 72.673339,210.78272 66.972656,211.3252 C 66.972656,217.43311 66.972656,223.40576 66.972656,229.37744 C 71.180175,226.25537 75.387695,223.13379 79.595215,219.87647 C 76.609375,225.03418 73.487793,230.05615 70.094726,234.94238 C 86.109863,249.05762 100.9043,264.53027 117.05566,278.50977 C 117.19141,229.10547 117.32715,179.56543 117.05566,130.16113 C 111.49121,128.66846 106.06152,127.04004 100.63281,125.54688 C 106.46875,125.13916 112.16992,124.73242 118.00586,124.3252 C 106.33301,112.78857 94.389648,101.52295 82.173828,90.66504 C 80.816894,89.171876 78.916992,87.814454 78.645019,85.643555 L 78.509277,84.421387 C 92.082031,95.279297 103.48242,108.7168 117.05566,119.70996 C 117.46289,79.806641 117.05566,39.90332 117.19141,0 L 117.19141,0 z "
   style="fill:#00c500"
   id="path2583" />
		</g>
		<g
   id="Ebene_3">
			<circle
   cx="16.758301"
   cy="729.60156"
   r="7.3203125"
   style="fill:#ff0000"
   id="circle2586" /> 
			<circle
   cx="66.207031"
   cy="651.66113"
   r="7.3203125"
   style="fill:#ff0000"
   id="circle2588" /> 
			<circle
   cx="44.182617"
   cy="656.91504"
   r="7.3203125"
   style="fill:#ff0000"
   id="circle2590" /> 
			<circle
   cx="21.157471"
   cy="662.92188"
   r="7.3205566"
   style="fill:#ff0000"
   id="circle2592" /> 
			<circle
   cx="14.400391"
   cy="685.69727"
   r="7.3203125"
   style="fill:#ff0000"
   id="circle2594" /> 
			<circle
   cx="7.9990234"
   cy="708.47168"
   r="7.3203125"
   style="fill:#ff0000"
   id="circle2596" /> 
			<circle
   cx="89.232422"
   cy="657.91699"
   r="7.3203125"
   style="fill:#ff0000"
   id="circle2598" /> 
			<circle
   cx="16.758301"
   cy="570.80176"
   r="7.3203125"
   style="fill:#ff0000"
   id="circle2600" /> 
			<circle
   cx="66.207764"
   cy="492.86133"
   r="7.3205566"
   style="fill:#ff0000"
   id="circle2602" /> 
			<circle
   cx="44.182617"
   cy="498.11523"
   r="7.3203125"
   style="fill:#ff0000"
   id="circle2604" /> 
			<circle
   cx="21.157471"
   cy="504.12207"
   r="7.3205566"
   style="fill:#ff0000"
   id="circle2606" /> 
			<circle
   cx="14.400391"
   cy="526.89746"
   r="7.3203125"
   style="fill:#ff0000"
   id="circle2608" /> 
			<circle
   cx="7.9990234"
   cy="549.67188"
   r="7.3203125"
   style="fill:#ff0000"
   id="circle2610" /> 
			<circle
   cx="89.233398"
   cy="499.11719"
   r="7.3203125"
   style="fill:#ff0000"
   id="circle2612" /> 
			<path
   d="M 213.63379,729.60156 C 213.63379,733.64453 216.90625,736.92188 220.9502,736.92188 C 224.99512,736.92188 228.27441,733.64453 228.27441,729.60156 C 228.27441,725.55859 224.99512,722.28125 220.9502,722.28125 C 216.90625,722.28125 213.63379,725.55859 213.63379,729.60156 z "
   style="fill:#ff0000"
   id="path2614" />
			<path
   d="M 164.18066,651.66113 C 164.18066,655.7041 167.45996,658.98145 171.50586,658.98145 C 175.54297,658.98145 178.82227,655.7041 178.82227,651.66113 C 178.82227,647.61816 175.54297,644.34082 171.50586,644.34082 C 167.45996,644.34082 164.18066,647.61816 164.18066,651.66113 z "
   style="fill:#ff0000"
   id="path2616" />
			<path
   d="M 186.20703,656.91504 C 186.20703,660.95801 189.48633,664.23535 193.52344,664.23535 C 197.56934,664.23535 200.84863,660.95801 200.84863,656.91504 C 200.84863,652.87207 197.56934,649.59473 193.52344,649.59473 C 189.48633,649.59473 186.20703,652.87207 186.20703,656.91504 z "
   style="fill:#ff0000"
   id="path2618" />
			<path
   d="M 209.2334,662.92188 C 209.2334,666.96484 212.50391,670.24219 216.5498,670.24219 C 220.59473,670.24219 223.87402,666.96484 223.87402,662.92188 C 223.87402,658.87988 220.59473,655.60156 216.5498,655.60156 C 212.50391,655.60156 209.2334,658.87988 209.2334,662.92188 z "
   style="fill:#ff0000"
   id="path2620" />
			<path
   d="M 215.98926,685.69727 C 215.98926,689.74023 219.26953,693.01758 223.30566,693.01758 C 227.35059,693.01758 230.62988,689.74023 230.62988,685.69727 C 230.62988,681.6543 227.35059,678.37695 223.30566,678.37695 C 219.26953,678.37695 215.98926,681.6543 215.98926,685.69727 z "
   style="fill:#ff0000"
   id="path2622" />
			<path
   d="M 222.38965,708.47168 C 222.38965,712.51367 225.66895,715.79199 229.71387,715.79199 C 233.75098,715.79199 237.03027,712.51367 237.03027,708.47168 C 237.03027,704.42871 233.75098,701.15039 229.71387,701.15039 C 225.66895,701.15039 222.38965,704.42871 222.38965,708.47168 z "
   style="fill:#ff0000"
   id="path2624" />
			<path
   d="M 141.15527,657.91699 C 141.15527,661.95996 144.43457,665.2373 148.47949,665.2373 C 152.51758,665.2373 155.7959,661.95996 155.7959,657.91699 C 155.7959,653.875 152.51758,650.59668 148.47949,650.59668 C 144.43457,650.59668 141.15527,653.875 141.15527,657.91699 z "
   style="fill:#ff0000"
   id="path2626" />
			<path
   d="M 213.63379,570.80176 C 213.63379,574.84473 216.90625,578.12207 220.9502,578.12207 C 224.99512,578.12207 228.27441,574.84473 228.27441,570.80176 C 228.27441,566.75879 224.99512,563.48145 220.9502,563.48145 C 216.90625,563.48145 213.63379,566.75879 213.63379,570.80176 z "
   style="fill:#ff0000"
   id="path2628" />
			<path
   d="M 164.18066,492.86133 C 164.18066,496.9043 167.45996,500.18164 171.50586,500.18164 C 175.54297,500.18164 178.82227,496.9043 178.82227,492.86133 C 178.82227,488.81836 175.54297,485.54102 171.50586,485.54102 C 167.45996,485.54102 164.18066,488.81836 164.18066,492.86133 z "
   style="fill:#ff0000"
   id="path2630" />
			<path
   d="M 186.20703,498.11523 C 186.20703,502.1582 189.48633,505.43555 193.52344,505.43555 C 197.56934,505.43555 200.84863,502.1582 200.84863,498.11523 C 200.84863,494.07324 197.56934,490.79492 193.52344,490.79492 C 189.48633,490.79492 186.20703,494.07324 186.20703,498.11523 z "
   style="fill:#ff0000"
   id="path2632" />
			<path
   d="M 209.2334,504.12207 C 209.2334,508.16504 212.50391,511.44238 216.5498,511.44238 C 220.59473,511.44238 223.87402,508.16504 223.87402,504.12207 C 223.87402,500.08008 220.59473,496.80176 216.5498,496.80176 C 212.50391,496.80176 209.2334,500.08008 209.2334,504.12207 z "
   style="fill:#ff0000"
   id="path2634" />
			<path
   d="M 215.98926,526.89746 C 215.98926,530.94043 219.26953,534.21777 223.30566,534.21777 C 227.35059,534.21777 230.62988,530.94043 230.62988,526.89746 C 230.62988,522.85449 227.35059,519.57715 223.30566,519.57715 C 219.26953,519.57715 215.98926,522.85449 215.98926,526.89746 z "
   style="fill:#ff0000"
   id="path2636" />
			<path
   d="M 222.38965,549.67188 C 222.38965,553.71387 225.66895,556.99219 229.71387,556.99219 C 233.75098,556.99219 237.03027,553.71387 237.03027,549.67188 C 237.03027,545.62891 233.75098,542.35059 229.71387,542.35059 C 225.66895,542.35059 222.38965,545.62891 222.38965,549.67188 z "
   style="fill:#ff0000"
   id="path2638" />
			<path
   d="M 141.15527,499.11719 C 141.15527,503.16016 144.43457,506.4375 148.47949,506.4375 C 152.51758,506.4375 155.7959,503.16016 155.7959,499.11719 C 155.7959,495.0752 152.51758,491.79688 148.47949,491.79688 C 144.43457,491.79687 141.15527,495.0752 141.15527,499.11719 z "
   style="fill:#ff0000"
   id="path2640" />
			<circle
   cx="16.079834"
   cy="412.00195"
   r="7.3205566"
   style="fill:#ff0000"
   id="circle2642" /> 
			<circle
   cx="65.529053"
   cy="334.06152"
   r="7.3205566"
   style="fill:#ff0000"
   id="circle2644" /> 
			<circle
   cx="25.229248"
   cy="350.07324"
   r="7.3205566"
   style="fill:#ff0000"
   id="circle2646" /> 
			<circle
   cx="7.3205566"
   cy="390.87207"
   r="7.3205566"
   style="fill:#ff0000"
   id="circle2648" /> 
			<circle
   cx="88.554688"
   cy="340.31738"
   r="7.3203125"
   style="fill:#ff0000"
   id="circle2650" /> 
			<path
   d="M 212.95508,412.00195 C 212.95508,416.04492 216.22754,419.32227 220.27148,419.32227 C 224.31641,419.32227 227.5957,416.04492 227.5957,412.00195 C 227.5957,407.95996 224.31641,404.68164 220.27148,404.68164 C 216.22754,404.68164 212.95508,407.95996 212.95508,412.00195 z "
   style="fill:#ff0000"
   id="path2652" />
			<path
   d="M 166.2168,334.06152 C 166.2168,338.10449 169.49609,341.38184 173.54102,341.38184 C 177.5791,341.38184 180.85742,338.10449 180.85742,334.06152 C 180.85742,330.01855 177.5791,326.74121 173.54102,326.74121 C 169.49609,326.74121 166.2168,330.01855 166.2168,334.06152 z "
   style="fill:#ff0000"
   id="path2654" />
			<path
   d="M 205.83984,348.71582 C 205.83984,352.75879 209.11133,356.03613 213.15625,356.03613 C 217.20215,356.03613 220.48047,352.75879 220.48047,348.71582 C 220.48047,344.67285 217.20215,341.39551 213.15625,341.39551 C 209.11133,341.39551 205.83984,344.67285 205.83984,348.71582 z "
   style="fill:#ff0000"
   id="path2656" />
			<path
   d="M 221.71094,390.87207 C 221.71094,394.91406 224.99023,398.19238 229.03516,398.19238 C 233.07227,398.19238 236.35156,394.91406 236.35156,390.87207 C 236.35156,386.8291 233.07227,383.55176 229.03516,383.55176 C 224.99023,383.55176 221.71094,386.8291 221.71094,390.87207 z "
   style="fill:#ff0000"
   id="path2658" />
			<path
   d="M 140.47656,340.31738 C 140.47656,344.36035 143.75586,347.6377 147.80078,347.6377 C 151.83887,347.6377 155.11719,344.36035 155.11719,340.31738 C 155.11719,336.27539 151.83887,332.99707 147.80078,332.99707 C 143.75586,332.99707 140.47656,336.27539 140.47656,340.31738 z "
   style="fill:#ff0000"
   id="path2660" />
			<circle
   cx="8.5861816"
   cy="230.48682"
   r="7.3205566"
   style="fill:#ff0000"
   id="circle2662" /> 
			<circle
   cx="207.94629"
   cy="196.43945"
   r="7.3203125"
   style="fill:#ff0000"
   id="circle2664" /> 
			<circle
   cx="164.3125"
   cy="80.481445"
   r="7.3203125"
   style="fill:#ff0000"
   id="circle2666" /> 
			<circle
   cx="75.110107"
   cy="81.086426"
   r="7.3205566"
   style="fill:#ff0000"
   id="circle2668" /> 
			<circle
   cx="66.327637"
   cy="174.76465"
   r="7.3203125"
   style="fill:#ff0000"
   id="circle2670" /> 
			<circle
   cx="31.227051"
   cy="196.18896"
   r="7.3203125"
   style="fill:#ff0000"
   id="circle2672" /> 
			<circle
   cx="172.56055"
   cy="176.02148"
   r="7.3203125"
   style="fill:#ff0000"
   id="circle2674" /> 
			<path
   d="M 223.46973,231.73193 C 223.46973,235.7749 226.74902,239.05273 230.79395,239.05273 C 234.83203,239.05273 238.11035,235.7749 238.11035,231.73193 C 238.11035,227.68945 234.83203,224.41162 230.79395,224.41162 C 226.74902,224.41162 223.46973,227.68945 223.46973,231.73193 z "
   style="fill:#ff0000"
   id="path2676" />
		</g>
	</svg>