<?xml version="1.0" encoding="UTF-8" standalone="no"?>
<!-- Created with Inkscape (http://www.inkscape.org/) -->
<svg
   xmlns:svg="http://www.w3.org/2000/svg"
   xmlns="http://www.w3.org/2000/svg"
   version="1.0"
   width="360.09961"
   height="706.14258"
   viewBox="0 0 360.09961 706.14258"
   id="svg5210"
   xml:space="preserve"><defs
   id="defs5305" />
	
		<g
   transform="matrix(0.9740613,0,0,0.9740613,4,18.31641)"
   id="Ebene_2">
			<path
   d="M 97.937988,18.986328 L 100.1123,17.963867 L 99.687012,46.014648 C 99.687012,46.014648 113.22754,30.583008 118.79199,22.633789 C 119.74609,22.952148 120.83203,24.550781 121.78613,24.869141 C 114.79102,32.341309 108.27246,39.973633 102.07178,48.081055 C 106.36426,48.240234 114.79102,48.875977 119.08301,49.194336 C 112.88281,51.738281 107.01562,54.197266 100.01953,53.561523 C 99.86084,67.870605 99.70166,81.638672 100.01953,95.947266 C 104.94824,92.290039 109.06738,88.941895 113.99609,85.285645 C 110.65723,91.008789 107.15918,96.732422 103.50293,102.29688 C 128.14648,125.66895 151.51758,150.47168 177.27344,172.72998 C 177.43262,139.02393 177.27344,105.47705 177.11523,71.771484 C 178.38672,71.612305 180.77246,71.134766 182.04395,70.976563 C 182.20215,135.68506 181.72656,200.39453 182.20215,265.10254 C 206.20996,240.61816 231.9668,217.8833 255.65527,193.23975 C 252.63574,187.51562 249.77441,181.63281 246.91113,175.75098 C 251.68066,179.56641 256.4502,183.22266 261.2207,187.03906 C 259.63086,172.72998 260.2666,158.5791 260.2666,144.27051 C 253.1123,144.42969 246.27637,141.72705 239.91699,138.70557 C 246.11621,138.70557 252.31738,138.86475 258.51855,139.02393 C 252.47559,131.2334 246.11621,123.76074 239.75684,116.44727 C 239.91699,115.65234 240.39355,114.22119 240.55176,113.58545 C 246.91113,121.2168 253.27051,128.84863 260.1084,136.1626 C 259.79004,127.25879 259.47168,118.35547 258.99512,109.45166 C 259.79004,109.45166 261.2207,109.45166 261.85742,109.45166 C 262.01562,117.87842 262.49316,126.46387 262.96973,134.89014 C 269.64844,128.21289 275.68945,121.05859 281.73047,113.74463 C 282.20703,114.22119 283.32031,115.01611 283.79687,115.49365 C 276.96094,122.80664 270.44336,130.59766 264.24219,138.70557 C 269.48828,139.18311 274.57617,139.50049 279.82227,139.97803 C 274.41797,142.04443 268.85352,143.79346 263.28809,145.54297 C 262.81055,158.89746 262.81055,172.25293 263.12891,185.60742 C 272.66797,177.81738 281.73047,169.39111 289.99805,160.16943 C 290.47559,160.64648 291.42871,161.60059 291.90625,162.07764 C 283.00195,170.98096 274.09961,179.88477 264.71875,188.46973 C 279.02734,188.62891 292.95898,187.82959 307.11035,187.98877 C 305.52051,180.35742 308.91699,174.16113 311.93848,167.32373 C 312.25684,171.93506 312.5752,180.99707 312.89258,185.44922 C 320.68359,179.40723 327.99609,172.88867 335.15039,166.05225 C 335.31055,166.68799 335.78711,167.96045 335.94531,168.75537 C 328.63281,175.43262 321.00195,181.79199 313.6875,188.62891 C 323.06836,188.15186 332.60742,187.51562 341.98828,186.87988 C 341.82812,187.6748 341.66992,189.26465 341.51074,190.06006 C 332.76562,190.06006 324.02148,190.21875 315.11816,190.37744 C 322.43164,197.05518 329.9043,203.57422 337.85352,209.61523 C 337.21875,209.77441 335.62891,209.93359 334.99219,209.93359 C 327.51953,204.36914 320.36523,198.32715 313.05176,192.604 C 312.5752,196.896 311.93848,205.64063 311.46191,209.93359 C 309.07715,203.41504 308.38184,197.24707 307.11035,190.41064 C 293.43555,190.41064 278.55078,190.06006 264.87793,191.80908 C 268.69336,196.10107 272.34961,200.55322 276.00781,204.8457 C 269.80664,201.66602 263.92383,198.00928 258.04102,194.19385 C 233.39746,220.10889 206.20996,243.32129 181.72656,269.23682 C 188.40332,269.55469 195.08105,269.87256 201.75879,270.34961 C 195.23926,272.25732 188.72168,274.00635 182.04394,275.75537 C 182.04394,334.10498 181.88477,392.6123 182.20215,451.12207 C 206.36914,426.47852 231.9668,403.58301 256.13379,379.09863 C 253.1123,373.375 250.09082,367.65137 246.91113,361.92822 C 251.68066,365.74414 256.4502,369.55957 261.2207,373.21582 C 260.74414,358.90674 260.2666,344.43945 260.1084,330.13037 C 252.9541,330.44775 246.27637,327.74561 239.91699,324.72412 C 246.11621,324.72412 252.31738,324.8833 258.51855,325.04248 C 252.31738,317.09277 245.7998,309.46143 239.28027,301.98877 C 239.59863,301.35303 240.55176,300.39893 240.87012,299.92236 C 247.22949,307.39453 253.58887,314.86719 260.2666,322.33887 C 259.94922,313.43652 259.63086,304.37354 259.1543,295.46973 C 259.94922,295.46973 261.37988,295.31104 262.1748,295.31104 C 262.01562,303.89697 261.37988,312.48242 262.96973,320.9082 C 269.48828,314.23145 275.84766,307.23535 281.73047,299.76318 C 282.20703,300.23975 283.32031,301.03467 283.79687,301.51221 C 276.80273,308.6665 270.2832,316.45703 264.08301,324.56543 C 269.16992,324.8833 274.41797,325.36035 279.66406,325.67822 C 274.25781,328.06299 268.85352,330.13037 263.28809,331.72022 C 262.81055,344.91602 262.81055,358.271 263.12891,371.46777 C 272.66797,363.51807 281.73047,355.09131 289.99805,346.0293 C 290.47559,346.66504 291.42871,347.61914 291.74707,348.0957 C 282.84375,357.15869 273.93945,366.06152 264.71875,374.64746 C 279.02734,374.80566 292.80078,373.68262 307.11035,373.68262 C 305.20215,366.05127 309.07715,360.02002 311.93848,353.18359 C 312.09766,357.79443 312.41504,367.01563 312.5752,371.46777 C 320.52539,365.42578 328.31445,359.06592 335.31055,351.91162 C 335.46875,352.70654 335.46875,353.97852 335.46875,354.61475 C 328.95117,362.08691 320.8418,368.12891 313.52832,374.64746 C 322.91016,374.48828 332.44922,374.16992 341.98828,372.89844 C 341.82812,373.69336 341.66992,375.2832 341.51074,376.07813 C 332.76562,376.07813 324.02148,376.2373 315.11816,376.39551 C 322.43164,383.07275 329.9043,389.59082 337.85352,395.63379 C 337.21875,395.79199 335.62891,395.9502 334.99219,395.9502 C 327.51953,390.38574 320.36523,384.34619 313.05176,378.62207 C 312.5752,382.91455 311.93848,391.65918 311.46191,395.9502 C 309.07715,389.43262 307.16895,382.75635 305.89746,375.91895 C 292.22363,375.91895 278.55078,376.07813 264.87793,377.82715 C 268.69336,382.11963 272.34961,386.57227 276.00781,390.86426 C 269.80664,387.68408 263.92383,384.02637 258.04102,380.21191 C 233.39746,406.12646 206.20996,429.33838 181.72656,455.25488 C 188.40332,455.57178 195.08105,455.8916 201.75879,456.3667 C 195.23926,458.27637 188.72168,460.0249 182.04395,461.77295 C 182.04395,520.12402 181.88477,578.63086 182.20215,637.14063 C 206.36914,612.49707 231.9668,589.60156 256.13379,565.11621 C 253.1123,559.39355 250.09082,553.6709 246.91113,547.94727 C 251.68066,551.76074 256.4502,555.57715 261.2207,559.23535 C 260.74414,544.92578 260.2666,530.45898 260.1084,516.14941 C 252.9541,516.46582 246.27637,513.76465 239.91699,510.74316 C 246.11621,510.74316 252.31738,510.90137 258.51855,511.05957 C 252.31738,503.11035 245.7998,495.48096 239.28027,488.00635 C 239.59863,487.36963 240.55176,486.4165 240.87012,485.94141 C 247.22949,493.4126 253.58887,500.88379 260.1084,508.3584 C 260.1084,499.29395 259.94922,490.39111 259.79004,481.48828 L 261.0625,482.6001 C 261.69824,490.71094 261.69824,498.81885 262.96973,506.92676 C 269.48828,500.25049 275.84766,493.4126 281.88867,486.2583 C 282.68359,486.57471 284.43359,487.05322 285.38672,487.36963 C 277.4375,494.36572 270.2832,502.15723 263.92383,510.58496 C 269.16992,510.90137 274.41797,511.37988 279.66406,511.69629 C 274.25781,514.08105 268.85352,516.14941 263.28809,517.73926 C 262.81055,530.93359 262.81055,544.28906 263.12891,557.4873 C 272.66797,549.53711 281.73047,541.10938 289.99805,532.04883 C 290.47559,532.68164 291.42871,533.63867 291.74707,534.11328 C 282.84375,543.17773 273.93945,552.08008 264.71875,560.66699 C 279.02734,560.8252 293.20508,559.37793 307.51367,559.37793 C 305.60547,551.74512 309.07715,546.03809 311.93848,539.20312 C 312.09766,543.81152 312.41504,553.03418 312.5752,557.4873 C 320.52539,551.44434 328.31445,545.08398 335.31055,537.92969 C 335.46875,538.72461 335.46875,539.99805 335.46875,540.63184 C 328.95117,548.10547 320.8418,554.14551 313.52832,560.66699 C 322.91016,560.50488 332.44922,560.18848 341.98828,558.91504 C 341.82812,559.70996 341.66992,561.2998 341.51074,562.09473 C 332.76562,562.09473 324.02148,562.25684 315.11816,562.41504 C 322.43164,569.09082 329.9043,575.60937 337.85352,581.65234 C 337.21875,581.81055 335.62891,581.96875 334.99219,581.96875 C 327.51953,576.4043 320.36523,570.36426 313.05176,564.6416 C 312.5752,568.93262 311.93848,577.67773 311.46191,581.96875 C 309.07715,575.45117 307.16895,568.77441 305.89746,561.93652 C 292.22363,561.93652 278.55078,562.09473 264.87793,563.84668 C 268.69336,568.1377 272.34961,572.59082 276.00781,576.88281 C 269.80664,573.70215 263.92383,570.04492 258.04102,566.23145 C 233.39746,592.14453 206.20996,615.35645 181.72656,641.27344 C 188.40332,641.58984 195.08105,641.91016 201.75879,642.38477 C 195.23926,644.29492 188.72168,646.04297 182.04395,647.79102 C 182.04395,667.19043 182.20215,686.74414 181.72656,706.14258 C 180.77246,706.14258 178.70508,706.14258 177.75098,706.14258 C 176.32031,656.85547 178.06836,607.40723 176.95605,557.96191 C 170.91406,556.05566 164.87305,553.9873 158.83105,551.92187 C 163.60059,551.44434 173.13965,550.80762 177.91016,550.33203 C 152.47168,525.05273 126.875,500.08887 100.79932,475.60693 C 96.188965,480.05664 90.942383,483.71484 85.21875,486.4165 C 88.080078,481.9668 91.101563,477.51367 94.122559,473.22217 C 80.608398,472.90234 67.094238,472.74414 53.580078,471.94873 C 53.420898,477.9917 51.512695,484.03174 49.12793,489.59619 C 48.969238,485.46289 48.492188,477.19678 48.174316,473.06055 C 40.065918,479.74023 31.638672,486.57471 24.166992,494.04932 C 24.007813,493.0957 23.848633,491.02783 23.689453,490.07422 C 31.162109,484.03174 38.476074,477.9917 45.789551,471.63232 C 36.727051,471.79053 27.823242,471.94873 18.761231,472.26562 C 18.761231,471.4707 18.602051,470.04248 18.442871,469.24756 C 27.505859,469.40576 36.727051,469.56396 45.947754,469.72266 C 38.635254,463.36279 31.162109,457.16162 23.530762,451.12207 C 23.689453,450.32715 24.166992,448.41699 24.484375,447.46387 C 32.116211,454.77686 40.065918,461.77295 48.333008,468.45264 C 48.492188,464.15771 49.12793,455.7334 49.446289,451.59717 C 51.831055,457.48144 53.580078,463.68262 53.580078,470.20068 C 67.253418,470.20068 81.084961,470.20068 94.91748,469.72266 C 86.490234,460.66113 77.746094,451.7583 67.570801,444.76221 C 68.684082,443.48926 69.796387,442.21924 71.068848,440.9458 C 79.177734,450.96338 88.239258,460.18311 97.778809,468.76904 C 98.097168,454.77686 98.097168,440.7876 97.619629,426.95361 C 91.419434,425.68359 85.37793,423.77393 79.495117,421.38867 C 83.628906,421.07227 92.055176,420.59375 96.188965,420.27734 C 89.511719,412.01074 82.993164,403.58301 75.202637,396.27051 C 76.15625,396.11182 78.223633,395.79199 79.177734,395.79199 C 85.05957,403.2666 91.101563,410.57959 97.461426,417.73389 C 97.778809,408.83105 97.937988,399.92529 97.937988,391.02246 L 99.05127,391.97559 C 99.527832,400.56152 99.527832,409.14795 99.687012,417.89258 C 106.68262,411.21582 112.88281,403.7417 118.28809,395.63379 C 119.08301,395.95019 120.83203,396.58691 121.78613,396.90674 C 114.47266,404.06152 107.9541,411.84961 101.9126,419.96045 C 106.20605,420.27734 114.79102,420.91357 119.08301,421.23047 C 112.72363,423.77393 106.85791,426.31982 100.021,426.16162 C 99.862305,440.3125 99.703125,453.43213 100.021,467.74121 C 104.94971,464.08643 109.06738,460.97803 113.99609,457.32324 C 110.49805,463.20459 106.8418,469.08594 103.34375,474.81201 C 128.62305,497.38721 151.51758,522.66699 177.27344,544.92578 C 177.11523,487.21143 177.75098,429.6582 176.95605,372.10352 C 170.91406,370.03613 164.87305,367.96973 158.83105,365.90332 C 163.60059,365.42578 173.13965,364.79004 177.91016,364.31299 C 152.47168,339.0332 126.875,314.07227 100.79932,289.58789 C 96.188965,294.03906 90.942383,297.6958 85.21875,300.39893 C 88.080078,295.94727 91.101563,291.49512 94.122559,287.20312 C 80.608399,286.88477 67.094238,286.72559 53.580078,285.93066 C 53.420899,291.97266 51.512695,298.01416 49.12793,303.57861 C 48.969238,299.44482 48.492188,291.17773 48.174317,287.04394 C 40.065918,293.7207 31.638672,300.5581 24.166992,308.03027 C 24.007813,307.07666 23.848633,305.00928 23.689453,304.05518 C 31.162109,298.01416 38.476074,291.97266 45.789551,285.61328 C 36.727051,285.77148 27.823242,285.93066 18.761231,286.24902 C 18.761231,285.4541 18.602051,284.02344 18.442871,283.22852 C 27.50586,283.38672 36.727051,283.5459 45.947754,283.70508 C 38.635254,277.34521 31.16211,271.14453 23.530762,265.10254 C 23.689453,264.30762 24.166992,262.40039 24.484375,261.44629 C 32.116211,268.75977 40.065918,275.75537 48.333008,282.4331 C 48.492188,278.14014 49.12793,269.71387 49.446289,265.58008 C 51.831055,271.4624 53.580078,277.66357 53.580078,284.18164 C 67.253418,284.18164 81.084961,284.18164 94.917481,283.70508 C 86.490234,274.64209 77.746094,265.73926 67.570801,258.74316 C 68.684082,257.47168 69.796387,256.20019 71.068848,254.92773 C 79.177734,264.94434 88.239258,274.16553 97.778809,282.75098 C 98.097168,268.75977 98.097168,254.76855 97.619629,240.93652 C 91.419434,239.66406 85.37793,237.75684 79.495117,235.37207 C 83.628906,235.05371 92.055176,234.57715 96.188965,234.25879 C 89.511719,225.9917 82.993164,217.56494 75.202637,210.25098 C 76.15625,210.09277 78.223633,209.77441 79.177735,209.77441 C 85.05957,217.24707 91.101563,224.56055 97.461426,231.71484 C 97.778809,222.81201 97.937988,213.9082 97.937988,205.00488 L 99.05127,205.95898 C 99.527832,214.54394 99.527832,223.12939 99.687012,231.87402 C 106.68262,225.19678 112.88281,217.72412 118.28809,209.61523 C 119.08301,209.93359 120.83203,210.56934 121.78613,210.88769 C 114.47266,218.04248 107.9541,225.83252 101.9126,233.94141 C 106.20605,234.25879 114.79102,234.89453 119.08301,235.21289 C 112.72363,237.75684 106.04688,239.82324 99.209473,239.66406 C 99.05127,253.81494 99.05127,267.96484 99.368652,282.27441 C 104.29785,278.61719 109.06738,274.96045 113.99609,271.30371 C 110.49805,277.18603 106.8418,283.06934 103.34375,288.79297 C 128.62305,311.36914 151.51758,336.64844 177.27344,358.90674 C 177.11523,301.19385 177.75098,243.63916 176.95605,186.08496 C 170.91406,184.01758 164.87305,181.95117 158.83105,179.88477 C 163.60059,179.40723 173.13965,178.77148 177.91016,178.29492 C 152.47168,153.01465 126.875,128.05371 100.79932,103.56934 C 96.188965,108.021 90.942383,111.67725 85.21875,114.38037 C 88.080078,109.9292 91.101563,105.63574 94.122559,101.18457 C 80.608399,100.86621 67.094238,100.70703 53.580078,99.912109 C 53.420899,105.9541 51.512695,111.99561 49.12793,117.56055 C 48.969238,113.42627 48.492188,105.15918 48.174317,101.02539 C 40.065918,107.70264 31.638672,114.53955 24.166992,122.01172 C 24.007813,121.05859 23.848633,118.99121 23.689453,118.03711 C 31.162109,111.99561 38.476074,105.9541 45.789551,99.594726 C 36.885742,99.752929 28.141602,99.912109 19.237793,100.07129 C 18.919434,99.435547 18.442871,98.004883 18.124512,97.209961 C 27.34668,97.368164 36.727051,97.527343 45.947754,97.686523 C 38.635254,91.327148 31.16211,85.126465 23.530762,79.084472 C 23.689453,78.130859 24.166992,76.381836 24.484375,75.427734 C 32.116211,82.582519 40.225098,89.418945 48.333008,96.096679 C 48.492188,91.96289 49.12793,83.6958 49.446289,79.561523 C 51.831055,85.443847 53.580078,91.645508 53.261719,98.004883 C 67.253418,98.163086 81.084961,98.163086 95.07666,97.686523 C 86.649414,88.624023 77.428711,80.197754 67.570801,72.724609 C 68.684082,71.453125 69.955567,70.18164 71.068848,68.909179 C 78.382813,79.402832 88.557617,87.51123 97.619629,96.415039 C 98.097168,82.741699 97.898438,67.574707 97.580078,53.901367 C 91.379883,52.470703 85.37793,51.579101 79.495117,49.353515 C 83.788086,49.035156 92.214356,48.558593 96.507324,48.240234 C 89.67041,40.131836 82.515625,32.023925 75.202637,24.23291 C 76.31543,24.074218 78.223633,23.755859 79.177735,23.755859 C 85.05957,31.229004 97.461426,45.696289 97.461426,45.696289 C 97.461426,45.696289 97.937988,27.890137 97.937988,18.986328 L 97.937988,18.986328 z "
   style="fill:#00c600"
   id="path5215" />
		</g>
		<g
   transform="matrix(0.9740613,0,0,0.9740613,4,18.31641)"
   id="Ebene_3">
			<circle
   cx="16.958496"
   cy="497.35303"
   r="9.8041992"
   style="fill:#ff0000"
   id="circle5218" /> 
			<circle
   cx="9.8041992"
   cy="469.79541"
   r="9.8041992"
   style="fill:#ff0000"
   id="circle5220" /> 
			<circle
   cx="16.958496"
   cy="443.56201"
   r="9.8041992"
   style="fill:#ff0000"
   id="circle5222" /> 
			<circle
   cx="63.065918"
   cy="436.40771"
   r="9.8041992"
   style="fill:#ff0000"
   id="circle5224" /> 
			<circle
   cx="99.368652"
   cy="382.34961"
   r="9.8041992"
   style="fill:#ff0000"
   id="circle5226" /> 
			<circle
   cx="72.075684"
   cy="389.24023"
   r="9.8041992"
   style="fill:#ff0000"
   id="circle5228" /> 
			<circle
   cx="125.8667"
   cy="389.50537"
   r="9.8041992"
   style="fill:#ff0000"
   id="circle5230" /> 
			<circle
   cx="16.958496"
   cy="311.86426"
   r="9.8041992"
   style="fill:#ff0000"
   id="circle5232" /> 
			<circle
   cx="9.8041992"
   cy="284.30664"
   r="9.8041992"
   style="fill:#ff0000"
   id="circle5234" /> 
			<circle
   cx="16.958496"
   cy="258.07324"
   r="9.8041992"
   style="fill:#ff0000"
   id="circle5236" /> 
			<circle
   cx="63.065918"
   cy="250.91846"
   r="9.8041992"
   style="fill:#ff0000"
   id="circle5238" /> 
			<circle
   cx="99.368652"
   cy="196.86035"
   r="9.8041992"
   style="fill:#ff0000"
   id="circle5240" /> 
			<circle
   cx="72.075684"
   cy="203.75098"
   r="9.8041992"
   style="fill:#ff0000"
   id="circle5242" /> 
			<circle
   cx="125.8667"
   cy="204.0166"
   r="9.8041992"
   style="fill:#ff0000"
   id="circle5244" /> 
			<circle
   cx="16.958496"
   cy="124.80859"
   r="9.8041992"
   style="fill:#ff0000"
   id="circle5246" /> 
			<circle
   cx="9.8041992"
   cy="97.250977"
   r="9.8041992"
   style="fill:#ff0000"
   id="circle5248" /> 
			<circle
   cx="16.958496"
   cy="71.017578"
   r="9.8041992"
   style="fill:#ff0000"
   id="circle5250" /> 
			<circle
   cx="63.065918"
   cy="63.863281"
   r="9.8041992"
   style="fill:#ff0000"
   id="circle5252" /> 
			<circle
   cx="99.368652"
   cy="9.8046875"
   r="9.8041992"
   style="fill:#ff0000"
   id="circle5254" /> 
			<circle
   cx="72.075684"
   cy="16.695312"
   r="9.8041992"
   style="fill:#ff0000"
   id="circle5256" /> 
			<circle
   cx="125.8667"
   cy="16.960938"
   r="9.8041992"
   style="fill:#ff0000"
   id="circle5258" /> 
			<path
   d="M 333.33984,588.51172 C 333.33984,593.92578 337.72949,598.31543 343.14063,598.31543 C 348.55762,598.31543 352.94727,593.92578 352.94727,588.51172 C 352.94727,583.0957 348.55762,578.70703 343.14063,578.70703 C 337.72949,578.70703 333.33984,583.0957 333.33984,588.51172 z "
   style="fill:#ff0000"
   id="path5260" />
			<path
   d="M 340.49512,560.9541 C 340.49512,566.36816 344.88379,570.75684 350.29492,570.75684 C 355.71191,570.75684 360.09961,566.36816 360.09961,560.9541 C 360.09961,555.53809 355.71191,551.14941 350.29492,551.14941 C 344.88379,551.14941 340.49512,555.53809 340.49512,560.9541 z "
   style="fill:#ff0000"
   id="path5262" />
			<path
   d="M 333.33984,534.7207 C 333.33984,540.13477 337.72949,544.52344 343.14063,544.52344 C 348.55762,544.52344 352.94727,540.13477 352.94727,534.7207 C 352.94727,529.30469 348.55762,524.91602 343.14063,524.91602 C 337.72949,524.91602 333.33984,529.30469 333.33984,534.7207 z "
   style="fill:#ff0000"
   id="path5264" />
			<circle
   cx="297.03516"
   cy="527.56641"
   r="9.8066406"
   style="fill:#ff0000"
   id="circle5266" /> 
			<path
   d="M 250.92969,473.50781 C 250.92969,478.92188 255.31836,483.31104 260.72949,483.31104 C 266.14648,483.31104 270.53613,478.92188 270.53613,473.50781 C 270.53613,468.09229 266.14648,463.70312 260.72949,463.70312 C 255.31836,463.70312 250.92969,468.09229 250.92969,473.50781 z "
   style="fill:#ff0000"
   id="path5268" />
			<path
   d="M 278.22363,480.39844 C 278.22363,485.8125 282.6123,490.20166 288.02344,490.20166 C 293.44043,490.20166 297.83008,485.8125 297.83008,480.39844 C 297.83008,474.98291 293.44043,470.59375 288.02344,470.59375 C 282.6123,470.59375 278.22363,474.98291 278.22363,480.39844 z "
   style="fill:#ff0000"
   id="path5270" />
			<path
   d="M 224.43066,480.66406 C 224.43066,486.07813 228.81836,490.46729 234.23535,490.46729 C 239.64648,490.46729 244.03613,486.07813 244.03613,480.66406 C 244.03613,475.24854 239.64648,470.85889 234.23535,470.85889 C 228.81836,470.85889 224.43066,475.24854 224.43066,480.66406 z "
   style="fill:#ff0000"
   id="path5272" />
			<path
   d="M 333.33984,403.02246 C 333.33984,408.43652 337.72949,412.82617 343.14063,412.82617 C 348.55762,412.82617 352.94727,408.43652 352.94727,403.02246 C 352.94727,397.60742 348.55762,393.21777 343.14063,393.21777 C 337.72949,393.21777 333.33984,397.60742 333.33984,403.02246 z "
   style="fill:#ff0000"
   id="path5274" />
			<path
   d="M 340.49512,375.46484 C 340.49512,380.87891 344.88379,385.26855 350.29492,385.26855 C 355.71191,385.26855 360.09961,380.87891 360.09961,375.46484 C 360.09961,370.04932 355.71191,365.66016 350.29492,365.66016 C 344.88379,365.66016 340.49512,370.04932 340.49512,375.46484 z "
   style="fill:#ff0000"
   id="path5276" />
			<path
   d="M 333.33984,349.23145 C 333.33984,354.64551 337.72949,359.03516 343.14063,359.03516 C 348.55762,359.03516 352.94727,354.64551 352.94727,349.23145 C 352.94727,343.81592 348.55762,339.42676 343.14063,339.42676 C 337.72949,339.42676 333.33984,343.81592 333.33984,349.23145 z "
   style="fill:#ff0000"
   id="path5278" />
			<circle
   cx="297.03516"
   cy="342.07715"
   r="9.8066406"
   style="fill:#ff0000"
   id="circle5280" /> 
			<path
   d="M 250.92969,288.01904 C 250.92969,293.43311 255.31836,297.82227 260.72949,297.82227 C 266.14648,297.82227 270.53613,293.43311 270.53613,288.01904 C 270.53613,282.60352 266.14648,278.21387 260.72949,278.21387 C 255.31836,278.21387 250.92969,282.60352 250.92969,288.01904 z "
   style="fill:#ff0000"
   id="path5282" />
			<path
   d="M 278.22363,294.90967 C 278.22363,300.32324 282.6123,304.71289 288.02344,304.71289 C 293.44043,304.71289 297.83008,300.32324 297.83008,294.90967 C 297.83008,289.49414 293.44043,285.10449 288.02344,285.10449 C 282.6123,285.10449 278.22363,289.49414 278.22363,294.90967 z "
   style="fill:#ff0000"
   id="path5284" />
			<path
   d="M 224.43066,295.1748 C 224.43066,300.58887 228.81836,304.97852 234.23535,304.97852 C 239.64648,304.97852 244.03613,300.58887 244.03613,295.1748 C 244.03613,289.75928 239.64648,285.37012 234.23535,285.37012 C 228.81836,285.37012 224.43066,289.75928 224.43066,295.1748 z "
   style="fill:#ff0000"
   id="path5286" />
			<path
   d="M 333.33984,215.96729 C 333.33984,221.38135 337.72949,225.77051 343.14063,225.77051 C 348.55762,225.77051 352.94727,221.38135 352.94727,215.96729 C 352.94727,210.55176 348.55762,206.16211 343.14063,206.16211 C 337.72949,206.16211 333.33984,210.55176 333.33984,215.96729 z "
   style="fill:#ff0000"
   id="path5288" />
			<path
   d="M 340.49512,188.40918 C 340.49512,193.82324 344.88379,198.21289 350.29492,198.21289 C 355.71191,198.21289 360.09961,193.82324 360.09961,188.40918 C 360.09961,182.99414 355.71191,178.60449 350.29492,178.60449 C 344.88379,178.60449 340.49512,182.99414 340.49512,188.40918 z "
   style="fill:#ff0000"
   id="path5290" />
			<path
   d="M 333.33984,162.17627 C 333.33984,167.58984 337.72949,171.97949 343.14063,171.97949 C 348.55762,171.97949 352.94727,167.58984 352.94727,162.17627 C 352.94727,156.76074 348.55762,152.37109 343.14063,152.37109 C 337.72949,152.37109 333.33984,156.76074 333.33984,162.17627 z "
   style="fill:#ff0000"
   id="path5292" />
			<circle
   cx="297.03516"
   cy="155.02148"
   r="9.8066406"
   style="fill:#ff0000"
   id="circle5294" /> 
			<path
   d="M 250.92969,100.96338 C 250.92969,106.37744 255.31836,110.7666 260.72949,110.7666 C 266.14648,110.7666 270.53613,106.37744 270.53613,100.96338 C 270.53613,95.547852 266.14648,91.158203 260.72949,91.158203 C 255.31836,91.158203 250.92969,95.547852 250.92969,100.96338 z "
   style="fill:#ff0000"
   id="path5296" />
			<path
   d="M 278.22363,107.854 C 278.22363,113.26807 282.6123,117.65723 288.02344,117.65723 C 293.44043,117.65723 297.83008,113.26807 297.83008,107.854 C 297.83008,102.43848 293.44043,98.048828 288.02344,98.048828 C 282.6123,98.048828 278.22363,102.43848 278.22363,107.854 z "
   style="fill:#ff0000"
   id="path5298" />
			<path
   d="M 224.43066,108.11963 C 224.43066,113.53369 228.81836,117.92285 234.23535,117.92285 C 239.64648,117.92285 244.03613,113.53369 244.03613,108.11963 C 244.03613,102.7041 239.64648,98.314453 234.23535,98.314453 C 228.81836,98.314453 224.43066,102.7041 224.43066,108.11963 z "
   style="fill:#ff0000"
   id="path5300" />
			<path
   d="M 164.80957,57.640625 C 164.80957,65.908203 171.51074,72.610352 179.7832,72.610352 C 188.04492,72.610352 194.74707,65.908203 194.74707,57.640625 C 194.74707,49.370605 188.04492,42.667969 179.7832,42.667969 C 171.51074,42.667969 164.80957,49.370605 164.80957,57.640625 z "
   style="fill:#ff0000"
   id="path5302" />
		</g>
	</svg>